%TF.GenerationSoftware,KiCad,Pcbnew,(6.0.1)*%
%TF.CreationDate,2022-06-22T14:46:01-03:00*%
%TF.ProjectId,A20-OLinuXino-Lime_Rev_I1,4132302d-4f4c-4696-9e75-58696e6f2d4c,rev?*%
%TF.SameCoordinates,Original*%
%TF.FileFunction,Paste,Top*%
%TF.FilePolarity,Positive*%
%FSLAX46Y46*%
G04 Gerber Fmt 4.6, Leading zero omitted, Abs format (unit mm)*
G04 Created by KiCad (PCBNEW (6.0.1)) date 2022-06-22 14:46:01*
%MOMM*%
%LPD*%
G01*
G04 APERTURE LIST*
%ADD10C,0.220000*%
%ADD11C,0.320000*%
%ADD12C,0.200000*%
%ADD13R,0.609600X0.584200*%
%ADD14R,0.584200X0.609600*%
%ADD15R,1.524000X1.270000*%
%ADD16R,1.016000X1.016000*%
%ADD17R,1.200000X0.550000*%
%ADD18R,3.000000X1.600000*%
%ADD19R,0.800000X0.800000*%
%ADD20R,0.775000X0.300000*%
%ADD21R,2.250000X0.500000*%
%ADD22R,2.200000X0.900000*%
%ADD23R,1.800000X1.400000*%
%ADD24R,1.778000X2.286000*%
%ADD25R,2.100000X2.400000*%
%ADD26R,1.000000X1.400000*%
%ADD27R,0.550000X1.200000*%
G04 APERTURE END LIST*
%TO.C,LCD_CON*%
G36*
X144436100Y-77161600D02*
G01*
X143536100Y-77161600D01*
X143536100Y-75361600D01*
X144436100Y-75361600D01*
X144436100Y-77161600D01*
G37*
G36*
X164756100Y-81225600D02*
G01*
X163856100Y-81225600D01*
X163856100Y-79425600D01*
X164756100Y-79425600D01*
X164756100Y-81225600D01*
G37*
G36*
X144436100Y-81225600D02*
G01*
X143536100Y-81225600D01*
X143536100Y-79425600D01*
X144436100Y-79425600D01*
X144436100Y-81225600D01*
G37*
G36*
X164756100Y-77161600D02*
G01*
X163856100Y-77161600D01*
X163856100Y-75361600D01*
X164756100Y-75361600D01*
X164756100Y-77161600D01*
G37*
G36*
X157136100Y-81225600D02*
G01*
X156236100Y-81225600D01*
X156236100Y-79425600D01*
X157136100Y-79425600D01*
X157136100Y-81225600D01*
G37*
G36*
X162216100Y-77161600D02*
G01*
X161316100Y-77161600D01*
X161316100Y-75361600D01*
X162216100Y-75361600D01*
X162216100Y-77161600D01*
G37*
G36*
X163486100Y-77161600D02*
G01*
X162586100Y-77161600D01*
X162586100Y-75361600D01*
X163486100Y-75361600D01*
X163486100Y-77161600D01*
G37*
G36*
X146976100Y-77161600D02*
G01*
X146076100Y-77161600D01*
X146076100Y-75361600D01*
X146976100Y-75361600D01*
X146976100Y-77161600D01*
G37*
G36*
X155866100Y-81225600D02*
G01*
X154966100Y-81225600D01*
X154966100Y-79425600D01*
X155866100Y-79425600D01*
X155866100Y-81225600D01*
G37*
G36*
X162216100Y-81225600D02*
G01*
X161316100Y-81225600D01*
X161316100Y-79425600D01*
X162216100Y-79425600D01*
X162216100Y-81225600D01*
G37*
G36*
X154596100Y-81225600D02*
G01*
X153696100Y-81225600D01*
X153696100Y-79425600D01*
X154596100Y-79425600D01*
X154596100Y-81225600D01*
G37*
G36*
X160946100Y-77161600D02*
G01*
X160046100Y-77161600D01*
X160046100Y-75361600D01*
X160946100Y-75361600D01*
X160946100Y-77161600D01*
G37*
G36*
X152056100Y-81225600D02*
G01*
X151156100Y-81225600D01*
X151156100Y-79425600D01*
X152056100Y-79425600D01*
X152056100Y-81225600D01*
G37*
G36*
X155866100Y-77161600D02*
G01*
X154966100Y-77161600D01*
X154966100Y-75361600D01*
X155866100Y-75361600D01*
X155866100Y-77161600D01*
G37*
G36*
X160946100Y-81225600D02*
G01*
X160046100Y-81225600D01*
X160046100Y-79425600D01*
X160946100Y-79425600D01*
X160946100Y-81225600D01*
G37*
G36*
X153326100Y-77161600D02*
G01*
X152426100Y-77161600D01*
X152426100Y-75361600D01*
X153326100Y-75361600D01*
X153326100Y-77161600D01*
G37*
G36*
X141896100Y-81225600D02*
G01*
X140996100Y-81225600D01*
X140996100Y-79425600D01*
X141896100Y-79425600D01*
X141896100Y-81225600D01*
G37*
G36*
X154596100Y-77161600D02*
G01*
X153696100Y-77161600D01*
X153696100Y-75361600D01*
X154596100Y-75361600D01*
X154596100Y-77161600D01*
G37*
G36*
X149516100Y-81225600D02*
G01*
X148616100Y-81225600D01*
X148616100Y-79425600D01*
X149516100Y-79425600D01*
X149516100Y-81225600D01*
G37*
G36*
X141896100Y-77161600D02*
G01*
X140996100Y-77161600D01*
X140996100Y-75361600D01*
X141896100Y-75361600D01*
X141896100Y-77161600D01*
G37*
G36*
X159676100Y-77161600D02*
G01*
X158776100Y-77161600D01*
X158776100Y-75361600D01*
X159676100Y-75361600D01*
X159676100Y-77161600D01*
G37*
G36*
X146976100Y-81225600D02*
G01*
X146076100Y-81225600D01*
X146076100Y-79425600D01*
X146976100Y-79425600D01*
X146976100Y-81225600D01*
G37*
G36*
X148246100Y-77161600D02*
G01*
X147346100Y-77161600D01*
X147346100Y-75361600D01*
X148246100Y-75361600D01*
X148246100Y-77161600D01*
G37*
G36*
X149516100Y-77161600D02*
G01*
X148616100Y-77161600D01*
X148616100Y-75361600D01*
X149516100Y-75361600D01*
X149516100Y-77161600D01*
G37*
G36*
X150786100Y-81225600D02*
G01*
X149886100Y-81225600D01*
X149886100Y-79425600D01*
X150786100Y-79425600D01*
X150786100Y-81225600D01*
G37*
G36*
X158406100Y-81225600D02*
G01*
X157506100Y-81225600D01*
X157506100Y-79425600D01*
X158406100Y-79425600D01*
X158406100Y-81225600D01*
G37*
G36*
X143166100Y-77161600D02*
G01*
X142266100Y-77161600D01*
X142266100Y-75361600D01*
X143166100Y-75361600D01*
X143166100Y-77161600D01*
G37*
G36*
X145706100Y-77161600D02*
G01*
X144806100Y-77161600D01*
X144806100Y-75361600D01*
X145706100Y-75361600D01*
X145706100Y-77161600D01*
G37*
G36*
X143166100Y-81225600D02*
G01*
X142266100Y-81225600D01*
X142266100Y-79425600D01*
X143166100Y-79425600D01*
X143166100Y-81225600D01*
G37*
G36*
X148246100Y-81225600D02*
G01*
X147346100Y-81225600D01*
X147346100Y-79425600D01*
X148246100Y-79425600D01*
X148246100Y-81225600D01*
G37*
G36*
X152056100Y-77161600D02*
G01*
X151156100Y-77161600D01*
X151156100Y-75361600D01*
X152056100Y-75361600D01*
X152056100Y-77161600D01*
G37*
G36*
X159676100Y-81225600D02*
G01*
X158776100Y-81225600D01*
X158776100Y-79425600D01*
X159676100Y-79425600D01*
X159676100Y-81225600D01*
G37*
G36*
X150786100Y-77161600D02*
G01*
X149886100Y-77161600D01*
X149886100Y-75361600D01*
X150786100Y-75361600D01*
X150786100Y-77161600D01*
G37*
G36*
X145706100Y-81225600D02*
G01*
X144806100Y-81225600D01*
X144806100Y-79425600D01*
X145706100Y-79425600D01*
X145706100Y-81225600D01*
G37*
G36*
X153326100Y-81225600D02*
G01*
X152426100Y-81225600D01*
X152426100Y-79425600D01*
X153326100Y-79425600D01*
X153326100Y-81225600D01*
G37*
G36*
X140626100Y-81225600D02*
G01*
X139726100Y-81225600D01*
X139726100Y-79425600D01*
X140626100Y-79425600D01*
X140626100Y-81225600D01*
G37*
G36*
X158406100Y-77161600D02*
G01*
X157506100Y-77161600D01*
X157506100Y-75361600D01*
X158406100Y-75361600D01*
X158406100Y-77161600D01*
G37*
G36*
X157136100Y-77161600D02*
G01*
X156236100Y-77161600D01*
X156236100Y-75361600D01*
X157136100Y-75361600D01*
X157136100Y-77161600D01*
G37*
G36*
X140626100Y-77161600D02*
G01*
X139726100Y-77161600D01*
X139726100Y-75361600D01*
X140626100Y-75361600D01*
X140626100Y-77161600D01*
G37*
G36*
X163486100Y-81225600D02*
G01*
X162586100Y-81225600D01*
X162586100Y-79425600D01*
X163486100Y-79425600D01*
X163486100Y-81225600D01*
G37*
D10*
%TO.C,U1*%
X161041100Y-108915600D02*
G75*
G03*
X161041100Y-108915600I-100000J0D01*
G01*
X165041100Y-106515600D02*
G75*
G03*
X165041100Y-106515600I-100000J0D01*
G01*
X166641100Y-106515600D02*
G75*
G03*
X166641100Y-106515600I-100000J0D01*
G01*
X161041100Y-100115600D02*
G75*
G03*
X161041100Y-100115600I-100000J0D01*
G01*
X166641100Y-105715600D02*
G75*
G03*
X166641100Y-105715600I-100000J0D01*
G01*
X161041100Y-101715600D02*
G75*
G03*
X161041100Y-101715600I-100000J0D01*
G01*
X165041100Y-100915600D02*
G75*
G03*
X165041100Y-100915600I-100000J0D01*
G01*
X160241100Y-109715600D02*
G75*
G03*
X160241100Y-109715600I-100000J0D01*
G01*
X166641100Y-109715600D02*
G75*
G03*
X166641100Y-109715600I-100000J0D01*
G01*
X165841100Y-98515600D02*
G75*
G03*
X165841100Y-98515600I-100000J0D01*
G01*
X161841100Y-102515600D02*
G75*
G03*
X161841100Y-102515600I-100000J0D01*
G01*
X160241100Y-104915600D02*
G75*
G03*
X160241100Y-104915600I-100000J0D01*
G01*
X161041100Y-103315600D02*
G75*
G03*
X161041100Y-103315600I-100000J0D01*
G01*
X161041100Y-104915600D02*
G75*
G03*
X161041100Y-104915600I-100000J0D01*
G01*
X161841100Y-101715600D02*
G75*
G03*
X161841100Y-101715600I-100000J0D01*
G01*
X165041100Y-109715600D02*
G75*
G03*
X165041100Y-109715600I-100000J0D01*
G01*
X165841100Y-102515600D02*
G75*
G03*
X165841100Y-102515600I-100000J0D01*
G01*
X166641100Y-102515600D02*
G75*
G03*
X166641100Y-102515600I-100000J0D01*
G01*
X161041100Y-100915600D02*
G75*
G03*
X161041100Y-100915600I-100000J0D01*
G01*
X161841100Y-105715600D02*
G75*
G03*
X161841100Y-105715600I-100000J0D01*
G01*
X160241100Y-103315600D02*
G75*
G03*
X160241100Y-103315600I-100000J0D01*
G01*
X161841100Y-107315600D02*
G75*
G03*
X161841100Y-107315600I-100000J0D01*
G01*
X161041100Y-97715600D02*
G75*
G03*
X161041100Y-97715600I-100000J0D01*
G01*
X165041100Y-97715600D02*
G75*
G03*
X165041100Y-97715600I-100000J0D01*
G01*
X166641100Y-103315600D02*
G75*
G03*
X166641100Y-103315600I-100000J0D01*
G01*
X161841100Y-97715600D02*
G75*
G03*
X161841100Y-97715600I-100000J0D01*
G01*
X165841100Y-107315600D02*
G75*
G03*
X165841100Y-107315600I-100000J0D01*
G01*
X165841100Y-109715600D02*
G75*
G03*
X165841100Y-109715600I-100000J0D01*
G01*
X161041100Y-109715600D02*
G75*
G03*
X161041100Y-109715600I-100000J0D01*
G01*
X166641100Y-107315600D02*
G75*
G03*
X166641100Y-107315600I-100000J0D01*
G01*
X160241100Y-107315600D02*
G75*
G03*
X160241100Y-107315600I-100000J0D01*
G01*
X161041100Y-106515600D02*
G75*
G03*
X161041100Y-106515600I-100000J0D01*
G01*
X161041100Y-102515600D02*
G75*
G03*
X161041100Y-102515600I-100000J0D01*
G01*
X166641100Y-97715600D02*
G75*
G03*
X166641100Y-97715600I-100000J0D01*
G01*
X161841100Y-100115600D02*
G75*
G03*
X161841100Y-100115600I-100000J0D01*
G01*
X165841100Y-99315600D02*
G75*
G03*
X165841100Y-99315600I-100000J0D01*
G01*
X166641100Y-99315600D02*
G75*
G03*
X166641100Y-99315600I-100000J0D01*
G01*
X161041100Y-98515600D02*
G75*
G03*
X161041100Y-98515600I-100000J0D01*
G01*
X161841100Y-108915600D02*
G75*
G03*
X161841100Y-108915600I-100000J0D01*
G01*
X166641100Y-108115600D02*
G75*
G03*
X166641100Y-108115600I-100000J0D01*
G01*
X161041100Y-99315600D02*
G75*
G03*
X161041100Y-99315600I-100000J0D01*
G01*
X165041100Y-104915600D02*
G75*
G03*
X165041100Y-104915600I-100000J0D01*
G01*
X160241100Y-100115600D02*
G75*
G03*
X160241100Y-100115600I-100000J0D01*
G01*
X166641100Y-108915600D02*
G75*
G03*
X166641100Y-108915600I-100000J0D01*
G01*
X165841100Y-105715600D02*
G75*
G03*
X165841100Y-105715600I-100000J0D01*
G01*
X166641100Y-100915600D02*
G75*
G03*
X166641100Y-100915600I-100000J0D01*
G01*
X166641100Y-104915600D02*
G75*
G03*
X166641100Y-104915600I-100000J0D01*
G01*
X165841100Y-100915600D02*
G75*
G03*
X165841100Y-100915600I-100000J0D01*
G01*
X166641100Y-101715600D02*
G75*
G03*
X166641100Y-101715600I-100000J0D01*
G01*
X166641100Y-98515600D02*
G75*
G03*
X166641100Y-98515600I-100000J0D01*
G01*
X165041100Y-104115600D02*
G75*
G03*
X165041100Y-104115600I-100000J0D01*
G01*
X166641100Y-100115600D02*
G75*
G03*
X166641100Y-100115600I-100000J0D01*
G01*
X165841100Y-97715600D02*
G75*
G03*
X165841100Y-97715600I-100000J0D01*
G01*
X161041100Y-107315600D02*
G75*
G03*
X161041100Y-107315600I-100000J0D01*
G01*
X165841100Y-101715600D02*
G75*
G03*
X165841100Y-101715600I-100000J0D01*
G01*
X161041100Y-108115600D02*
G75*
G03*
X161041100Y-108115600I-100000J0D01*
G01*
X165841100Y-103315600D02*
G75*
G03*
X165841100Y-103315600I-100000J0D01*
G01*
X160241100Y-98515600D02*
G75*
G03*
X160241100Y-98515600I-100000J0D01*
G01*
X160241100Y-102515600D02*
G75*
G03*
X160241100Y-102515600I-100000J0D01*
G01*
X161841100Y-104115600D02*
G75*
G03*
X161841100Y-104115600I-100000J0D01*
G01*
X165841100Y-106515600D02*
G75*
G03*
X165841100Y-106515600I-100000J0D01*
G01*
X165041100Y-98515600D02*
G75*
G03*
X165041100Y-98515600I-100000J0D01*
G01*
X161041100Y-105715600D02*
G75*
G03*
X161041100Y-105715600I-100000J0D01*
G01*
X165041100Y-99315600D02*
G75*
G03*
X165041100Y-99315600I-100000J0D01*
G01*
X165041100Y-107315600D02*
G75*
G03*
X165041100Y-107315600I-100000J0D01*
G01*
X161841100Y-100915600D02*
G75*
G03*
X161841100Y-100915600I-100000J0D01*
G01*
X165041100Y-101715600D02*
G75*
G03*
X165041100Y-101715600I-100000J0D01*
G01*
X161841100Y-99315600D02*
G75*
G03*
X161841100Y-99315600I-100000J0D01*
G01*
X165841100Y-108115600D02*
G75*
G03*
X165841100Y-108115600I-100000J0D01*
G01*
X161841100Y-109715600D02*
G75*
G03*
X161841100Y-109715600I-100000J0D01*
G01*
X165841100Y-108915600D02*
G75*
G03*
X165841100Y-108915600I-100000J0D01*
G01*
X160241100Y-108915600D02*
G75*
G03*
X160241100Y-108915600I-100000J0D01*
G01*
X165041100Y-105715600D02*
G75*
G03*
X165041100Y-105715600I-100000J0D01*
G01*
X161841100Y-108115600D02*
G75*
G03*
X161841100Y-108115600I-100000J0D01*
G01*
X160241100Y-106515600D02*
G75*
G03*
X160241100Y-106515600I-100000J0D01*
G01*
X166641100Y-104115600D02*
G75*
G03*
X166641100Y-104115600I-100000J0D01*
G01*
X161841100Y-98515600D02*
G75*
G03*
X161841100Y-98515600I-100000J0D01*
G01*
X160241100Y-99315600D02*
G75*
G03*
X160241100Y-99315600I-100000J0D01*
G01*
X160241100Y-100915600D02*
G75*
G03*
X160241100Y-100915600I-100000J0D01*
G01*
X161041100Y-104115600D02*
G75*
G03*
X161041100Y-104115600I-100000J0D01*
G01*
X161841100Y-103315600D02*
G75*
G03*
X161841100Y-103315600I-100000J0D01*
G01*
X165041100Y-103315600D02*
G75*
G03*
X165041100Y-103315600I-100000J0D01*
G01*
X165841100Y-104915600D02*
G75*
G03*
X165841100Y-104915600I-100000J0D01*
G01*
X160241100Y-97715600D02*
G75*
G03*
X160241100Y-97715600I-100000J0D01*
G01*
X160241100Y-104115600D02*
G75*
G03*
X160241100Y-104115600I-100000J0D01*
G01*
X165841100Y-104115600D02*
G75*
G03*
X165841100Y-104115600I-100000J0D01*
G01*
X161841100Y-104915600D02*
G75*
G03*
X161841100Y-104915600I-100000J0D01*
G01*
X165041100Y-108915600D02*
G75*
G03*
X165041100Y-108915600I-100000J0D01*
G01*
X160241100Y-108115600D02*
G75*
G03*
X160241100Y-108115600I-100000J0D01*
G01*
X165041100Y-108115600D02*
G75*
G03*
X165041100Y-108115600I-100000J0D01*
G01*
X161841100Y-106515600D02*
G75*
G03*
X161841100Y-106515600I-100000J0D01*
G01*
X160241100Y-101715600D02*
G75*
G03*
X160241100Y-101715600I-100000J0D01*
G01*
X165041100Y-100115600D02*
G75*
G03*
X165041100Y-100115600I-100000J0D01*
G01*
X160241100Y-105715600D02*
G75*
G03*
X160241100Y-105715600I-100000J0D01*
G01*
X165841100Y-100115600D02*
G75*
G03*
X165841100Y-100115600I-100000J0D01*
G01*
X165041100Y-102515600D02*
G75*
G03*
X165041100Y-102515600I-100000J0D01*
G01*
%TO.C,GPIO-2*%
G36*
X143166100Y-128215600D02*
G01*
X142266100Y-128215600D01*
X142266100Y-126415600D01*
X143166100Y-126415600D01*
X143166100Y-128215600D01*
G37*
G36*
X150786100Y-124151600D02*
G01*
X149886100Y-124151600D01*
X149886100Y-122351600D01*
X150786100Y-122351600D01*
X150786100Y-124151600D01*
G37*
G36*
X152056100Y-128215600D02*
G01*
X151156100Y-128215600D01*
X151156100Y-126415600D01*
X152056100Y-126415600D01*
X152056100Y-128215600D01*
G37*
G36*
X157136100Y-124151600D02*
G01*
X156236100Y-124151600D01*
X156236100Y-122351600D01*
X157136100Y-122351600D01*
X157136100Y-124151600D01*
G37*
G36*
X135546100Y-128215600D02*
G01*
X134646100Y-128215600D01*
X134646100Y-126415600D01*
X135546100Y-126415600D01*
X135546100Y-128215600D01*
G37*
G36*
X154596100Y-124151600D02*
G01*
X153696100Y-124151600D01*
X153696100Y-122351600D01*
X154596100Y-122351600D01*
X154596100Y-124151600D01*
G37*
G36*
X155866100Y-128215600D02*
G01*
X154966100Y-128215600D01*
X154966100Y-126415600D01*
X155866100Y-126415600D01*
X155866100Y-128215600D01*
G37*
G36*
X140626100Y-124151600D02*
G01*
X139726100Y-124151600D01*
X139726100Y-122351600D01*
X140626100Y-122351600D01*
X140626100Y-124151600D01*
G37*
G36*
X134276100Y-124151600D02*
G01*
X133376100Y-124151600D01*
X133376100Y-122351600D01*
X134276100Y-122351600D01*
X134276100Y-124151600D01*
G37*
G36*
X146976100Y-124151600D02*
G01*
X146076100Y-124151600D01*
X146076100Y-122351600D01*
X146976100Y-122351600D01*
X146976100Y-124151600D01*
G37*
G36*
X136816100Y-124151600D02*
G01*
X135916100Y-124151600D01*
X135916100Y-122351600D01*
X136816100Y-122351600D01*
X136816100Y-124151600D01*
G37*
G36*
X154596100Y-128215600D02*
G01*
X153696100Y-128215600D01*
X153696100Y-126415600D01*
X154596100Y-126415600D01*
X154596100Y-128215600D01*
G37*
G36*
X145706100Y-124151600D02*
G01*
X144806100Y-124151600D01*
X144806100Y-122351600D01*
X145706100Y-122351600D01*
X145706100Y-124151600D01*
G37*
G36*
X145706100Y-128215600D02*
G01*
X144806100Y-128215600D01*
X144806100Y-126415600D01*
X145706100Y-126415600D01*
X145706100Y-128215600D01*
G37*
G36*
X143166100Y-124151600D02*
G01*
X142266100Y-124151600D01*
X142266100Y-122351600D01*
X143166100Y-122351600D01*
X143166100Y-124151600D01*
G37*
G36*
X144436100Y-124151600D02*
G01*
X143536100Y-124151600D01*
X143536100Y-122351600D01*
X144436100Y-122351600D01*
X144436100Y-124151600D01*
G37*
G36*
X157136100Y-128215600D02*
G01*
X156236100Y-128215600D01*
X156236100Y-126415600D01*
X157136100Y-126415600D01*
X157136100Y-128215600D01*
G37*
G36*
X135546100Y-124151600D02*
G01*
X134646100Y-124151600D01*
X134646100Y-122351600D01*
X135546100Y-122351600D01*
X135546100Y-124151600D01*
G37*
G36*
X152056100Y-124151600D02*
G01*
X151156100Y-124151600D01*
X151156100Y-122351600D01*
X152056100Y-122351600D01*
X152056100Y-124151600D01*
G37*
G36*
X149516100Y-124151600D02*
G01*
X148616100Y-124151600D01*
X148616100Y-122351600D01*
X149516100Y-122351600D01*
X149516100Y-124151600D01*
G37*
G36*
X148246100Y-128215600D02*
G01*
X147346100Y-128215600D01*
X147346100Y-126415600D01*
X148246100Y-126415600D01*
X148246100Y-128215600D01*
G37*
G36*
X134276100Y-128215600D02*
G01*
X133376100Y-128215600D01*
X133376100Y-126415600D01*
X134276100Y-126415600D01*
X134276100Y-128215600D01*
G37*
G36*
X141896100Y-128215600D02*
G01*
X140996100Y-128215600D01*
X140996100Y-126415600D01*
X141896100Y-126415600D01*
X141896100Y-128215600D01*
G37*
G36*
X146976100Y-128215600D02*
G01*
X146076100Y-128215600D01*
X146076100Y-126415600D01*
X146976100Y-126415600D01*
X146976100Y-128215600D01*
G37*
G36*
X149516100Y-128215600D02*
G01*
X148616100Y-128215600D01*
X148616100Y-126415600D01*
X149516100Y-126415600D01*
X149516100Y-128215600D01*
G37*
G36*
X144436100Y-128215600D02*
G01*
X143536100Y-128215600D01*
X143536100Y-126415600D01*
X144436100Y-126415600D01*
X144436100Y-128215600D01*
G37*
G36*
X138086100Y-124151600D02*
G01*
X137186100Y-124151600D01*
X137186100Y-122351600D01*
X138086100Y-122351600D01*
X138086100Y-124151600D01*
G37*
G36*
X153326100Y-128215600D02*
G01*
X152426100Y-128215600D01*
X152426100Y-126415600D01*
X153326100Y-126415600D01*
X153326100Y-128215600D01*
G37*
G36*
X153326100Y-124151600D02*
G01*
X152426100Y-124151600D01*
X152426100Y-122351600D01*
X153326100Y-122351600D01*
X153326100Y-124151600D01*
G37*
G36*
X148246100Y-124151600D02*
G01*
X147346100Y-124151600D01*
X147346100Y-122351600D01*
X148246100Y-122351600D01*
X148246100Y-124151600D01*
G37*
G36*
X136816100Y-128215600D02*
G01*
X135916100Y-128215600D01*
X135916100Y-126415600D01*
X136816100Y-126415600D01*
X136816100Y-128215600D01*
G37*
G36*
X155866100Y-124151600D02*
G01*
X154966100Y-124151600D01*
X154966100Y-122351600D01*
X155866100Y-122351600D01*
X155866100Y-124151600D01*
G37*
G36*
X133006100Y-128215600D02*
G01*
X132106100Y-128215600D01*
X132106100Y-126415600D01*
X133006100Y-126415600D01*
X133006100Y-128215600D01*
G37*
G36*
X139356100Y-124151600D02*
G01*
X138456100Y-124151600D01*
X138456100Y-122351600D01*
X139356100Y-122351600D01*
X139356100Y-124151600D01*
G37*
G36*
X139356100Y-128215600D02*
G01*
X138456100Y-128215600D01*
X138456100Y-126415600D01*
X139356100Y-126415600D01*
X139356100Y-128215600D01*
G37*
G36*
X133006100Y-124151600D02*
G01*
X132106100Y-124151600D01*
X132106100Y-122351600D01*
X133006100Y-122351600D01*
X133006100Y-124151600D01*
G37*
G36*
X138086100Y-128215600D02*
G01*
X137186100Y-128215600D01*
X137186100Y-126415600D01*
X138086100Y-126415600D01*
X138086100Y-128215600D01*
G37*
G36*
X141896100Y-124151600D02*
G01*
X140996100Y-124151600D01*
X140996100Y-122351600D01*
X141896100Y-122351600D01*
X141896100Y-124151600D01*
G37*
G36*
X150786100Y-128215600D02*
G01*
X149886100Y-128215600D01*
X149886100Y-126415600D01*
X150786100Y-126415600D01*
X150786100Y-128215600D01*
G37*
G36*
X140626100Y-128215600D02*
G01*
X139726100Y-128215600D01*
X139726100Y-126415600D01*
X140626100Y-126415600D01*
X140626100Y-128215600D01*
G37*
D11*
%TO.C,U7*%
X146491100Y-114515600D02*
G75*
G03*
X146491100Y-114515600I-50000J0D01*
G01*
X140891100Y-115315600D02*
G75*
G03*
X140891100Y-115315600I-50000J0D01*
G01*
X145691100Y-104915600D02*
G75*
G03*
X145691100Y-104915600I-50000J0D01*
G01*
X149691100Y-103315600D02*
G75*
G03*
X149691100Y-103315600I-50000J0D01*
G01*
X147291100Y-106515600D02*
G75*
G03*
X147291100Y-106515600I-50000J0D01*
G01*
X150491100Y-99315600D02*
G75*
G03*
X150491100Y-99315600I-50000J0D01*
G01*
X140891100Y-102515600D02*
G75*
G03*
X140891100Y-102515600I-50000J0D01*
G01*
X148891100Y-108915600D02*
G75*
G03*
X148891100Y-108915600I-50000J0D01*
G01*
X145691100Y-113715600D02*
G75*
G03*
X145691100Y-113715600I-50000J0D01*
G01*
X148091100Y-115315600D02*
G75*
G03*
X148091100Y-115315600I-50000J0D01*
G01*
X147291100Y-103315600D02*
G75*
G03*
X147291100Y-103315600I-50000J0D01*
G01*
X148091100Y-109715600D02*
G75*
G03*
X148091100Y-109715600I-50000J0D01*
G01*
X147291100Y-99315600D02*
G75*
G03*
X147291100Y-99315600I-50000J0D01*
G01*
X140891100Y-114515600D02*
G75*
G03*
X140891100Y-114515600I-50000J0D01*
G01*
X152891100Y-114515600D02*
G75*
G03*
X152891100Y-114515600I-50000J0D01*
G01*
X140091100Y-109715600D02*
G75*
G03*
X140091100Y-109715600I-50000J0D01*
G01*
X138491100Y-111315600D02*
G75*
G03*
X138491100Y-111315600I-50000J0D01*
G01*
X139291100Y-111315600D02*
G75*
G03*
X139291100Y-111315600I-50000J0D01*
G01*
X139291100Y-112915600D02*
G75*
G03*
X139291100Y-112915600I-50000J0D01*
G01*
X140091100Y-102515600D02*
G75*
G03*
X140091100Y-102515600I-50000J0D01*
G01*
X137691100Y-101715600D02*
G75*
G03*
X137691100Y-101715600I-50000J0D01*
G01*
X140091100Y-114515600D02*
G75*
G03*
X140091100Y-114515600I-50000J0D01*
G01*
X155291100Y-109715600D02*
G75*
G03*
X155291100Y-109715600I-50000J0D01*
G01*
X148091100Y-97715600D02*
G75*
G03*
X148091100Y-97715600I-50000J0D01*
G01*
X150491100Y-112115600D02*
G75*
G03*
X150491100Y-112115600I-50000J0D01*
G01*
X144091100Y-107315600D02*
G75*
G03*
X144091100Y-107315600I-50000J0D01*
G01*
X140091100Y-108915600D02*
G75*
G03*
X140091100Y-108915600I-50000J0D01*
G01*
X151291100Y-100115600D02*
G75*
G03*
X151291100Y-100115600I-50000J0D01*
G01*
X153691100Y-113715600D02*
G75*
G03*
X153691100Y-113715600I-50000J0D01*
G01*
X154491100Y-100115600D02*
G75*
G03*
X154491100Y-100115600I-50000J0D01*
G01*
X152091100Y-107315600D02*
G75*
G03*
X152091100Y-107315600I-50000J0D01*
G01*
X149691100Y-108115600D02*
G75*
G03*
X149691100Y-108115600I-50000J0D01*
G01*
X139291100Y-100115600D02*
G75*
G03*
X139291100Y-100115600I-50000J0D01*
G01*
X146491100Y-115315600D02*
G75*
G03*
X146491100Y-115315600I-50000J0D01*
G01*
X144091100Y-105715600D02*
G75*
G03*
X144091100Y-105715600I-50000J0D01*
G01*
X137691100Y-110515600D02*
G75*
G03*
X137691100Y-110515600I-50000J0D01*
G01*
X147291100Y-104115600D02*
G75*
G03*
X147291100Y-104115600I-50000J0D01*
G01*
X155291100Y-110515600D02*
G75*
G03*
X155291100Y-110515600I-50000J0D01*
G01*
X155291100Y-103315600D02*
G75*
G03*
X155291100Y-103315600I-50000J0D01*
G01*
X144091100Y-100915600D02*
G75*
G03*
X144091100Y-100915600I-50000J0D01*
G01*
X137691100Y-112115600D02*
G75*
G03*
X137691100Y-112115600I-50000J0D01*
G01*
X146491100Y-97715600D02*
G75*
G03*
X146491100Y-97715600I-50000J0D01*
G01*
X146491100Y-109715600D02*
G75*
G03*
X146491100Y-109715600I-50000J0D01*
G01*
X144891100Y-108915600D02*
G75*
G03*
X144891100Y-108915600I-50000J0D01*
G01*
X141691100Y-99315600D02*
G75*
G03*
X141691100Y-99315600I-50000J0D01*
G01*
X142491100Y-98515600D02*
G75*
G03*
X142491100Y-98515600I-50000J0D01*
G01*
X149691100Y-112115600D02*
G75*
G03*
X149691100Y-112115600I-50000J0D01*
G01*
X149691100Y-104115600D02*
G75*
G03*
X149691100Y-104115600I-50000J0D01*
G01*
X152891100Y-113715600D02*
G75*
G03*
X152891100Y-113715600I-50000J0D01*
G01*
X148091100Y-104115600D02*
G75*
G03*
X148091100Y-104115600I-50000J0D01*
G01*
X153691100Y-110515600D02*
G75*
G03*
X153691100Y-110515600I-50000J0D01*
G01*
X137691100Y-108915600D02*
G75*
G03*
X137691100Y-108915600I-50000J0D01*
G01*
X143291100Y-105715600D02*
G75*
G03*
X143291100Y-105715600I-50000J0D01*
G01*
X154491100Y-102515600D02*
G75*
G03*
X154491100Y-102515600I-50000J0D01*
G01*
X145691100Y-100915600D02*
G75*
G03*
X145691100Y-100915600I-50000J0D01*
G01*
X140891100Y-104915600D02*
G75*
G03*
X140891100Y-104915600I-50000J0D01*
G01*
X140091100Y-98515600D02*
G75*
G03*
X140091100Y-98515600I-50000J0D01*
G01*
X148091100Y-112915600D02*
G75*
G03*
X148091100Y-112915600I-50000J0D01*
G01*
X152891100Y-104115600D02*
G75*
G03*
X152891100Y-104115600I-50000J0D01*
G01*
X138491100Y-108115600D02*
G75*
G03*
X138491100Y-108115600I-50000J0D01*
G01*
X140091100Y-115315600D02*
G75*
G03*
X140091100Y-115315600I-50000J0D01*
G01*
X150491100Y-114515600D02*
G75*
G03*
X150491100Y-114515600I-50000J0D01*
G01*
X141691100Y-100115600D02*
G75*
G03*
X141691100Y-100115600I-50000J0D01*
G01*
X144091100Y-115315600D02*
G75*
G03*
X144091100Y-115315600I-50000J0D01*
G01*
X145691100Y-103315600D02*
G75*
G03*
X145691100Y-103315600I-50000J0D01*
G01*
X151291100Y-115315600D02*
G75*
G03*
X151291100Y-115315600I-50000J0D01*
G01*
X153691100Y-114515600D02*
G75*
G03*
X153691100Y-114515600I-50000J0D01*
G01*
X139291100Y-107315600D02*
G75*
G03*
X139291100Y-107315600I-50000J0D01*
G01*
X137691100Y-114515600D02*
G75*
G03*
X137691100Y-114515600I-50000J0D01*
G01*
X151291100Y-97715600D02*
G75*
G03*
X151291100Y-97715600I-50000J0D01*
G01*
X141691100Y-97715600D02*
G75*
G03*
X141691100Y-97715600I-50000J0D01*
G01*
X147291100Y-105715600D02*
G75*
G03*
X147291100Y-105715600I-50000J0D01*
G01*
X152091100Y-111315600D02*
G75*
G03*
X152091100Y-111315600I-50000J0D01*
G01*
X144091100Y-113715600D02*
G75*
G03*
X144091100Y-113715600I-50000J0D01*
G01*
X146491100Y-100115600D02*
G75*
G03*
X146491100Y-100115600I-50000J0D01*
G01*
X144091100Y-103315600D02*
G75*
G03*
X144091100Y-103315600I-50000J0D01*
G01*
X142491100Y-97715600D02*
G75*
G03*
X142491100Y-97715600I-50000J0D01*
G01*
X154491100Y-98515600D02*
G75*
G03*
X154491100Y-98515600I-50000J0D01*
G01*
X148891100Y-105715600D02*
G75*
G03*
X148891100Y-105715600I-50000J0D01*
G01*
X148091100Y-106515600D02*
G75*
G03*
X148091100Y-106515600I-50000J0D01*
G01*
X153691100Y-105715600D02*
G75*
G03*
X153691100Y-105715600I-50000J0D01*
G01*
X148891100Y-114515600D02*
G75*
G03*
X148891100Y-114515600I-50000J0D01*
G01*
X153691100Y-109715600D02*
G75*
G03*
X153691100Y-109715600I-50000J0D01*
G01*
X145691100Y-115315600D02*
G75*
G03*
X145691100Y-115315600I-50000J0D01*
G01*
X149691100Y-115315600D02*
G75*
G03*
X149691100Y-115315600I-50000J0D01*
G01*
X152091100Y-98515600D02*
G75*
G03*
X152091100Y-98515600I-50000J0D01*
G01*
X151291100Y-112915600D02*
G75*
G03*
X151291100Y-112915600I-50000J0D01*
G01*
X147291100Y-109715600D02*
G75*
G03*
X147291100Y-109715600I-50000J0D01*
G01*
X141691100Y-115315600D02*
G75*
G03*
X141691100Y-115315600I-50000J0D01*
G01*
X144891100Y-105715600D02*
G75*
G03*
X144891100Y-105715600I-50000J0D01*
G01*
X148091100Y-108115600D02*
G75*
G03*
X148091100Y-108115600I-50000J0D01*
G01*
X140091100Y-106515600D02*
G75*
G03*
X140091100Y-106515600I-50000J0D01*
G01*
X145691100Y-114515600D02*
G75*
G03*
X145691100Y-114515600I-50000J0D01*
G01*
X139291100Y-112115600D02*
G75*
G03*
X139291100Y-112115600I-50000J0D01*
G01*
X140091100Y-112115600D02*
G75*
G03*
X140091100Y-112115600I-50000J0D01*
G01*
X143291100Y-100915600D02*
G75*
G03*
X143291100Y-100915600I-50000J0D01*
G01*
X151291100Y-113715600D02*
G75*
G03*
X151291100Y-113715600I-50000J0D01*
G01*
X152091100Y-115315600D02*
G75*
G03*
X152091100Y-115315600I-50000J0D01*
G01*
X148091100Y-114515600D02*
G75*
G03*
X148091100Y-114515600I-50000J0D01*
G01*
X140891100Y-113715600D02*
G75*
G03*
X140891100Y-113715600I-50000J0D01*
G01*
X151291100Y-98515600D02*
G75*
G03*
X151291100Y-98515600I-50000J0D01*
G01*
X140091100Y-107315600D02*
G75*
G03*
X140091100Y-107315600I-50000J0D01*
G01*
X148091100Y-98515600D02*
G75*
G03*
X148091100Y-98515600I-50000J0D01*
G01*
X149691100Y-100915600D02*
G75*
G03*
X149691100Y-100915600I-50000J0D01*
G01*
X144091100Y-108115600D02*
G75*
G03*
X144091100Y-108115600I-50000J0D01*
G01*
X137691100Y-112915600D02*
G75*
G03*
X137691100Y-112915600I-50000J0D01*
G01*
X139291100Y-100915600D02*
G75*
G03*
X139291100Y-100915600I-50000J0D01*
G01*
X137691100Y-113715600D02*
G75*
G03*
X137691100Y-113715600I-50000J0D01*
G01*
X139291100Y-106515600D02*
G75*
G03*
X139291100Y-106515600I-50000J0D01*
G01*
X140091100Y-97715600D02*
G75*
G03*
X140091100Y-97715600I-50000J0D01*
G01*
X149691100Y-106515600D02*
G75*
G03*
X149691100Y-106515600I-50000J0D01*
G01*
X148891100Y-109715600D02*
G75*
G03*
X148891100Y-109715600I-50000J0D01*
G01*
X148891100Y-106515600D02*
G75*
G03*
X148891100Y-106515600I-50000J0D01*
G01*
X148091100Y-100115600D02*
G75*
G03*
X148091100Y-100115600I-50000J0D01*
G01*
X147291100Y-100115600D02*
G75*
G03*
X147291100Y-100115600I-50000J0D01*
G01*
X143291100Y-109715600D02*
G75*
G03*
X143291100Y-109715600I-50000J0D01*
G01*
X149691100Y-99315600D02*
G75*
G03*
X149691100Y-99315600I-50000J0D01*
G01*
X140891100Y-108115600D02*
G75*
G03*
X140891100Y-108115600I-50000J0D01*
G01*
X140091100Y-110515600D02*
G75*
G03*
X140091100Y-110515600I-50000J0D01*
G01*
X154491100Y-100915600D02*
G75*
G03*
X154491100Y-100915600I-50000J0D01*
G01*
X153691100Y-103315600D02*
G75*
G03*
X153691100Y-103315600I-50000J0D01*
G01*
X140891100Y-103315600D02*
G75*
G03*
X140891100Y-103315600I-50000J0D01*
G01*
X140091100Y-100115600D02*
G75*
G03*
X140091100Y-100115600I-50000J0D01*
G01*
X152891100Y-99315600D02*
G75*
G03*
X152891100Y-99315600I-50000J0D01*
G01*
X143291100Y-98515600D02*
G75*
G03*
X143291100Y-98515600I-50000J0D01*
G01*
X138491100Y-113715600D02*
G75*
G03*
X138491100Y-113715600I-50000J0D01*
G01*
X137691100Y-104915600D02*
G75*
G03*
X137691100Y-104915600I-50000J0D01*
G01*
X142491100Y-112915600D02*
G75*
G03*
X142491100Y-112915600I-50000J0D01*
G01*
X145691100Y-112915600D02*
G75*
G03*
X145691100Y-112915600I-50000J0D01*
G01*
X140091100Y-104915600D02*
G75*
G03*
X140091100Y-104915600I-50000J0D01*
G01*
X144891100Y-104115600D02*
G75*
G03*
X144891100Y-104115600I-50000J0D01*
G01*
X143291100Y-100115600D02*
G75*
G03*
X143291100Y-100115600I-50000J0D01*
G01*
X153691100Y-108115600D02*
G75*
G03*
X153691100Y-108115600I-50000J0D01*
G01*
X145691100Y-107315600D02*
G75*
G03*
X145691100Y-107315600I-50000J0D01*
G01*
X146491100Y-107315600D02*
G75*
G03*
X146491100Y-107315600I-50000J0D01*
G01*
X140891100Y-100115600D02*
G75*
G03*
X140891100Y-100115600I-50000J0D01*
G01*
X142491100Y-112115600D02*
G75*
G03*
X142491100Y-112115600I-50000J0D01*
G01*
X138491100Y-114515600D02*
G75*
G03*
X138491100Y-114515600I-50000J0D01*
G01*
X144891100Y-103315600D02*
G75*
G03*
X144891100Y-103315600I-50000J0D01*
G01*
X151291100Y-114515600D02*
G75*
G03*
X151291100Y-114515600I-50000J0D01*
G01*
X148891100Y-113715600D02*
G75*
G03*
X148891100Y-113715600I-50000J0D01*
G01*
X138491100Y-97715600D02*
G75*
G03*
X138491100Y-97715600I-50000J0D01*
G01*
X144091100Y-100115600D02*
G75*
G03*
X144091100Y-100115600I-50000J0D01*
G01*
X140891100Y-97715600D02*
G75*
G03*
X140891100Y-97715600I-50000J0D01*
G01*
X138491100Y-108915600D02*
G75*
G03*
X138491100Y-108915600I-50000J0D01*
G01*
X140891100Y-111315600D02*
G75*
G03*
X140891100Y-111315600I-50000J0D01*
G01*
X141691100Y-98515600D02*
G75*
G03*
X141691100Y-98515600I-50000J0D01*
G01*
X139291100Y-102515600D02*
G75*
G03*
X139291100Y-102515600I-50000J0D01*
G01*
X149691100Y-114515600D02*
G75*
G03*
X149691100Y-114515600I-50000J0D01*
G01*
X146491100Y-105715600D02*
G75*
G03*
X146491100Y-105715600I-50000J0D01*
G01*
X144091100Y-104115600D02*
G75*
G03*
X144091100Y-104115600I-50000J0D01*
G01*
X140091100Y-105715600D02*
G75*
G03*
X140091100Y-105715600I-50000J0D01*
G01*
X138491100Y-102515600D02*
G75*
G03*
X138491100Y-102515600I-50000J0D01*
G01*
X144891100Y-108115600D02*
G75*
G03*
X144891100Y-108115600I-50000J0D01*
G01*
X145691100Y-99315600D02*
G75*
G03*
X145691100Y-99315600I-50000J0D01*
G01*
X144091100Y-112915600D02*
G75*
G03*
X144091100Y-112915600I-50000J0D01*
G01*
X155291100Y-100115600D02*
G75*
G03*
X155291100Y-100115600I-50000J0D01*
G01*
X146491100Y-112115600D02*
G75*
G03*
X146491100Y-112115600I-50000J0D01*
G01*
X138491100Y-103315600D02*
G75*
G03*
X138491100Y-103315600I-50000J0D01*
G01*
X140891100Y-112115600D02*
G75*
G03*
X140891100Y-112115600I-50000J0D01*
G01*
X140091100Y-104115600D02*
G75*
G03*
X140091100Y-104115600I-50000J0D01*
G01*
X144091100Y-98515600D02*
G75*
G03*
X144091100Y-98515600I-50000J0D01*
G01*
X153691100Y-102515600D02*
G75*
G03*
X153691100Y-102515600I-50000J0D01*
G01*
X152091100Y-103315600D02*
G75*
G03*
X152091100Y-103315600I-50000J0D01*
G01*
X155291100Y-115315600D02*
G75*
G03*
X155291100Y-115315600I-50000J0D01*
G01*
X152091100Y-97715600D02*
G75*
G03*
X152091100Y-97715600I-50000J0D01*
G01*
X147291100Y-114515600D02*
G75*
G03*
X147291100Y-114515600I-50000J0D01*
G01*
X145691100Y-98515600D02*
G75*
G03*
X145691100Y-98515600I-50000J0D01*
G01*
X145691100Y-112115600D02*
G75*
G03*
X145691100Y-112115600I-50000J0D01*
G01*
X138491100Y-105715600D02*
G75*
G03*
X138491100Y-105715600I-50000J0D01*
G01*
X143291100Y-108115600D02*
G75*
G03*
X143291100Y-108115600I-50000J0D01*
G01*
X144891100Y-98515600D02*
G75*
G03*
X144891100Y-98515600I-50000J0D01*
G01*
X140891100Y-108915600D02*
G75*
G03*
X140891100Y-108915600I-50000J0D01*
G01*
X152891100Y-112915600D02*
G75*
G03*
X152891100Y-112915600I-50000J0D01*
G01*
X137691100Y-106515600D02*
G75*
G03*
X137691100Y-106515600I-50000J0D01*
G01*
X148891100Y-108115600D02*
G75*
G03*
X148891100Y-108115600I-50000J0D01*
G01*
X139291100Y-115315600D02*
G75*
G03*
X139291100Y-115315600I-50000J0D01*
G01*
X138491100Y-99315600D02*
G75*
G03*
X138491100Y-99315600I-50000J0D01*
G01*
X155291100Y-108915600D02*
G75*
G03*
X155291100Y-108915600I-50000J0D01*
G01*
X144891100Y-99315600D02*
G75*
G03*
X144891100Y-99315600I-50000J0D01*
G01*
X152891100Y-109715600D02*
G75*
G03*
X152891100Y-109715600I-50000J0D01*
G01*
X154491100Y-108915600D02*
G75*
G03*
X154491100Y-108915600I-50000J0D01*
G01*
X137691100Y-115315600D02*
G75*
G03*
X137691100Y-115315600I-50000J0D01*
G01*
X138491100Y-115315600D02*
G75*
G03*
X138491100Y-115315600I-50000J0D01*
G01*
X151291100Y-100915600D02*
G75*
G03*
X151291100Y-100915600I-50000J0D01*
G01*
X146491100Y-106515600D02*
G75*
G03*
X146491100Y-106515600I-50000J0D01*
G01*
X144891100Y-109715600D02*
G75*
G03*
X144891100Y-109715600I-50000J0D01*
G01*
X152091100Y-108115600D02*
G75*
G03*
X152091100Y-108115600I-50000J0D01*
G01*
X155291100Y-104115600D02*
G75*
G03*
X155291100Y-104115600I-50000J0D01*
G01*
X147291100Y-100915600D02*
G75*
G03*
X147291100Y-100915600I-50000J0D01*
G01*
X145691100Y-108115600D02*
G75*
G03*
X145691100Y-108115600I-50000J0D01*
G01*
X148891100Y-97715600D02*
G75*
G03*
X148891100Y-97715600I-50000J0D01*
G01*
X143291100Y-107315600D02*
G75*
G03*
X143291100Y-107315600I-50000J0D01*
G01*
X152891100Y-100915600D02*
G75*
G03*
X152891100Y-100915600I-50000J0D01*
G01*
X155291100Y-112115600D02*
G75*
G03*
X155291100Y-112115600I-50000J0D01*
G01*
X146491100Y-108915600D02*
G75*
G03*
X146491100Y-108915600I-50000J0D01*
G01*
X148891100Y-98515600D02*
G75*
G03*
X148891100Y-98515600I-50000J0D01*
G01*
X143291100Y-108915600D02*
G75*
G03*
X143291100Y-108915600I-50000J0D01*
G01*
X154491100Y-105715600D02*
G75*
G03*
X154491100Y-105715600I-50000J0D01*
G01*
X154491100Y-104915600D02*
G75*
G03*
X154491100Y-104915600I-50000J0D01*
G01*
X137691100Y-100915600D02*
G75*
G03*
X137691100Y-100915600I-50000J0D01*
G01*
X155291100Y-106515600D02*
G75*
G03*
X155291100Y-106515600I-50000J0D01*
G01*
X148091100Y-107315600D02*
G75*
G03*
X148091100Y-107315600I-50000J0D01*
G01*
X140891100Y-106515600D02*
G75*
G03*
X140891100Y-106515600I-50000J0D01*
G01*
X152891100Y-110515600D02*
G75*
G03*
X152891100Y-110515600I-50000J0D01*
G01*
X140091100Y-108115600D02*
G75*
G03*
X140091100Y-108115600I-50000J0D01*
G01*
X152891100Y-108115600D02*
G75*
G03*
X152891100Y-108115600I-50000J0D01*
G01*
X138491100Y-112915600D02*
G75*
G03*
X138491100Y-112915600I-50000J0D01*
G01*
X137691100Y-103315600D02*
G75*
G03*
X137691100Y-103315600I-50000J0D01*
G01*
X152091100Y-105715600D02*
G75*
G03*
X152091100Y-105715600I-50000J0D01*
G01*
X146491100Y-112915600D02*
G75*
G03*
X146491100Y-112915600I-50000J0D01*
G01*
X152891100Y-102515600D02*
G75*
G03*
X152891100Y-102515600I-50000J0D01*
G01*
X152891100Y-112115600D02*
G75*
G03*
X152891100Y-112115600I-50000J0D01*
G01*
X147291100Y-107315600D02*
G75*
G03*
X147291100Y-107315600I-50000J0D01*
G01*
X152091100Y-112115600D02*
G75*
G03*
X152091100Y-112115600I-50000J0D01*
G01*
X152091100Y-112915600D02*
G75*
G03*
X152091100Y-112915600I-50000J0D01*
G01*
X142491100Y-115315600D02*
G75*
G03*
X142491100Y-115315600I-50000J0D01*
G01*
X153691100Y-111315600D02*
G75*
G03*
X153691100Y-111315600I-50000J0D01*
G01*
X142491100Y-99315600D02*
G75*
G03*
X142491100Y-99315600I-50000J0D01*
G01*
X153691100Y-107315600D02*
G75*
G03*
X153691100Y-107315600I-50000J0D01*
G01*
X139291100Y-108915600D02*
G75*
G03*
X139291100Y-108915600I-50000J0D01*
G01*
X155291100Y-111315600D02*
G75*
G03*
X155291100Y-111315600I-50000J0D01*
G01*
X140891100Y-107315600D02*
G75*
G03*
X140891100Y-107315600I-50000J0D01*
G01*
X138491100Y-109715600D02*
G75*
G03*
X138491100Y-109715600I-50000J0D01*
G01*
X143291100Y-103315600D02*
G75*
G03*
X143291100Y-103315600I-50000J0D01*
G01*
X155291100Y-112915600D02*
G75*
G03*
X155291100Y-112915600I-50000J0D01*
G01*
X152091100Y-100915600D02*
G75*
G03*
X152091100Y-100915600I-50000J0D01*
G01*
X141691100Y-112915600D02*
G75*
G03*
X141691100Y-112915600I-50000J0D01*
G01*
X154491100Y-111315600D02*
G75*
G03*
X154491100Y-111315600I-50000J0D01*
G01*
X155291100Y-113715600D02*
G75*
G03*
X155291100Y-113715600I-50000J0D01*
G01*
X141691100Y-114515600D02*
G75*
G03*
X141691100Y-114515600I-50000J0D01*
G01*
X145691100Y-97715600D02*
G75*
G03*
X145691100Y-97715600I-50000J0D01*
G01*
X137691100Y-111315600D02*
G75*
G03*
X137691100Y-111315600I-50000J0D01*
G01*
X152891100Y-101715600D02*
G75*
G03*
X152891100Y-101715600I-50000J0D01*
G01*
X138491100Y-112115600D02*
G75*
G03*
X138491100Y-112115600I-50000J0D01*
G01*
X153691100Y-112115600D02*
G75*
G03*
X153691100Y-112115600I-50000J0D01*
G01*
X139291100Y-103315600D02*
G75*
G03*
X139291100Y-103315600I-50000J0D01*
G01*
X137691100Y-104115600D02*
G75*
G03*
X137691100Y-104115600I-50000J0D01*
G01*
X152091100Y-114515600D02*
G75*
G03*
X152091100Y-114515600I-50000J0D01*
G01*
X147291100Y-115315600D02*
G75*
G03*
X147291100Y-115315600I-50000J0D01*
G01*
X140891100Y-98515600D02*
G75*
G03*
X140891100Y-98515600I-50000J0D01*
G01*
X140091100Y-101715600D02*
G75*
G03*
X140091100Y-101715600I-50000J0D01*
G01*
X152891100Y-115315600D02*
G75*
G03*
X152891100Y-115315600I-50000J0D01*
G01*
X153691100Y-106515600D02*
G75*
G03*
X153691100Y-106515600I-50000J0D01*
G01*
X137691100Y-108115600D02*
G75*
G03*
X137691100Y-108115600I-50000J0D01*
G01*
X152891100Y-105715600D02*
G75*
G03*
X152891100Y-105715600I-50000J0D01*
G01*
X140891100Y-99315600D02*
G75*
G03*
X140891100Y-99315600I-50000J0D01*
G01*
X153691100Y-104115600D02*
G75*
G03*
X153691100Y-104115600I-50000J0D01*
G01*
X137691100Y-107315600D02*
G75*
G03*
X137691100Y-107315600I-50000J0D01*
G01*
X152891100Y-106515600D02*
G75*
G03*
X152891100Y-106515600I-50000J0D01*
G01*
X152091100Y-104115600D02*
G75*
G03*
X152091100Y-104115600I-50000J0D01*
G01*
X153691100Y-97715600D02*
G75*
G03*
X153691100Y-97715600I-50000J0D01*
G01*
X148891100Y-99315600D02*
G75*
G03*
X148891100Y-99315600I-50000J0D01*
G01*
X146491100Y-98515600D02*
G75*
G03*
X146491100Y-98515600I-50000J0D01*
G01*
X139291100Y-104115600D02*
G75*
G03*
X139291100Y-104115600I-50000J0D01*
G01*
X144091100Y-99315600D02*
G75*
G03*
X144091100Y-99315600I-50000J0D01*
G01*
X150491100Y-113715600D02*
G75*
G03*
X150491100Y-113715600I-50000J0D01*
G01*
X152091100Y-101715600D02*
G75*
G03*
X152091100Y-101715600I-50000J0D01*
G01*
X148891100Y-112115600D02*
G75*
G03*
X148891100Y-112115600I-50000J0D01*
G01*
X155291100Y-97715600D02*
G75*
G03*
X155291100Y-97715600I-50000J0D01*
G01*
X149691100Y-107315600D02*
G75*
G03*
X149691100Y-107315600I-50000J0D01*
G01*
X139291100Y-105715600D02*
G75*
G03*
X139291100Y-105715600I-50000J0D01*
G01*
X152091100Y-113715600D02*
G75*
G03*
X152091100Y-113715600I-50000J0D01*
G01*
X144891100Y-104915600D02*
G75*
G03*
X144891100Y-104915600I-50000J0D01*
G01*
X141691100Y-113715600D02*
G75*
G03*
X141691100Y-113715600I-50000J0D01*
G01*
X148091100Y-103315600D02*
G75*
G03*
X148091100Y-103315600I-50000J0D01*
G01*
X137691100Y-105715600D02*
G75*
G03*
X137691100Y-105715600I-50000J0D01*
G01*
X152891100Y-98515600D02*
G75*
G03*
X152891100Y-98515600I-50000J0D01*
G01*
X143291100Y-112915600D02*
G75*
G03*
X143291100Y-112915600I-50000J0D01*
G01*
X155291100Y-108115600D02*
G75*
G03*
X155291100Y-108115600I-50000J0D01*
G01*
X152891100Y-111315600D02*
G75*
G03*
X152891100Y-111315600I-50000J0D01*
G01*
X144891100Y-115315600D02*
G75*
G03*
X144891100Y-115315600I-50000J0D01*
G01*
X144891100Y-114515600D02*
G75*
G03*
X144891100Y-114515600I-50000J0D01*
G01*
X144091100Y-108915600D02*
G75*
G03*
X144091100Y-108915600I-50000J0D01*
G01*
X149691100Y-113715600D02*
G75*
G03*
X149691100Y-113715600I-50000J0D01*
G01*
X148891100Y-103315600D02*
G75*
G03*
X148891100Y-103315600I-50000J0D01*
G01*
X137691100Y-97715600D02*
G75*
G03*
X137691100Y-97715600I-50000J0D01*
G01*
X149691100Y-105715600D02*
G75*
G03*
X149691100Y-105715600I-50000J0D01*
G01*
X140091100Y-113715600D02*
G75*
G03*
X140091100Y-113715600I-50000J0D01*
G01*
X152891100Y-97715600D02*
G75*
G03*
X152891100Y-97715600I-50000J0D01*
G01*
X139291100Y-113715600D02*
G75*
G03*
X139291100Y-113715600I-50000J0D01*
G01*
X144091100Y-104915600D02*
G75*
G03*
X144091100Y-104915600I-50000J0D01*
G01*
X147291100Y-97715600D02*
G75*
G03*
X147291100Y-97715600I-50000J0D01*
G01*
X145691100Y-109715600D02*
G75*
G03*
X145691100Y-109715600I-50000J0D01*
G01*
X152091100Y-102515600D02*
G75*
G03*
X152091100Y-102515600I-50000J0D01*
G01*
X151291100Y-99315600D02*
G75*
G03*
X151291100Y-99315600I-50000J0D01*
G01*
X152091100Y-100115600D02*
G75*
G03*
X152091100Y-100115600I-50000J0D01*
G01*
X140891100Y-100915600D02*
G75*
G03*
X140891100Y-100915600I-50000J0D01*
G01*
X138491100Y-104115600D02*
G75*
G03*
X138491100Y-104115600I-50000J0D01*
G01*
X138491100Y-106515600D02*
G75*
G03*
X138491100Y-106515600I-50000J0D01*
G01*
X140091100Y-100915600D02*
G75*
G03*
X140091100Y-100915600I-50000J0D01*
G01*
X140891100Y-112915600D02*
G75*
G03*
X140891100Y-112915600I-50000J0D01*
G01*
X138491100Y-107315600D02*
G75*
G03*
X138491100Y-107315600I-50000J0D01*
G01*
X143291100Y-97715600D02*
G75*
G03*
X143291100Y-97715600I-50000J0D01*
G01*
X155291100Y-104915600D02*
G75*
G03*
X155291100Y-104915600I-50000J0D01*
G01*
X146491100Y-108115600D02*
G75*
G03*
X146491100Y-108115600I-50000J0D01*
G01*
X152091100Y-106515600D02*
G75*
G03*
X152091100Y-106515600I-50000J0D01*
G01*
X154491100Y-114515600D02*
G75*
G03*
X154491100Y-114515600I-50000J0D01*
G01*
X143291100Y-113715600D02*
G75*
G03*
X143291100Y-113715600I-50000J0D01*
G01*
X144891100Y-100115600D02*
G75*
G03*
X144891100Y-100115600I-50000J0D01*
G01*
X148091100Y-108915600D02*
G75*
G03*
X148091100Y-108915600I-50000J0D01*
G01*
X148891100Y-112915600D02*
G75*
G03*
X148891100Y-112915600I-50000J0D01*
G01*
X139291100Y-98515600D02*
G75*
G03*
X139291100Y-98515600I-50000J0D01*
G01*
X144891100Y-100915600D02*
G75*
G03*
X144891100Y-100915600I-50000J0D01*
G01*
X153691100Y-100915600D02*
G75*
G03*
X153691100Y-100915600I-50000J0D01*
G01*
X151291100Y-112115600D02*
G75*
G03*
X151291100Y-112115600I-50000J0D01*
G01*
X150491100Y-98515600D02*
G75*
G03*
X150491100Y-98515600I-50000J0D01*
G01*
X146491100Y-99315600D02*
G75*
G03*
X146491100Y-99315600I-50000J0D01*
G01*
X154491100Y-108115600D02*
G75*
G03*
X154491100Y-108115600I-50000J0D01*
G01*
X147291100Y-98515600D02*
G75*
G03*
X147291100Y-98515600I-50000J0D01*
G01*
X155291100Y-101715600D02*
G75*
G03*
X155291100Y-101715600I-50000J0D01*
G01*
X153691100Y-108915600D02*
G75*
G03*
X153691100Y-108915600I-50000J0D01*
G01*
X139291100Y-108115600D02*
G75*
G03*
X139291100Y-108115600I-50000J0D01*
G01*
X152891100Y-104915600D02*
G75*
G03*
X152891100Y-104915600I-50000J0D01*
G01*
X140891100Y-105715600D02*
G75*
G03*
X140891100Y-105715600I-50000J0D01*
G01*
X147291100Y-108115600D02*
G75*
G03*
X147291100Y-108115600I-50000J0D01*
G01*
X148091100Y-104915600D02*
G75*
G03*
X148091100Y-104915600I-50000J0D01*
G01*
X145691100Y-108915600D02*
G75*
G03*
X145691100Y-108915600I-50000J0D01*
G01*
X137691100Y-98515600D02*
G75*
G03*
X137691100Y-98515600I-50000J0D01*
G01*
X139291100Y-97715600D02*
G75*
G03*
X139291100Y-97715600I-50000J0D01*
G01*
X140091100Y-103315600D02*
G75*
G03*
X140091100Y-103315600I-50000J0D01*
G01*
X148091100Y-105715600D02*
G75*
G03*
X148091100Y-105715600I-50000J0D01*
G01*
X143291100Y-115315600D02*
G75*
G03*
X143291100Y-115315600I-50000J0D01*
G01*
X146491100Y-104115600D02*
G75*
G03*
X146491100Y-104115600I-50000J0D01*
G01*
X144091100Y-109715600D02*
G75*
G03*
X144091100Y-109715600I-50000J0D01*
G01*
X148891100Y-100115600D02*
G75*
G03*
X148891100Y-100115600I-50000J0D01*
G01*
X144891100Y-107315600D02*
G75*
G03*
X144891100Y-107315600I-50000J0D01*
G01*
X139291100Y-114515600D02*
G75*
G03*
X139291100Y-114515600I-50000J0D01*
G01*
X143291100Y-106515600D02*
G75*
G03*
X143291100Y-106515600I-50000J0D01*
G01*
X155291100Y-107315600D02*
G75*
G03*
X155291100Y-107315600I-50000J0D01*
G01*
X154491100Y-115315600D02*
G75*
G03*
X154491100Y-115315600I-50000J0D01*
G01*
X148091100Y-112115600D02*
G75*
G03*
X148091100Y-112115600I-50000J0D01*
G01*
X143291100Y-104115600D02*
G75*
G03*
X143291100Y-104115600I-50000J0D01*
G01*
X143291100Y-114515600D02*
G75*
G03*
X143291100Y-114515600I-50000J0D01*
G01*
X154491100Y-99315600D02*
G75*
G03*
X154491100Y-99315600I-50000J0D01*
G01*
X150491100Y-112915600D02*
G75*
G03*
X150491100Y-112915600I-50000J0D01*
G01*
X154491100Y-103315600D02*
G75*
G03*
X154491100Y-103315600I-50000J0D01*
G01*
X144891100Y-113715600D02*
G75*
G03*
X144891100Y-113715600I-50000J0D01*
G01*
X152091100Y-110515600D02*
G75*
G03*
X152091100Y-110515600I-50000J0D01*
G01*
X142491100Y-114515600D02*
G75*
G03*
X142491100Y-114515600I-50000J0D01*
G01*
X140091100Y-112915600D02*
G75*
G03*
X140091100Y-112915600I-50000J0D01*
G01*
X147291100Y-112915600D02*
G75*
G03*
X147291100Y-112915600I-50000J0D01*
G01*
X144091100Y-114515600D02*
G75*
G03*
X144091100Y-114515600I-50000J0D01*
G01*
X148891100Y-100915600D02*
G75*
G03*
X148891100Y-100915600I-50000J0D01*
G01*
X146491100Y-103315600D02*
G75*
G03*
X146491100Y-103315600I-50000J0D01*
G01*
X145691100Y-106515600D02*
G75*
G03*
X145691100Y-106515600I-50000J0D01*
G01*
X144891100Y-106515600D02*
G75*
G03*
X144891100Y-106515600I-50000J0D01*
G01*
X153691100Y-100115600D02*
G75*
G03*
X153691100Y-100115600I-50000J0D01*
G01*
X154491100Y-109715600D02*
G75*
G03*
X154491100Y-109715600I-50000J0D01*
G01*
X143291100Y-104915600D02*
G75*
G03*
X143291100Y-104915600I-50000J0D01*
G01*
X154491100Y-112115600D02*
G75*
G03*
X154491100Y-112115600I-50000J0D01*
G01*
X137691100Y-100115600D02*
G75*
G03*
X137691100Y-100115600I-50000J0D01*
G01*
X155291100Y-114515600D02*
G75*
G03*
X155291100Y-114515600I-50000J0D01*
G01*
X142491100Y-100115600D02*
G75*
G03*
X142491100Y-100115600I-50000J0D01*
G01*
X146491100Y-104915600D02*
G75*
G03*
X146491100Y-104915600I-50000J0D01*
G01*
X148091100Y-99315600D02*
G75*
G03*
X148091100Y-99315600I-50000J0D01*
G01*
X144091100Y-106515600D02*
G75*
G03*
X144091100Y-106515600I-50000J0D01*
G01*
X154491100Y-112915600D02*
G75*
G03*
X154491100Y-112915600I-50000J0D01*
G01*
X148091100Y-113715600D02*
G75*
G03*
X148091100Y-113715600I-50000J0D01*
G01*
X154491100Y-113715600D02*
G75*
G03*
X154491100Y-113715600I-50000J0D01*
G01*
X139291100Y-110515600D02*
G75*
G03*
X139291100Y-110515600I-50000J0D01*
G01*
X147291100Y-113715600D02*
G75*
G03*
X147291100Y-113715600I-50000J0D01*
G01*
X148891100Y-104115600D02*
G75*
G03*
X148891100Y-104115600I-50000J0D01*
G01*
X139291100Y-99315600D02*
G75*
G03*
X139291100Y-99315600I-50000J0D01*
G01*
X152091100Y-99315600D02*
G75*
G03*
X152091100Y-99315600I-50000J0D01*
G01*
X144891100Y-97715600D02*
G75*
G03*
X144891100Y-97715600I-50000J0D01*
G01*
X149691100Y-97715600D02*
G75*
G03*
X149691100Y-97715600I-50000J0D01*
G01*
X153691100Y-112915600D02*
G75*
G03*
X153691100Y-112915600I-50000J0D01*
G01*
X146491100Y-100915600D02*
G75*
G03*
X146491100Y-100915600I-50000J0D01*
G01*
X148891100Y-115315600D02*
G75*
G03*
X148891100Y-115315600I-50000J0D01*
G01*
X150491100Y-100915600D02*
G75*
G03*
X150491100Y-100915600I-50000J0D01*
G01*
X142491100Y-113715600D02*
G75*
G03*
X142491100Y-113715600I-50000J0D01*
G01*
X152091100Y-108915600D02*
G75*
G03*
X152091100Y-108915600I-50000J0D01*
G01*
X155291100Y-98515600D02*
G75*
G03*
X155291100Y-98515600I-50000J0D01*
G01*
X149691100Y-104915600D02*
G75*
G03*
X149691100Y-104915600I-50000J0D01*
G01*
X149691100Y-112915600D02*
G75*
G03*
X149691100Y-112915600I-50000J0D01*
G01*
X149691100Y-109715600D02*
G75*
G03*
X149691100Y-109715600I-50000J0D01*
G01*
X141691100Y-100915600D02*
G75*
G03*
X141691100Y-100915600I-50000J0D01*
G01*
X138491100Y-100115600D02*
G75*
G03*
X138491100Y-100115600I-50000J0D01*
G01*
X140891100Y-104115600D02*
G75*
G03*
X140891100Y-104115600I-50000J0D01*
G01*
X144091100Y-97715600D02*
G75*
G03*
X144091100Y-97715600I-50000J0D01*
G01*
X145691100Y-104115600D02*
G75*
G03*
X145691100Y-104115600I-50000J0D01*
G01*
X154491100Y-106515600D02*
G75*
G03*
X154491100Y-106515600I-50000J0D01*
G01*
X137691100Y-99315600D02*
G75*
G03*
X137691100Y-99315600I-50000J0D01*
G01*
X139291100Y-101715600D02*
G75*
G03*
X139291100Y-101715600I-50000J0D01*
G01*
X152891100Y-107315600D02*
G75*
G03*
X152891100Y-107315600I-50000J0D01*
G01*
X150491100Y-100115600D02*
G75*
G03*
X150491100Y-100115600I-50000J0D01*
G01*
X155291100Y-99315600D02*
G75*
G03*
X155291100Y-99315600I-50000J0D01*
G01*
X140091100Y-111315600D02*
G75*
G03*
X140091100Y-111315600I-50000J0D01*
G01*
X140891100Y-101715600D02*
G75*
G03*
X140891100Y-101715600I-50000J0D01*
G01*
X138491100Y-98515600D02*
G75*
G03*
X138491100Y-98515600I-50000J0D01*
G01*
X140091100Y-99315600D02*
G75*
G03*
X140091100Y-99315600I-50000J0D01*
G01*
X149691100Y-98515600D02*
G75*
G03*
X149691100Y-98515600I-50000J0D01*
G01*
X138491100Y-104915600D02*
G75*
G03*
X138491100Y-104915600I-50000J0D01*
G01*
X152891100Y-103315600D02*
G75*
G03*
X152891100Y-103315600I-50000J0D01*
G01*
X152091100Y-104915600D02*
G75*
G03*
X152091100Y-104915600I-50000J0D01*
G01*
X140891100Y-110515600D02*
G75*
G03*
X140891100Y-110515600I-50000J0D01*
G01*
X137691100Y-109715600D02*
G75*
G03*
X137691100Y-109715600I-50000J0D01*
G01*
X144891100Y-112915600D02*
G75*
G03*
X144891100Y-112915600I-50000J0D01*
G01*
X147291100Y-108915600D02*
G75*
G03*
X147291100Y-108915600I-50000J0D01*
G01*
X153691100Y-101715600D02*
G75*
G03*
X153691100Y-101715600I-50000J0D01*
G01*
X146491100Y-113715600D02*
G75*
G03*
X146491100Y-113715600I-50000J0D01*
G01*
X153691100Y-104915600D02*
G75*
G03*
X153691100Y-104915600I-50000J0D01*
G01*
X150491100Y-115315600D02*
G75*
G03*
X150491100Y-115315600I-50000J0D01*
G01*
X144091100Y-112115600D02*
G75*
G03*
X144091100Y-112115600I-50000J0D01*
G01*
X155291100Y-102515600D02*
G75*
G03*
X155291100Y-102515600I-50000J0D01*
G01*
X140891100Y-109715600D02*
G75*
G03*
X140891100Y-109715600I-50000J0D01*
G01*
X154491100Y-107315600D02*
G75*
G03*
X154491100Y-107315600I-50000J0D01*
G01*
X148891100Y-107315600D02*
G75*
G03*
X148891100Y-107315600I-50000J0D01*
G01*
X139291100Y-104915600D02*
G75*
G03*
X139291100Y-104915600I-50000J0D01*
G01*
X155291100Y-105715600D02*
G75*
G03*
X155291100Y-105715600I-50000J0D01*
G01*
X152891100Y-108915600D02*
G75*
G03*
X152891100Y-108915600I-50000J0D01*
G01*
X149691100Y-108915600D02*
G75*
G03*
X149691100Y-108915600I-50000J0D01*
G01*
X145691100Y-105715600D02*
G75*
G03*
X145691100Y-105715600I-50000J0D01*
G01*
X144891100Y-112115600D02*
G75*
G03*
X144891100Y-112115600I-50000J0D01*
G01*
X154491100Y-104115600D02*
G75*
G03*
X154491100Y-104115600I-50000J0D01*
G01*
X153691100Y-115315600D02*
G75*
G03*
X153691100Y-115315600I-50000J0D01*
G01*
X147291100Y-104915600D02*
G75*
G03*
X147291100Y-104915600I-50000J0D01*
G01*
X153691100Y-99315600D02*
G75*
G03*
X153691100Y-99315600I-50000J0D01*
G01*
X139291100Y-109715600D02*
G75*
G03*
X139291100Y-109715600I-50000J0D01*
G01*
X155291100Y-100915600D02*
G75*
G03*
X155291100Y-100915600I-50000J0D01*
G01*
X154491100Y-101715600D02*
G75*
G03*
X154491100Y-101715600I-50000J0D01*
G01*
X138491100Y-110515600D02*
G75*
G03*
X138491100Y-110515600I-50000J0D01*
G01*
X143291100Y-99315600D02*
G75*
G03*
X143291100Y-99315600I-50000J0D01*
G01*
X141691100Y-112115600D02*
G75*
G03*
X141691100Y-112115600I-50000J0D01*
G01*
X152091100Y-109715600D02*
G75*
G03*
X152091100Y-109715600I-50000J0D01*
G01*
X153691100Y-98515600D02*
G75*
G03*
X153691100Y-98515600I-50000J0D01*
G01*
X154491100Y-110515600D02*
G75*
G03*
X154491100Y-110515600I-50000J0D01*
G01*
X138491100Y-101715600D02*
G75*
G03*
X138491100Y-101715600I-50000J0D01*
G01*
X150491100Y-97715600D02*
G75*
G03*
X150491100Y-97715600I-50000J0D01*
G01*
X143291100Y-112115600D02*
G75*
G03*
X143291100Y-112115600I-50000J0D01*
G01*
X148091100Y-100915600D02*
G75*
G03*
X148091100Y-100915600I-50000J0D01*
G01*
X147291100Y-112115600D02*
G75*
G03*
X147291100Y-112115600I-50000J0D01*
G01*
X142491100Y-100915600D02*
G75*
G03*
X142491100Y-100915600I-50000J0D01*
G01*
X138491100Y-100915600D02*
G75*
G03*
X138491100Y-100915600I-50000J0D01*
G01*
X154491100Y-97715600D02*
G75*
G03*
X154491100Y-97715600I-50000J0D01*
G01*
X145691100Y-100115600D02*
G75*
G03*
X145691100Y-100115600I-50000J0D01*
G01*
X152891100Y-100115600D02*
G75*
G03*
X152891100Y-100115600I-50000J0D01*
G01*
X148891100Y-104915600D02*
G75*
G03*
X148891100Y-104915600I-50000J0D01*
G01*
X149691100Y-100115600D02*
G75*
G03*
X149691100Y-100115600I-50000J0D01*
G01*
X137691100Y-102515600D02*
G75*
G03*
X137691100Y-102515600I-50000J0D01*
G01*
%TO.C,U6*%
G36*
X120499100Y-110518600D02*
G01*
X119839100Y-110518600D01*
X119839100Y-110298600D01*
X120499100Y-110298600D01*
X120499100Y-110518600D01*
G37*
G36*
X120499100Y-108518600D02*
G01*
X119839100Y-108518600D01*
X119839100Y-108298600D01*
X120499100Y-108298600D01*
X120499100Y-108518600D01*
G37*
G36*
X120499100Y-109018600D02*
G01*
X119839100Y-109018600D01*
X119839100Y-108798600D01*
X120499100Y-108798600D01*
X120499100Y-109018600D01*
G37*
G36*
X119619100Y-109018600D02*
G01*
X118959100Y-109018600D01*
X118959100Y-108798600D01*
X119619100Y-108798600D01*
X119619100Y-109018600D01*
G37*
G36*
X120499100Y-110018600D02*
G01*
X119839100Y-110018600D01*
X119839100Y-109798600D01*
X120499100Y-109798600D01*
X120499100Y-110018600D01*
G37*
G36*
X119619100Y-110018600D02*
G01*
X118959100Y-110018600D01*
X118959100Y-109798600D01*
X119619100Y-109798600D01*
X119619100Y-110018600D01*
G37*
G36*
X119619100Y-110518600D02*
G01*
X118959100Y-110518600D01*
X118959100Y-110298600D01*
X119619100Y-110298600D01*
X119619100Y-110518600D01*
G37*
G36*
X119619100Y-108518600D02*
G01*
X118959100Y-108518600D01*
X118959100Y-108298600D01*
X119619100Y-108298600D01*
X119619100Y-108518600D01*
G37*
%TO.C,USB_OTG*%
G36*
X109119100Y-122480600D02*
G01*
X106669100Y-122480600D01*
X106669100Y-121480600D01*
X109119100Y-121480600D01*
X109119100Y-122480600D01*
G37*
G36*
X114469100Y-123280600D02*
G01*
X112119100Y-123280600D01*
X112119100Y-121480600D01*
X114469100Y-121480600D01*
X114469100Y-123280600D01*
G37*
G36*
X108119100Y-131930600D02*
G01*
X106669100Y-131930600D01*
X106669100Y-131030600D01*
X108119100Y-131030600D01*
X108119100Y-131930600D01*
G37*
G36*
X108119100Y-123330600D02*
G01*
X106669100Y-123330600D01*
X106669100Y-122430600D01*
X108119100Y-122430600D01*
X108119100Y-123330600D01*
G37*
G36*
X109119100Y-132880600D02*
G01*
X106669100Y-132880600D01*
X106669100Y-131880600D01*
X109119100Y-131880600D01*
X109119100Y-132880600D01*
G37*
G36*
X114469100Y-132880600D02*
G01*
X112119100Y-132880600D01*
X112119100Y-131080600D01*
X114469100Y-131080600D01*
X114469100Y-132880600D01*
G37*
%TO.C,U12*%
G36*
X175122100Y-91756100D02*
G01*
X174222100Y-91756100D01*
X174222100Y-91545100D01*
X175122100Y-91545100D01*
X175122100Y-91756100D01*
G37*
G36*
X173177600Y-87300600D02*
G01*
X172966600Y-87300600D01*
X172966600Y-86400600D01*
X173177600Y-86400600D01*
X173177600Y-87300600D01*
G37*
G36*
X169122100Y-89356100D02*
G01*
X168222100Y-89356100D01*
X168222100Y-89145100D01*
X169122100Y-89145100D01*
X169122100Y-89356100D01*
G37*
G36*
X171977600Y-87300600D02*
G01*
X171766600Y-87300600D01*
X171766600Y-86400600D01*
X171977600Y-86400600D01*
X171977600Y-87300600D01*
G37*
G36*
X169122100Y-89756100D02*
G01*
X168222100Y-89756100D01*
X168222100Y-89545100D01*
X169122100Y-89545100D01*
X169122100Y-89756100D01*
G37*
G36*
X170872100Y-91650600D02*
G01*
X169872100Y-91650600D01*
X169872100Y-90650600D01*
X170872100Y-90650600D01*
X170872100Y-91650600D01*
G37*
G36*
X170872100Y-90350600D02*
G01*
X169872100Y-90350600D01*
X169872100Y-89350600D01*
X170872100Y-89350600D01*
X170872100Y-90350600D01*
G37*
G36*
X172377600Y-87300600D02*
G01*
X172166600Y-87300600D01*
X172166600Y-86400600D01*
X172377600Y-86400600D01*
X172377600Y-87300600D01*
G37*
G36*
X169122100Y-92156100D02*
G01*
X168222100Y-92156100D01*
X168222100Y-91945100D01*
X169122100Y-91945100D01*
X169122100Y-92156100D01*
G37*
G36*
X171177600Y-87300600D02*
G01*
X170966600Y-87300600D01*
X170966600Y-86400600D01*
X171177600Y-86400600D01*
X171177600Y-87300600D01*
G37*
G36*
X173472100Y-89050600D02*
G01*
X172472100Y-89050600D01*
X172472100Y-88050600D01*
X173472100Y-88050600D01*
X173472100Y-89050600D01*
G37*
G36*
X175122100Y-88156100D02*
G01*
X174222100Y-88156100D01*
X174222100Y-87945100D01*
X175122100Y-87945100D01*
X175122100Y-88156100D01*
G37*
G36*
X173472100Y-91650600D02*
G01*
X172472100Y-91650600D01*
X172472100Y-90650600D01*
X173472100Y-90650600D01*
X173472100Y-91650600D01*
G37*
G36*
X175122100Y-88956100D02*
G01*
X174222100Y-88956100D01*
X174222100Y-88745100D01*
X175122100Y-88745100D01*
X175122100Y-88956100D01*
G37*
G36*
X171577600Y-87300600D02*
G01*
X171366600Y-87300600D01*
X171366600Y-86400600D01*
X171577600Y-86400600D01*
X171577600Y-87300600D01*
G37*
G36*
X172777600Y-93300600D02*
G01*
X172566600Y-93300600D01*
X172566600Y-92400600D01*
X172777600Y-92400600D01*
X172777600Y-93300600D01*
G37*
G36*
X169577600Y-93300600D02*
G01*
X169366600Y-93300600D01*
X169366600Y-92400600D01*
X169577600Y-92400600D01*
X169577600Y-93300600D01*
G37*
G36*
X170777600Y-93300600D02*
G01*
X170566600Y-93300600D01*
X170566600Y-92400600D01*
X170777600Y-92400600D01*
X170777600Y-93300600D01*
G37*
G36*
X169122100Y-88156100D02*
G01*
X168222100Y-88156100D01*
X168222100Y-87945100D01*
X169122100Y-87945100D01*
X169122100Y-88156100D01*
G37*
G36*
X173977600Y-93300600D02*
G01*
X173766600Y-93300600D01*
X173766600Y-92400600D01*
X173977600Y-92400600D01*
X173977600Y-93300600D01*
G37*
G36*
X169122100Y-87756100D02*
G01*
X168222100Y-87756100D01*
X168222100Y-87545100D01*
X169122100Y-87545100D01*
X169122100Y-87756100D01*
G37*
G36*
X170377600Y-87300600D02*
G01*
X170166600Y-87300600D01*
X170166600Y-86400600D01*
X170377600Y-86400600D01*
X170377600Y-87300600D01*
G37*
G36*
X173177600Y-93300600D02*
G01*
X172966600Y-93300600D01*
X172966600Y-92400600D01*
X173177600Y-92400600D01*
X173177600Y-93300600D01*
G37*
G36*
X173577600Y-93300600D02*
G01*
X173366600Y-93300600D01*
X173366600Y-92400600D01*
X173577600Y-92400600D01*
X173577600Y-93300600D01*
G37*
G36*
X175122100Y-89356100D02*
G01*
X174222100Y-89356100D01*
X174222100Y-89145100D01*
X175122100Y-89145100D01*
X175122100Y-89356100D01*
G37*
G36*
X175122100Y-87756100D02*
G01*
X174222100Y-87756100D01*
X174222100Y-87545100D01*
X175122100Y-87545100D01*
X175122100Y-87756100D01*
G37*
G36*
X175122100Y-90556100D02*
G01*
X174222100Y-90556100D01*
X174222100Y-90345100D01*
X175122100Y-90345100D01*
X175122100Y-90556100D01*
G37*
G36*
X169122100Y-90956100D02*
G01*
X168222100Y-90956100D01*
X168222100Y-90745100D01*
X169122100Y-90745100D01*
X169122100Y-90956100D01*
G37*
G36*
X172777600Y-87300600D02*
G01*
X172566600Y-87300600D01*
X172566600Y-86400600D01*
X172777600Y-86400600D01*
X172777600Y-87300600D01*
G37*
G36*
X169577600Y-87300600D02*
G01*
X169366600Y-87300600D01*
X169366600Y-86400600D01*
X169577600Y-86400600D01*
X169577600Y-87300600D01*
G37*
G36*
X172172100Y-89050600D02*
G01*
X171172100Y-89050600D01*
X171172100Y-88050600D01*
X172172100Y-88050600D01*
X172172100Y-89050600D01*
G37*
G36*
X171977600Y-93300600D02*
G01*
X171766600Y-93300600D01*
X171766600Y-92400600D01*
X171977600Y-92400600D01*
X171977600Y-93300600D01*
G37*
G36*
X171577600Y-93300600D02*
G01*
X171366600Y-93300600D01*
X171366600Y-92400600D01*
X171577600Y-92400600D01*
X171577600Y-93300600D01*
G37*
G36*
X175122100Y-90156100D02*
G01*
X174222100Y-90156100D01*
X174222100Y-89945100D01*
X175122100Y-89945100D01*
X175122100Y-90156100D01*
G37*
G36*
X169122100Y-90556100D02*
G01*
X168222100Y-90556100D01*
X168222100Y-90345100D01*
X169122100Y-90345100D01*
X169122100Y-90556100D01*
G37*
G36*
X169122100Y-91356100D02*
G01*
X168222100Y-91356100D01*
X168222100Y-91145100D01*
X169122100Y-91145100D01*
X169122100Y-91356100D01*
G37*
G36*
X169977600Y-93300600D02*
G01*
X169766600Y-93300600D01*
X169766600Y-92400600D01*
X169977600Y-92400600D01*
X169977600Y-93300600D01*
G37*
G36*
X169122100Y-91756100D02*
G01*
X168222100Y-91756100D01*
X168222100Y-91545100D01*
X169122100Y-91545100D01*
X169122100Y-91756100D01*
G37*
G36*
X175122100Y-89756100D02*
G01*
X174222100Y-89756100D01*
X174222100Y-89545100D01*
X175122100Y-89545100D01*
X175122100Y-89756100D01*
G37*
G36*
X171177600Y-93300600D02*
G01*
X170966600Y-93300600D01*
X170966600Y-92400600D01*
X171177600Y-92400600D01*
X171177600Y-93300600D01*
G37*
G36*
X172377600Y-93300600D02*
G01*
X172166600Y-93300600D01*
X172166600Y-92400600D01*
X172377600Y-92400600D01*
X172377600Y-93300600D01*
G37*
G36*
X173472100Y-90350600D02*
G01*
X172472100Y-90350600D01*
X172472100Y-89350600D01*
X173472100Y-89350600D01*
X173472100Y-90350600D01*
G37*
G36*
X175122100Y-92156100D02*
G01*
X174222100Y-92156100D01*
X174222100Y-91945100D01*
X175122100Y-91945100D01*
X175122100Y-92156100D01*
G37*
G36*
X169122100Y-88956100D02*
G01*
X168222100Y-88956100D01*
X168222100Y-88745100D01*
X169122100Y-88745100D01*
X169122100Y-88956100D01*
G37*
G36*
X169122100Y-90156100D02*
G01*
X168222100Y-90156100D01*
X168222100Y-89945100D01*
X169122100Y-89945100D01*
X169122100Y-90156100D01*
G37*
G36*
X175122100Y-90956100D02*
G01*
X174222100Y-90956100D01*
X174222100Y-90745100D01*
X175122100Y-90745100D01*
X175122100Y-90956100D01*
G37*
G36*
X170377600Y-93300600D02*
G01*
X170166600Y-93300600D01*
X170166600Y-92400600D01*
X170377600Y-92400600D01*
X170377600Y-93300600D01*
G37*
G36*
X175122100Y-88556100D02*
G01*
X174222100Y-88556100D01*
X174222100Y-88345100D01*
X175122100Y-88345100D01*
X175122100Y-88556100D01*
G37*
G36*
X173577600Y-87300600D02*
G01*
X173366600Y-87300600D01*
X173366600Y-86400600D01*
X173577600Y-86400600D01*
X173577600Y-87300600D01*
G37*
G36*
X172172100Y-91650600D02*
G01*
X171172100Y-91650600D01*
X171172100Y-90650600D01*
X172172100Y-90650600D01*
X172172100Y-91650600D01*
G37*
G36*
X170872100Y-89050600D02*
G01*
X169872100Y-89050600D01*
X169872100Y-88050600D01*
X170872100Y-88050600D01*
X170872100Y-89050600D01*
G37*
G36*
X169122100Y-88556100D02*
G01*
X168222100Y-88556100D01*
X168222100Y-88345100D01*
X169122100Y-88345100D01*
X169122100Y-88556100D01*
G37*
G36*
X173977600Y-87300600D02*
G01*
X173766600Y-87300600D01*
X173766600Y-86400600D01*
X173977600Y-86400600D01*
X173977600Y-87300600D01*
G37*
G36*
X169977600Y-87300600D02*
G01*
X169766600Y-87300600D01*
X169766600Y-86400600D01*
X169977600Y-86400600D01*
X169977600Y-87300600D01*
G37*
G36*
X175122100Y-91356100D02*
G01*
X174222100Y-91356100D01*
X174222100Y-91145100D01*
X175122100Y-91145100D01*
X175122100Y-91356100D01*
G37*
G36*
X170777600Y-87300600D02*
G01*
X170566600Y-87300600D01*
X170566600Y-86400600D01*
X170777600Y-86400600D01*
X170777600Y-87300600D01*
G37*
%TO.C,HDMI*%
G36*
X117262100Y-109150600D02*
G01*
X115462100Y-109150600D01*
X115462100Y-108920600D01*
X117262100Y-108920600D01*
X117262100Y-109150600D01*
G37*
G36*
X117262100Y-112650600D02*
G01*
X115462100Y-112650600D01*
X115462100Y-112420600D01*
X117262100Y-112420600D01*
X117262100Y-112650600D01*
G37*
G36*
X117262100Y-106650600D02*
G01*
X115462100Y-106650600D01*
X115462100Y-106420600D01*
X117262100Y-106420600D01*
X117262100Y-106650600D01*
G37*
G36*
X117262100Y-112150600D02*
G01*
X115462100Y-112150600D01*
X115462100Y-111920600D01*
X117262100Y-111920600D01*
X117262100Y-112150600D01*
G37*
G36*
X117262100Y-107150600D02*
G01*
X115462100Y-107150600D01*
X115462100Y-106920600D01*
X117262100Y-106920600D01*
X117262100Y-107150600D01*
G37*
G36*
X117262100Y-108650600D02*
G01*
X115462100Y-108650600D01*
X115462100Y-108420600D01*
X117262100Y-108420600D01*
X117262100Y-108650600D01*
G37*
G36*
X117262100Y-105650600D02*
G01*
X115462100Y-105650600D01*
X115462100Y-105420600D01*
X117262100Y-105420600D01*
X117262100Y-105650600D01*
G37*
G36*
X117262100Y-111150600D02*
G01*
X115462100Y-111150600D01*
X115462100Y-110920600D01*
X117262100Y-110920600D01*
X117262100Y-111150600D01*
G37*
G36*
X117262100Y-108150600D02*
G01*
X115462100Y-108150600D01*
X115462100Y-107920600D01*
X117262100Y-107920600D01*
X117262100Y-108150600D01*
G37*
G36*
X117262100Y-105150600D02*
G01*
X115462100Y-105150600D01*
X115462100Y-104920600D01*
X117262100Y-104920600D01*
X117262100Y-105150600D01*
G37*
G36*
X117262100Y-113650600D02*
G01*
X115462100Y-113650600D01*
X115462100Y-113420600D01*
X117262100Y-113420600D01*
X117262100Y-113650600D01*
G37*
G36*
X117262100Y-107650600D02*
G01*
X115462100Y-107650600D01*
X115462100Y-107420600D01*
X117262100Y-107420600D01*
X117262100Y-107650600D01*
G37*
G36*
X117262100Y-114150600D02*
G01*
X115462100Y-114150600D01*
X115462100Y-113920600D01*
X117262100Y-113920600D01*
X117262100Y-114150600D01*
G37*
G36*
X117262100Y-109650600D02*
G01*
X115462100Y-109650600D01*
X115462100Y-109420600D01*
X117262100Y-109420600D01*
X117262100Y-109650600D01*
G37*
G36*
X117262100Y-106150600D02*
G01*
X115462100Y-106150600D01*
X115462100Y-105920600D01*
X117262100Y-105920600D01*
X117262100Y-106150600D01*
G37*
G36*
X117262100Y-111650600D02*
G01*
X115462100Y-111650600D01*
X115462100Y-111420600D01*
X117262100Y-111420600D01*
X117262100Y-111650600D01*
G37*
G36*
X117262100Y-110150600D02*
G01*
X115462100Y-110150600D01*
X115462100Y-109920600D01*
X117262100Y-109920600D01*
X117262100Y-110150600D01*
G37*
G36*
X117262100Y-113150600D02*
G01*
X115462100Y-113150600D01*
X115462100Y-112920600D01*
X117262100Y-112920600D01*
X117262100Y-113150600D01*
G37*
G36*
X117262100Y-110650600D02*
G01*
X115462100Y-110650600D01*
X115462100Y-110420600D01*
X117262100Y-110420600D01*
X117262100Y-110650600D01*
G37*
D12*
%TO.C,U21*%
X126784100Y-107713600D02*
G75*
G03*
X126784100Y-107713600I-50000J0D01*
G01*
X125784100Y-102213600D02*
G75*
G03*
X125784100Y-102213600I-50000J0D01*
G01*
X128284100Y-102213600D02*
G75*
G03*
X128284100Y-102213600I-50000J0D01*
G01*
X129784100Y-108213600D02*
G75*
G03*
X129784100Y-108213600I-50000J0D01*
G01*
X126784100Y-107213600D02*
G75*
G03*
X126784100Y-107213600I-50000J0D01*
G01*
X125284100Y-106213600D02*
G75*
G03*
X125284100Y-106213600I-50000J0D01*
G01*
X124784100Y-106713600D02*
G75*
G03*
X124784100Y-106713600I-50000J0D01*
G01*
X129284100Y-105713600D02*
G75*
G03*
X129284100Y-105713600I-50000J0D01*
G01*
X126784100Y-105713600D02*
G75*
G03*
X126784100Y-105713600I-50000J0D01*
G01*
X124784100Y-103213600D02*
G75*
G03*
X124784100Y-103213600I-50000J0D01*
G01*
X130784100Y-102713600D02*
G75*
G03*
X130784100Y-102713600I-50000J0D01*
G01*
X124784100Y-102213600D02*
G75*
G03*
X124784100Y-102213600I-50000J0D01*
G01*
X124784100Y-105713600D02*
G75*
G03*
X124784100Y-105713600I-50000J0D01*
G01*
X131284100Y-104713600D02*
G75*
G03*
X131284100Y-104713600I-50000J0D01*
G01*
X125784100Y-102713600D02*
G75*
G03*
X125784100Y-102713600I-50000J0D01*
G01*
X130284100Y-103713600D02*
G75*
G03*
X130284100Y-103713600I-50000J0D01*
G01*
X130784100Y-104213600D02*
G75*
G03*
X130784100Y-104213600I-50000J0D01*
G01*
X130284100Y-106713600D02*
G75*
G03*
X130284100Y-106713600I-50000J0D01*
G01*
X129784100Y-107213600D02*
G75*
G03*
X129784100Y-107213600I-50000J0D01*
G01*
X126784100Y-102213600D02*
G75*
G03*
X126784100Y-102213600I-50000J0D01*
G01*
X127284100Y-102213600D02*
G75*
G03*
X127284100Y-102213600I-50000J0D01*
G01*
X126784100Y-102713600D02*
G75*
G03*
X126784100Y-102713600I-50000J0D01*
G01*
X131284100Y-105713600D02*
G75*
G03*
X131284100Y-105713600I-50000J0D01*
G01*
X131284100Y-108213600D02*
G75*
G03*
X131284100Y-108213600I-50000J0D01*
G01*
X125284100Y-106713600D02*
G75*
G03*
X125284100Y-106713600I-50000J0D01*
G01*
X131284100Y-102713600D02*
G75*
G03*
X131284100Y-102713600I-50000J0D01*
G01*
X127784100Y-101713600D02*
G75*
G03*
X127784100Y-101713600I-50000J0D01*
G01*
X127784100Y-107213600D02*
G75*
G03*
X127784100Y-107213600I-50000J0D01*
G01*
X127784100Y-108213600D02*
G75*
G03*
X127784100Y-108213600I-50000J0D01*
G01*
X127284100Y-103713600D02*
G75*
G03*
X127284100Y-103713600I-50000J0D01*
G01*
X130784100Y-104713600D02*
G75*
G03*
X130784100Y-104713600I-50000J0D01*
G01*
X129784100Y-106713600D02*
G75*
G03*
X129784100Y-106713600I-50000J0D01*
G01*
X126284100Y-101713600D02*
G75*
G03*
X126284100Y-101713600I-50000J0D01*
G01*
X129284100Y-104713600D02*
G75*
G03*
X129284100Y-104713600I-50000J0D01*
G01*
X125784100Y-105213600D02*
G75*
G03*
X125784100Y-105213600I-50000J0D01*
G01*
X129284100Y-102713600D02*
G75*
G03*
X129284100Y-102713600I-50000J0D01*
G01*
X131284100Y-105213600D02*
G75*
G03*
X131284100Y-105213600I-50000J0D01*
G01*
X129784100Y-107713600D02*
G75*
G03*
X129784100Y-107713600I-50000J0D01*
G01*
X131284100Y-107213600D02*
G75*
G03*
X131284100Y-107213600I-50000J0D01*
G01*
X131284100Y-106213600D02*
G75*
G03*
X131284100Y-106213600I-50000J0D01*
G01*
X130784100Y-105213600D02*
G75*
G03*
X130784100Y-105213600I-50000J0D01*
G01*
X128284100Y-101713600D02*
G75*
G03*
X128284100Y-101713600I-50000J0D01*
G01*
X125784100Y-101713600D02*
G75*
G03*
X125784100Y-101713600I-50000J0D01*
G01*
X128784100Y-103713600D02*
G75*
G03*
X128784100Y-103713600I-50000J0D01*
G01*
X126284100Y-102213600D02*
G75*
G03*
X126284100Y-102213600I-50000J0D01*
G01*
X130784100Y-103713600D02*
G75*
G03*
X130784100Y-103713600I-50000J0D01*
G01*
X125284100Y-107213600D02*
G75*
G03*
X125284100Y-107213600I-50000J0D01*
G01*
X130284100Y-108213600D02*
G75*
G03*
X130284100Y-108213600I-50000J0D01*
G01*
X130284100Y-106213600D02*
G75*
G03*
X130284100Y-106213600I-50000J0D01*
G01*
X126284100Y-107213600D02*
G75*
G03*
X126284100Y-107213600I-50000J0D01*
G01*
X125784100Y-107213600D02*
G75*
G03*
X125784100Y-107213600I-50000J0D01*
G01*
X126784100Y-104213600D02*
G75*
G03*
X126784100Y-104213600I-50000J0D01*
G01*
X127784100Y-102213600D02*
G75*
G03*
X127784100Y-102213600I-50000J0D01*
G01*
X129284100Y-103713600D02*
G75*
G03*
X129284100Y-103713600I-50000J0D01*
G01*
X127284100Y-108213600D02*
G75*
G03*
X127284100Y-108213600I-50000J0D01*
G01*
X124784100Y-101713600D02*
G75*
G03*
X124784100Y-101713600I-50000J0D01*
G01*
X126784100Y-106213600D02*
G75*
G03*
X126784100Y-106213600I-50000J0D01*
G01*
X129784100Y-101713600D02*
G75*
G03*
X129784100Y-101713600I-50000J0D01*
G01*
X125284100Y-103213600D02*
G75*
G03*
X125284100Y-103213600I-50000J0D01*
G01*
X130284100Y-105213600D02*
G75*
G03*
X130284100Y-105213600I-50000J0D01*
G01*
X130284100Y-105713600D02*
G75*
G03*
X130284100Y-105713600I-50000J0D01*
G01*
X128784100Y-107713600D02*
G75*
G03*
X128784100Y-107713600I-50000J0D01*
G01*
X128284100Y-108213600D02*
G75*
G03*
X128284100Y-108213600I-50000J0D01*
G01*
X127784100Y-107713600D02*
G75*
G03*
X127784100Y-107713600I-50000J0D01*
G01*
X125784100Y-108213600D02*
G75*
G03*
X125784100Y-108213600I-50000J0D01*
G01*
X130784100Y-106213600D02*
G75*
G03*
X130784100Y-106213600I-50000J0D01*
G01*
X128784100Y-108213600D02*
G75*
G03*
X128784100Y-108213600I-50000J0D01*
G01*
X128284100Y-102713600D02*
G75*
G03*
X128284100Y-102713600I-50000J0D01*
G01*
X131284100Y-104213600D02*
G75*
G03*
X131284100Y-104213600I-50000J0D01*
G01*
X129284100Y-106213600D02*
G75*
G03*
X129284100Y-106213600I-50000J0D01*
G01*
X127284100Y-101713600D02*
G75*
G03*
X127284100Y-101713600I-50000J0D01*
G01*
X126284100Y-102713600D02*
G75*
G03*
X126284100Y-102713600I-50000J0D01*
G01*
X130784100Y-101713600D02*
G75*
G03*
X130784100Y-101713600I-50000J0D01*
G01*
X126784100Y-101713600D02*
G75*
G03*
X126784100Y-101713600I-50000J0D01*
G01*
X130284100Y-104213600D02*
G75*
G03*
X130284100Y-104213600I-50000J0D01*
G01*
X125784100Y-104213600D02*
G75*
G03*
X125784100Y-104213600I-50000J0D01*
G01*
X125284100Y-103713600D02*
G75*
G03*
X125284100Y-103713600I-50000J0D01*
G01*
X125284100Y-104713600D02*
G75*
G03*
X125284100Y-104713600I-50000J0D01*
G01*
X125784100Y-104713600D02*
G75*
G03*
X125784100Y-104713600I-50000J0D01*
G01*
X131284100Y-102213600D02*
G75*
G03*
X131284100Y-102213600I-50000J0D01*
G01*
X129284100Y-108213600D02*
G75*
G03*
X129284100Y-108213600I-50000J0D01*
G01*
X125284100Y-104213600D02*
G75*
G03*
X125284100Y-104213600I-50000J0D01*
G01*
X130284100Y-102713600D02*
G75*
G03*
X130284100Y-102713600I-50000J0D01*
G01*
X125784100Y-106213600D02*
G75*
G03*
X125784100Y-106213600I-50000J0D01*
G01*
X128284100Y-107213600D02*
G75*
G03*
X128284100Y-107213600I-50000J0D01*
G01*
X124784100Y-106213600D02*
G75*
G03*
X124784100Y-106213600I-50000J0D01*
G01*
X131284100Y-101713600D02*
G75*
G03*
X131284100Y-101713600I-50000J0D01*
G01*
X124784100Y-103713600D02*
G75*
G03*
X124784100Y-103713600I-50000J0D01*
G01*
X129284100Y-107713600D02*
G75*
G03*
X129284100Y-107713600I-50000J0D01*
G01*
X130784100Y-102213600D02*
G75*
G03*
X130784100Y-102213600I-50000J0D01*
G01*
X124784100Y-107713600D02*
G75*
G03*
X124784100Y-107713600I-50000J0D01*
G01*
X128784100Y-102213600D02*
G75*
G03*
X128784100Y-102213600I-50000J0D01*
G01*
X127284100Y-102713600D02*
G75*
G03*
X127284100Y-102713600I-50000J0D01*
G01*
X126784100Y-103713600D02*
G75*
G03*
X126784100Y-103713600I-50000J0D01*
G01*
X128284100Y-103713600D02*
G75*
G03*
X128284100Y-103713600I-50000J0D01*
G01*
X126784100Y-105213600D02*
G75*
G03*
X126784100Y-105213600I-50000J0D01*
G01*
X130784100Y-105713600D02*
G75*
G03*
X130784100Y-105713600I-50000J0D01*
G01*
X131284100Y-103213600D02*
G75*
G03*
X131284100Y-103213600I-50000J0D01*
G01*
X129284100Y-102213600D02*
G75*
G03*
X129284100Y-102213600I-50000J0D01*
G01*
X125784100Y-106713600D02*
G75*
G03*
X125784100Y-106713600I-50000J0D01*
G01*
X127284100Y-107713600D02*
G75*
G03*
X127284100Y-107713600I-50000J0D01*
G01*
X127784100Y-106213600D02*
G75*
G03*
X127784100Y-106213600I-50000J0D01*
G01*
X127284100Y-107213600D02*
G75*
G03*
X127284100Y-107213600I-50000J0D01*
G01*
X125284100Y-108213600D02*
G75*
G03*
X125284100Y-108213600I-50000J0D01*
G01*
X130284100Y-102213600D02*
G75*
G03*
X130284100Y-102213600I-50000J0D01*
G01*
X128784100Y-101713600D02*
G75*
G03*
X128784100Y-101713600I-50000J0D01*
G01*
X128784100Y-107213600D02*
G75*
G03*
X128784100Y-107213600I-50000J0D01*
G01*
X124784100Y-108213600D02*
G75*
G03*
X124784100Y-108213600I-50000J0D01*
G01*
X130284100Y-107713600D02*
G75*
G03*
X130284100Y-107713600I-50000J0D01*
G01*
X129284100Y-104213600D02*
G75*
G03*
X129284100Y-104213600I-50000J0D01*
G01*
X126284100Y-107713600D02*
G75*
G03*
X126284100Y-107713600I-50000J0D01*
G01*
X130284100Y-107213600D02*
G75*
G03*
X130284100Y-107213600I-50000J0D01*
G01*
X125284100Y-105213600D02*
G75*
G03*
X125284100Y-105213600I-50000J0D01*
G01*
X126784100Y-104713600D02*
G75*
G03*
X126784100Y-104713600I-50000J0D01*
G01*
X128784100Y-102713600D02*
G75*
G03*
X128784100Y-102713600I-50000J0D01*
G01*
X124784100Y-107213600D02*
G75*
G03*
X124784100Y-107213600I-50000J0D01*
G01*
X124784100Y-102713600D02*
G75*
G03*
X124784100Y-102713600I-50000J0D01*
G01*
X125784100Y-103713600D02*
G75*
G03*
X125784100Y-103713600I-50000J0D01*
G01*
X124784100Y-104713600D02*
G75*
G03*
X124784100Y-104713600I-50000J0D01*
G01*
X127784100Y-103713600D02*
G75*
G03*
X127784100Y-103713600I-50000J0D01*
G01*
X129784100Y-102213600D02*
G75*
G03*
X129784100Y-102213600I-50000J0D01*
G01*
X130784100Y-106713600D02*
G75*
G03*
X130784100Y-106713600I-50000J0D01*
G01*
X131284100Y-106713600D02*
G75*
G03*
X131284100Y-106713600I-50000J0D01*
G01*
X125284100Y-101713600D02*
G75*
G03*
X125284100Y-101713600I-50000J0D01*
G01*
X127284100Y-106213600D02*
G75*
G03*
X127284100Y-106213600I-50000J0D01*
G01*
X125784100Y-103213600D02*
G75*
G03*
X125784100Y-103213600I-50000J0D01*
G01*
X128284100Y-106213600D02*
G75*
G03*
X128284100Y-106213600I-50000J0D01*
G01*
X130784100Y-107713600D02*
G75*
G03*
X130784100Y-107713600I-50000J0D01*
G01*
X129784100Y-102713600D02*
G75*
G03*
X129784100Y-102713600I-50000J0D01*
G01*
X124784100Y-104213600D02*
G75*
G03*
X124784100Y-104213600I-50000J0D01*
G01*
X130784100Y-108213600D02*
G75*
G03*
X130784100Y-108213600I-50000J0D01*
G01*
X125284100Y-107713600D02*
G75*
G03*
X125284100Y-107713600I-50000J0D01*
G01*
X125284100Y-102213600D02*
G75*
G03*
X125284100Y-102213600I-50000J0D01*
G01*
X130284100Y-101713600D02*
G75*
G03*
X130284100Y-101713600I-50000J0D01*
G01*
X126784100Y-108213600D02*
G75*
G03*
X126784100Y-108213600I-50000J0D01*
G01*
X130784100Y-103213600D02*
G75*
G03*
X130784100Y-103213600I-50000J0D01*
G01*
X126284100Y-108213600D02*
G75*
G03*
X126284100Y-108213600I-50000J0D01*
G01*
X129284100Y-107213600D02*
G75*
G03*
X129284100Y-107213600I-50000J0D01*
G01*
X128284100Y-107713600D02*
G75*
G03*
X128284100Y-107713600I-50000J0D01*
G01*
X129284100Y-101713600D02*
G75*
G03*
X129284100Y-101713600I-50000J0D01*
G01*
X130784100Y-107213600D02*
G75*
G03*
X130784100Y-107213600I-50000J0D01*
G01*
X131284100Y-107713600D02*
G75*
G03*
X131284100Y-107713600I-50000J0D01*
G01*
X127784100Y-102713600D02*
G75*
G03*
X127784100Y-102713600I-50000J0D01*
G01*
X131284100Y-103713600D02*
G75*
G03*
X131284100Y-103713600I-50000J0D01*
G01*
X130284100Y-103213600D02*
G75*
G03*
X130284100Y-103213600I-50000J0D01*
G01*
X129284100Y-105213600D02*
G75*
G03*
X129284100Y-105213600I-50000J0D01*
G01*
X128784100Y-106213600D02*
G75*
G03*
X128784100Y-106213600I-50000J0D01*
G01*
X125784100Y-105713600D02*
G75*
G03*
X125784100Y-105713600I-50000J0D01*
G01*
X125784100Y-107713600D02*
G75*
G03*
X125784100Y-107713600I-50000J0D01*
G01*
X125284100Y-105713600D02*
G75*
G03*
X125284100Y-105713600I-50000J0D01*
G01*
X125284100Y-102713600D02*
G75*
G03*
X125284100Y-102713600I-50000J0D01*
G01*
X124784100Y-105213600D02*
G75*
G03*
X124784100Y-105213600I-50000J0D01*
G01*
X130284100Y-104713600D02*
G75*
G03*
X130284100Y-104713600I-50000J0D01*
G01*
%TO.C,U8*%
G36*
X120499100Y-107470600D02*
G01*
X119839100Y-107470600D01*
X119839100Y-107250600D01*
X120499100Y-107250600D01*
X120499100Y-107470600D01*
G37*
G36*
X119619100Y-105970600D02*
G01*
X118959100Y-105970600D01*
X118959100Y-105750600D01*
X119619100Y-105750600D01*
X119619100Y-105970600D01*
G37*
G36*
X119619100Y-106970600D02*
G01*
X118959100Y-106970600D01*
X118959100Y-106750600D01*
X119619100Y-106750600D01*
X119619100Y-106970600D01*
G37*
G36*
X119619100Y-107470600D02*
G01*
X118959100Y-107470600D01*
X118959100Y-107250600D01*
X119619100Y-107250600D01*
X119619100Y-107470600D01*
G37*
G36*
X120499100Y-105470600D02*
G01*
X119839100Y-105470600D01*
X119839100Y-105250600D01*
X120499100Y-105250600D01*
X120499100Y-105470600D01*
G37*
G36*
X119619100Y-105470600D02*
G01*
X118959100Y-105470600D01*
X118959100Y-105250600D01*
X119619100Y-105250600D01*
X119619100Y-105470600D01*
G37*
G36*
X120499100Y-106970600D02*
G01*
X119839100Y-106970600D01*
X119839100Y-106750600D01*
X120499100Y-106750600D01*
X120499100Y-106970600D01*
G37*
G36*
X120499100Y-105970600D02*
G01*
X119839100Y-105970600D01*
X119839100Y-105750600D01*
X120499100Y-105750600D01*
X120499100Y-105970600D01*
G37*
%TO.C,GPIO-4*%
G36*
X124312100Y-82807600D02*
G01*
X122512100Y-82807600D01*
X122512100Y-81907600D01*
X124312100Y-81907600D01*
X124312100Y-82807600D01*
G37*
G36*
X120248100Y-78997600D02*
G01*
X118448100Y-78997600D01*
X118448100Y-78097600D01*
X120248100Y-78097600D01*
X120248100Y-78997600D01*
G37*
G36*
X120248100Y-76457600D02*
G01*
X118448100Y-76457600D01*
X118448100Y-75557600D01*
X120248100Y-75557600D01*
X120248100Y-76457600D01*
G37*
G36*
X120248100Y-81537600D02*
G01*
X118448100Y-81537600D01*
X118448100Y-80637600D01*
X120248100Y-80637600D01*
X120248100Y-81537600D01*
G37*
G36*
X120248100Y-82807600D02*
G01*
X118448100Y-82807600D01*
X118448100Y-81907600D01*
X120248100Y-81907600D01*
X120248100Y-82807600D01*
G37*
G36*
X124312100Y-76457600D02*
G01*
X122512100Y-76457600D01*
X122512100Y-75557600D01*
X124312100Y-75557600D01*
X124312100Y-76457600D01*
G37*
G36*
X120248100Y-87887600D02*
G01*
X118448100Y-87887600D01*
X118448100Y-86987600D01*
X120248100Y-86987600D01*
X120248100Y-87887600D01*
G37*
G36*
X124312100Y-81537600D02*
G01*
X122512100Y-81537600D01*
X122512100Y-80637600D01*
X124312100Y-80637600D01*
X124312100Y-81537600D01*
G37*
G36*
X124312100Y-84077600D02*
G01*
X122512100Y-84077600D01*
X122512100Y-83177600D01*
X124312100Y-83177600D01*
X124312100Y-84077600D01*
G37*
G36*
X120248100Y-84077600D02*
G01*
X118448100Y-84077600D01*
X118448100Y-83177600D01*
X120248100Y-83177600D01*
X120248100Y-84077600D01*
G37*
G36*
X120248100Y-85347600D02*
G01*
X118448100Y-85347600D01*
X118448100Y-84447600D01*
X120248100Y-84447600D01*
X120248100Y-85347600D01*
G37*
G36*
X120248100Y-86617600D02*
G01*
X118448100Y-86617600D01*
X118448100Y-85717600D01*
X120248100Y-85717600D01*
X120248100Y-86617600D01*
G37*
G36*
X120248100Y-77727600D02*
G01*
X118448100Y-77727600D01*
X118448100Y-76827600D01*
X120248100Y-76827600D01*
X120248100Y-77727600D01*
G37*
G36*
X124312100Y-77727600D02*
G01*
X122512100Y-77727600D01*
X122512100Y-76827600D01*
X124312100Y-76827600D01*
X124312100Y-77727600D01*
G37*
G36*
X124312100Y-78997600D02*
G01*
X122512100Y-78997600D01*
X122512100Y-78097600D01*
X124312100Y-78097600D01*
X124312100Y-78997600D01*
G37*
G36*
X124312100Y-86617600D02*
G01*
X122512100Y-86617600D01*
X122512100Y-85717600D01*
X124312100Y-85717600D01*
X124312100Y-86617600D01*
G37*
G36*
X124312100Y-87887600D02*
G01*
X122512100Y-87887600D01*
X122512100Y-86987600D01*
X124312100Y-86987600D01*
X124312100Y-87887600D01*
G37*
G36*
X124312100Y-85347600D02*
G01*
X122512100Y-85347600D01*
X122512100Y-84447600D01*
X124312100Y-84447600D01*
X124312100Y-85347600D01*
G37*
G36*
X120248100Y-80267600D02*
G01*
X118448100Y-80267600D01*
X118448100Y-79367600D01*
X120248100Y-79367600D01*
X120248100Y-80267600D01*
G37*
G36*
X124312100Y-80267600D02*
G01*
X122512100Y-80267600D01*
X122512100Y-79367600D01*
X124312100Y-79367600D01*
X124312100Y-80267600D01*
G37*
%TO.C,U2*%
G36*
X166687100Y-120820600D02*
G01*
X166457100Y-120820600D01*
X166457100Y-120070600D01*
X166687100Y-120070600D01*
X166687100Y-120820600D01*
G37*
G36*
X164687100Y-120820600D02*
G01*
X164457100Y-120820600D01*
X164457100Y-120070600D01*
X164687100Y-120070600D01*
X164687100Y-120820600D01*
G37*
G36*
X164187100Y-125670600D02*
G01*
X163957100Y-125670600D01*
X163957100Y-124920600D01*
X164187100Y-124920600D01*
X164187100Y-125670600D01*
G37*
G36*
X163272100Y-123235600D02*
G01*
X162522100Y-123235600D01*
X162522100Y-123005600D01*
X163272100Y-123005600D01*
X163272100Y-123235600D01*
G37*
G36*
X163272100Y-124735600D02*
G01*
X162522100Y-124735600D01*
X162522100Y-124505600D01*
X163272100Y-124505600D01*
X163272100Y-124735600D01*
G37*
G36*
X163272100Y-123735600D02*
G01*
X162522100Y-123735600D01*
X162522100Y-123505600D01*
X163272100Y-123505600D01*
X163272100Y-123735600D01*
G37*
G36*
X166822100Y-122170600D02*
G01*
X166022100Y-122170600D01*
X166022100Y-121370600D01*
X166822100Y-121370600D01*
X166822100Y-122170600D01*
G37*
G36*
X164622100Y-124370600D02*
G01*
X163822100Y-124370600D01*
X163822100Y-123570600D01*
X164622100Y-123570600D01*
X164622100Y-124370600D01*
G37*
G36*
X168122100Y-124735600D02*
G01*
X167372100Y-124735600D01*
X167372100Y-124505600D01*
X168122100Y-124505600D01*
X168122100Y-124735600D01*
G37*
G36*
X165187100Y-125670600D02*
G01*
X164957100Y-125670600D01*
X164957100Y-124920600D01*
X165187100Y-124920600D01*
X165187100Y-125670600D01*
G37*
G36*
X165187100Y-120820600D02*
G01*
X164957100Y-120820600D01*
X164957100Y-120070600D01*
X165187100Y-120070600D01*
X165187100Y-120820600D01*
G37*
G36*
X163272100Y-121235600D02*
G01*
X162522100Y-121235600D01*
X162522100Y-121005600D01*
X163272100Y-121005600D01*
X163272100Y-121235600D01*
G37*
G36*
X163687100Y-120820600D02*
G01*
X163457100Y-120820600D01*
X163457100Y-120070600D01*
X163687100Y-120070600D01*
X163687100Y-120820600D01*
G37*
G36*
X163687100Y-125670600D02*
G01*
X163457100Y-125670600D01*
X163457100Y-124920600D01*
X163687100Y-124920600D01*
X163687100Y-125670600D01*
G37*
G36*
X165622100Y-122170600D02*
G01*
X165022100Y-122170600D01*
X165022100Y-121370600D01*
X165622100Y-121370600D01*
X165622100Y-122170600D01*
G37*
G36*
X165622100Y-124370600D02*
G01*
X165022100Y-124370600D01*
X165022100Y-123570600D01*
X165622100Y-123570600D01*
X165622100Y-124370600D01*
G37*
G36*
X168122100Y-123735600D02*
G01*
X167372100Y-123735600D01*
X167372100Y-123505600D01*
X168122100Y-123505600D01*
X168122100Y-123735600D01*
G37*
G36*
X163272100Y-122735600D02*
G01*
X162522100Y-122735600D01*
X162522100Y-122505600D01*
X163272100Y-122505600D01*
X163272100Y-122735600D01*
G37*
G36*
X164622100Y-123170600D02*
G01*
X163822100Y-123170600D01*
X163822100Y-122570600D01*
X164622100Y-122570600D01*
X164622100Y-123170600D01*
G37*
G36*
X164687100Y-125670600D02*
G01*
X164457100Y-125670600D01*
X164457100Y-124920600D01*
X164687100Y-124920600D01*
X164687100Y-125670600D01*
G37*
G36*
X166187100Y-125670600D02*
G01*
X165957100Y-125670600D01*
X165957100Y-124920600D01*
X166187100Y-124920600D01*
X166187100Y-125670600D01*
G37*
G36*
X166187100Y-120820600D02*
G01*
X165957100Y-120820600D01*
X165957100Y-120070600D01*
X166187100Y-120070600D01*
X166187100Y-120820600D01*
G37*
G36*
X167187100Y-120820600D02*
G01*
X166957100Y-120820600D01*
X166957100Y-120070600D01*
X167187100Y-120070600D01*
X167187100Y-120820600D01*
G37*
G36*
X163272100Y-121735600D02*
G01*
X162522100Y-121735600D01*
X162522100Y-121505600D01*
X163272100Y-121505600D01*
X163272100Y-121735600D01*
G37*
G36*
X165687100Y-125670600D02*
G01*
X165457100Y-125670600D01*
X165457100Y-124920600D01*
X165687100Y-124920600D01*
X165687100Y-125670600D01*
G37*
G36*
X163272100Y-124235600D02*
G01*
X162522100Y-124235600D01*
X162522100Y-124005600D01*
X163272100Y-124005600D01*
X163272100Y-124235600D01*
G37*
G36*
X166822100Y-123170600D02*
G01*
X166022100Y-123170600D01*
X166022100Y-122570600D01*
X166822100Y-122570600D01*
X166822100Y-123170600D01*
G37*
G36*
X168122100Y-122235600D02*
G01*
X167372100Y-122235600D01*
X167372100Y-122005600D01*
X168122100Y-122005600D01*
X168122100Y-122235600D01*
G37*
G36*
X167187100Y-125670600D02*
G01*
X166957100Y-125670600D01*
X166957100Y-124920600D01*
X167187100Y-124920600D01*
X167187100Y-125670600D01*
G37*
G36*
X163272100Y-122235600D02*
G01*
X162522100Y-122235600D01*
X162522100Y-122005600D01*
X163272100Y-122005600D01*
X163272100Y-122235600D01*
G37*
G36*
X166687100Y-125670600D02*
G01*
X166457100Y-125670600D01*
X166457100Y-124920600D01*
X166687100Y-124920600D01*
X166687100Y-125670600D01*
G37*
G36*
X168122100Y-122735600D02*
G01*
X167372100Y-122735600D01*
X167372100Y-122505600D01*
X168122100Y-122505600D01*
X168122100Y-122735600D01*
G37*
G36*
X164187100Y-120820600D02*
G01*
X163957100Y-120820600D01*
X163957100Y-120070600D01*
X164187100Y-120070600D01*
X164187100Y-120820600D01*
G37*
G36*
X168122100Y-121235600D02*
G01*
X167372100Y-121235600D01*
X167372100Y-121005600D01*
X168122100Y-121005600D01*
X168122100Y-121235600D01*
G37*
G36*
X166822100Y-124370600D02*
G01*
X166022100Y-124370600D01*
X166022100Y-123570600D01*
X166822100Y-123570600D01*
X166822100Y-124370600D01*
G37*
G36*
X164622100Y-122170600D02*
G01*
X163822100Y-122170600D01*
X163822100Y-121370600D01*
X164622100Y-121370600D01*
X164622100Y-122170600D01*
G37*
G36*
X168122100Y-123235600D02*
G01*
X167372100Y-123235600D01*
X167372100Y-123005600D01*
X168122100Y-123005600D01*
X168122100Y-123235600D01*
G37*
G36*
X168122100Y-121735600D02*
G01*
X167372100Y-121735600D01*
X167372100Y-121505600D01*
X168122100Y-121505600D01*
X168122100Y-121735600D01*
G37*
G36*
X165687100Y-120820600D02*
G01*
X165457100Y-120820600D01*
X165457100Y-120070600D01*
X165687100Y-120070600D01*
X165687100Y-120820600D01*
G37*
G36*
X168122100Y-124235600D02*
G01*
X167372100Y-124235600D01*
X167372100Y-124005600D01*
X168122100Y-124005600D01*
X168122100Y-124235600D01*
G37*
%TO.C,GPIO-3*%
G36*
X149516100Y-134565600D02*
G01*
X148616100Y-134565600D01*
X148616100Y-132765600D01*
X149516100Y-132765600D01*
X149516100Y-134565600D01*
G37*
G36*
X162216100Y-134565600D02*
G01*
X161316100Y-134565600D01*
X161316100Y-132765600D01*
X162216100Y-132765600D01*
X162216100Y-134565600D01*
G37*
G36*
X141896100Y-134565600D02*
G01*
X140996100Y-134565600D01*
X140996100Y-132765600D01*
X141896100Y-132765600D01*
X141896100Y-134565600D01*
G37*
G36*
X145706100Y-134565600D02*
G01*
X144806100Y-134565600D01*
X144806100Y-132765600D01*
X145706100Y-132765600D01*
X145706100Y-134565600D01*
G37*
G36*
X163486100Y-130501600D02*
G01*
X162586100Y-130501600D01*
X162586100Y-128701600D01*
X163486100Y-128701600D01*
X163486100Y-130501600D01*
G37*
G36*
X164756100Y-134565600D02*
G01*
X163856100Y-134565600D01*
X163856100Y-132765600D01*
X164756100Y-132765600D01*
X164756100Y-134565600D01*
G37*
G36*
X146976100Y-130501600D02*
G01*
X146076100Y-130501600D01*
X146076100Y-128701600D01*
X146976100Y-128701600D01*
X146976100Y-130501600D01*
G37*
G36*
X145706100Y-130501600D02*
G01*
X144806100Y-130501600D01*
X144806100Y-128701600D01*
X145706100Y-128701600D01*
X145706100Y-130501600D01*
G37*
G36*
X144436100Y-130501600D02*
G01*
X143536100Y-130501600D01*
X143536100Y-128701600D01*
X144436100Y-128701600D01*
X144436100Y-130501600D01*
G37*
G36*
X140626100Y-130501600D02*
G01*
X139726100Y-130501600D01*
X139726100Y-128701600D01*
X140626100Y-128701600D01*
X140626100Y-130501600D01*
G37*
G36*
X159676100Y-130501600D02*
G01*
X158776100Y-130501600D01*
X158776100Y-128701600D01*
X159676100Y-128701600D01*
X159676100Y-130501600D01*
G37*
G36*
X150786100Y-134565600D02*
G01*
X149886100Y-134565600D01*
X149886100Y-132765600D01*
X150786100Y-132765600D01*
X150786100Y-134565600D01*
G37*
G36*
X148246100Y-134565600D02*
G01*
X147346100Y-134565600D01*
X147346100Y-132765600D01*
X148246100Y-132765600D01*
X148246100Y-134565600D01*
G37*
G36*
X154596100Y-130501600D02*
G01*
X153696100Y-130501600D01*
X153696100Y-128701600D01*
X154596100Y-128701600D01*
X154596100Y-130501600D01*
G37*
G36*
X158406100Y-134565600D02*
G01*
X157506100Y-134565600D01*
X157506100Y-132765600D01*
X158406100Y-132765600D01*
X158406100Y-134565600D01*
G37*
G36*
X164756100Y-130501600D02*
G01*
X163856100Y-130501600D01*
X163856100Y-128701600D01*
X164756100Y-128701600D01*
X164756100Y-130501600D01*
G37*
G36*
X154596100Y-134565600D02*
G01*
X153696100Y-134565600D01*
X153696100Y-132765600D01*
X154596100Y-132765600D01*
X154596100Y-134565600D01*
G37*
G36*
X146976100Y-134565600D02*
G01*
X146076100Y-134565600D01*
X146076100Y-132765600D01*
X146976100Y-132765600D01*
X146976100Y-134565600D01*
G37*
G36*
X148246100Y-130501600D02*
G01*
X147346100Y-130501600D01*
X147346100Y-128701600D01*
X148246100Y-128701600D01*
X148246100Y-130501600D01*
G37*
G36*
X144436100Y-134565600D02*
G01*
X143536100Y-134565600D01*
X143536100Y-132765600D01*
X144436100Y-132765600D01*
X144436100Y-134565600D01*
G37*
G36*
X153326100Y-134565600D02*
G01*
X152426100Y-134565600D01*
X152426100Y-132765600D01*
X153326100Y-132765600D01*
X153326100Y-134565600D01*
G37*
G36*
X160946100Y-134565600D02*
G01*
X160046100Y-134565600D01*
X160046100Y-132765600D01*
X160946100Y-132765600D01*
X160946100Y-134565600D01*
G37*
G36*
X160946100Y-130501600D02*
G01*
X160046100Y-130501600D01*
X160046100Y-128701600D01*
X160946100Y-128701600D01*
X160946100Y-130501600D01*
G37*
G36*
X153326100Y-130501600D02*
G01*
X152426100Y-130501600D01*
X152426100Y-128701600D01*
X153326100Y-128701600D01*
X153326100Y-130501600D01*
G37*
G36*
X158406100Y-130501600D02*
G01*
X157506100Y-130501600D01*
X157506100Y-128701600D01*
X158406100Y-128701600D01*
X158406100Y-130501600D01*
G37*
G36*
X150786100Y-130501600D02*
G01*
X149886100Y-130501600D01*
X149886100Y-128701600D01*
X150786100Y-128701600D01*
X150786100Y-130501600D01*
G37*
G36*
X143166100Y-130501600D02*
G01*
X142266100Y-130501600D01*
X142266100Y-128701600D01*
X143166100Y-128701600D01*
X143166100Y-130501600D01*
G37*
G36*
X157136100Y-130501600D02*
G01*
X156236100Y-130501600D01*
X156236100Y-128701600D01*
X157136100Y-128701600D01*
X157136100Y-130501600D01*
G37*
G36*
X163486100Y-134565600D02*
G01*
X162586100Y-134565600D01*
X162586100Y-132765600D01*
X163486100Y-132765600D01*
X163486100Y-134565600D01*
G37*
G36*
X157136100Y-134565600D02*
G01*
X156236100Y-134565600D01*
X156236100Y-132765600D01*
X157136100Y-132765600D01*
X157136100Y-134565600D01*
G37*
G36*
X155866100Y-130501600D02*
G01*
X154966100Y-130501600D01*
X154966100Y-128701600D01*
X155866100Y-128701600D01*
X155866100Y-130501600D01*
G37*
G36*
X155866100Y-134565600D02*
G01*
X154966100Y-134565600D01*
X154966100Y-132765600D01*
X155866100Y-132765600D01*
X155866100Y-134565600D01*
G37*
G36*
X152056100Y-130501600D02*
G01*
X151156100Y-130501600D01*
X151156100Y-128701600D01*
X152056100Y-128701600D01*
X152056100Y-130501600D01*
G37*
G36*
X141896100Y-130501600D02*
G01*
X140996100Y-130501600D01*
X140996100Y-128701600D01*
X141896100Y-128701600D01*
X141896100Y-130501600D01*
G37*
G36*
X149516100Y-130501600D02*
G01*
X148616100Y-130501600D01*
X148616100Y-128701600D01*
X149516100Y-128701600D01*
X149516100Y-130501600D01*
G37*
G36*
X140626100Y-134565600D02*
G01*
X139726100Y-134565600D01*
X139726100Y-132765600D01*
X140626100Y-132765600D01*
X140626100Y-134565600D01*
G37*
G36*
X162216100Y-130501600D02*
G01*
X161316100Y-130501600D01*
X161316100Y-128701600D01*
X162216100Y-128701600D01*
X162216100Y-130501600D01*
G37*
G36*
X159676100Y-134565600D02*
G01*
X158776100Y-134565600D01*
X158776100Y-132765600D01*
X159676100Y-132765600D01*
X159676100Y-134565600D01*
G37*
G36*
X143166100Y-134565600D02*
G01*
X142266100Y-134565600D01*
X142266100Y-132765600D01*
X143166100Y-132765600D01*
X143166100Y-134565600D01*
G37*
G36*
X152056100Y-134565600D02*
G01*
X151156100Y-134565600D01*
X151156100Y-132765600D01*
X152056100Y-132765600D01*
X152056100Y-134565600D01*
G37*
%TO.C,U4*%
G36*
X132849100Y-115463600D02*
G01*
X132619100Y-115463600D01*
X132619100Y-114263600D01*
X132849100Y-114263600D01*
X132849100Y-115463600D01*
G37*
G36*
X128349100Y-95663600D02*
G01*
X128119100Y-95663600D01*
X128119100Y-94463600D01*
X128349100Y-94463600D01*
X128349100Y-95663600D01*
G37*
G36*
X132349100Y-115463600D02*
G01*
X132119100Y-115463600D01*
X132119100Y-114263600D01*
X132349100Y-114263600D01*
X132349100Y-115463600D01*
G37*
G36*
X130849100Y-115463600D02*
G01*
X130619100Y-115463600D01*
X130619100Y-114263600D01*
X130849100Y-114263600D01*
X130849100Y-115463600D01*
G37*
G36*
X131349100Y-115463600D02*
G01*
X131119100Y-115463600D01*
X131119100Y-114263600D01*
X131349100Y-114263600D01*
X131349100Y-115463600D01*
G37*
G36*
X133849100Y-115463600D02*
G01*
X133619100Y-115463600D01*
X133619100Y-114263600D01*
X133849100Y-114263600D01*
X133849100Y-115463600D01*
G37*
G36*
X123849100Y-115463600D02*
G01*
X123619100Y-115463600D01*
X123619100Y-114263600D01*
X123849100Y-114263600D01*
X123849100Y-115463600D01*
G37*
G36*
X129849100Y-115463600D02*
G01*
X129619100Y-115463600D01*
X129619100Y-114263600D01*
X129849100Y-114263600D01*
X129849100Y-115463600D01*
G37*
G36*
X127349100Y-95663600D02*
G01*
X127119100Y-95663600D01*
X127119100Y-94463600D01*
X127349100Y-94463600D01*
X127349100Y-95663600D01*
G37*
G36*
X124849100Y-115463600D02*
G01*
X124619100Y-115463600D01*
X124619100Y-114263600D01*
X124849100Y-114263600D01*
X124849100Y-115463600D01*
G37*
G36*
X133849100Y-95663600D02*
G01*
X133619100Y-95663600D01*
X133619100Y-94463600D01*
X133849100Y-94463600D01*
X133849100Y-95663600D01*
G37*
G36*
X131849100Y-115463600D02*
G01*
X131619100Y-115463600D01*
X131619100Y-114263600D01*
X131849100Y-114263600D01*
X131849100Y-115463600D01*
G37*
G36*
X124349100Y-115463600D02*
G01*
X124119100Y-115463600D01*
X124119100Y-114263600D01*
X124349100Y-114263600D01*
X124349100Y-115463600D01*
G37*
G36*
X128849100Y-115463600D02*
G01*
X128619100Y-115463600D01*
X128619100Y-114263600D01*
X128849100Y-114263600D01*
X128849100Y-115463600D01*
G37*
G36*
X129349100Y-115463600D02*
G01*
X129119100Y-115463600D01*
X129119100Y-114263600D01*
X129349100Y-114263600D01*
X129349100Y-115463600D01*
G37*
G36*
X126849100Y-115463600D02*
G01*
X126619100Y-115463600D01*
X126619100Y-114263600D01*
X126849100Y-114263600D01*
X126849100Y-115463600D01*
G37*
G36*
X130349100Y-95663600D02*
G01*
X130119100Y-95663600D01*
X130119100Y-94463600D01*
X130349100Y-94463600D01*
X130349100Y-95663600D01*
G37*
G36*
X124849100Y-95663600D02*
G01*
X124619100Y-95663600D01*
X124619100Y-94463600D01*
X124849100Y-94463600D01*
X124849100Y-95663600D01*
G37*
G36*
X127849100Y-95663600D02*
G01*
X127619100Y-95663600D01*
X127619100Y-94463600D01*
X127849100Y-94463600D01*
X127849100Y-95663600D01*
G37*
G36*
X133349100Y-115463600D02*
G01*
X133119100Y-115463600D01*
X133119100Y-114263600D01*
X133349100Y-114263600D01*
X133349100Y-115463600D01*
G37*
G36*
X130349100Y-115463600D02*
G01*
X130119100Y-115463600D01*
X130119100Y-114263600D01*
X130349100Y-114263600D01*
X130349100Y-115463600D01*
G37*
G36*
X126849100Y-95663600D02*
G01*
X126619100Y-95663600D01*
X126619100Y-94463600D01*
X126849100Y-94463600D01*
X126849100Y-95663600D01*
G37*
G36*
X125849100Y-115463600D02*
G01*
X125619100Y-115463600D01*
X125619100Y-114263600D01*
X125849100Y-114263600D01*
X125849100Y-115463600D01*
G37*
G36*
X133349100Y-95663600D02*
G01*
X133119100Y-95663600D01*
X133119100Y-94463600D01*
X133349100Y-94463600D01*
X133349100Y-95663600D01*
G37*
G36*
X123349100Y-95663600D02*
G01*
X123119100Y-95663600D01*
X123119100Y-94463600D01*
X123349100Y-94463600D01*
X123349100Y-95663600D01*
G37*
G36*
X125349100Y-115463600D02*
G01*
X125119100Y-115463600D01*
X125119100Y-114263600D01*
X125349100Y-114263600D01*
X125349100Y-115463600D01*
G37*
G36*
X122349100Y-115463600D02*
G01*
X122119100Y-115463600D01*
X122119100Y-114263600D01*
X122349100Y-114263600D01*
X122349100Y-115463600D01*
G37*
G36*
X132349100Y-95663600D02*
G01*
X132119100Y-95663600D01*
X132119100Y-94463600D01*
X132349100Y-94463600D01*
X132349100Y-95663600D01*
G37*
G36*
X122849100Y-95663600D02*
G01*
X122619100Y-95663600D01*
X122619100Y-94463600D01*
X122849100Y-94463600D01*
X122849100Y-95663600D01*
G37*
G36*
X132849100Y-95663600D02*
G01*
X132619100Y-95663600D01*
X132619100Y-94463600D01*
X132849100Y-94463600D01*
X132849100Y-95663600D01*
G37*
G36*
X126349100Y-95663600D02*
G01*
X126119100Y-95663600D01*
X126119100Y-94463600D01*
X126349100Y-94463600D01*
X126349100Y-95663600D01*
G37*
G36*
X124349100Y-95663600D02*
G01*
X124119100Y-95663600D01*
X124119100Y-94463600D01*
X124349100Y-94463600D01*
X124349100Y-95663600D01*
G37*
G36*
X125349100Y-95663600D02*
G01*
X125119100Y-95663600D01*
X125119100Y-94463600D01*
X125349100Y-94463600D01*
X125349100Y-95663600D01*
G37*
G36*
X127349100Y-115463600D02*
G01*
X127119100Y-115463600D01*
X127119100Y-114263600D01*
X127349100Y-114263600D01*
X127349100Y-115463600D01*
G37*
G36*
X129849100Y-95663600D02*
G01*
X129619100Y-95663600D01*
X129619100Y-94463600D01*
X129849100Y-94463600D01*
X129849100Y-95663600D01*
G37*
G36*
X126349100Y-115463600D02*
G01*
X126119100Y-115463600D01*
X126119100Y-114263600D01*
X126349100Y-114263600D01*
X126349100Y-115463600D01*
G37*
G36*
X128349100Y-115463600D02*
G01*
X128119100Y-115463600D01*
X128119100Y-114263600D01*
X128349100Y-114263600D01*
X128349100Y-115463600D01*
G37*
G36*
X129349100Y-95663600D02*
G01*
X129119100Y-95663600D01*
X129119100Y-94463600D01*
X129349100Y-94463600D01*
X129349100Y-95663600D01*
G37*
G36*
X131849100Y-95663600D02*
G01*
X131619100Y-95663600D01*
X131619100Y-94463600D01*
X131849100Y-94463600D01*
X131849100Y-95663600D01*
G37*
G36*
X122849100Y-115463600D02*
G01*
X122619100Y-115463600D01*
X122619100Y-114263600D01*
X122849100Y-114263600D01*
X122849100Y-115463600D01*
G37*
G36*
X125849100Y-95663600D02*
G01*
X125619100Y-95663600D01*
X125619100Y-94463600D01*
X125849100Y-94463600D01*
X125849100Y-95663600D01*
G37*
G36*
X127849100Y-115463600D02*
G01*
X127619100Y-115463600D01*
X127619100Y-114263600D01*
X127849100Y-114263600D01*
X127849100Y-115463600D01*
G37*
G36*
X123849100Y-95663600D02*
G01*
X123619100Y-95663600D01*
X123619100Y-94463600D01*
X123849100Y-94463600D01*
X123849100Y-95663600D01*
G37*
G36*
X131349100Y-95663600D02*
G01*
X131119100Y-95663600D01*
X131119100Y-94463600D01*
X131349100Y-94463600D01*
X131349100Y-95663600D01*
G37*
G36*
X122349100Y-95663600D02*
G01*
X122119100Y-95663600D01*
X122119100Y-94463600D01*
X122349100Y-94463600D01*
X122349100Y-95663600D01*
G37*
G36*
X130849100Y-95663600D02*
G01*
X130619100Y-95663600D01*
X130619100Y-94463600D01*
X130849100Y-94463600D01*
X130849100Y-95663600D01*
G37*
G36*
X123349100Y-115463600D02*
G01*
X123119100Y-115463600D01*
X123119100Y-114263600D01*
X123349100Y-114263600D01*
X123349100Y-115463600D01*
G37*
G36*
X128849100Y-95663600D02*
G01*
X128619100Y-95663600D01*
X128619100Y-94463600D01*
X128849100Y-94463600D01*
X128849100Y-95663600D01*
G37*
%TO.C,U5*%
G36*
X120499100Y-113566600D02*
G01*
X119839100Y-113566600D01*
X119839100Y-113346600D01*
X120499100Y-113346600D01*
X120499100Y-113566600D01*
G37*
G36*
X119619100Y-111566600D02*
G01*
X118959100Y-111566600D01*
X118959100Y-111346600D01*
X119619100Y-111346600D01*
X119619100Y-111566600D01*
G37*
G36*
X120499100Y-111566600D02*
G01*
X119839100Y-111566600D01*
X119839100Y-111346600D01*
X120499100Y-111346600D01*
X120499100Y-111566600D01*
G37*
G36*
X120499100Y-113066600D02*
G01*
X119839100Y-113066600D01*
X119839100Y-112846600D01*
X120499100Y-112846600D01*
X120499100Y-113066600D01*
G37*
G36*
X119619100Y-113066600D02*
G01*
X118959100Y-113066600D01*
X118959100Y-112846600D01*
X119619100Y-112846600D01*
X119619100Y-113066600D01*
G37*
G36*
X119619100Y-112066600D02*
G01*
X118959100Y-112066600D01*
X118959100Y-111846600D01*
X119619100Y-111846600D01*
X119619100Y-112066600D01*
G37*
G36*
X119619100Y-113566600D02*
G01*
X118959100Y-113566600D01*
X118959100Y-113346600D01*
X119619100Y-113346600D01*
X119619100Y-113566600D01*
G37*
G36*
X120499100Y-112066600D02*
G01*
X119839100Y-112066600D01*
X119839100Y-111846600D01*
X120499100Y-111846600D01*
X120499100Y-112066600D01*
G37*
%TO.C,GPIO-1*%
G36*
X134276100Y-83511600D02*
G01*
X133376100Y-83511600D01*
X133376100Y-81711600D01*
X134276100Y-81711600D01*
X134276100Y-83511600D01*
G37*
G36*
X133006100Y-87575600D02*
G01*
X132106100Y-87575600D01*
X132106100Y-85775600D01*
X133006100Y-85775600D01*
X133006100Y-87575600D01*
G37*
G36*
X153326100Y-83511600D02*
G01*
X152426100Y-83511600D01*
X152426100Y-81711600D01*
X153326100Y-81711600D01*
X153326100Y-83511600D01*
G37*
G36*
X141896100Y-83511600D02*
G01*
X140996100Y-83511600D01*
X140996100Y-81711600D01*
X141896100Y-81711600D01*
X141896100Y-83511600D01*
G37*
G36*
X155866100Y-87575600D02*
G01*
X154966100Y-87575600D01*
X154966100Y-85775600D01*
X155866100Y-85775600D01*
X155866100Y-87575600D01*
G37*
G36*
X140626100Y-83511600D02*
G01*
X139726100Y-83511600D01*
X139726100Y-81711600D01*
X140626100Y-81711600D01*
X140626100Y-83511600D01*
G37*
G36*
X153326100Y-87575600D02*
G01*
X152426100Y-87575600D01*
X152426100Y-85775600D01*
X153326100Y-85775600D01*
X153326100Y-87575600D01*
G37*
G36*
X155866100Y-83511600D02*
G01*
X154966100Y-83511600D01*
X154966100Y-81711600D01*
X155866100Y-81711600D01*
X155866100Y-83511600D01*
G37*
G36*
X149516100Y-87575600D02*
G01*
X148616100Y-87575600D01*
X148616100Y-85775600D01*
X149516100Y-85775600D01*
X149516100Y-87575600D01*
G37*
G36*
X138086100Y-87575600D02*
G01*
X137186100Y-87575600D01*
X137186100Y-85775600D01*
X138086100Y-85775600D01*
X138086100Y-87575600D01*
G37*
G36*
X139356100Y-87575600D02*
G01*
X138456100Y-87575600D01*
X138456100Y-85775600D01*
X139356100Y-85775600D01*
X139356100Y-87575600D01*
G37*
G36*
X136816100Y-87575600D02*
G01*
X135916100Y-87575600D01*
X135916100Y-85775600D01*
X136816100Y-85775600D01*
X136816100Y-87575600D01*
G37*
G36*
X135546100Y-83511600D02*
G01*
X134646100Y-83511600D01*
X134646100Y-81711600D01*
X135546100Y-81711600D01*
X135546100Y-83511600D01*
G37*
G36*
X150786100Y-83511600D02*
G01*
X149886100Y-83511600D01*
X149886100Y-81711600D01*
X150786100Y-81711600D01*
X150786100Y-83511600D01*
G37*
G36*
X135546100Y-87575600D02*
G01*
X134646100Y-87575600D01*
X134646100Y-85775600D01*
X135546100Y-85775600D01*
X135546100Y-87575600D01*
G37*
G36*
X133006100Y-83511600D02*
G01*
X132106100Y-83511600D01*
X132106100Y-81711600D01*
X133006100Y-81711600D01*
X133006100Y-83511600D01*
G37*
G36*
X144436100Y-87575600D02*
G01*
X143536100Y-87575600D01*
X143536100Y-85775600D01*
X144436100Y-85775600D01*
X144436100Y-87575600D01*
G37*
G36*
X157136100Y-87575600D02*
G01*
X156236100Y-87575600D01*
X156236100Y-85775600D01*
X157136100Y-85775600D01*
X157136100Y-87575600D01*
G37*
G36*
X138086100Y-83511600D02*
G01*
X137186100Y-83511600D01*
X137186100Y-81711600D01*
X138086100Y-81711600D01*
X138086100Y-83511600D01*
G37*
G36*
X154596100Y-87575600D02*
G01*
X153696100Y-87575600D01*
X153696100Y-85775600D01*
X154596100Y-85775600D01*
X154596100Y-87575600D01*
G37*
G36*
X143166100Y-83511600D02*
G01*
X142266100Y-83511600D01*
X142266100Y-81711600D01*
X143166100Y-81711600D01*
X143166100Y-83511600D01*
G37*
G36*
X141896100Y-87575600D02*
G01*
X140996100Y-87575600D01*
X140996100Y-85775600D01*
X141896100Y-85775600D01*
X141896100Y-87575600D01*
G37*
G36*
X145706100Y-83511600D02*
G01*
X144806100Y-83511600D01*
X144806100Y-81711600D01*
X145706100Y-81711600D01*
X145706100Y-83511600D01*
G37*
G36*
X146976100Y-83511600D02*
G01*
X146076100Y-83511600D01*
X146076100Y-81711600D01*
X146976100Y-81711600D01*
X146976100Y-83511600D01*
G37*
G36*
X152056100Y-83511600D02*
G01*
X151156100Y-83511600D01*
X151156100Y-81711600D01*
X152056100Y-81711600D01*
X152056100Y-83511600D01*
G37*
G36*
X136816100Y-83511600D02*
G01*
X135916100Y-83511600D01*
X135916100Y-81711600D01*
X136816100Y-81711600D01*
X136816100Y-83511600D01*
G37*
G36*
X148246100Y-87575600D02*
G01*
X147346100Y-87575600D01*
X147346100Y-85775600D01*
X148246100Y-85775600D01*
X148246100Y-87575600D01*
G37*
G36*
X154596100Y-83511600D02*
G01*
X153696100Y-83511600D01*
X153696100Y-81711600D01*
X154596100Y-81711600D01*
X154596100Y-83511600D01*
G37*
G36*
X134276100Y-87575600D02*
G01*
X133376100Y-87575600D01*
X133376100Y-85775600D01*
X134276100Y-85775600D01*
X134276100Y-87575600D01*
G37*
G36*
X140626100Y-87575600D02*
G01*
X139726100Y-87575600D01*
X139726100Y-85775600D01*
X140626100Y-85775600D01*
X140626100Y-87575600D01*
G37*
G36*
X148246100Y-83511600D02*
G01*
X147346100Y-83511600D01*
X147346100Y-81711600D01*
X148246100Y-81711600D01*
X148246100Y-83511600D01*
G37*
G36*
X152056100Y-87575600D02*
G01*
X151156100Y-87575600D01*
X151156100Y-85775600D01*
X152056100Y-85775600D01*
X152056100Y-87575600D01*
G37*
G36*
X144436100Y-83511600D02*
G01*
X143536100Y-83511600D01*
X143536100Y-81711600D01*
X144436100Y-81711600D01*
X144436100Y-83511600D01*
G37*
G36*
X150786100Y-87575600D02*
G01*
X149886100Y-87575600D01*
X149886100Y-85775600D01*
X150786100Y-85775600D01*
X150786100Y-87575600D01*
G37*
G36*
X149516100Y-83511600D02*
G01*
X148616100Y-83511600D01*
X148616100Y-81711600D01*
X149516100Y-81711600D01*
X149516100Y-83511600D01*
G37*
G36*
X145706100Y-87575600D02*
G01*
X144806100Y-87575600D01*
X144806100Y-85775600D01*
X145706100Y-85775600D01*
X145706100Y-87575600D01*
G37*
G36*
X157136100Y-83511600D02*
G01*
X156236100Y-83511600D01*
X156236100Y-81711600D01*
X157136100Y-81711600D01*
X157136100Y-83511600D01*
G37*
G36*
X139356100Y-83511600D02*
G01*
X138456100Y-83511600D01*
X138456100Y-81711600D01*
X139356100Y-81711600D01*
X139356100Y-83511600D01*
G37*
G36*
X146976100Y-87575600D02*
G01*
X146076100Y-87575600D01*
X146076100Y-85775600D01*
X146976100Y-85775600D01*
X146976100Y-87575600D01*
G37*
G36*
X143166100Y-87575600D02*
G01*
X142266100Y-87575600D01*
X142266100Y-85775600D01*
X143166100Y-85775600D01*
X143166100Y-87575600D01*
G37*
%TD*%
D13*
%TO.C,C113*%
X129000100Y-85786600D03*
X130016100Y-85786600D03*
%TD*%
%TO.C,C41*%
X170529100Y-99502600D03*
X169513100Y-99502600D03*
%TD*%
D14*
%TO.C,C147*%
X158718100Y-90866600D03*
X158718100Y-89850600D03*
%TD*%
%TO.C,C161*%
X176498100Y-86116800D03*
X176498100Y-87132800D03*
%TD*%
D13*
%TO.C,C116*%
X129000100Y-84770600D03*
X130016100Y-84770600D03*
%TD*%
D15*
%TO.C,C189*%
X118459100Y-124775600D03*
X118459100Y-122743600D03*
%TD*%
D16*
%TO.C,C134*%
X181705100Y-92263600D03*
X181705100Y-94041600D03*
%TD*%
%TO.C,R8*%
X170910100Y-106424100D03*
X169132100Y-106424100D03*
%TD*%
%TO.C,R75*%
X179673100Y-76515600D03*
X179673100Y-78293600D03*
%TD*%
%TO.C,C75*%
X167481100Y-115631600D03*
X169259100Y-115631600D03*
%TD*%
D13*
%TO.C,C45*%
X166592100Y-96073600D03*
X165576100Y-96073600D03*
%TD*%
%TO.C,C27*%
X170529100Y-108773600D03*
X169513100Y-108773600D03*
%TD*%
%TO.C,C43*%
X170529100Y-101534600D03*
X169513100Y-101534600D03*
%TD*%
D17*
%TO.C,U9*%
X124144000Y-122682600D03*
X124144000Y-123632600D03*
X124144000Y-124582600D03*
X126744200Y-124582600D03*
X126744200Y-122682600D03*
%TD*%
D18*
%TO.C,L11*%
X163290100Y-82681600D03*
X163290100Y-85081600D03*
%TD*%
D19*
%TO.C,CHGLED*%
X185134100Y-93787600D03*
X183610100Y-93787600D03*
%TD*%
D15*
%TO.C,C201*%
X120491100Y-124775600D03*
X120491100Y-122743600D03*
%TD*%
D16*
%TO.C,C183*%
X132302100Y-76134600D03*
X132302100Y-77912600D03*
%TD*%
D14*
%TO.C,R97*%
X118205100Y-102550600D03*
X118205100Y-103566600D03*
%TD*%
D16*
%TO.C,C180*%
X184753100Y-92136600D03*
X186531100Y-92136600D03*
%TD*%
%TO.C,R3*%
X164941100Y-111567600D03*
X164941100Y-113345600D03*
%TD*%
D13*
%TO.C,R18*%
X128619100Y-92517600D03*
X129635100Y-92517600D03*
%TD*%
D14*
%TO.C,R30*%
X120618100Y-103566600D03*
X120618100Y-102550600D03*
%TD*%
D20*
%TO.C,U6*%
X120116600Y-109408600D03*
X119341600Y-109408600D03*
%TD*%
D16*
%TO.C,C97*%
X139033100Y-89977600D03*
X137255100Y-89977600D03*
%TD*%
D13*
%TO.C,C20*%
X169513100Y-100518600D03*
X170529100Y-100518600D03*
%TD*%
D16*
%TO.C,C173*%
X140811100Y-93279600D03*
X142589100Y-93279600D03*
%TD*%
D13*
%TO.C,R63*%
X170021100Y-94676600D03*
X169005100Y-94676600D03*
%TD*%
%TO.C,R9*%
X157956100Y-100645600D03*
X156940100Y-100645600D03*
%TD*%
D14*
%TO.C,C61*%
X162274100Y-118552600D03*
X162274100Y-119568600D03*
%TD*%
D16*
%TO.C,C171*%
X140811100Y-91755600D03*
X142589100Y-91755600D03*
%TD*%
%TO.C,R34*%
X149129600Y-95311600D03*
X149129600Y-93533600D03*
%TD*%
%TO.C,C79*%
X145065600Y-120267100D03*
X143287600Y-120267100D03*
%TD*%
D13*
%TO.C,C42*%
X169513100Y-107757600D03*
X170529100Y-107757600D03*
%TD*%
D15*
%TO.C,L2*%
X171037100Y-117536600D03*
X171037100Y-115504600D03*
%TD*%
D13*
%TO.C,C84*%
X127603100Y-116520600D03*
X128619100Y-116520600D03*
%TD*%
D14*
%TO.C,R98*%
X120618100Y-97089600D03*
X120618100Y-96073600D03*
%TD*%
D19*
%TO.C,PWR_LED*%
X186023100Y-76642600D03*
X187547100Y-76642600D03*
%TD*%
D21*
%TO.C,USB_OTG*%
X113291100Y-127180600D03*
X113291100Y-126380600D03*
X113291100Y-128780600D03*
X113291100Y-127980600D03*
X113291100Y-125580600D03*
%TD*%
D16*
%TO.C,C172*%
X139033100Y-91501600D03*
X137255100Y-91501600D03*
%TD*%
%TO.C,C154*%
X165703100Y-94295600D03*
X167481100Y-94295600D03*
%TD*%
D13*
%TO.C,C82*%
X126333100Y-93406600D03*
X125317100Y-93406600D03*
%TD*%
D16*
%TO.C,R5*%
X173196100Y-113345600D03*
X173196100Y-111567600D03*
%TD*%
%TO.C,R23*%
X143287600Y-117854100D03*
X145065600Y-117854100D03*
%TD*%
%TO.C,C59*%
X159988100Y-113345600D03*
X159988100Y-111567600D03*
%TD*%
%TO.C,R36*%
X119729100Y-126553600D03*
X121507100Y-126553600D03*
%TD*%
D14*
%TO.C,C2*%
X163671100Y-112583600D03*
X163671100Y-111567600D03*
%TD*%
D19*
%TO.C,LED1*%
X135223100Y-131887600D03*
X135223100Y-133411600D03*
%TD*%
D14*
%TO.C,R31*%
X119729100Y-103566600D03*
X119729100Y-102550600D03*
%TD*%
D22*
%TO.C,SATA*%
X115300100Y-96145600D03*
X115300100Y-94875600D03*
X115300100Y-93605600D03*
X115300100Y-92335600D03*
X115300100Y-91065600D03*
X115300100Y-89795600D03*
X115300100Y-88525600D03*
%TD*%
D16*
%TO.C,R1*%
X137001100Y-133538600D03*
X137001100Y-131760600D03*
%TD*%
%TO.C,C122*%
X157194100Y-93025600D03*
X157194100Y-91247600D03*
%TD*%
D13*
%TO.C,C109*%
X124047100Y-131887600D03*
X123031100Y-131887600D03*
%TD*%
D18*
%TO.C,L10*%
X178911100Y-87380600D03*
X178911100Y-89780600D03*
%TD*%
D14*
%TO.C,C143*%
X160877100Y-84389600D03*
X160877100Y-83373600D03*
%TD*%
D16*
%TO.C,C119*%
X153130100Y-93025600D03*
X153130100Y-91247600D03*
%TD*%
D14*
%TO.C,C14*%
X171926100Y-112583600D03*
X171926100Y-111567600D03*
%TD*%
D15*
%TO.C,L6*%
X115919100Y-130617600D03*
X115919100Y-132649600D03*
%TD*%
D13*
%TO.C,R17*%
X129635100Y-93406600D03*
X130651100Y-93406600D03*
%TD*%
%TO.C,C114*%
X129000100Y-83754600D03*
X130016100Y-83754600D03*
%TD*%
D14*
%TO.C,C110*%
X116427100Y-126299600D03*
X116427100Y-127315600D03*
%TD*%
D23*
%TO.C,D6*%
X118967100Y-97900600D03*
X118967100Y-94500600D03*
%TD*%
D15*
%TO.C,C190*%
X115030100Y-81341600D03*
X115030100Y-79309600D03*
%TD*%
D24*
%TO.C,D4*%
X186168100Y-89596600D03*
X181814100Y-89596600D03*
%TD*%
D14*
%TO.C,C60*%
X161258100Y-121600600D03*
X161258100Y-122616600D03*
%TD*%
D16*
%TO.C,R42*%
X118332100Y-132522600D03*
X118332100Y-130744600D03*
%TD*%
D14*
%TO.C,R60*%
X175558300Y-85659600D03*
X175558300Y-86675600D03*
%TD*%
D13*
%TO.C,C26*%
X169513100Y-102550600D03*
X170529100Y-102550600D03*
%TD*%
%TO.C,C83*%
X127603100Y-93406600D03*
X128619100Y-93406600D03*
%TD*%
D16*
%TO.C,R33*%
X124428100Y-133157600D03*
X122650100Y-133157600D03*
%TD*%
D15*
%TO.C,C202*%
X112998100Y-81341600D03*
X112998100Y-79309600D03*
%TD*%
D13*
%TO.C,R20*%
X126333100Y-92517600D03*
X125317100Y-92517600D03*
%TD*%
D15*
%TO.C,L5*%
X116173100Y-124775600D03*
X116173100Y-122743600D03*
%TD*%
D16*
%TO.C,C159*%
X177514100Y-92263600D03*
X179292100Y-92263600D03*
%TD*%
D25*
%TO.C,Q1*%
X161821100Y-116012600D03*
X165521100Y-116012600D03*
%TD*%
D13*
%TO.C,C167*%
X127095100Y-89850600D03*
X126079100Y-89850600D03*
%TD*%
D14*
%TO.C,C47*%
X135604100Y-80833600D03*
X135604100Y-79817600D03*
%TD*%
D13*
%TO.C,C23*%
X169513100Y-109789600D03*
X170529100Y-109789600D03*
%TD*%
%TO.C,C107*%
X141065100Y-94549600D03*
X142081100Y-94549600D03*
%TD*%
%TO.C,C80*%
X144049600Y-119060600D03*
X143033600Y-119060600D03*
%TD*%
D26*
%TO.C,FET2*%
X178972100Y-82527600D03*
X177072100Y-82527600D03*
X178022100Y-84727600D03*
%TD*%
D13*
%TO.C,R61*%
X173958100Y-84389600D03*
X172942100Y-84389600D03*
%TD*%
D20*
%TO.C,U8*%
X120116600Y-106360600D03*
X119341600Y-106360600D03*
%TD*%
D13*
%TO.C,C115*%
X128873100Y-87691600D03*
X129889100Y-87691600D03*
%TD*%
D16*
%TO.C,R28*%
X133699100Y-91882600D03*
X131921100Y-91882600D03*
%TD*%
D13*
%TO.C,R37*%
X123031100Y-130871600D03*
X124047100Y-130871600D03*
%TD*%
%TO.C,C46*%
X170529100Y-103566600D03*
X169513100Y-103566600D03*
%TD*%
D14*
%TO.C,C1*%
X171037100Y-112583600D03*
X171037100Y-111567600D03*
%TD*%
%TO.C,C87*%
X159861100Y-115504600D03*
X159861100Y-116520600D03*
%TD*%
D16*
%TO.C,C169*%
X140811100Y-90231600D03*
X142589100Y-90231600D03*
%TD*%
%TO.C,R78*%
X170910100Y-104836600D03*
X169132100Y-104836600D03*
%TD*%
D14*
%TO.C,C13*%
X162782100Y-112583600D03*
X162782100Y-111567600D03*
%TD*%
D16*
%TO.C,C62*%
X161004100Y-118552600D03*
X161004100Y-120330600D03*
%TD*%
D14*
%TO.C,C64*%
X167989100Y-118044600D03*
X167989100Y-119060600D03*
%TD*%
D16*
%TO.C,R65*%
X182594100Y-76642600D03*
X184372100Y-76642600D03*
%TD*%
%TO.C,C74*%
X169259100Y-117155600D03*
X169259100Y-118933600D03*
%TD*%
%TO.C,R10*%
X136874100Y-78801600D03*
X136874100Y-80579600D03*
%TD*%
D13*
%TO.C,R82*%
X169894100Y-120584600D03*
X170910100Y-120584600D03*
%TD*%
%TO.C,R56*%
X186023100Y-95057600D03*
X185007100Y-95057600D03*
%TD*%
D16*
%TO.C,C101*%
X131921100Y-93406600D03*
X133699100Y-93406600D03*
%TD*%
D14*
%TO.C,R32*%
X118205100Y-101153600D03*
X118205100Y-100137600D03*
%TD*%
D16*
%TO.C,C144*%
X172561100Y-83119600D03*
X174339100Y-83119600D03*
%TD*%
D14*
%TO.C,C25*%
X157956100Y-108138600D03*
X157956100Y-109154600D03*
%TD*%
D13*
%TO.C,R80*%
X169894100Y-122743600D03*
X170910100Y-122743600D03*
%TD*%
D16*
%TO.C,R2*%
X169767100Y-111567600D03*
X169767100Y-113345600D03*
%TD*%
%TO.C,C165*%
X125317100Y-84262600D03*
X127095100Y-84262600D03*
%TD*%
%TO.C,R59*%
X165703100Y-92771600D03*
X167481100Y-92771600D03*
%TD*%
D13*
%TO.C,C106*%
X139922100Y-94549600D03*
X138906100Y-94549600D03*
%TD*%
D16*
%TO.C,R71*%
X133826100Y-76134600D03*
X133826100Y-77912600D03*
%TD*%
D13*
%TO.C,R11*%
X157956100Y-101534600D03*
X156940100Y-101534600D03*
%TD*%
D16*
%TO.C,C142*%
X159607100Y-85151600D03*
X159607100Y-83373600D03*
%TD*%
%TO.C,C102*%
X131921100Y-90104600D03*
X133699100Y-90104600D03*
%TD*%
D13*
%TO.C,C86*%
X168116100Y-113599600D03*
X167100100Y-113599600D03*
%TD*%
D16*
%TO.C,C112*%
X122269100Y-124648600D03*
X122269100Y-122870600D03*
%TD*%
%TO.C,C160*%
X177514100Y-93787600D03*
X179292100Y-93787600D03*
%TD*%
D14*
%TO.C,C63*%
X169894100Y-126299600D03*
X169894100Y-125283600D03*
%TD*%
D27*
%TO.C,VR1*%
X127410100Y-85883500D03*
X126460100Y-85883500D03*
X125510100Y-85883500D03*
X125510100Y-88483700D03*
X127410100Y-88483700D03*
%TD*%
D16*
%TO.C,R6*%
X161512100Y-113345600D03*
X161512100Y-111567600D03*
%TD*%
%TO.C,C155*%
X155670100Y-93025600D03*
X155670100Y-91247600D03*
%TD*%
%TO.C,C92*%
X157702100Y-116901600D03*
X157702100Y-115123600D03*
%TD*%
%TO.C,C146*%
X159988100Y-91247600D03*
X159988100Y-89469600D03*
%TD*%
D13*
%TO.C,C39*%
X169513100Y-98486600D03*
X170529100Y-98486600D03*
%TD*%
D16*
%TO.C,C94*%
X139033100Y-93025600D03*
X137255100Y-93025600D03*
%TD*%
D20*
%TO.C,U5*%
X120116600Y-112456600D03*
X119341600Y-112456600D03*
%TD*%
D16*
%TO.C,R50*%
X179292100Y-95311600D03*
X177514100Y-95311600D03*
%TD*%
D13*
%TO.C,R81*%
X169894100Y-124013600D03*
X170910100Y-124013600D03*
%TD*%
D18*
%TO.C,L12*%
X162782100Y-88396600D03*
X162782100Y-90796600D03*
%TD*%
D14*
%TO.C,R35*%
X128365100Y-123632600D03*
X128365100Y-124648600D03*
%TD*%
D16*
%TO.C,R4*%
X168243100Y-111567600D03*
X166465100Y-111567600D03*
%TD*%
D14*
%TO.C,C111*%
X128365100Y-121600600D03*
X128365100Y-122616600D03*
%TD*%
D13*
%TO.C,R83*%
X169894100Y-121854600D03*
X170910100Y-121854600D03*
%TD*%
D16*
%TO.C,C166*%
X127095100Y-91120600D03*
X125317100Y-91120600D03*
%TD*%
M02*
