M48
; DRILL file {KiCad (6.0.1)} date Wed Jun 22 14:46:08 2022
; FORMAT={-:-/ absolute / inch / decimal}
; #@! TF.CreationDate,2022-06-22T14:46:08-03:00
; #@! TF.GenerationSoftware,Kicad,Pcbnew,(6.0.1)
; #@! TF.FileFunction,Plated,1,6,PTH
FMAT,2
INCH
; #@! TA.AperFunction,Plated,PTH,ViaDrill
T1C0.0100
; #@! TA.AperFunction,Plated,PTH,ViaDrill
T2C0.0118
; #@! TA.AperFunction,Plated,PTH,ComponentDrill
T3C0.0118
; #@! TA.AperFunction,Plated,PTH,ViaDrill
T4C0.0157
; #@! TA.AperFunction,Plated,PTH,ComponentDrill
T5C0.0157
; #@! TA.AperFunction,Plated,PTH,ViaDrill
T6C0.0197
; #@! TA.AperFunction,Plated,PTH,ViaDrill
T7C0.0236
; #@! TA.AperFunction,Plated,PTH,ComponentDrill
T8C0.0236
; #@! TA.AperFunction,Plated,PTH,ComponentDrill
T9C0.0315
; #@! TA.AperFunction,Plated,PTH,ComponentDrill
T10C0.0340
; #@! TA.AperFunction,Plated,PTH,ComponentDrill
T11C0.0354
; #@! TA.AperFunction,Plated,PTH,ComponentDrill
T12C0.0394
; #@! TA.AperFunction,Plated,PTH,ComponentDrill
T13C0.0400
; #@! TA.AperFunction,Plated,PTH,ComponentDrill
T14C0.0433
; #@! TA.AperFunction,Plated,PTH,ComponentDrill
T15C0.0472
; #@! TA.AperFunction,Plated,PTH,ComponentDrill
T16C0.0512
; #@! TA.AperFunction,Plated,PTH,ComponentDrill
T17C0.0591
; #@! TA.AperFunction,Plated,PTH,ComponentDrill
T18C0.1299
%
G90
G05
T1
X4.4812Y-3.5424
X4.4812Y-3.5774
X4.4812Y-3.6924
X4.4812Y-3.7274
X4.6137Y-3.5274
X4.6337Y-3.3524
X4.6337Y-3.7624
X4.6387Y-3.3124
X4.6437Y-3.0174
X4.6487Y-2.9874
X4.6887Y-3.6474
X4.7487Y-3.0924
X4.7487Y-3.1824
X4.7487Y-3.2924
X4.7587Y-4.2524
X4.7587Y-4.2774
X4.7587Y-4.3274
X4.7587Y-4.3524
X4.7587Y-4.3774
X4.7587Y-4.4024
X4.7637Y-4.4524
X4.7637Y-4.4774
X4.7737Y-4.5374
X4.7787Y-3.1424
X4.7787Y-3.2424
X4.7787Y-3.3424
X4.7887Y-4.5174
X4.7937Y-3.1824
X4.8087Y-3.1424
X4.8087Y-3.2424
X4.8087Y-3.2924
X4.8087Y-3.3424
X4.8287Y-4.4774
X4.8537Y-3.9674
X4.9137Y-3.1024
X4.9137Y-3.4174
X4.9187Y-3.2424
X4.9612Y-4.2874
X4.9612Y-4.3124
X4.9687Y-3.2824
X4.9972Y-4.2799
X5.0087Y-4.1024
X5.0087Y-4.1254
X5.0162Y-4.3024
X5.0187Y-4.1644
X5.0187Y-4.2024
X5.0337Y-4.1024
X5.0387Y-4.0624
X5.0387Y-4.2949
X5.0437Y-3.3324
X5.0437Y-3.9574
X5.0587Y-4.1254
X5.0587Y-4.2024
X5.0617Y-4.2854
X5.0637Y-4.0624
X5.0687Y-4.1024
X5.0687Y-4.3944
X5.0787Y-4.2024
X5.0847Y-4.2854
X5.0887Y-4.0624
X5.0887Y-4.8124
X5.0937Y-4.3824
X5.0957Y-4.3594
X5.1037Y-3.4224
X5.1037Y-4.1024
X5.1037Y-4.1374
X5.1037Y-4.1674
X5.1037Y-4.6074
X5.1077Y-4.2854
X5.1237Y-3.4024
X5.1237Y-3.8024
X5.1237Y-3.8274
X5.1237Y-4.4244
X5.1307Y-4.2854
X5.1337Y-4.6074
X5.1337Y-4.6324
X5.1537Y-4.2854
X5.1587Y-3.4324
X5.1587Y-4.5974
X5.1587Y-4.6274
X5.1637Y-3.3374
X5.1737Y-3.3724
X5.1737Y-4.6474
X5.1767Y-4.2854
X5.1837Y-3.4324
X5.1937Y-5.2024
X5.2037Y-4.6174
X5.2137Y-4.1424
X5.2237Y-4.6374
X5.2337Y-4.2114
X5.2387Y-4.3024
X5.2437Y-3.9824
X5.2437Y-4.6174
X5.2487Y-4.2774
X5.2637Y-4.6024
X5.2637Y-4.6624
X5.2637Y-4.6874
X5.2687Y-3.9824
X5.2737Y-4.2724
X5.2737Y-4.7124
X5.2837Y-4.2474
X5.2887Y-3.9974
X5.2887Y-4.0224
X5.2937Y-4.1974
X5.3037Y-4.1724
X5.3187Y-4.0274
X5.3187Y-4.0524
X5.3237Y-4.1474
X5.3237Y-4.8974
X5.3337Y-3.7924
X5.3337Y-5.1024
X5.3437Y-4.0574
X5.3437Y-4.0824
X5.3437Y-4.1274
X5.3587Y-4.9124
X5.3587Y-5.1024
X5.3637Y-3.7324
X5.3637Y-4.1074
X5.3837Y-4.0874
X5.4037Y-5.1224
X5.4212Y-4.6999
X5.4262Y-3.7574
X5.4262Y-3.7824
X5.4262Y-3.8074
X5.4287Y-5.1224
X5.4387Y-3.5074
X5.4462Y-4.6999
X5.4637Y-3.4924
X5.4662Y-3.8628
X5.4662Y-3.8943
X5.4662Y-3.9258
X5.4662Y-3.9573
X5.4662Y-3.9888
X5.4662Y-4.0203
X5.4662Y-4.0518
X5.4662Y-4.0833
X5.4662Y-4.1148
X5.4662Y-4.1463
X5.4662Y-4.2408
X5.4662Y-4.2723
X5.4662Y-4.3038
X5.4662Y-4.3353
X5.4662Y-4.3668
X5.4662Y-4.3983
X5.4662Y-4.4297
X5.4662Y-4.4612
X5.4662Y-4.4927
X5.4687Y-4.7099
X5.4687Y-4.9124
X5.4912Y-4.6999
X5.4977Y-3.8943
X5.4977Y-3.9258
X5.4977Y-3.9573
X5.4977Y-3.9888
X5.4977Y-4.0203
X5.4977Y-4.0518
X5.4977Y-4.0833
X5.4977Y-4.1148
X5.4977Y-4.1463
X5.4977Y-4.1778
X5.4977Y-4.2408
X5.4977Y-4.2723
X5.4977Y-4.3038
X5.4977Y-4.3353
X5.4977Y-4.3668
X5.4977Y-4.3983
X5.4977Y-4.4297
X5.4977Y-4.4612
X5.4977Y-4.4927
X5.5037Y-4.7199
X5.5037Y-4.9224
X5.5237Y-3.3324
X5.5262Y-4.6999
X5.5287Y-3.3074
X5.5292Y-3.8943
X5.5292Y-3.9258
X5.5292Y-3.9573
X5.5292Y-3.9888
X5.5292Y-4.0203
X5.5292Y-4.0518
X5.5292Y-4.0833
X5.5292Y-4.1463
X5.5292Y-4.1778
X5.5292Y-4.2093
X5.5292Y-4.2408
X5.5292Y-4.2723
X5.5292Y-4.3038
X5.5292Y-4.3353
X5.5292Y-4.3668
X5.5292Y-4.3983
X5.5292Y-4.4297
X5.5292Y-4.4612
X5.5292Y-4.4927
X5.5387Y-4.7224
X5.5437Y-3.3524
X5.5437Y-4.9324
X5.5437Y-4.9574
X5.5607Y-3.8313
X5.5607Y-3.8628
X5.5607Y-3.8943
X5.5607Y-3.9258
X5.5607Y-3.9573
X5.5607Y-4.4297
X5.5607Y-4.4612
X5.5607Y-4.4927
X5.5612Y-4.7124
X5.5637Y-4.9024
X5.5687Y-3.3024
X5.5687Y-3.3324
X5.5707Y-4.1634
X5.5707Y-4.2714
X5.5707Y-4.3094
X5.5737Y-3.4674
X5.5737Y-3.4924
X5.5827Y-4.3834
X5.5862Y-4.7324
X5.5912Y-4.6599
X5.5922Y-3.8943
X5.5922Y-3.9258
X5.5922Y-3.9573
X5.5922Y-4.4297
X5.5922Y-4.4612
X5.5922Y-4.4927
X5.5962Y-4.6824
X5.5962Y-4.7074
X5.5987Y-3.4674
X5.6087Y-3.3024
X5.6087Y-3.3324
X5.6087Y-3.3624
X5.6237Y-3.8943
X5.6237Y-3.9258
X5.6237Y-3.9573
X5.6237Y-4.0518
X5.6237Y-4.0833
X5.6237Y-4.1148
X5.6237Y-4.1463
X5.6237Y-4.1778
X5.6237Y-4.2408
X5.6237Y-4.2723
X5.6237Y-4.3038
X5.6237Y-4.3353
X5.6237Y-4.4297
X5.6237Y-4.4612
X5.6237Y-4.4927
X5.6237Y-3.4674
X5.6237Y-3.4924
X5.6237Y-4.9224
X5.6237Y-4.9524
X5.6337Y-5.1724
X5.6517Y-4.3924
X5.6537Y-5.2024
X5.6552Y-3.8943
X5.6552Y-3.9258
X5.6552Y-3.9573
X5.6552Y-4.1148
X5.6552Y-4.1463
X5.6552Y-4.1778
X5.6552Y-4.2408
X5.6552Y-4.2723
X5.6552Y-4.3038
X5.6552Y-4.3353
X5.6552Y-4.4297
X5.6552Y-4.4612
X5.6552Y-4.4927
X5.6637Y-3.0674
X5.6637Y-3.0924
X5.6737Y-4.9224
X5.6737Y-4.9524
X5.6812Y-4.6049
X5.6837Y-5.2024
X5.6867Y-3.8943
X5.6867Y-3.9258
X5.6867Y-3.9573
X5.6867Y-4.1148
X5.6867Y-4.1463
X5.6867Y-4.1778
X5.6867Y-4.2408
X5.6867Y-4.2723
X5.6867Y-4.3038
X5.6867Y-4.3353
X5.6867Y-4.4297
X5.6867Y-4.4612
X5.6867Y-4.4927
X5.6887Y-3.0674
X5.6897Y-4.3924
X5.6912Y-4.5799
X5.7037Y-3.1074
X5.7137Y-3.0674
X5.7167Y-3.3124
X5.7167Y-3.3424
X5.7182Y-3.8943
X5.7182Y-3.9258
X5.7182Y-3.9573
X5.7182Y-4.0518
X5.7182Y-4.0833
X5.7182Y-4.1148
X5.7182Y-4.1463
X5.7182Y-4.1778
X5.7182Y-4.2408
X5.7182Y-4.2723
X5.7182Y-4.3038
X5.7182Y-4.3353
X5.7182Y-4.4297
X5.7187Y-5.1574
X5.7237Y-4.9224
X5.7237Y-4.9524
X5.7237Y-5.2024
X5.7312Y-4.6049
X5.7387Y-3.0674
X5.7487Y-4.7324
X5.7496Y-3.8943
X5.7496Y-3.9573
X5.7496Y-4.4297
X5.7496Y-4.4612
X5.7496Y-4.4927
X5.7537Y-4.7549
X5.7562Y-4.6099
X5.7587Y-5.1724
X5.7637Y-3.0674
X5.7637Y-3.0974
X5.7637Y-4.9124
X5.7637Y-4.9424
X5.7662Y-4.7749
X5.7811Y-3.8943
X5.7811Y-3.9573
X5.7811Y-4.0518
X5.7811Y-4.0833
X5.7811Y-4.1148
X5.7811Y-4.1463
X5.7811Y-4.1778
X5.7811Y-4.2408
X5.7811Y-4.2723
X5.7811Y-4.3038
X5.7811Y-4.3353
X5.7811Y-4.4297
X5.7811Y-4.4612
X5.7811Y-4.4927
X5.7862Y-3.7049
X5.7862Y-3.7299
X5.7862Y-3.7549
X5.7887Y-4.7574
X5.7912Y-3.7799
X5.7987Y-4.3914
X5.8037Y-3.0674
X5.8037Y-3.1124
X5.8037Y-4.7774
X5.8037Y-4.9174
X5.8037Y-5.1574
X5.8126Y-3.8943
X5.8126Y-3.9258
X5.8126Y-3.9573
X5.8126Y-4.0518
X5.8126Y-4.0833
X5.8126Y-4.1148
X5.8126Y-4.1463
X5.8126Y-4.1778
X5.8126Y-4.2408
X5.8126Y-4.2723
X5.8126Y-4.3038
X5.8126Y-4.3353
X5.8126Y-4.4297
X5.8126Y-4.4612
X5.8126Y-4.4927
X5.8287Y-4.7774
X5.8312Y-3.6024
X5.8337Y-3.3024
X5.8337Y-3.3324
X5.8337Y-3.3624
X5.8367Y-4.3924
X5.8387Y-4.7074
X5.8412Y-3.5674
X5.8437Y-4.9274
X5.8441Y-3.8943
X5.8441Y-3.9258
X5.8441Y-3.9573
X5.8441Y-4.0518
X5.8441Y-4.0833
X5.8441Y-4.1148
X5.8441Y-4.1463
X5.8441Y-4.1778
X5.8441Y-4.2408
X5.8441Y-4.2723
X5.8441Y-4.3038
X5.8441Y-4.3353
X5.8441Y-4.4297
X5.8441Y-4.4612
X5.8441Y-4.4927
X5.8487Y-4.7924
X5.8512Y-3.5174
X5.8612Y-3.4824
X5.8637Y-4.6824
X5.8637Y-4.7074
X5.8637Y-4.9424
X5.8637Y-5.2124
X5.8737Y-3.3074
X5.8737Y-4.6324
X5.8747Y-4.3924
X5.8756Y-3.8943
X5.8756Y-3.9258
X5.8756Y-3.9573
X5.8756Y-4.0518
X5.8756Y-4.0833
X5.8756Y-4.1148
X5.8756Y-4.1463
X5.8756Y-4.1778
X5.8756Y-4.2408
X5.8756Y-4.2723
X5.8756Y-4.3038
X5.8756Y-4.3353
X5.8756Y-4.4297
X5.8756Y-4.4612
X5.8756Y-4.4927
X5.8787Y-3.0774
X5.8837Y-3.0524
X5.8912Y-4.6824
X5.8937Y-5.1574
X5.8962Y-4.7249
X5.8987Y-4.6424
X5.9037Y-4.9174
X5.9037Y-4.9424
X5.9042Y-4.2693
X5.9042Y-4.3008
X5.9042Y-4.3323
X5.9071Y-3.8313
X5.9071Y-3.8628
X5.9071Y-3.8943
X5.9071Y-3.9258
X5.9071Y-3.9573
X5.9071Y-4.0518
X5.9071Y-4.1778
X5.9071Y-4.2408
X5.9071Y-4.4297
X5.9071Y-4.4612
X5.9071Y-4.4927
X5.9112Y-4.7424
X5.9187Y-3.0524
X5.9187Y-3.0774
X5.9262Y-4.7899
X5.9287Y-3.3624
X5.9312Y-4.7549
X5.9386Y-3.8313
X5.9386Y-3.8628
X5.9386Y-3.8943
X5.9386Y-3.9258
X5.9386Y-3.9573
X5.9386Y-4.4297
X5.9386Y-4.4612
X5.9386Y-4.4927
X5.9437Y-3.3124
X5.9437Y-4.7124
X5.9437Y-5.2074
X5.9457Y-4.3404
X5.9462Y-4.7374
X5.9487Y-3.3424
X5.9512Y-4.7899
X5.9537Y-3.0474
X5.9567Y-4.2674
X5.9587Y-3.0724
X5.9587Y-5.1574
X5.9687Y-3.3624
X5.9687Y-3.8174
X5.9687Y-4.7024
X5.9701Y-3.8943
X5.9701Y-3.9258
X5.9701Y-3.9573
X5.9701Y-4.4297
X5.9701Y-4.4612
X5.9701Y-4.4927
X5.9737Y-3.3124
X5.9737Y-4.9224
X5.9787Y-3.7924
X5.9787Y-4.7874
X5.9887Y-4.5699
X5.9887Y-5.1574
X5.9987Y-4.7674
X6.0016Y-3.8628
X6.0016Y-3.8943
X6.0016Y-3.9258
X6.0016Y-3.9573
X6.0016Y-3.9888
X6.0016Y-4.0203
X6.0016Y-4.0518
X6.0016Y-4.0833
X6.0016Y-4.1148
X6.0016Y-4.1463
X6.0016Y-4.1778
X6.0016Y-4.2093
X6.0016Y-4.2408
X6.0016Y-4.3353
X6.0016Y-4.3668
X6.0016Y-4.3983
X6.0016Y-4.4612
X6.0016Y-4.4928
X6.0062Y-4.5849
X6.0187Y-4.7824
X6.0237Y-4.5699
X6.0287Y-3.1124
X6.0331Y-3.8943
X6.0331Y-3.9258
X6.0331Y-3.9573
X6.0331Y-3.9888
X6.0331Y-4.0203
X6.0331Y-4.0518
X6.0331Y-4.1463
X6.0331Y-4.1778
X6.0331Y-4.2093
X6.0331Y-4.2408
X6.0331Y-4.2723
X6.0331Y-4.3038
X6.0331Y-4.3353
X6.0331Y-4.3668
X6.0331Y-4.3983
X6.0331Y-4.4297
X6.0331Y-4.4612
X6.0331Y-4.4927
X6.0337Y-3.3274
X6.0337Y-4.9274
X6.0387Y-3.3524
X6.0487Y-5.1574
X6.0637Y-3.0724
X6.0646Y-3.8943
X6.0646Y-3.9258
X6.0646Y-3.9573
X6.0646Y-3.9888
X6.0646Y-4.0203
X6.0646Y-4.1463
X6.0646Y-4.1778
X6.0646Y-4.2408
X6.0646Y-4.2723
X6.0646Y-4.3038
X6.0646Y-4.3353
X6.0646Y-4.3668
X6.0646Y-4.3983
X6.0646Y-4.4297
X6.0646Y-4.4612
X6.0646Y-4.4927
X6.0687Y-3.1124
X6.0687Y-4.9024
X6.0687Y-4.9624
X6.0737Y-3.3174
X6.0737Y-4.9324
X6.0787Y-3.3524
X6.0961Y-4.3668
X6.0987Y-5.1524
X6.1137Y-3.0624
X6.1137Y-4.9624
X6.1162Y-4.6899
X6.1187Y-3.3024
X6.1187Y-3.3624
X6.1187Y-4.9024
X6.1192Y-3.8269
X6.1237Y-3.1024
X6.1276Y-4.3668
X6.1437Y-3.7649
X6.1437Y-4.4274
X6.1437Y-5.1524
X6.1487Y-4.7074
X6.1537Y-3.0624
X6.1537Y-4.6424
X6.1537Y-4.6824
X6.1587Y-4.9024
X6.1612Y-3.8774
X6.1612Y-4.4449
X6.1687Y-3.3624
X6.1737Y-3.1024
X6.1737Y-3.9324
X6.1737Y-4.7074
X6.1787Y-4.9624
X6.1812Y-4.0249
X6.1837Y-3.3024
X6.1837Y-4.6524
X6.1862Y-3.8099
X6.1862Y-3.8849
X6.1912Y-4.4849
X6.1962Y-3.9249
X6.1987Y-3.1024
X6.2112Y-3.8099
X6.2137Y-3.0524
X6.2212Y-4.0649
X6.2237Y-3.1024
X6.2262Y-4.1899
X6.2387Y-3.0524
X6.2387Y-4.0824
X6.2437Y-3.9674
X6.2437Y-3.9924
X6.2437Y-4.2774
X6.2487Y-4.3024
X6.2487Y-5.1824
X6.2615Y-4.2408
X6.2637Y-3.0524
X6.2637Y-3.9124
X6.2637Y-5.2074
X6.2662Y-4.0449
X6.2712Y-3.8049
X6.2712Y-3.8574
X6.2737Y-3.0774
X6.289Y-3.9258
X6.289Y-3.9573
X6.289Y-3.9888
X6.289Y-4.0518
X6.289Y-4.0833
X6.289Y-4.2093
X6.289Y-4.2408
X6.2962Y-3.8049
X6.2987Y-3.0674
X6.3176Y-4.3323
X6.3205Y-3.8313
X6.3205Y-3.8943
X6.3205Y-3.9258
X6.3205Y-3.9573
X6.3205Y-3.9888
X6.3205Y-4.0518
X6.3205Y-4.0833
X6.3205Y-4.1148
X6.3205Y-4.2093
X6.3205Y-4.2408
X6.3237Y-3.0524
X6.3237Y-3.0774
X6.352Y-3.8628
X6.352Y-3.8943
X6.352Y-3.9258
X6.352Y-3.9573
X6.352Y-4.0518
X6.352Y-4.0833
X6.352Y-4.1148
X6.352Y-4.2093
X6.352Y-4.2408
X6.352Y-4.2723
X6.3531Y-3.8324
X6.3687Y-3.0624
X6.3737Y-3.1074
X6.3835Y-4.0518
X6.3835Y-4.1148
X6.3835Y-4.2408
X6.3837Y-3.0824
X6.3862Y-3.8639
X6.3887Y-4.0774
X6.3914Y-4.2014
X6.3962Y-4.1349
X6.4087Y-4.2174
X6.4112Y-3.9149
X6.4137Y-3.0574
X6.4308Y-4.2644
X6.4312Y-3.9299
X6.4337Y-4.0274
X6.4337Y-4.0524
X6.4347Y-4.2408
X6.4412Y-3.9649
X6.4437Y-5.1474
X6.4587Y-4.0074
X6.4662Y-4.3077
X6.4687Y-3.1074
X6.4762Y-4.1499
X6.478Y-3.8628
X6.478Y-3.8943
X6.478Y-3.9258
X6.478Y-4.2408
X6.4787Y-3.0574
X6.4837Y-3.0824
X6.4937Y-3.7824
X6.5095Y-3.8313
X6.5095Y-3.8628
X6.5095Y-3.9888
X6.5095Y-4.0203
X6.5095Y-4.0833
X6.5095Y-4.1463
X6.5095Y-4.2093
X6.5095Y-4.2408
X6.5095Y-4.2723
X6.5337Y-3.0074
X6.541Y-3.8313
X6.541Y-3.8943
X6.541Y-3.9258
X6.541Y-3.9573
X6.541Y-3.9888
X6.541Y-4.0203
X6.541Y-4.0518
X6.541Y-4.0833
X6.541Y-4.2408
X6.541Y-4.2723
X6.541Y-4.3038
X6.5725Y-3.8628
X6.5725Y-3.8943
X6.5725Y-3.9258
X6.5725Y-3.9573
X6.5725Y-4.0203
X6.5725Y-4.0518
X6.5725Y-4.0833
X6.5725Y-4.2408
X6.5725Y-4.2723
X6.5764Y-4.1148
X6.5787Y-4.1874
X6.5837Y-3.7824
X6.5987Y-3.5264
X6.6087Y-3.2824
X6.6587Y-3.6444
X6.7637Y-4.3374
X6.7637Y-4.3624
T2
X4.2437Y-3.1474
X4.2737Y-2.9974
X4.3187Y-3.3924
X4.3187Y-3.7174
X4.3237Y-3.4374
X4.5137Y-4.1746
X4.5137Y-4.2927
X4.5137Y-4.3518
X4.5137Y-4.4109
X4.5137Y-4.4699
X4.5337Y-4.5524
X4.6387Y-3.0474
X4.6687Y-4.1874
X4.6687Y-4.3074
X4.6687Y-4.4274
X4.7287Y-5.2624
X4.7587Y-4.1874
X4.7587Y-4.3024
X4.7587Y-4.4274
X4.7637Y-5.0524
X4.7737Y-5.1724
X4.7737Y-5.2074
X4.7737Y-5.2374
X4.8087Y-3.1024
X4.8237Y-3.8524
X4.8537Y-3.8674
X4.8537Y-3.8924
X4.8537Y-3.9174
X4.8537Y-3.9924
X4.8537Y-4.0174
X4.8637Y-4.5674
X4.8837Y-3.8724
X4.8887Y-3.9024
X4.8887Y-4.3824
X4.8987Y-3.6274
X4.8987Y-3.6524
X4.9137Y-5.2124
X4.9337Y-3.8674
X4.9362Y-4.3124
X5.0487Y-4.9324
X5.0587Y-3.5824
X5.0687Y-3.6124
X5.0937Y-3.9624
X5.1037Y-3.6124
X5.1037Y-4.5824
X5.1087Y-4.8574
X5.1187Y-3.9324
X5.1337Y-3.9874
X5.1487Y-4.8724
X5.1537Y-3.2524
X5.1687Y-4.8924
X5.1723Y-4.3403
X5.1837Y-3.2524
X5.1887Y-3.8674
X5.1937Y-3.8974
X5.1987Y-3.8424
X5.1997Y-4.3403
X5.226Y-4.3303
X5.2287Y-4.7124
X5.2287Y-4.7424
X5.2662Y-3.5824
X5.2662Y-3.6474
X5.2987Y-3.1524
X5.4337Y-3.6124
X5.4337Y-3.6324
X5.4337Y-3.6524
X5.5062Y-3.5549
X5.5837Y-3.5724
X5.5837Y-3.6324
X5.5837Y-3.6724
X5.5937Y-3.7624
X5.7437Y-4.6374
X5.7937Y-5.2024
X5.8137Y-4.9524
X5.8612Y-3.7874
X5.8937Y-5.2124
X5.9012Y-3.7849
X5.9112Y-3.6924
X6.0637Y-3.7624
X6.0687Y-4.7824
X6.0887Y-5.1924
X6.1787Y-4.3624
X6.2087Y-4.4224
X6.2487Y-4.4824
X6.2837Y-4.6524
X6.2887Y-5.1924
X6.3237Y-4.7824
X6.3237Y-4.8224
X6.3237Y-4.8524
X6.3237Y-4.9374
X6.3237Y-4.9724
X6.3337Y-4.8924
X6.3437Y-4.9174
X6.3437Y-5.1924
X6.3487Y-4.9424
X6.3487Y-4.9674
X6.3687Y-4.9824
X6.3737Y-4.9424
X6.3787Y-4.7724
X6.3787Y-4.8024
X6.3787Y-4.8674
X6.3837Y-4.7424
X6.3937Y-4.9774
X6.3987Y-5.1624
X6.3987Y-5.1924
X6.4187Y-4.7124
X6.4187Y-4.7424
X6.4587Y-4.9624
X6.4787Y-4.9774
X6.5037Y-4.9624
X6.5137Y-5.1374
X6.5437Y-4.7024
X6.5737Y-4.7024
X6.6137Y-4.7474
X6.6487Y-3.8824
X6.6487Y-3.9174
X6.6487Y-3.9574
X6.6487Y-3.9974
X6.6487Y-4.0374
X6.6487Y-4.0774
X6.6487Y-4.2424
X6.6487Y-4.2824
X6.6487Y-4.3224
X6.7087Y-5.2774
X6.7237Y-3.7324
X6.7387Y-3.8824
X6.7387Y-3.9174
X6.7387Y-3.9574
X6.7387Y-3.9974
X6.7387Y-4.0374
X6.7387Y-4.0774
X6.7387Y-4.2424
X6.7387Y-4.2824
X6.7387Y-4.3224
X6.7537Y-4.8174
X6.7537Y-4.9174
X6.7712Y-3.3299
X6.7862Y-3.3799
X6.8112Y-3.3749
X6.8312Y-3.3549
X6.8462Y-3.3824
X6.8637Y-3.4024
X6.8737Y-3.4324
X6.8887Y-3.3474
X6.9587Y-3.8074
X7.2187Y-3.5224
X7.3337Y-3.6774
T3
X6.6958Y-3.5118
X6.6958Y-3.563
X6.7194Y-3.5118
X6.7194Y-3.563
X6.7332Y-3.4744
X6.7332Y-3.4981
X6.7332Y-3.5768
X6.7332Y-3.6004
X6.7843Y-3.4744
X6.7843Y-3.4981
X6.7843Y-3.5768
X6.7843Y-3.6004
X6.7981Y-3.5118
X6.7981Y-3.563
X6.8217Y-3.5118
X6.8217Y-3.563
T4
X4.4687Y-5.2774
X4.5237Y-4.9774
X4.5237Y-5.0074
X4.6187Y-5.2774
X4.6237Y-5.1424
X4.9937Y-4.5874
X4.9987Y-3.6374
X4.9987Y-3.6724
X5.1487Y-3.6474
X5.1687Y-3.8124
X5.2187Y-3.8774
X5.2437Y-3.9124
X5.4337Y-3.5624
X5.5087Y-3.6124
X5.5087Y-3.6524
X5.5637Y-3.7474
X6.1512Y-4.3499
X6.2437Y-4.4499
X6.3287Y-4.4924
X6.5087Y-3.5674
X6.5287Y-4.4774
X6.5547Y-3.4474
X6.5787Y-3.4474
X6.5837Y-4.2149
X6.5887Y-3.5694
X6.6487Y-3.6774
X6.6737Y-3.6974
X6.7147Y-3.6994
X6.7567Y-3.7314
X6.7637Y-4.1824
X6.9167Y-3.6104
X6.9167Y-3.6344
X6.9367Y-3.5054
X6.9537Y-3.4884
X6.9537Y-3.5574
X7.1287Y-3.9574
X7.1287Y-4.3374
X7.4337Y-4.2424
X7.4437Y-4.2124
X7.4687Y-4.5024
T5
X4.4262Y-3.3845
X4.4262Y-3.886
X4.4341Y-3.3845
X4.4341Y-3.886
X4.4429Y-3.3845
X4.4429Y-3.886
X4.4528Y-3.3845
X4.4528Y-3.886
X4.4616Y-3.3845
X4.4616Y-3.886
X4.4695Y-3.3845
X4.4695Y-3.886
X6.4654Y-4.8177
X6.4654Y-4.8571
X6.4891Y-4.7941
X6.4891Y-4.8807
X6.5284Y-4.7941
X6.5284Y-4.8807
X6.5521Y-4.8177
X6.5521Y-4.8571
T6
X4.5087Y-4.0874
X4.5137Y-4.1374
X4.7487Y-3.4424
X4.8087Y-3.4424
X5.1562Y-3.6149
X5.1587Y-3.2974
X5.1787Y-4.9674
X5.1887Y-3.2974
X5.2687Y-3.3024
X5.2687Y-3.3624
X5.2687Y-4.7824
X5.4637Y-5.0724
X5.4787Y-3.0524
X5.4787Y-3.0824
X5.4837Y-4.9524
X5.5037Y-5.1574
X5.5037Y-5.2074
X5.5137Y-3.1124
X5.5687Y-3.0524
X5.5687Y-3.1124
X5.5787Y-5.1574
X5.5787Y-5.2074
T7
X4.2387Y-3.7924
X4.4487Y-3.6353
X4.4687Y-4.9124
X4.5037Y-4.9124
X4.5187Y-5.0974
X4.5387Y-3.0424
X4.6487Y-5.0974
X4.7187Y-3.9324
X4.7187Y-3.9674
X4.8687Y-5.0524
X4.9087Y-3.8434
X4.9237Y-3.2774
X4.9237Y-3.5374
X4.9387Y-4.8224
X4.9387Y-4.8574
X4.9487Y-3.9374
X4.9787Y-3.4324
X5.0037Y-4.7924
X5.0437Y-3.2974
X5.1387Y-2.9974
X5.1637Y-3.0224
X5.2037Y-3.3524
X5.2037Y-4.7774
X5.2537Y-3.1824
X5.4537Y-3.3299
X5.7112Y-4.6874
X5.9537Y-3.6374
X5.9737Y-3.5824
X5.9887Y-3.6374
X6.0737Y-3.4724
X6.0787Y-3.6524
X6.1537Y-3.4724
X6.1937Y-3.5424
X6.2337Y-3.6624
X6.2437Y-3.2724
X6.2937Y-3.6574
X6.3137Y-3.4224
X6.3287Y-3.3774
X6.3687Y-3.4224
X6.3737Y-3.7124
X6.4437Y-4.4724
X6.4587Y-3.4124
X6.4687Y-3.6624
X6.5037Y-3.4499
X6.5137Y-5.1974
X6.5487Y-3.5874
X6.5937Y-4.5974
X6.6637Y-4.5124
X6.7287Y-4.4674
X6.7412Y-3.3474
X6.7487Y-4.6924
X6.7737Y-4.1124
X6.7837Y-4.1474
X6.8007Y-3.7224
X6.8137Y-3.8774
X6.8237Y-3.1474
X6.8437Y-3.7099
X6.8587Y-4.4674
X6.8737Y-3.1824
X6.8737Y-3.2274
X6.8937Y-4.4674
X6.9237Y-3.6774
X6.9387Y-3.2874
X6.9487Y-3.3324
X6.9487Y-3.7024
X6.9787Y-3.5924
X6.9987Y-3.3774
X7.0237Y-3.1174
X7.0287Y-2.9974
X7.0487Y-3.3824
X7.0587Y-3.2974
X7.0837Y-4.1574
X7.0937Y-4.0924
X7.0937Y-4.4624
X7.0987Y-3.7524
X7.1087Y-3.6324
X7.1437Y-4.6874
X7.1437Y-4.8374
X7.1437Y-4.9874
X7.1687Y-3.3774
X7.2187Y-4.7624
X7.2187Y-4.9124
X7.2387Y-3.7474
X7.2437Y-4.0124
X7.2437Y-4.3374
X7.2937Y-4.6874
X7.2937Y-4.8374
X7.2937Y-4.9874
X7.3137Y-3.4024
X7.3537Y-4.0674
X7.3537Y-4.1674
X7.3537Y-4.4974
X7.3587Y-4.3874
X7.3687Y-4.7624
X7.3687Y-4.9124
X7.3787Y-3.9174
X7.3787Y-4.2374
X7.4037Y-4.1524
X7.4037Y-4.4524
X7.4287Y-3.1424
X7.4437Y-4.7374
X7.4437Y-4.8374
X7.4437Y-4.9374
T8
X4.9536Y-3.1496
X4.9536Y-5.1181
X4.9813Y-3.0887
X4.9813Y-3.2105
X4.9813Y-5.0572
X4.9813Y-5.179
X5.0422Y-3.061
X5.0422Y-3.2381
X5.0422Y-5.0295
X5.0422Y-5.2066
X5.1031Y-3.0887
X5.1031Y-3.2105
X5.1031Y-5.0572
X5.1031Y-5.179
X5.1308Y-3.1496
X5.1308Y-5.1181
X6.5622Y-3.1496
X6.5622Y-5.1181
X6.5899Y-3.0887
X6.5899Y-3.2105
X6.5899Y-5.0572
X6.5899Y-5.179
X6.6508Y-3.061
X6.6508Y-3.2381
X6.6508Y-5.0295
X6.6508Y-5.2066
X6.7117Y-3.0887
X6.7117Y-3.2105
X6.7117Y-5.0572
X6.7117Y-5.179
X6.7394Y-3.1496
X6.7394Y-5.1181
X7.1365Y-3.2172
X7.1365Y-3.229
X7.1365Y-3.2408
X7.1365Y-3.2526
X7.1365Y-3.2644
X7.1365Y-3.2762
X7.1365Y-3.2881
X7.1365Y-3.2999
X7.1365Y-3.3117
X7.2211Y-3.0892
X7.229Y-3.0892
X7.2408Y-3.0892
X7.2526Y-3.0892
X7.2644Y-3.0892
X7.2762Y-3.0892
X7.288Y-3.0892
X7.2998Y-3.0892
X7.3077Y-3.0892
X7.3727Y-3.229
X7.3727Y-3.2408
X7.3727Y-3.2526
X7.3727Y-3.2644
X7.3727Y-3.2762
X7.3727Y-3.2881
X7.3727Y-3.2999
X7.3727Y-3.3117
T9
X4.282Y-4.025
X4.282Y-4.5998
X4.2938Y-4.025
X4.2938Y-4.5998
X4.3095Y-4.025
X4.3095Y-4.5998
X4.3213Y-4.025
X4.3213Y-4.5988
X4.5123Y-4.025
X4.5123Y-4.5998
X4.5221Y-4.025
X4.5221Y-4.5998
X4.5339Y-4.025
X4.5339Y-4.5998
X4.5497Y-4.025
X4.5497Y-4.5998
X4.5556Y-4.025
X4.5556Y-4.5998
X4.5674Y-4.025
X4.5674Y-4.5998
X7.0809Y-4.5175
X7.0809Y-5.1474
X7.0888Y-4.5175
X7.0888Y-5.1474
X7.0967Y-4.5175
X7.0967Y-5.1474
X7.1046Y-4.5175
X7.1046Y-5.1474
X7.1124Y-4.5175
X7.1124Y-5.1474
X7.1203Y-4.5175
X7.1203Y-5.1474
T10
X6.9137Y-3.0474
X6.9137Y-3.1474
T11
X4.3687Y-3.1031
X4.3687Y-3.1818
X6.855Y-4.6578
X6.855Y-4.7578
X6.855Y-4.8578
X6.855Y-4.9578
X6.955Y-4.7078
X6.955Y-4.8078
X6.955Y-4.9078
X6.955Y-5.0078
X7.4037Y-3.5581
X7.4037Y-3.6368
T12
X6.8437Y-5.2474
X6.9156Y-3.9016
X6.9156Y-4.2816
X6.9437Y-5.2474
X6.9943Y-3.9016
X6.9943Y-4.2816
X7.0437Y-5.2474
X7.073Y-3.9016
X7.073Y-4.2816
X7.1518Y-3.9016
X7.1518Y-4.2816
X7.1937Y-5.2474
X7.2937Y-5.2474
T13
X5.2237Y-5.2574
T14
X7.4057Y-4.5722
X7.4057Y-4.6722
X7.4057Y-4.9927
X7.4057Y-5.0927
T15
X6.7587Y-3.5374
T16
X6.5087Y-4.8374
T17
X6.8959Y-3.7894
X6.8959Y-4.0138
X6.8959Y-4.1694
X6.8959Y-4.3938
X7.1715Y-3.7894
X7.1715Y-4.0138
X7.1715Y-4.1694
X7.1715Y-4.3938
T18
X5.0422Y-3.1496
X5.0422Y-5.1181
X6.6508Y-3.1496
X6.6508Y-5.1181
T0
M30
