%TF.GenerationSoftware,KiCad,Pcbnew,(6.0.1)*%
%TF.CreationDate,2022-06-22T14:46:02-03:00*%
%TF.ProjectId,A20-OLinuXino-Lime_Rev_I1,4132302d-4f4c-4696-9e75-58696e6f2d4c,rev?*%
%TF.SameCoordinates,Original*%
%TF.FileFunction,Soldermask,Bot*%
%TF.FilePolarity,Negative*%
%FSLAX46Y46*%
G04 Gerber Fmt 4.6, Leading zero omitted, Abs format (unit mm)*
G04 Created by KiCad (PCBNEW (6.0.1)) date 2022-06-22 14:46:02*
%MOMM*%
%LPD*%
G01*
G04 APERTURE LIST*
G04 Aperture macros list*
%AMRoundRect*
0 Rectangle with rounded corners*
0 $1 Rounding radius*
0 $2 $3 $4 $5 $6 $7 $8 $9 X,Y pos of 4 corners*
0 Add a 4 corners polygon primitive as box body*
4,1,4,$2,$3,$4,$5,$6,$7,$8,$9,$2,$3,0*
0 Add four circle primitives for the rounded corners*
1,1,$1+$1,$2,$3*
1,1,$1+$1,$4,$5*
1,1,$1+$1,$6,$7*
1,1,$1+$1,$8,$9*
0 Add four rect primitives between the rounded corners*
20,1,$1+$1,$2,$3,$4,$5,0*
20,1,$1+$1,$4,$5,$6,$7,0*
20,1,$1+$1,$6,$7,$8,$9,0*
20,1,$1+$1,$8,$9,$2,$3,0*%
G04 Aperture macros list end*
%ADD10C,0.254000*%
%ADD11C,1.270000*%
%ADD12C,0.700000*%
%ADD13C,3.300000*%
%ADD14C,5.601600*%
%ADD15C,1.001600*%
%ADD16C,1.601600*%
%ADD17C,2.351600*%
%ADD18RoundRect,0.050800X-0.889000X-0.889000X0.889000X-0.889000X0.889000X0.889000X-0.889000X0.889000X0*%
%ADD19C,1.879600*%
%ADD20C,1.000000*%
%ADD21C,0.806400*%
%ADD22RoundRect,0.050800X0.711200X0.711200X-0.711200X0.711200X-0.711200X-0.711200X0.711200X-0.711200X0*%
%ADD23RoundRect,0.050800X0.675000X-0.675000X0.675000X0.675000X-0.675000X0.675000X-0.675000X-0.675000X0*%
%ADD24C,1.451600*%
%ADD25C,1.301600*%
%ADD26C,1.625600*%
%ADD27RoundRect,0.050800X0.762000X-0.762000X0.762000X0.762000X-0.762000X0.762000X-0.762000X-0.762000X0*%
%ADD28RoundRect,0.050800X-0.675000X0.675000X-0.675000X-0.675000X0.675000X-0.675000X0.675000X0.675000X0*%
%ADD29C,2.051600*%
%ADD30C,3.200000*%
%ADD31C,1.751600*%
%ADD32RoundRect,0.050800X-0.304800X-0.292100X0.304800X-0.292100X0.304800X0.292100X-0.304800X0.292100X0*%
%ADD33RoundRect,0.050800X0.508000X-0.508000X0.508000X0.508000X-0.508000X0.508000X-0.508000X-0.508000X0*%
%ADD34RoundRect,0.050800X0.292100X-0.304800X0.292100X0.304800X-0.292100X0.304800X-0.292100X-0.304800X0*%
%ADD35RoundRect,0.050800X0.304800X0.292100X-0.304800X0.292100X-0.304800X-0.292100X0.304800X-0.292100X0*%
%ADD36RoundRect,0.050800X0.508000X0.508000X-0.508000X0.508000X-0.508000X-0.508000X0.508000X-0.508000X0*%
%ADD37RoundRect,0.050800X-0.292100X0.304800X-0.292100X-0.304800X0.292100X-0.304800X0.292100X0.304800X0*%
%ADD38RoundRect,0.050800X1.050000X1.200000X-1.050000X1.200000X-1.050000X-1.200000X1.050000X-1.200000X0*%
%ADD39RoundRect,0.050800X-0.508000X-0.508000X0.508000X-0.508000X0.508000X0.508000X-0.508000X0.508000X0*%
%ADD40RoundRect,0.050800X-0.275000X-0.600000X0.275000X-0.600000X0.275000X0.600000X-0.275000X0.600000X0*%
%ADD41RoundRect,0.050800X-0.508000X0.508000X-0.508000X-0.508000X0.508000X-0.508000X0.508000X0.508000X0*%
%ADD42RoundRect,0.558800X0.000000X0.000000X0.000000X0.000000X0.000000X0.000000X0.000000X0.000000X0*%
%ADD43RoundRect,0.050800X0.500000X0.700000X-0.500000X0.700000X-0.500000X-0.700000X0.500000X-0.700000X0*%
%ADD44RoundRect,0.050800X-0.725000X-1.300000X0.725000X-1.300000X0.725000X1.300000X-0.725000X1.300000X0*%
%ADD45RoundRect,0.050800X0.254000X0.381000X-0.254000X0.381000X-0.254000X-0.381000X0.254000X-0.381000X0*%
%ADD46RoundRect,0.050800X-1.500000X-0.800000X1.500000X-0.800000X1.500000X0.800000X-1.500000X0.800000X0*%
%ADD47RoundRect,0.050800X0.275000X0.600000X-0.275000X0.600000X-0.275000X-0.600000X0.275000X-0.600000X0*%
%ADD48RoundRect,0.050800X0.725000X0.900000X-0.725000X0.900000X-0.725000X-0.900000X0.725000X-0.900000X0*%
%ADD49RoundRect,0.050800X-0.381000X-0.508000X0.381000X-0.508000X0.381000X0.508000X-0.381000X0.508000X0*%
%ADD50C,0.800000*%
%ADD51RoundRect,0.050800X-0.700000X-1.000000X0.700000X-1.000000X0.700000X1.000000X-0.700000X1.000000X0*%
%ADD52RoundRect,0.050800X0.700000X-0.500000X0.700000X0.500000X-0.700000X0.500000X-0.700000X-0.500000X0*%
%ADD53RoundRect,0.050800X-0.508000X-0.889000X0.508000X-0.889000X0.508000X0.889000X-0.508000X0.889000X0*%
%ADD54RoundRect,0.050800X-0.762000X0.635000X-0.762000X-0.635000X0.762000X-0.635000X0.762000X0.635000X0*%
%ADD55RoundRect,0.050800X-0.635000X-0.762000X0.635000X-0.762000X0.635000X0.762000X-0.635000X0.762000X0*%
%ADD56RoundRect,0.050800X0.800000X-1.500000X0.800000X1.500000X-0.800000X1.500000X-0.800000X-1.500000X0*%
%ADD57RoundRect,0.550800X0.000000X0.000000X0.000000X0.000000X0.000000X0.000000X0.000000X0.000000X0*%
%ADD58RoundRect,0.050800X0.635000X0.762000X-0.635000X0.762000X-0.635000X-0.762000X0.635000X-0.762000X0*%
%ADD59RoundRect,0.050800X-0.900000X0.800000X-0.900000X-0.800000X0.900000X-0.800000X0.900000X0.800000X0*%
%ADD60RoundRect,0.050800X0.300000X1.100000X-0.300000X1.100000X-0.300000X-1.100000X0.300000X-1.100000X0*%
%ADD61RoundRect,0.050800X0.304800X1.460500X-0.304800X1.460500X-0.304800X-1.460500X0.304800X-1.460500X0*%
%ADD62RoundRect,0.050800X0.762000X-0.635000X0.762000X0.635000X-0.762000X0.635000X-0.762000X-0.635000X0*%
%ADD63RoundRect,0.050800X0.381000X-0.254000X0.381000X0.254000X-0.381000X0.254000X-0.381000X-0.254000X0*%
%ADD64RoundRect,0.050800X0.381000X0.508000X-0.381000X0.508000X-0.381000X-0.508000X0.381000X-0.508000X0*%
%ADD65RoundRect,0.050800X0.889000X-0.825500X0.889000X0.825500X-0.889000X0.825500X-0.889000X-0.825500X0*%
%ADD66RoundRect,0.050800X1.500000X0.800000X-1.500000X0.800000X-1.500000X-0.800000X1.500000X-0.800000X0*%
%ADD67RoundRect,0.050800X-0.700000X0.600000X-0.700000X-0.600000X0.700000X-0.600000X0.700000X0.600000X0*%
%ADD68RoundRect,0.050800X-0.700000X0.800000X-0.700000X-0.800000X0.700000X-0.800000X0.700000X0.800000X0*%
%ADD69RoundRect,0.050800X-1.100000X0.600000X-1.100000X-0.600000X1.100000X-0.600000X1.100000X0.600000X0*%
%ADD70RoundRect,0.050800X-0.500000X-0.700000X0.500000X-0.700000X0.500000X0.700000X-0.500000X0.700000X0*%
%ADD71RoundRect,0.050800X-0.381000X0.254000X-0.381000X-0.254000X0.381000X-0.254000X0.381000X0.254000X0*%
G04 APERTURE END LIST*
%TO.C,RM1*%
G36*
X159734100Y-130160400D02*
G01*
X158972100Y-130160400D01*
X158972100Y-129042800D01*
X159734100Y-129042800D01*
X159734100Y-130160400D01*
G37*
G36*
X159734100Y-128636400D02*
G01*
X158972100Y-128636400D01*
X158972100Y-127518800D01*
X159734100Y-127518800D01*
X159734100Y-128636400D01*
G37*
G36*
X160496100Y-128636400D02*
G01*
X159988100Y-128636400D01*
X159988100Y-127518800D01*
X160496100Y-127518800D01*
X160496100Y-128636400D01*
G37*
G36*
X162274100Y-130160400D02*
G01*
X161512100Y-130160400D01*
X161512100Y-129042800D01*
X162274100Y-129042800D01*
X162274100Y-130160400D01*
G37*
G36*
X162274100Y-128636400D02*
G01*
X161512100Y-128636400D01*
X161512100Y-127518800D01*
X162274100Y-127518800D01*
X162274100Y-128636400D01*
G37*
G36*
X161258100Y-128636400D02*
G01*
X160750100Y-128636400D01*
X160750100Y-127518800D01*
X161258100Y-127518800D01*
X161258100Y-128636400D01*
G37*
G36*
X161258100Y-130160400D02*
G01*
X160750100Y-130160400D01*
X160750100Y-129042800D01*
X161258100Y-129042800D01*
X161258100Y-130160400D01*
G37*
G36*
X160496100Y-130160400D02*
G01*
X159988100Y-130160400D01*
X159988100Y-129042800D01*
X160496100Y-129042800D01*
X160496100Y-130160400D01*
G37*
D10*
%TO.C,PC3/PB8*%
X117379600Y-88051600D02*
X117379600Y-87077600D01*
X116236600Y-88051600D02*
X116236600Y-87077600D01*
%TO.C,RECOVERY*%
G36*
X107587900Y-94676600D02*
G01*
X106470300Y-94676600D01*
X106470300Y-93101800D01*
X107587900Y-93101800D01*
X107587900Y-94676600D01*
G37*
G36*
X107587900Y-100823400D02*
G01*
X106470300Y-100823400D01*
X106470300Y-99248600D01*
X107587900Y-99248600D01*
X107587900Y-100823400D01*
G37*
G36*
X109365900Y-94676600D02*
G01*
X108248300Y-94676600D01*
X108248300Y-93101800D01*
X109365900Y-93101800D01*
X109365900Y-94676600D01*
G37*
G36*
X109365900Y-100823400D02*
G01*
X108248300Y-100823400D01*
X108248300Y-99248600D01*
X109365900Y-99248600D01*
X109365900Y-100823400D01*
G37*
%TO.C,RM9*%
G36*
X159226100Y-82535400D02*
G01*
X158718100Y-82535400D01*
X158718100Y-81417800D01*
X159226100Y-81417800D01*
X159226100Y-82535400D01*
G37*
G36*
X160242100Y-81011400D02*
G01*
X159480100Y-81011400D01*
X159480100Y-79893800D01*
X160242100Y-79893800D01*
X160242100Y-81011400D01*
G37*
G36*
X157702100Y-81011400D02*
G01*
X156940100Y-81011400D01*
X156940100Y-79893800D01*
X157702100Y-79893800D01*
X157702100Y-81011400D01*
G37*
G36*
X160242100Y-82535400D02*
G01*
X159480100Y-82535400D01*
X159480100Y-81417800D01*
X160242100Y-81417800D01*
X160242100Y-82535400D01*
G37*
G36*
X158464100Y-81011400D02*
G01*
X157956100Y-81011400D01*
X157956100Y-79893800D01*
X158464100Y-79893800D01*
X158464100Y-81011400D01*
G37*
G36*
X158464100Y-82535400D02*
G01*
X157956100Y-82535400D01*
X157956100Y-81417800D01*
X158464100Y-81417800D01*
X158464100Y-82535400D01*
G37*
G36*
X157702100Y-82535400D02*
G01*
X156940100Y-82535400D01*
X156940100Y-81417800D01*
X157702100Y-81417800D01*
X157702100Y-82535400D01*
G37*
G36*
X159226100Y-81011400D02*
G01*
X158718100Y-81011400D01*
X158718100Y-79893800D01*
X159226100Y-79893800D01*
X159226100Y-81011400D01*
G37*
D11*
%TO.C,U19*%
X189794100Y-133284600D02*
G75*
G03*
X189794100Y-133284600I-850000J0D01*
G01*
%TO.C,U18*%
X112070100Y-76642600D02*
G75*
G03*
X112070100Y-76642600I-850000J0D01*
G01*
%TO.C,PWR*%
G36*
X107587900Y-78166600D02*
G01*
X106470300Y-78166600D01*
X106470300Y-76591800D01*
X107587900Y-76591800D01*
X107587900Y-78166600D01*
G37*
G36*
X107587900Y-84313400D02*
G01*
X106470300Y-84313400D01*
X106470300Y-82738600D01*
X107587900Y-82738600D01*
X107587900Y-84313400D01*
G37*
G36*
X109365900Y-78166600D02*
G01*
X108248300Y-78166600D01*
X108248300Y-76591800D01*
X109365900Y-76591800D01*
X109365900Y-78166600D01*
G37*
G36*
X109365900Y-84313400D02*
G01*
X108248300Y-84313400D01*
X108248300Y-82738600D01*
X109365900Y-82738600D01*
X109365900Y-84313400D01*
G37*
D10*
%TO.C,PB9/PH7_GPIO*%
X145827600Y-129495600D02*
X145827600Y-130469600D01*
X144684600Y-129495600D02*
X144684600Y-130469600D01*
%TO.C,PB9/PH7_USB*%
X144684600Y-128437600D02*
X144684600Y-127463600D01*
X145827600Y-128437600D02*
X145827600Y-127463600D01*
%TO.C,RM4*%
G36*
X122700900Y-132522600D02*
G01*
X121583300Y-132522600D01*
X121583300Y-132014600D01*
X122700900Y-132014600D01*
X122700900Y-132522600D01*
G37*
G36*
X122700900Y-134300600D02*
G01*
X121583300Y-134300600D01*
X121583300Y-133538600D01*
X122700900Y-133538600D01*
X122700900Y-134300600D01*
G37*
G36*
X124224900Y-134300600D02*
G01*
X123107300Y-134300600D01*
X123107300Y-133538600D01*
X124224900Y-133538600D01*
X124224900Y-134300600D01*
G37*
G36*
X124224900Y-131760600D02*
G01*
X123107300Y-131760600D01*
X123107300Y-130998600D01*
X124224900Y-130998600D01*
X124224900Y-131760600D01*
G37*
G36*
X122700900Y-131760600D02*
G01*
X121583300Y-131760600D01*
X121583300Y-130998600D01*
X122700900Y-130998600D01*
X122700900Y-131760600D01*
G37*
G36*
X122700900Y-133284600D02*
G01*
X121583300Y-133284600D01*
X121583300Y-132776600D01*
X122700900Y-132776600D01*
X122700900Y-133284600D01*
G37*
G36*
X124224900Y-133284600D02*
G01*
X123107300Y-133284600D01*
X123107300Y-132776600D01*
X124224900Y-132776600D01*
X124224900Y-133284600D01*
G37*
G36*
X124224900Y-132522600D02*
G01*
X123107300Y-132522600D01*
X123107300Y-132014600D01*
X124224900Y-132014600D01*
X124224900Y-132522600D01*
G37*
%TO.C,RM5*%
G36*
X157321100Y-133970400D02*
G01*
X156813100Y-133970400D01*
X156813100Y-132852800D01*
X157321100Y-132852800D01*
X157321100Y-133970400D01*
G37*
G36*
X158337100Y-133970400D02*
G01*
X157575100Y-133970400D01*
X157575100Y-132852800D01*
X158337100Y-132852800D01*
X158337100Y-133970400D01*
G37*
G36*
X158337100Y-132446400D02*
G01*
X157575100Y-132446400D01*
X157575100Y-131328800D01*
X158337100Y-131328800D01*
X158337100Y-132446400D01*
G37*
G36*
X155797100Y-133970400D02*
G01*
X155035100Y-133970400D01*
X155035100Y-132852800D01*
X155797100Y-132852800D01*
X155797100Y-133970400D01*
G37*
G36*
X155797100Y-132446400D02*
G01*
X155035100Y-132446400D01*
X155035100Y-131328800D01*
X155797100Y-131328800D01*
X155797100Y-132446400D01*
G37*
G36*
X157321100Y-132446400D02*
G01*
X156813100Y-132446400D01*
X156813100Y-131328800D01*
X157321100Y-131328800D01*
X157321100Y-132446400D01*
G37*
G36*
X156559100Y-133970400D02*
G01*
X156051100Y-133970400D01*
X156051100Y-132852800D01*
X156559100Y-132852800D01*
X156559100Y-133970400D01*
G37*
G36*
X156559100Y-132446400D02*
G01*
X156051100Y-132446400D01*
X156051100Y-131328800D01*
X156559100Y-131328800D01*
X156559100Y-132446400D01*
G37*
%TO.C,RESET*%
G36*
X107587900Y-86421600D02*
G01*
X106470300Y-86421600D01*
X106470300Y-84846800D01*
X107587900Y-84846800D01*
X107587900Y-86421600D01*
G37*
G36*
X109365900Y-92568400D02*
G01*
X108248300Y-92568400D01*
X108248300Y-90993600D01*
X109365900Y-90993600D01*
X109365900Y-92568400D01*
G37*
G36*
X107587900Y-92568400D02*
G01*
X106470300Y-92568400D01*
X106470300Y-90993600D01*
X107587900Y-90993600D01*
X107587900Y-92568400D01*
G37*
G36*
X109365900Y-86421600D02*
G01*
X108248300Y-86421600D01*
X108248300Y-84846800D01*
X109365900Y-84846800D01*
X109365900Y-86421600D01*
G37*
%TO.C,SD/MMC1*%
G36*
X120232100Y-132025100D02*
G01*
X119032100Y-132025100D01*
X119032100Y-131225100D01*
X120232100Y-131225100D01*
X120232100Y-132025100D01*
G37*
G36*
X120232100Y-130925100D02*
G01*
X119032100Y-130925100D01*
X119032100Y-130125100D01*
X120232100Y-130125100D01*
X120232100Y-130925100D01*
G37*
G36*
X120232100Y-127625100D02*
G01*
X119032100Y-127625100D01*
X119032100Y-126825100D01*
X120232100Y-126825100D01*
X120232100Y-127625100D01*
G37*
G36*
X120232100Y-128725100D02*
G01*
X119032100Y-128725100D01*
X119032100Y-127925100D01*
X120232100Y-127925100D01*
X120232100Y-128725100D01*
G37*
G36*
X120232100Y-129825100D02*
G01*
X119032100Y-129825100D01*
X119032100Y-129025100D01*
X120232100Y-129025100D01*
X120232100Y-129825100D01*
G37*
G36*
X120232100Y-133125100D02*
G01*
X119032100Y-133125100D01*
X119032100Y-132325100D01*
X120232100Y-132325100D01*
X120232100Y-133125100D01*
G37*
G36*
X120232100Y-124325100D02*
G01*
X119032100Y-124325100D01*
X119032100Y-123525100D01*
X120232100Y-123525100D01*
X120232100Y-124325100D01*
G37*
G36*
X120232100Y-126525100D02*
G01*
X119032100Y-126525100D01*
X119032100Y-125725100D01*
X120232100Y-125725100D01*
X120232100Y-126525100D01*
G37*
G36*
X120232100Y-125425100D02*
G01*
X119032100Y-125425100D01*
X119032100Y-124625100D01*
X120232100Y-124625100D01*
X120232100Y-125425100D01*
G37*
%TO.C,RM2*%
G36*
X158641900Y-119441600D02*
G01*
X157524300Y-119441600D01*
X157524300Y-118679600D01*
X158641900Y-118679600D01*
X158641900Y-119441600D01*
G37*
G36*
X160165900Y-121981600D02*
G01*
X159048300Y-121981600D01*
X159048300Y-121219600D01*
X160165900Y-121219600D01*
X160165900Y-121981600D01*
G37*
G36*
X158641900Y-121981600D02*
G01*
X157524300Y-121981600D01*
X157524300Y-121219600D01*
X158641900Y-121219600D01*
X158641900Y-121981600D01*
G37*
G36*
X158641900Y-120203600D02*
G01*
X157524300Y-120203600D01*
X157524300Y-119695600D01*
X158641900Y-119695600D01*
X158641900Y-120203600D01*
G37*
G36*
X160165900Y-119441600D02*
G01*
X159048300Y-119441600D01*
X159048300Y-118679600D01*
X160165900Y-118679600D01*
X160165900Y-119441600D01*
G37*
G36*
X158641900Y-120965600D02*
G01*
X157524300Y-120965600D01*
X157524300Y-120457600D01*
X158641900Y-120457600D01*
X158641900Y-120965600D01*
G37*
G36*
X160165900Y-120965600D02*
G01*
X159048300Y-120965600D01*
X159048300Y-120457600D01*
X160165900Y-120457600D01*
X160165900Y-120965600D01*
G37*
G36*
X160165900Y-120203600D02*
G01*
X159048300Y-120203600D01*
X159048300Y-119695600D01*
X160165900Y-119695600D01*
X160165900Y-120203600D01*
G37*
%TO.C,RM10*%
G36*
X162655100Y-82535400D02*
G01*
X162147100Y-82535400D01*
X162147100Y-81417800D01*
X162655100Y-81417800D01*
X162655100Y-82535400D01*
G37*
G36*
X161893100Y-81011400D02*
G01*
X161131100Y-81011400D01*
X161131100Y-79893800D01*
X161893100Y-79893800D01*
X161893100Y-81011400D01*
G37*
G36*
X161893100Y-82535400D02*
G01*
X161131100Y-82535400D01*
X161131100Y-81417800D01*
X161893100Y-81417800D01*
X161893100Y-82535400D01*
G37*
G36*
X164433100Y-81011400D02*
G01*
X163671100Y-81011400D01*
X163671100Y-79893800D01*
X164433100Y-79893800D01*
X164433100Y-81011400D01*
G37*
G36*
X162655100Y-81011400D02*
G01*
X162147100Y-81011400D01*
X162147100Y-79893800D01*
X162655100Y-79893800D01*
X162655100Y-81011400D01*
G37*
G36*
X164433100Y-82535400D02*
G01*
X163671100Y-82535400D01*
X163671100Y-81417800D01*
X164433100Y-81417800D01*
X164433100Y-82535400D01*
G37*
G36*
X163417100Y-81011400D02*
G01*
X162909100Y-81011400D01*
X162909100Y-79893800D01*
X163417100Y-79893800D01*
X163417100Y-81011400D01*
G37*
G36*
X163417100Y-82535400D02*
G01*
X162909100Y-82535400D01*
X162909100Y-81417800D01*
X163417100Y-81417800D01*
X163417100Y-82535400D01*
G37*
%TD*%
D12*
%TO.C,LCD_CON*%
X163671100Y-78293600D03*
X140811100Y-78293600D03*
%TD*%
D13*
%TO.C,CASE*%
X121501100Y-90998600D03*
X121501100Y-118998600D03*
D14*
X128071100Y-129998600D03*
D15*
X128071100Y-127748600D03*
X128071100Y-132248600D03*
X130321100Y-129998600D03*
X125821100Y-129998600D03*
X126524300Y-128451800D03*
X129618000Y-131545500D03*
X126524300Y-131545500D03*
X129618000Y-128451800D03*
D14*
X168931100Y-129998600D03*
D15*
X168931100Y-127748600D03*
X168931100Y-132248600D03*
X171181100Y-129998600D03*
X166681100Y-129998600D03*
X167384300Y-128451800D03*
X170478000Y-131545500D03*
X167384300Y-131545500D03*
X170478000Y-128451800D03*
D14*
X128071100Y-79998600D03*
D15*
X128071100Y-77748600D03*
X128071100Y-82248600D03*
X130321100Y-79998600D03*
X125821100Y-79998600D03*
X126524300Y-78451800D03*
X129618000Y-81545500D03*
X126524300Y-81545500D03*
X129618000Y-78451800D03*
D14*
X168931100Y-79998600D03*
D15*
X168931100Y-77748600D03*
X168931100Y-82248600D03*
X171181100Y-79998600D03*
X166681100Y-79998600D03*
X167384300Y-78451800D03*
X170478000Y-81545500D03*
X167384300Y-81545500D03*
X170478000Y-78451800D03*
%TD*%
D12*
%TO.C,GPIO-2*%
X133191100Y-125283600D03*
X156051100Y-125283600D03*
%TD*%
D16*
%TO.C,USB_HOST2*%
X181655100Y-99100600D03*
X179655100Y-99100600D03*
X177655100Y-99100600D03*
X175655100Y-99100600D03*
D17*
X182155100Y-101950600D03*
X182155100Y-96250600D03*
X175155100Y-96250600D03*
X175155100Y-101950600D03*
%TD*%
D18*
%TO.C,BACKUP*%
X182721100Y-133284600D03*
D19*
X185261100Y-133284600D03*
%TD*%
D18*
%TO.C,UART0*%
X173831100Y-133284600D03*
D19*
X176371100Y-133284600D03*
X178911100Y-133284600D03*
%TD*%
D20*
%TO.C,USB_OTG*%
X110585100Y-129380600D03*
X110585100Y-124980600D03*
%TD*%
D21*
%TO.C,SATA*%
X112850100Y-98705600D03*
X112625100Y-98705600D03*
X113100100Y-98705600D03*
X112425100Y-98705600D03*
X113525100Y-98705600D03*
X112850100Y-85965600D03*
X112625100Y-85965600D03*
X113100100Y-85965600D03*
X112425100Y-85965600D03*
X113525100Y-85965600D03*
X113325100Y-98705600D03*
X113325100Y-85965600D03*
%TD*%
D22*
%TO.C,U12*%
X171672100Y-89850600D03*
%TD*%
D23*
%TO.C,LIPO_BAT*%
X188055100Y-92374600D03*
D24*
X188055100Y-90374600D03*
%TD*%
D25*
%TO.C,HDMI*%
X115562100Y-116835600D03*
X109462100Y-116835600D03*
X109462100Y-102235600D03*
X115562100Y-102235600D03*
X115162100Y-116835600D03*
X109062100Y-116835600D03*
X109062100Y-102235600D03*
X115162100Y-102235600D03*
X114862100Y-116835600D03*
X115712100Y-116835600D03*
X115712100Y-102235600D03*
X114862100Y-102235600D03*
X116012100Y-116835600D03*
X116012100Y-102235600D03*
X109762100Y-102235600D03*
X109762100Y-116810600D03*
X114612100Y-116835600D03*
X108762100Y-116835600D03*
X108762100Y-102235600D03*
X114612100Y-102235600D03*
%TD*%
D18*
%TO.C,GND_PIN*%
X132683100Y-133538600D03*
%TD*%
D26*
%TO.C,C174*%
X175609100Y-79944600D03*
D27*
X175609100Y-77404600D03*
%TD*%
D28*
%TO.C,5V_SATA_PWR*%
X110966100Y-78817600D03*
D24*
X110966100Y-80817600D03*
%TD*%
D12*
%TO.C,GPIO-4*%
X121380100Y-76642600D03*
X121380100Y-86802600D03*
%TD*%
D29*
%TO.C,U2*%
X165322100Y-122870600D03*
D21*
X165822100Y-123970600D03*
X164822100Y-123970600D03*
X164222100Y-123370600D03*
X164222100Y-122370600D03*
X164822100Y-121770600D03*
X165822100Y-121770600D03*
X166422100Y-122370600D03*
X166422100Y-123370600D03*
%TD*%
D30*
%TO.C,LAN*%
X183356100Y-117028600D03*
X183356100Y-128458600D03*
D24*
X176656100Y-127198600D03*
X174116100Y-125928600D03*
X176656100Y-124658600D03*
X174116100Y-123388600D03*
X176656100Y-122118600D03*
X174116100Y-120848600D03*
X176656100Y-119578600D03*
X174116100Y-118308600D03*
D31*
X188104600Y-118673600D03*
X188104600Y-129353600D03*
D25*
X180256100Y-130743600D03*
X180256100Y-114743600D03*
D31*
X188104600Y-116133600D03*
X188104600Y-126813600D03*
D25*
X180856100Y-130743600D03*
X180656100Y-130743600D03*
X180456100Y-130743600D03*
X180056100Y-130743600D03*
X179856100Y-130743600D03*
X179856100Y-114743600D03*
X180056100Y-114743600D03*
X180456100Y-114743600D03*
X180656100Y-114743600D03*
X180856100Y-114743600D03*
%TD*%
D12*
%TO.C,GPIO-3*%
X140811100Y-131633600D03*
X163671100Y-131633600D03*
%TD*%
D16*
%TO.C,USB_HOST1*%
X181655100Y-108752600D03*
X179655100Y-108752600D03*
X177655100Y-108752600D03*
X175655100Y-108752600D03*
D17*
X182155100Y-111602600D03*
X182155100Y-105902600D03*
X175155100Y-105902600D03*
X175155100Y-111602600D03*
%TD*%
D12*
%TO.C,GPIO-1*%
X133191100Y-84643600D03*
X156051100Y-84643600D03*
%TD*%
D16*
%TO.C,PWR_JACK*%
X181266100Y-82916600D03*
X181266100Y-83216600D03*
X181266100Y-83516600D03*
X181266100Y-83816600D03*
X181266100Y-82616600D03*
X181266100Y-82316600D03*
X181266100Y-82016600D03*
X181266100Y-81716600D03*
X181266100Y-84116600D03*
X187266100Y-82916600D03*
X184516100Y-78466600D03*
X184816100Y-78466600D03*
X185116100Y-78466600D03*
X185416100Y-78466600D03*
X184216100Y-78466600D03*
X183916100Y-78466600D03*
X183616100Y-78466600D03*
X185616100Y-78466600D03*
X183416100Y-78466600D03*
X187266100Y-83216600D03*
X187266100Y-83516600D03*
X187266100Y-82616600D03*
X187266100Y-82316600D03*
X187266100Y-83816600D03*
X187266100Y-82016600D03*
X187266100Y-84116600D03*
%TD*%
D32*
%TO.C,C156*%
X141141300Y-106233600D03*
X142157300Y-106233600D03*
%TD*%
D33*
%TO.C,C157*%
X167227100Y-94168600D03*
X167227100Y-92390600D03*
%TD*%
D34*
%TO.C,C12*%
X151783900Y-102220400D03*
X151783900Y-101204400D03*
%TD*%
D32*
%TO.C,C30*%
X143478100Y-103312600D03*
X144494100Y-103312600D03*
%TD*%
D35*
%TO.C,C93*%
X151656900Y-108875200D03*
X150640900Y-108875200D03*
%TD*%
D34*
%TO.C,R87*%
X128238100Y-102296600D03*
X128238100Y-101280600D03*
%TD*%
D36*
%TO.C,R70*%
X155289100Y-91501600D03*
X153511100Y-91501600D03*
%TD*%
D32*
%TO.C,C67*%
X141141300Y-107122600D03*
X142157300Y-107122600D03*
%TD*%
D34*
%TO.C,C73*%
X143071700Y-111821600D03*
X143071700Y-110805600D03*
%TD*%
D37*
%TO.C,C38*%
X167608100Y-102804600D03*
X167608100Y-103820600D03*
%TD*%
D35*
%TO.C,C128*%
X115665100Y-93787600D03*
X114649100Y-93787600D03*
%TD*%
D36*
%TO.C,C130*%
X179292100Y-95311600D03*
X177514100Y-95311600D03*
%TD*%
D38*
%TO.C,Q3*%
X135803100Y-112456600D03*
X132103100Y-112456600D03*
%TD*%
D39*
%TO.C,C194*%
X183991100Y-104455600D03*
X185769100Y-104455600D03*
%TD*%
D40*
%TO.C,U10*%
X187105100Y-110267500D03*
X188055100Y-110267500D03*
X189005100Y-110267500D03*
X189005100Y-112867700D03*
X187105100Y-112867700D03*
%TD*%
D39*
%TO.C,C125*%
X183991100Y-102931600D03*
X185769100Y-102931600D03*
%TD*%
D40*
%TO.C,U15*%
X134908100Y-81184500D03*
X135858100Y-81184500D03*
X136808100Y-81184500D03*
X136808100Y-83784700D03*
X134908100Y-83784700D03*
%TD*%
D41*
%TO.C,C177*%
X158337100Y-88199600D03*
X158337100Y-89977600D03*
%TD*%
D32*
%TO.C,C123*%
X141141300Y-108976800D03*
X142157300Y-108976800D03*
%TD*%
D35*
%TO.C,C70*%
X151758500Y-111821600D03*
X150742500Y-111821600D03*
%TD*%
D42*
%TO.C,BAT*%
X177133100Y-92644600D03*
%TD*%
D34*
%TO.C,R96*%
X126460100Y-102296600D03*
X126460100Y-101280600D03*
%TD*%
D43*
%TO.C,U20*%
X185195100Y-84092600D03*
X183295100Y-84092600D03*
X184245100Y-81892600D03*
%TD*%
D34*
%TO.C,C196*%
X126460100Y-104963600D03*
X126460100Y-103947600D03*
%TD*%
D35*
%TO.C,R93*%
X112109100Y-115250600D03*
X111093100Y-115250600D03*
%TD*%
D44*
%TO.C,D5*%
X184467100Y-96581600D03*
X189357100Y-96581600D03*
%TD*%
D32*
%TO.C,C90*%
X133699100Y-109916600D03*
X134715100Y-109916600D03*
%TD*%
D33*
%TO.C,C132*%
X173069100Y-97470600D03*
X173069100Y-95692600D03*
%TD*%
D34*
%TO.C,R22*%
X164814100Y-130744600D03*
X164814100Y-129728600D03*
%TD*%
D45*
%TO.C,NAND_E*%
X129508100Y-92771600D03*
X128746100Y-92771600D03*
%TD*%
D37*
%TO.C,C35*%
X148964500Y-101204400D03*
X148964500Y-102220400D03*
%TD*%
%TO.C,C53*%
X146068900Y-108875200D03*
X146068900Y-109891200D03*
%TD*%
D43*
%TO.C,FET1*%
X117758100Y-78631600D03*
X115858100Y-78631600D03*
X116808100Y-76431600D03*
%TD*%
D34*
%TO.C,R24*%
X164941100Y-128331600D03*
X164941100Y-127315600D03*
%TD*%
D33*
%TO.C,R53*%
X173069100Y-104582600D03*
X173069100Y-102804600D03*
%TD*%
D32*
%TO.C,C103*%
X132175100Y-91247600D03*
X133191100Y-91247600D03*
%TD*%
D34*
%TO.C,R19*%
X163163100Y-128331600D03*
X163163100Y-127315600D03*
%TD*%
D46*
%TO.C,L13*%
X162655100Y-90796600D03*
X162655100Y-88396600D03*
%TD*%
D47*
%TO.C,U14*%
X185195100Y-90642700D03*
X184245100Y-90642700D03*
X183295100Y-90642700D03*
X183295100Y-88042500D03*
X184245100Y-88042500D03*
X185195100Y-88042500D03*
%TD*%
D36*
%TO.C,R39*%
X160115100Y-76515600D03*
X158337100Y-76515600D03*
%TD*%
D48*
%TO.C,D3*%
X181673100Y-76515600D03*
X186563100Y-76515600D03*
%TD*%
D32*
%TO.C,C6*%
X150742500Y-106132000D03*
X151758500Y-106132000D03*
%TD*%
D49*
%TO.C,PC3/PB8*%
X115665100Y-87564600D03*
X116808100Y-87564600D03*
X117951100Y-87564600D03*
%TD*%
D50*
%TO.C,RECOVERY*%
X109315100Y-96962600D03*
X106648100Y-96962600D03*
%TD*%
D33*
%TO.C,C163*%
X163036100Y-86675600D03*
X163036100Y-84897600D03*
%TD*%
D37*
%TO.C,C203*%
X113379100Y-102804600D03*
X113379100Y-103820600D03*
%TD*%
D34*
%TO.C,C28*%
X145002100Y-111821600D03*
X145002100Y-110805600D03*
%TD*%
D41*
%TO.C,R46*%
X157829100Y-84897600D03*
X157829100Y-86675600D03*
%TD*%
D36*
%TO.C,C54*%
X130778100Y-99121600D03*
X129000100Y-99121600D03*
%TD*%
D32*
%TO.C,C19*%
X159797600Y-97978600D03*
X160813600Y-97978600D03*
%TD*%
D39*
%TO.C,R72*%
X134969100Y-85659600D03*
X136747100Y-85659600D03*
%TD*%
D32*
%TO.C,C8*%
X150742500Y-103236400D03*
X151758500Y-103236400D03*
%TD*%
D34*
%TO.C,R49*%
X159861100Y-133919600D03*
X159861100Y-132903600D03*
%TD*%
D41*
%TO.C,C175*%
X153257100Y-88199600D03*
X153257100Y-89977600D03*
%TD*%
D32*
%TO.C,R47*%
X188055100Y-106360600D03*
X189071100Y-106360600D03*
%TD*%
D39*
%TO.C,C193*%
X183991100Y-113091600D03*
X185769100Y-113091600D03*
%TD*%
D35*
%TO.C,C65*%
X142157300Y-103490400D03*
X141141300Y-103490400D03*
%TD*%
%TO.C,C198*%
X132937100Y-107503600D03*
X131921100Y-107503600D03*
%TD*%
D43*
%TO.C,D2*%
X161517100Y-133411600D03*
X165317100Y-133411600D03*
%TD*%
D41*
%TO.C,C195*%
X130651100Y-105471600D03*
X130651100Y-107249600D03*
%TD*%
D37*
%TO.C,C18*%
X146068900Y-105014400D03*
X146068900Y-106030400D03*
%TD*%
D51*
%TO.C,Q2*%
X162064100Y-109967600D03*
X167564100Y-109967600D03*
X167564100Y-113167600D03*
X162064100Y-113167600D03*
%TD*%
D52*
%TO.C,T1*%
X115708100Y-84069600D03*
X115708100Y-82169600D03*
X117908100Y-83119600D03*
%TD*%
D34*
%TO.C,C105*%
X136941100Y-106623600D03*
X136941100Y-105607600D03*
%TD*%
%TO.C,C11*%
X150844100Y-102220400D03*
X150844100Y-101204400D03*
%TD*%
%TO.C,C44*%
X167989100Y-108138600D03*
X167989100Y-107122600D03*
%TD*%
D37*
%TO.C,C204*%
X127349100Y-101280600D03*
X127349100Y-102296600D03*
%TD*%
D35*
%TO.C,C77*%
X142157300Y-110856400D03*
X141141300Y-110856400D03*
%TD*%
D41*
%TO.C,R79*%
X168624100Y-117917600D03*
X168624100Y-119695600D03*
%TD*%
D39*
%TO.C,C135*%
X178530100Y-87056600D03*
X180308100Y-87056600D03*
%TD*%
D32*
%TO.C,C4*%
X150640900Y-109764200D03*
X151656900Y-109764200D03*
%TD*%
D53*
%TO.C,C88*%
X174847100Y-130744600D03*
X178403100Y-130744600D03*
%TD*%
D41*
%TO.C,R66*%
X173323100Y-77150600D03*
X173323100Y-78928600D03*
%TD*%
D35*
%TO.C,C17*%
X151758500Y-104252400D03*
X150742500Y-104252400D03*
%TD*%
D32*
%TO.C,R40*%
X188055100Y-114488600D03*
X189071100Y-114488600D03*
%TD*%
D39*
%TO.C,C200*%
X125698100Y-99121600D03*
X127476100Y-99121600D03*
%TD*%
D32*
%TO.C,R52*%
X116300100Y-80325600D03*
X117316100Y-80325600D03*
%TD*%
D41*
%TO.C,C197*%
X132429100Y-104455600D03*
X132429100Y-106233600D03*
%TD*%
D54*
%TO.C,C188*%
X178022100Y-101026600D03*
X178022100Y-103058600D03*
%TD*%
D32*
%TO.C,R94*%
X111347100Y-103820600D03*
X112363100Y-103820600D03*
%TD*%
D34*
%TO.C,R88*%
X129254100Y-102296600D03*
X129254100Y-101280600D03*
%TD*%
D55*
%TO.C,L1*%
X126333100Y-97343600D03*
X128365100Y-97343600D03*
%TD*%
D56*
%TO.C,L15*%
X137820100Y-77404600D03*
X135420100Y-77404600D03*
%TD*%
D57*
%TO.C,U19*%
X188944100Y-133284600D03*
%TD*%
D33*
%TO.C,C150*%
X168497100Y-97470600D03*
X168497100Y-95692600D03*
%TD*%
D37*
%TO.C,C31*%
X146068900Y-106944800D03*
X146068900Y-107960800D03*
%TD*%
D32*
%TO.C,C95*%
X141293700Y-104379400D03*
X142309700Y-104379400D03*
%TD*%
D58*
%TO.C,L4*%
X123666100Y-129601600D03*
X121634100Y-129601600D03*
%TD*%
D41*
%TO.C,R15*%
X132937100Y-129855600D03*
X132937100Y-131633600D03*
%TD*%
D34*
%TO.C,C56*%
X147084900Y-102220400D03*
X147084900Y-101204400D03*
%TD*%
D59*
%TO.C,FUSE1*%
X118205100Y-101404600D03*
X118205100Y-104204600D03*
%TD*%
D36*
%TO.C,C98*%
X123793100Y-125537600D03*
X122015100Y-125537600D03*
%TD*%
D32*
%TO.C,C121*%
X141141300Y-108011600D03*
X142157300Y-108011600D03*
%TD*%
%TO.C,C76*%
X169894100Y-120838600D03*
X170910100Y-120838600D03*
%TD*%
D39*
%TO.C,R48*%
X187420100Y-100518600D03*
X189198100Y-100518600D03*
%TD*%
D35*
%TO.C,R12*%
X154654100Y-97343600D03*
X153638100Y-97343600D03*
%TD*%
D60*
%TO.C,U22*%
X112617100Y-113035600D03*
X111347100Y-113035600D03*
X110077100Y-113035600D03*
X108807100Y-113035600D03*
X108807100Y-106035600D03*
X110077100Y-106035600D03*
X111347100Y-106035600D03*
X112617100Y-106035600D03*
%TD*%
D33*
%TO.C,C85*%
X159670600Y-114107600D03*
X159670600Y-112329600D03*
%TD*%
D35*
%TO.C,R77*%
X181197100Y-85786600D03*
X180181100Y-85786600D03*
%TD*%
D58*
%TO.C,L9*%
X179292100Y-106868600D03*
X177260100Y-106868600D03*
%TD*%
D33*
%TO.C,C182*%
X138525100Y-83500600D03*
X138525100Y-81722600D03*
%TD*%
D32*
%TO.C,R27*%
X131032100Y-125156600D03*
X132048100Y-125156600D03*
%TD*%
D39*
%TO.C,C186*%
X183356100Y-93787600D03*
X185134100Y-93787600D03*
%TD*%
%TO.C,C118*%
X183991100Y-111567600D03*
X185769100Y-111567600D03*
%TD*%
D36*
%TO.C,C164*%
X131286100Y-89977600D03*
X129508100Y-89977600D03*
%TD*%
D42*
%TO.C,1.2V_CPU*%
X160750100Y-83754600D03*
%TD*%
D39*
%TO.C,C99*%
X133064100Y-89977600D03*
X134842100Y-89977600D03*
%TD*%
D37*
%TO.C,C120*%
X183991100Y-108138600D03*
X183991100Y-109154600D03*
%TD*%
D35*
%TO.C,C10*%
X166274600Y-96708600D03*
X165258600Y-96708600D03*
%TD*%
D37*
%TO.C,C7*%
X152558600Y-108392600D03*
X152558600Y-109408600D03*
%TD*%
D32*
%TO.C,R92*%
X108934100Y-115250600D03*
X109950100Y-115250600D03*
%TD*%
D57*
%TO.C,U18*%
X111220100Y-76642600D03*
%TD*%
D42*
%TO.C,1.2V_INT*%
X155797100Y-93787600D03*
%TD*%
D43*
%TO.C,FET4*%
X179353100Y-82568600D03*
X177453100Y-82568600D03*
X178403100Y-80368600D03*
%TD*%
D37*
%TO.C,C37*%
X149904300Y-101204400D03*
X149904300Y-102220400D03*
%TD*%
D32*
%TO.C,C100*%
X132175100Y-92263600D03*
X133191100Y-92263600D03*
%TD*%
D61*
%TO.C,U3*%
X138525100Y-132709600D03*
X137255100Y-132709600D03*
X135985100Y-132709600D03*
X134715100Y-132709600D03*
X134715100Y-126747600D03*
X135985100Y-126747600D03*
X137255100Y-126747600D03*
X138525100Y-126747600D03*
%TD*%
D37*
%TO.C,C126*%
X183991100Y-100010600D03*
X183991100Y-101026600D03*
%TD*%
D33*
%TO.C,R85*%
X185769100Y-117917600D03*
X185769100Y-116139600D03*
%TD*%
D32*
%TO.C,C152*%
X141141300Y-105268400D03*
X142157300Y-105268400D03*
%TD*%
D50*
%TO.C,PWR*%
X106648100Y-80452600D03*
X109315100Y-80452600D03*
%TD*%
D62*
%TO.C,L8*%
X185515100Y-101153600D03*
X185515100Y-99121600D03*
%TD*%
D39*
%TO.C,C179*%
X183356100Y-92263600D03*
X185134100Y-92263600D03*
%TD*%
D41*
%TO.C,C178*%
X159861100Y-88199600D03*
X159861100Y-89977600D03*
%TD*%
%TO.C,R45*%
X159353100Y-84897600D03*
X159353100Y-86675600D03*
%TD*%
D36*
%TO.C,R86*%
X184753100Y-131379600D03*
X182975100Y-131379600D03*
%TD*%
D32*
%TO.C,C32*%
X141141300Y-109942000D03*
X142157300Y-109942000D03*
%TD*%
D63*
%TO.C,WP_ENABLE*%
X107410100Y-115885600D03*
X107410100Y-115123600D03*
%TD*%
D34*
%TO.C,C52*%
X145903800Y-111821600D03*
X145903800Y-110805600D03*
%TD*%
D36*
%TO.C,C139*%
X151225100Y-93787600D03*
X149447100Y-93787600D03*
%TD*%
D34*
%TO.C,R91*%
X125571100Y-102296600D03*
X125571100Y-101280600D03*
%TD*%
D36*
%TO.C,C55*%
X165957100Y-125029600D03*
X164179100Y-125029600D03*
%TD*%
%TO.C,R38*%
X154908100Y-80452600D03*
X153130100Y-80452600D03*
%TD*%
D53*
%TO.C,C89*%
X174847100Y-114869600D03*
X178403100Y-114869600D03*
%TD*%
D41*
%TO.C,R21*%
X157575100Y-113282100D03*
X157575100Y-115060100D03*
%TD*%
D37*
%TO.C,C162*%
X141420700Y-101204400D03*
X141420700Y-102220400D03*
%TD*%
D33*
%TO.C,C158*%
X165195100Y-86675600D03*
X165195100Y-84897600D03*
%TD*%
D35*
%TO.C,R89*%
X129431900Y-107503600D03*
X128415900Y-107503600D03*
%TD*%
D64*
%TO.C,PB9/PH7_GPIO*%
X146399100Y-129982600D03*
X145256100Y-129982600D03*
X144113100Y-129982600D03*
%TD*%
D41*
%TO.C,C192*%
X180181100Y-100772600D03*
X180181100Y-102550600D03*
%TD*%
D33*
%TO.C,C149*%
X166719100Y-86675600D03*
X166719100Y-84897600D03*
%TD*%
D34*
%TO.C,C71*%
X149701100Y-111821600D03*
X149701100Y-110805600D03*
%TD*%
%TO.C,C48*%
X147770700Y-111821600D03*
X147770700Y-110805600D03*
%TD*%
%TO.C,C57*%
X144240100Y-102220400D03*
X144240100Y-101204400D03*
%TD*%
D41*
%TO.C,R43*%
X150209100Y-88199600D03*
X150209100Y-89977600D03*
%TD*%
D35*
%TO.C,C127*%
X115665100Y-94676600D03*
X114649100Y-94676600D03*
%TD*%
D42*
%TO.C,+5V*%
X119602100Y-98740600D03*
%TD*%
D34*
%TO.C,R73*%
X158464100Y-112075600D03*
X158464100Y-111059600D03*
%TD*%
D35*
%TO.C,C66*%
X146957900Y-99731200D03*
X145941900Y-99731200D03*
%TD*%
D36*
%TO.C,C124*%
X185769100Y-105979600D03*
X183991100Y-105979600D03*
%TD*%
D34*
%TO.C,R64*%
X174593100Y-83881600D03*
X174593100Y-82865600D03*
%TD*%
D41*
%TO.C,R67*%
X181832100Y-92263600D03*
X181832100Y-94041600D03*
%TD*%
D33*
%TO.C,C140*%
X114014100Y-80706600D03*
X114014100Y-78928600D03*
%TD*%
D52*
%TO.C,FET3*%
X177303100Y-78354600D03*
X177303100Y-76454600D03*
X179503100Y-77404600D03*
%TD*%
D49*
%TO.C,PB9/PH7_USB*%
X144113100Y-127950600D03*
X145256100Y-127950600D03*
X146399100Y-127950600D03*
%TD*%
D36*
%TO.C,R14*%
X151225100Y-95311600D03*
X149447100Y-95311600D03*
%TD*%
D42*
%TO.C,2.5V*%
X127730100Y-91374600D03*
%TD*%
D35*
%TO.C,C33*%
X151656900Y-107910000D03*
X150640900Y-107910000D03*
%TD*%
D41*
%TO.C,R58*%
X112490100Y-82230600D03*
X112490100Y-84008600D03*
%TD*%
D32*
%TO.C,C199*%
X130397100Y-100645600D03*
X131413100Y-100645600D03*
%TD*%
D39*
%TO.C,R57*%
X132302100Y-93533600D03*
X134080100Y-93533600D03*
%TD*%
D34*
%TO.C,C22*%
X167608100Y-105852600D03*
X167608100Y-104836600D03*
%TD*%
%TO.C,R25*%
X164052100Y-128331600D03*
X164052100Y-127315600D03*
%TD*%
D35*
%TO.C,R74*%
X179419100Y-84643600D03*
X178403100Y-84643600D03*
%TD*%
D41*
%TO.C,C184*%
X133699100Y-78039600D03*
X133699100Y-79817600D03*
%TD*%
D37*
%TO.C,R76*%
X125190100Y-92009600D03*
X125190100Y-93025600D03*
%TD*%
D34*
%TO.C,C137*%
X145179900Y-102220400D03*
X145179900Y-101204400D03*
%TD*%
D40*
%TO.C,U13*%
X157387100Y-91598500D03*
X158337100Y-91598500D03*
X159287100Y-91598500D03*
X159287100Y-94198700D03*
X157387100Y-94198700D03*
%TD*%
D41*
%TO.C,R44*%
X151733100Y-88199600D03*
X151733100Y-89977600D03*
%TD*%
D33*
%TO.C,C141*%
X112490100Y-80706600D03*
X112490100Y-78928600D03*
%TD*%
D35*
%TO.C,R90*%
X128492100Y-105344600D03*
X127476100Y-105344600D03*
%TD*%
D39*
%TO.C,C181*%
X183102100Y-86421600D03*
X184880100Y-86421600D03*
%TD*%
D41*
%TO.C,C81*%
X159670600Y-109027600D03*
X159670600Y-110805600D03*
%TD*%
%TO.C,C185*%
X132175100Y-78039600D03*
X132175100Y-79817600D03*
%TD*%
D40*
%TO.C,U11*%
X187105100Y-102139500D03*
X188055100Y-102139500D03*
X189005100Y-102139500D03*
X189005100Y-104739700D03*
X187105100Y-104739700D03*
%TD*%
D41*
%TO.C,C191*%
X180181100Y-110424600D03*
X180181100Y-112202600D03*
%TD*%
%TO.C,C153*%
X170021100Y-95692600D03*
X170021100Y-97470600D03*
%TD*%
D42*
%TO.C,IPSOUT*%
X165322100Y-89215600D03*
%TD*%
D36*
%TO.C,C133*%
X180308100Y-88580600D03*
X178530100Y-88580600D03*
%TD*%
D35*
%TO.C,R13*%
X154654100Y-98232600D03*
X153638100Y-98232600D03*
%TD*%
D42*
%TO.C,3.3V*%
X156559100Y-86929600D03*
%TD*%
D34*
%TO.C,C69*%
X146068900Y-104100000D03*
X146068900Y-103084000D03*
%TD*%
%TO.C,C24*%
X167608100Y-101788600D03*
X167608100Y-100772600D03*
%TD*%
D42*
%TO.C,1.5V*%
X153257100Y-86929600D03*
%TD*%
D37*
%TO.C,C168*%
X143300300Y-101204400D03*
X143300300Y-102220400D03*
%TD*%
D41*
%TO.C,R68*%
X155289100Y-88199600D03*
X155289100Y-89977600D03*
%TD*%
D39*
%TO.C,R26*%
X131667100Y-123251600D03*
X133445100Y-123251600D03*
%TD*%
D34*
%TO.C,C104*%
X138041100Y-106623600D03*
X138041100Y-105607600D03*
%TD*%
D35*
%TO.C,C16*%
X151758500Y-105243000D03*
X150742500Y-105243000D03*
%TD*%
D33*
%TO.C,R16*%
X132937100Y-128331600D03*
X132937100Y-126553600D03*
%TD*%
D34*
%TO.C,C72*%
X148735900Y-111821600D03*
X148735900Y-110805600D03*
%TD*%
D45*
%TO.C,5V_E_SATA*%
X114395100Y-77277600D03*
X113633100Y-77277600D03*
%TD*%
D32*
%TO.C,R54*%
X115792100Y-85659600D03*
X116808100Y-85659600D03*
%TD*%
D34*
%TO.C,C21*%
X164687100Y-103693600D03*
X164687100Y-102677600D03*
%TD*%
D35*
%TO.C,C29*%
X144824300Y-106868600D03*
X143808300Y-106868600D03*
%TD*%
%TO.C,R84*%
X166973100Y-118552600D03*
X165957100Y-118552600D03*
%TD*%
D34*
%TO.C,C58*%
X146145100Y-102169600D03*
X146145100Y-101153600D03*
%TD*%
D54*
%TO.C,C187*%
X178022100Y-110678600D03*
X178022100Y-112710600D03*
%TD*%
D32*
%TO.C,C34*%
X148075500Y-106868600D03*
X149091500Y-106868600D03*
%TD*%
D65*
%TO.C,R51*%
X179165100Y-93343100D03*
X179165100Y-90422100D03*
%TD*%
D50*
%TO.C,RESET*%
X106648100Y-88707600D03*
X109315100Y-88707600D03*
%TD*%
D66*
%TO.C,L14*%
X187928100Y-86237600D03*
X187928100Y-88637600D03*
%TD*%
D20*
%TO.C,SD/MMC1*%
X108732100Y-123125100D03*
X108732100Y-131125100D03*
D67*
X118732100Y-133925100D03*
D68*
X118732100Y-119325100D03*
D69*
X109132100Y-133925100D03*
X109132100Y-118425100D03*
%TD*%
D34*
%TO.C,R62*%
X173704100Y-83881600D03*
X173704100Y-82865600D03*
%TD*%
D33*
%TO.C,C145*%
X165703100Y-94168600D03*
X165703100Y-92390600D03*
%TD*%
D35*
%TO.C,C78*%
X142157300Y-111821600D03*
X141141300Y-111821600D03*
%TD*%
%TO.C,C49*%
X161766100Y-84770600D03*
X160750100Y-84770600D03*
%TD*%
D37*
%TO.C,C36*%
X148024700Y-101204400D03*
X148024700Y-102220400D03*
%TD*%
D39*
%TO.C,C15*%
X152749100Y-93787600D03*
X154527100Y-93787600D03*
%TD*%
D35*
%TO.C,C129*%
X115665100Y-90866600D03*
X114649100Y-90866600D03*
%TD*%
D32*
%TO.C,R95*%
X113252100Y-115250600D03*
X114268100Y-115250600D03*
%TD*%
D33*
%TO.C,C148*%
X114014100Y-84008600D03*
X114014100Y-82230600D03*
%TD*%
D36*
%TO.C,C96*%
X123793100Y-127061600D03*
X122015100Y-127061600D03*
%TD*%
D33*
%TO.C,R69*%
X181832100Y-89723600D03*
X181832100Y-87945600D03*
%TD*%
D35*
%TO.C,C91*%
X136747100Y-109916600D03*
X135731100Y-109916600D03*
%TD*%
D36*
%TO.C,R7*%
X155035100Y-96073600D03*
X153257100Y-96073600D03*
%TD*%
D62*
%TO.C,L7*%
X185515100Y-109789600D03*
X185515100Y-107757600D03*
%TD*%
D34*
%TO.C,C68*%
X146018100Y-119441600D03*
X146018100Y-118425600D03*
%TD*%
%TO.C,C9*%
X153130100Y-104646100D03*
X153130100Y-103630100D03*
%TD*%
D70*
%TO.C,D1*%
X161634100Y-116901600D03*
X157834100Y-116901600D03*
%TD*%
D36*
%TO.C,C117*%
X185769100Y-114615600D03*
X183991100Y-114615600D03*
%TD*%
D34*
%TO.C,R29*%
X118332100Y-117282600D03*
X118332100Y-116266600D03*
%TD*%
D32*
%TO.C,C5*%
X150742500Y-107021000D03*
X151758500Y-107021000D03*
%TD*%
D34*
%TO.C,C50*%
X146805500Y-111821600D03*
X146805500Y-110805600D03*
%TD*%
%TO.C,C51*%
X144036900Y-111821600D03*
X144036900Y-110805600D03*
%TD*%
D71*
%TO.C,5V_E*%
X175863100Y-81595600D03*
X175863100Y-82357600D03*
%TD*%
D33*
%TO.C,R55*%
X173069100Y-101280600D03*
X173069100Y-99502600D03*
%TD*%
D37*
%TO.C,C40*%
X167608100Y-98804100D03*
X167608100Y-99820100D03*
%TD*%
D39*
%TO.C,R41*%
X187420100Y-108646600D03*
X189198100Y-108646600D03*
%TD*%
D33*
%TO.C,C138*%
X171545100Y-97470600D03*
X171545100Y-95692600D03*
%TD*%
D37*
%TO.C,C170*%
X142360500Y-101204400D03*
X142360500Y-102220400D03*
%TD*%
D32*
%TO.C,C3*%
X150742500Y-110754800D03*
X151758500Y-110754800D03*
%TD*%
D41*
%TO.C,C108*%
X142081100Y-94422600D03*
X142081100Y-96200600D03*
%TD*%
D35*
%TO.C,C131*%
X115665100Y-89977600D03*
X114649100Y-89977600D03*
%TD*%
D33*
%TO.C,C176*%
X160877100Y-94295600D03*
X160877100Y-92517600D03*
%TD*%
D39*
%TO.C,C151*%
X125952100Y-89977600D03*
X127730100Y-89977600D03*
%TD*%
D42*
%TO.C,5VEXT*%
X172738900Y-93152600D03*
%TD*%
D33*
%TO.C,C136*%
X176498100Y-87564600D03*
X176498100Y-85786600D03*
%TD*%
M02*
