M48
; DRILL file {KiCad (6.0.1)} date Wed Jun 22 14:46:08 2022
; FORMAT={-:-/ absolute / inch / decimal}
; #@! TF.CreationDate,2022-06-22T14:46:08-03:00
; #@! TF.GenerationSoftware,Kicad,Pcbnew,(6.0.1)
; #@! TF.FileFunction,NonPlated,1,6,NPTH
FMAT,2
INCH
; #@! TA.AperFunction,NonPlated,NPTH,ComponentDrill
T1C0.0276
; #@! TA.AperFunction,NonPlated,NPTH,ComponentDrill
T2C0.0315
; #@! TA.AperFunction,NonPlated,NPTH,ComponentDrill
T3C0.0394
; #@! TA.AperFunction,NonPlated,NPTH,ComponentDrill
T4C0.1260
; #@! TA.AperFunction,NonPlated,NPTH,ComponentDrill
T5C0.1299
%
G90
G05
T1
X4.7787Y-3.0174
X4.7787Y-3.4174
X5.2437Y-3.3324
X5.2437Y-4.9324
X5.5437Y-3.0824
X5.5437Y-5.1824
X6.1437Y-3.3324
X6.1437Y-4.9324
X6.4437Y-3.0824
X6.4437Y-5.1824
T2
X4.1987Y-3.1674
X4.1987Y-3.4924
X4.1987Y-3.8174
X4.3037Y-3.1674
X4.3037Y-3.4924
X4.3037Y-3.8174
T3
X4.2808Y-4.8474
X4.2808Y-5.1624
X4.3537Y-4.9205
X4.3537Y-5.0937
T4
X7.2187Y-4.6074
X7.2187Y-5.0574
T5
X4.7835Y-3.5826
X4.7835Y-4.685
T0
M30
