%TF.GenerationSoftware,KiCad,Pcbnew,(6.0.1)*%
%TF.CreationDate,2022-06-22T14:46:01-03:00*%
%TF.ProjectId,A20-OLinuXino-Lime_Rev_I1,4132302d-4f4c-4696-9e75-58696e6f2d4c,rev?*%
%TF.SameCoordinates,Original*%
%TF.FileFunction,Paste,Bot*%
%TF.FilePolarity,Positive*%
%FSLAX46Y46*%
G04 Gerber Fmt 4.6, Leading zero omitted, Abs format (unit mm)*
G04 Created by KiCad (PCBNEW (6.0.1)) date 2022-06-22 14:46:01*
%MOMM*%
%LPD*%
G01*
G04 APERTURE LIST*
%ADD10R,0.609600X0.584200*%
%ADD11R,1.016000X1.016000*%
%ADD12R,0.584200X0.609600*%
%ADD13R,2.100000X2.400000*%
%ADD14R,0.550000X1.200000*%
%ADD15R,1.000000X1.400000*%
%ADD16R,1.450000X2.600000*%
%ADD17R,3.000000X1.600000*%
%ADD18R,1.450000X1.800000*%
%ADD19R,1.400000X1.000000*%
%ADD20R,1.016000X1.778000*%
%ADD21R,1.524000X1.270000*%
%ADD22R,1.270000X1.524000*%
%ADD23R,1.600000X3.000000*%
%ADD24R,1.800000X1.600000*%
%ADD25R,0.600000X2.200000*%
%ADD26R,0.609600X2.921000*%
%ADD27R,1.778000X1.651000*%
G04 APERTURE END LIST*
%TO.C,RM1*%
G36*
X161194600Y-128585600D02*
G01*
X160813600Y-128585600D01*
X160813600Y-127569600D01*
X161194600Y-127569600D01*
X161194600Y-128585600D01*
G37*
G36*
X162210600Y-130109600D02*
G01*
X161575600Y-130109600D01*
X161575600Y-129093600D01*
X162210600Y-129093600D01*
X162210600Y-130109600D01*
G37*
G36*
X160432600Y-130109600D02*
G01*
X160051600Y-130109600D01*
X160051600Y-129093600D01*
X160432600Y-129093600D01*
X160432600Y-130109600D01*
G37*
G36*
X162210600Y-128585600D02*
G01*
X161575600Y-128585600D01*
X161575600Y-127569600D01*
X162210600Y-127569600D01*
X162210600Y-128585600D01*
G37*
G36*
X160432600Y-128585600D02*
G01*
X160051600Y-128585600D01*
X160051600Y-127569600D01*
X160432600Y-127569600D01*
X160432600Y-128585600D01*
G37*
G36*
X159670600Y-130109600D02*
G01*
X159035600Y-130109600D01*
X159035600Y-129093600D01*
X159670600Y-129093600D01*
X159670600Y-130109600D01*
G37*
G36*
X161194600Y-130109600D02*
G01*
X160813600Y-130109600D01*
X160813600Y-129093600D01*
X161194600Y-129093600D01*
X161194600Y-130109600D01*
G37*
G36*
X159670600Y-128585600D02*
G01*
X159035600Y-128585600D01*
X159035600Y-127569600D01*
X159670600Y-127569600D01*
X159670600Y-128585600D01*
G37*
%TO.C,RECOVERY*%
G36*
X109315100Y-94676600D02*
G01*
X108299100Y-94676600D01*
X108299100Y-93152600D01*
X109315100Y-93152600D01*
X109315100Y-94676600D01*
G37*
G36*
X109315100Y-100772600D02*
G01*
X108299100Y-100772600D01*
X108299100Y-99248600D01*
X109315100Y-99248600D01*
X109315100Y-100772600D01*
G37*
G36*
X107537100Y-94676600D02*
G01*
X106521100Y-94676600D01*
X106521100Y-93152600D01*
X107537100Y-93152600D01*
X107537100Y-94676600D01*
G37*
G36*
X107537100Y-100772600D02*
G01*
X106521100Y-100772600D01*
X106521100Y-99248600D01*
X107537100Y-99248600D01*
X107537100Y-100772600D01*
G37*
%TO.C,Q2*%
G36*
X162864100Y-114267600D02*
G01*
X161264100Y-114267600D01*
X161264100Y-112067600D01*
X162864100Y-112067600D01*
X162864100Y-114267600D01*
G37*
G36*
X162864100Y-111067600D02*
G01*
X161264100Y-111067600D01*
X161264100Y-108867600D01*
X162864100Y-108867600D01*
X162864100Y-111067600D01*
G37*
G36*
X168364100Y-111067600D02*
G01*
X166764100Y-111067600D01*
X166764100Y-108867600D01*
X168364100Y-108867600D01*
X168364100Y-111067600D01*
G37*
G36*
X168364100Y-114267600D02*
G01*
X166764100Y-114267600D01*
X166764100Y-112067600D01*
X168364100Y-112067600D01*
X168364100Y-114267600D01*
G37*
%TO.C,RM9*%
G36*
X159162600Y-82484600D02*
G01*
X158781600Y-82484600D01*
X158781600Y-81468600D01*
X159162600Y-81468600D01*
X159162600Y-82484600D01*
G37*
G36*
X158400600Y-82484600D02*
G01*
X158019600Y-82484600D01*
X158019600Y-81468600D01*
X158400600Y-81468600D01*
X158400600Y-82484600D01*
G37*
G36*
X157638600Y-82484600D02*
G01*
X157003600Y-82484600D01*
X157003600Y-81468600D01*
X157638600Y-81468600D01*
X157638600Y-82484600D01*
G37*
G36*
X157638600Y-80960600D02*
G01*
X157003600Y-80960600D01*
X157003600Y-79944600D01*
X157638600Y-79944600D01*
X157638600Y-80960600D01*
G37*
G36*
X160178600Y-82484600D02*
G01*
X159543600Y-82484600D01*
X159543600Y-81468600D01*
X160178600Y-81468600D01*
X160178600Y-82484600D01*
G37*
G36*
X158400600Y-80960600D02*
G01*
X158019600Y-80960600D01*
X158019600Y-79944600D01*
X158400600Y-79944600D01*
X158400600Y-80960600D01*
G37*
G36*
X160178600Y-80960600D02*
G01*
X159543600Y-80960600D01*
X159543600Y-79944600D01*
X160178600Y-79944600D01*
X160178600Y-80960600D01*
G37*
G36*
X159162600Y-80960600D02*
G01*
X158781600Y-80960600D01*
X158781600Y-79944600D01*
X159162600Y-79944600D01*
X159162600Y-80960600D01*
G37*
%TO.C,PWR*%
G36*
X109315100Y-84262600D02*
G01*
X108299100Y-84262600D01*
X108299100Y-82738600D01*
X109315100Y-82738600D01*
X109315100Y-84262600D01*
G37*
G36*
X107537100Y-84262600D02*
G01*
X106521100Y-84262600D01*
X106521100Y-82738600D01*
X107537100Y-82738600D01*
X107537100Y-84262600D01*
G37*
G36*
X107537100Y-78166600D02*
G01*
X106521100Y-78166600D01*
X106521100Y-76642600D01*
X107537100Y-76642600D01*
X107537100Y-78166600D01*
G37*
G36*
X109315100Y-78166600D02*
G01*
X108299100Y-78166600D01*
X108299100Y-76642600D01*
X109315100Y-76642600D01*
X109315100Y-78166600D01*
G37*
%TO.C,RM4*%
G36*
X124174100Y-132459100D02*
G01*
X123158100Y-132459100D01*
X123158100Y-132078100D01*
X124174100Y-132078100D01*
X124174100Y-132459100D01*
G37*
G36*
X122650100Y-134237100D02*
G01*
X121634100Y-134237100D01*
X121634100Y-133602100D01*
X122650100Y-133602100D01*
X122650100Y-134237100D01*
G37*
G36*
X124174100Y-133221100D02*
G01*
X123158100Y-133221100D01*
X123158100Y-132840100D01*
X124174100Y-132840100D01*
X124174100Y-133221100D01*
G37*
G36*
X124174100Y-131697100D02*
G01*
X123158100Y-131697100D01*
X123158100Y-131062100D01*
X124174100Y-131062100D01*
X124174100Y-131697100D01*
G37*
G36*
X124174100Y-134237100D02*
G01*
X123158100Y-134237100D01*
X123158100Y-133602100D01*
X124174100Y-133602100D01*
X124174100Y-134237100D01*
G37*
G36*
X122650100Y-133221100D02*
G01*
X121634100Y-133221100D01*
X121634100Y-132840100D01*
X122650100Y-132840100D01*
X122650100Y-133221100D01*
G37*
G36*
X122650100Y-132459100D02*
G01*
X121634100Y-132459100D01*
X121634100Y-132078100D01*
X122650100Y-132078100D01*
X122650100Y-132459100D01*
G37*
G36*
X122650100Y-131697100D02*
G01*
X121634100Y-131697100D01*
X121634100Y-131062100D01*
X122650100Y-131062100D01*
X122650100Y-131697100D01*
G37*
%TO.C,RM5*%
G36*
X157257600Y-132395600D02*
G01*
X156876600Y-132395600D01*
X156876600Y-131379600D01*
X157257600Y-131379600D01*
X157257600Y-132395600D01*
G37*
G36*
X155733600Y-132395600D02*
G01*
X155098600Y-132395600D01*
X155098600Y-131379600D01*
X155733600Y-131379600D01*
X155733600Y-132395600D01*
G37*
G36*
X158273600Y-133919600D02*
G01*
X157638600Y-133919600D01*
X157638600Y-132903600D01*
X158273600Y-132903600D01*
X158273600Y-133919600D01*
G37*
G36*
X155733600Y-133919600D02*
G01*
X155098600Y-133919600D01*
X155098600Y-132903600D01*
X155733600Y-132903600D01*
X155733600Y-133919600D01*
G37*
G36*
X158273600Y-132395600D02*
G01*
X157638600Y-132395600D01*
X157638600Y-131379600D01*
X158273600Y-131379600D01*
X158273600Y-132395600D01*
G37*
G36*
X156495600Y-133919600D02*
G01*
X156114600Y-133919600D01*
X156114600Y-132903600D01*
X156495600Y-132903600D01*
X156495600Y-133919600D01*
G37*
G36*
X156495600Y-132395600D02*
G01*
X156114600Y-132395600D01*
X156114600Y-131379600D01*
X156495600Y-131379600D01*
X156495600Y-132395600D01*
G37*
G36*
X157257600Y-133919600D02*
G01*
X156876600Y-133919600D01*
X156876600Y-132903600D01*
X157257600Y-132903600D01*
X157257600Y-133919600D01*
G37*
%TO.C,RESET*%
G36*
X109315100Y-86421600D02*
G01*
X108299100Y-86421600D01*
X108299100Y-84897600D01*
X109315100Y-84897600D01*
X109315100Y-86421600D01*
G37*
G36*
X109315100Y-92517600D02*
G01*
X108299100Y-92517600D01*
X108299100Y-90993600D01*
X109315100Y-90993600D01*
X109315100Y-92517600D01*
G37*
G36*
X107537100Y-92517600D02*
G01*
X106521100Y-92517600D01*
X106521100Y-90993600D01*
X107537100Y-90993600D01*
X107537100Y-92517600D01*
G37*
G36*
X107537100Y-86421600D02*
G01*
X106521100Y-86421600D01*
X106521100Y-84897600D01*
X107537100Y-84897600D01*
X107537100Y-86421600D01*
G37*
%TO.C,SD/MMC1*%
G36*
X120157100Y-130875100D02*
G01*
X119047100Y-130875100D01*
X119047100Y-130175100D01*
X120157100Y-130175100D01*
X120157100Y-130875100D01*
G37*
G36*
X119582100Y-134675100D02*
G01*
X117882100Y-134675100D01*
X117882100Y-133325100D01*
X119582100Y-133325100D01*
X119582100Y-134675100D01*
G37*
G36*
X120157100Y-126475100D02*
G01*
X119047100Y-126475100D01*
X119047100Y-125775100D01*
X120157100Y-125775100D01*
X120157100Y-126475100D01*
G37*
G36*
X120157100Y-127575100D02*
G01*
X119047100Y-127575100D01*
X119047100Y-126875100D01*
X120157100Y-126875100D01*
X120157100Y-127575100D01*
G37*
G36*
X120157100Y-129775100D02*
G01*
X119047100Y-129775100D01*
X119047100Y-129075100D01*
X120157100Y-129075100D01*
X120157100Y-129775100D01*
G37*
G36*
X110382100Y-119025100D02*
G01*
X107882100Y-119025100D01*
X107882100Y-117675100D01*
X110382100Y-117675100D01*
X110382100Y-119025100D01*
G37*
G36*
X120157100Y-125375100D02*
G01*
X119047100Y-125375100D01*
X119047100Y-124675100D01*
X120157100Y-124675100D01*
X120157100Y-125375100D01*
G37*
G36*
X110382100Y-134675100D02*
G01*
X107882100Y-134675100D01*
X107882100Y-133325100D01*
X110382100Y-133325100D01*
X110382100Y-134675100D01*
G37*
G36*
X120157100Y-133075100D02*
G01*
X119047100Y-133075100D01*
X119047100Y-132375100D01*
X120157100Y-132375100D01*
X120157100Y-133075100D01*
G37*
G36*
X120157100Y-124275100D02*
G01*
X119047100Y-124275100D01*
X119047100Y-123575100D01*
X120157100Y-123575100D01*
X120157100Y-124275100D01*
G37*
G36*
X120157100Y-131975100D02*
G01*
X119047100Y-131975100D01*
X119047100Y-131275100D01*
X120157100Y-131275100D01*
X120157100Y-131975100D01*
G37*
G36*
X120157100Y-128675100D02*
G01*
X119047100Y-128675100D01*
X119047100Y-127975100D01*
X120157100Y-127975100D01*
X120157100Y-128675100D01*
G37*
G36*
X119582100Y-120125100D02*
G01*
X118032100Y-120125100D01*
X118032100Y-118375100D01*
X119582100Y-118375100D01*
X119582100Y-120125100D01*
G37*
%TO.C,RM2*%
G36*
X160115100Y-119378100D02*
G01*
X159099100Y-119378100D01*
X159099100Y-118743100D01*
X160115100Y-118743100D01*
X160115100Y-119378100D01*
G37*
G36*
X158591100Y-120140100D02*
G01*
X157575100Y-120140100D01*
X157575100Y-119759100D01*
X158591100Y-119759100D01*
X158591100Y-120140100D01*
G37*
G36*
X158591100Y-121918100D02*
G01*
X157575100Y-121918100D01*
X157575100Y-121283100D01*
X158591100Y-121283100D01*
X158591100Y-121918100D01*
G37*
G36*
X160115100Y-120140100D02*
G01*
X159099100Y-120140100D01*
X159099100Y-119759100D01*
X160115100Y-119759100D01*
X160115100Y-120140100D01*
G37*
G36*
X160115100Y-120902100D02*
G01*
X159099100Y-120902100D01*
X159099100Y-120521100D01*
X160115100Y-120521100D01*
X160115100Y-120902100D01*
G37*
G36*
X160115100Y-121918100D02*
G01*
X159099100Y-121918100D01*
X159099100Y-121283100D01*
X160115100Y-121283100D01*
X160115100Y-121918100D01*
G37*
G36*
X158591100Y-119378100D02*
G01*
X157575100Y-119378100D01*
X157575100Y-118743100D01*
X158591100Y-118743100D01*
X158591100Y-119378100D01*
G37*
G36*
X158591100Y-120902100D02*
G01*
X157575100Y-120902100D01*
X157575100Y-120521100D01*
X158591100Y-120521100D01*
X158591100Y-120902100D01*
G37*
%TO.C,RM10*%
G36*
X164369600Y-80960600D02*
G01*
X163734600Y-80960600D01*
X163734600Y-79944600D01*
X164369600Y-79944600D01*
X164369600Y-80960600D01*
G37*
G36*
X161829600Y-82484600D02*
G01*
X161194600Y-82484600D01*
X161194600Y-81468600D01*
X161829600Y-81468600D01*
X161829600Y-82484600D01*
G37*
G36*
X162591600Y-82484600D02*
G01*
X162210600Y-82484600D01*
X162210600Y-81468600D01*
X162591600Y-81468600D01*
X162591600Y-82484600D01*
G37*
G36*
X162591600Y-80960600D02*
G01*
X162210600Y-80960600D01*
X162210600Y-79944600D01*
X162591600Y-79944600D01*
X162591600Y-80960600D01*
G37*
G36*
X164369600Y-82484600D02*
G01*
X163734600Y-82484600D01*
X163734600Y-81468600D01*
X164369600Y-81468600D01*
X164369600Y-82484600D01*
G37*
G36*
X161829600Y-80960600D02*
G01*
X161194600Y-80960600D01*
X161194600Y-79944600D01*
X161829600Y-79944600D01*
X161829600Y-80960600D01*
G37*
G36*
X163353600Y-82484600D02*
G01*
X162972600Y-82484600D01*
X162972600Y-81468600D01*
X163353600Y-81468600D01*
X163353600Y-82484600D01*
G37*
G36*
X163353600Y-80960600D02*
G01*
X162972600Y-80960600D01*
X162972600Y-79944600D01*
X163353600Y-79944600D01*
X163353600Y-80960600D01*
G37*
%TD*%
D10*
%TO.C,C156*%
X141141300Y-106233600D03*
X142157300Y-106233600D03*
%TD*%
D11*
%TO.C,C157*%
X167227100Y-94168600D03*
X167227100Y-92390600D03*
%TD*%
D12*
%TO.C,C12*%
X151783900Y-102220400D03*
X151783900Y-101204400D03*
%TD*%
D10*
%TO.C,C30*%
X143478100Y-103312600D03*
X144494100Y-103312600D03*
%TD*%
%TO.C,C93*%
X151656900Y-108875200D03*
X150640900Y-108875200D03*
%TD*%
D12*
%TO.C,R87*%
X128238100Y-102296600D03*
X128238100Y-101280600D03*
%TD*%
D11*
%TO.C,R70*%
X155289100Y-91501600D03*
X153511100Y-91501600D03*
%TD*%
D10*
%TO.C,C67*%
X141141300Y-107122600D03*
X142157300Y-107122600D03*
%TD*%
D12*
%TO.C,C73*%
X143071700Y-111821600D03*
X143071700Y-110805600D03*
%TD*%
%TO.C,C38*%
X167608100Y-102804600D03*
X167608100Y-103820600D03*
%TD*%
D10*
%TO.C,C128*%
X115665100Y-93787600D03*
X114649100Y-93787600D03*
%TD*%
D11*
%TO.C,C130*%
X179292100Y-95311600D03*
X177514100Y-95311600D03*
%TD*%
D13*
%TO.C,Q3*%
X135803100Y-112456600D03*
X132103100Y-112456600D03*
%TD*%
D11*
%TO.C,C194*%
X183991100Y-104455600D03*
X185769100Y-104455600D03*
%TD*%
D14*
%TO.C,U10*%
X187105100Y-110267500D03*
X188055100Y-110267500D03*
X189005100Y-110267500D03*
X189005100Y-112867700D03*
X187105100Y-112867700D03*
%TD*%
D11*
%TO.C,C125*%
X183991100Y-102931600D03*
X185769100Y-102931600D03*
%TD*%
D14*
%TO.C,U15*%
X134908100Y-81184500D03*
X135858100Y-81184500D03*
X136808100Y-81184500D03*
X136808100Y-83784700D03*
X134908100Y-83784700D03*
%TD*%
D11*
%TO.C,C177*%
X158337100Y-88199600D03*
X158337100Y-89977600D03*
%TD*%
D10*
%TO.C,C123*%
X141141300Y-108976800D03*
X142157300Y-108976800D03*
%TD*%
%TO.C,C70*%
X151758500Y-111821600D03*
X150742500Y-111821600D03*
%TD*%
D12*
%TO.C,R96*%
X126460100Y-102296600D03*
X126460100Y-101280600D03*
%TD*%
D15*
%TO.C,U20*%
X185195100Y-84092600D03*
X183295100Y-84092600D03*
X184245100Y-81892600D03*
%TD*%
D12*
%TO.C,C196*%
X126460100Y-104963600D03*
X126460100Y-103947600D03*
%TD*%
D10*
%TO.C,R93*%
X112109100Y-115250600D03*
X111093100Y-115250600D03*
%TD*%
D16*
%TO.C,D5*%
X184467100Y-96581600D03*
X189357100Y-96581600D03*
%TD*%
D10*
%TO.C,C90*%
X133699100Y-109916600D03*
X134715100Y-109916600D03*
%TD*%
D11*
%TO.C,C132*%
X173069100Y-97470600D03*
X173069100Y-95692600D03*
%TD*%
D12*
%TO.C,R22*%
X164814100Y-130744600D03*
X164814100Y-129728600D03*
%TD*%
%TO.C,C35*%
X148964500Y-101204400D03*
X148964500Y-102220400D03*
%TD*%
%TO.C,C53*%
X146068900Y-108875200D03*
X146068900Y-109891200D03*
%TD*%
D15*
%TO.C,FET1*%
X117758100Y-78631600D03*
X115858100Y-78631600D03*
X116808100Y-76431600D03*
%TD*%
D12*
%TO.C,R24*%
X164941100Y-128331600D03*
X164941100Y-127315600D03*
%TD*%
D11*
%TO.C,R53*%
X173069100Y-104582600D03*
X173069100Y-102804600D03*
%TD*%
D10*
%TO.C,C103*%
X132175100Y-91247600D03*
X133191100Y-91247600D03*
%TD*%
D12*
%TO.C,R19*%
X163163100Y-128331600D03*
X163163100Y-127315600D03*
%TD*%
D17*
%TO.C,L13*%
X162655100Y-90796600D03*
X162655100Y-88396600D03*
%TD*%
D14*
%TO.C,U14*%
X185195100Y-90642700D03*
X184245100Y-90642700D03*
X183295100Y-90642700D03*
X183295100Y-88042500D03*
X184245100Y-88042500D03*
X185195100Y-88042500D03*
%TD*%
D11*
%TO.C,R39*%
X160115100Y-76515600D03*
X158337100Y-76515600D03*
%TD*%
D18*
%TO.C,D3*%
X181673100Y-76515600D03*
X186563100Y-76515600D03*
%TD*%
D10*
%TO.C,C6*%
X150742500Y-106132000D03*
X151758500Y-106132000D03*
%TD*%
D11*
%TO.C,C163*%
X163036100Y-86675600D03*
X163036100Y-84897600D03*
%TD*%
D12*
%TO.C,C203*%
X113379100Y-102804600D03*
X113379100Y-103820600D03*
%TD*%
%TO.C,C28*%
X145002100Y-111821600D03*
X145002100Y-110805600D03*
%TD*%
D11*
%TO.C,R46*%
X157829100Y-84897600D03*
X157829100Y-86675600D03*
%TD*%
%TO.C,C54*%
X130778100Y-99121600D03*
X129000100Y-99121600D03*
%TD*%
D10*
%TO.C,C19*%
X159797600Y-97978600D03*
X160813600Y-97978600D03*
%TD*%
D11*
%TO.C,R72*%
X134969100Y-85659600D03*
X136747100Y-85659600D03*
%TD*%
D10*
%TO.C,C8*%
X150742500Y-103236400D03*
X151758500Y-103236400D03*
%TD*%
D12*
%TO.C,R49*%
X159861100Y-133919600D03*
X159861100Y-132903600D03*
%TD*%
D11*
%TO.C,C175*%
X153257100Y-88199600D03*
X153257100Y-89977600D03*
%TD*%
D10*
%TO.C,R47*%
X188055100Y-106360600D03*
X189071100Y-106360600D03*
%TD*%
D11*
%TO.C,C193*%
X183991100Y-113091600D03*
X185769100Y-113091600D03*
%TD*%
D10*
%TO.C,C65*%
X142157300Y-103490400D03*
X141141300Y-103490400D03*
%TD*%
%TO.C,C198*%
X132937100Y-107503600D03*
X131921100Y-107503600D03*
%TD*%
D15*
%TO.C,D2*%
X161517100Y-133411600D03*
X165317100Y-133411600D03*
%TD*%
D11*
%TO.C,C195*%
X130651100Y-105471600D03*
X130651100Y-107249600D03*
%TD*%
D12*
%TO.C,C18*%
X146068900Y-105014400D03*
X146068900Y-106030400D03*
%TD*%
D19*
%TO.C,T1*%
X115708100Y-84069600D03*
X115708100Y-82169600D03*
X117908100Y-83119600D03*
%TD*%
D12*
%TO.C,C105*%
X136941100Y-106623600D03*
X136941100Y-105607600D03*
%TD*%
%TO.C,C11*%
X150844100Y-102220400D03*
X150844100Y-101204400D03*
%TD*%
%TO.C,C44*%
X167989100Y-108138600D03*
X167989100Y-107122600D03*
%TD*%
%TO.C,C204*%
X127349100Y-101280600D03*
X127349100Y-102296600D03*
%TD*%
D10*
%TO.C,C77*%
X142157300Y-110856400D03*
X141141300Y-110856400D03*
%TD*%
D11*
%TO.C,R79*%
X168624100Y-117917600D03*
X168624100Y-119695600D03*
%TD*%
%TO.C,C135*%
X178530100Y-87056600D03*
X180308100Y-87056600D03*
%TD*%
D10*
%TO.C,C4*%
X150640900Y-109764200D03*
X151656900Y-109764200D03*
%TD*%
D20*
%TO.C,C88*%
X174847100Y-130744600D03*
X178403100Y-130744600D03*
%TD*%
D10*
%TO.C,C17*%
X151758500Y-104252400D03*
X150742500Y-104252400D03*
%TD*%
%TO.C,R40*%
X188055100Y-114488600D03*
X189071100Y-114488600D03*
%TD*%
D11*
%TO.C,C200*%
X125698100Y-99121600D03*
X127476100Y-99121600D03*
%TD*%
D10*
%TO.C,R52*%
X116300100Y-80325600D03*
X117316100Y-80325600D03*
%TD*%
D11*
%TO.C,C197*%
X132429100Y-104455600D03*
X132429100Y-106233600D03*
%TD*%
D21*
%TO.C,C188*%
X178022100Y-101026600D03*
X178022100Y-103058600D03*
%TD*%
D10*
%TO.C,R94*%
X111347100Y-103820600D03*
X112363100Y-103820600D03*
%TD*%
D12*
%TO.C,R88*%
X129254100Y-102296600D03*
X129254100Y-101280600D03*
%TD*%
D22*
%TO.C,L1*%
X126333100Y-97343600D03*
X128365100Y-97343600D03*
%TD*%
D23*
%TO.C,L15*%
X137820100Y-77404600D03*
X135420100Y-77404600D03*
%TD*%
D11*
%TO.C,C150*%
X168497100Y-97470600D03*
X168497100Y-95692600D03*
%TD*%
D12*
%TO.C,C31*%
X146068900Y-106944800D03*
X146068900Y-107960800D03*
%TD*%
D10*
%TO.C,C95*%
X141293700Y-104379400D03*
X142309700Y-104379400D03*
%TD*%
D22*
%TO.C,L4*%
X123666100Y-129601600D03*
X121634100Y-129601600D03*
%TD*%
D11*
%TO.C,R15*%
X132937100Y-129855600D03*
X132937100Y-131633600D03*
%TD*%
D12*
%TO.C,C56*%
X147084900Y-102220400D03*
X147084900Y-101204400D03*
%TD*%
D24*
%TO.C,FUSE1*%
X118205100Y-101404600D03*
X118205100Y-104204600D03*
%TD*%
D11*
%TO.C,C98*%
X123793100Y-125537600D03*
X122015100Y-125537600D03*
%TD*%
D10*
%TO.C,C121*%
X141141300Y-108011600D03*
X142157300Y-108011600D03*
%TD*%
%TO.C,C76*%
X169894100Y-120838600D03*
X170910100Y-120838600D03*
%TD*%
D11*
%TO.C,R48*%
X187420100Y-100518600D03*
X189198100Y-100518600D03*
%TD*%
D25*
%TO.C,U22*%
X112617100Y-113035600D03*
X111347100Y-113035600D03*
X110077100Y-113035600D03*
X108807100Y-113035600D03*
X108807100Y-106035600D03*
X110077100Y-106035600D03*
X111347100Y-106035600D03*
X112617100Y-106035600D03*
%TD*%
D11*
%TO.C,C85*%
X159670600Y-114107600D03*
X159670600Y-112329600D03*
%TD*%
D10*
%TO.C,R77*%
X181197100Y-85786600D03*
X180181100Y-85786600D03*
%TD*%
D22*
%TO.C,L9*%
X179292100Y-106868600D03*
X177260100Y-106868600D03*
%TD*%
D11*
%TO.C,C182*%
X138525100Y-83500600D03*
X138525100Y-81722600D03*
%TD*%
D10*
%TO.C,R27*%
X131032100Y-125156600D03*
X132048100Y-125156600D03*
%TD*%
D11*
%TO.C,C186*%
X183356100Y-93787600D03*
X185134100Y-93787600D03*
%TD*%
%TO.C,C118*%
X183991100Y-111567600D03*
X185769100Y-111567600D03*
%TD*%
%TO.C,C164*%
X131286100Y-89977600D03*
X129508100Y-89977600D03*
%TD*%
%TO.C,C99*%
X133064100Y-89977600D03*
X134842100Y-89977600D03*
%TD*%
D12*
%TO.C,C120*%
X183991100Y-108138600D03*
X183991100Y-109154600D03*
%TD*%
D10*
%TO.C,C10*%
X166274600Y-96708600D03*
X165258600Y-96708600D03*
%TD*%
D12*
%TO.C,C7*%
X152558600Y-108392600D03*
X152558600Y-109408600D03*
%TD*%
D10*
%TO.C,R92*%
X108934100Y-115250600D03*
X109950100Y-115250600D03*
%TD*%
D15*
%TO.C,FET4*%
X179353100Y-82568600D03*
X177453100Y-82568600D03*
X178403100Y-80368600D03*
%TD*%
D12*
%TO.C,C37*%
X149904300Y-101204400D03*
X149904300Y-102220400D03*
%TD*%
D10*
%TO.C,C100*%
X132175100Y-92263600D03*
X133191100Y-92263600D03*
%TD*%
D26*
%TO.C,U3*%
X138525100Y-132709600D03*
X137255100Y-132709600D03*
X135985100Y-132709600D03*
X134715100Y-132709600D03*
X134715100Y-126747600D03*
X135985100Y-126747600D03*
X137255100Y-126747600D03*
X138525100Y-126747600D03*
%TD*%
D12*
%TO.C,C126*%
X183991100Y-100010600D03*
X183991100Y-101026600D03*
%TD*%
D11*
%TO.C,R85*%
X185769100Y-117917600D03*
X185769100Y-116139600D03*
%TD*%
D10*
%TO.C,C152*%
X141141300Y-105268400D03*
X142157300Y-105268400D03*
%TD*%
D21*
%TO.C,L8*%
X185515100Y-101153600D03*
X185515100Y-99121600D03*
%TD*%
D11*
%TO.C,C179*%
X183356100Y-92263600D03*
X185134100Y-92263600D03*
%TD*%
%TO.C,C178*%
X159861100Y-88199600D03*
X159861100Y-89977600D03*
%TD*%
%TO.C,R45*%
X159353100Y-84897600D03*
X159353100Y-86675600D03*
%TD*%
%TO.C,R86*%
X184753100Y-131379600D03*
X182975100Y-131379600D03*
%TD*%
D10*
%TO.C,C32*%
X141141300Y-109942000D03*
X142157300Y-109942000D03*
%TD*%
D12*
%TO.C,C52*%
X145903800Y-111821600D03*
X145903800Y-110805600D03*
%TD*%
D11*
%TO.C,C139*%
X151225100Y-93787600D03*
X149447100Y-93787600D03*
%TD*%
D12*
%TO.C,R91*%
X125571100Y-102296600D03*
X125571100Y-101280600D03*
%TD*%
D11*
%TO.C,C55*%
X165957100Y-125029600D03*
X164179100Y-125029600D03*
%TD*%
%TO.C,R38*%
X154908100Y-80452600D03*
X153130100Y-80452600D03*
%TD*%
D20*
%TO.C,C89*%
X174847100Y-114869600D03*
X178403100Y-114869600D03*
%TD*%
D11*
%TO.C,R21*%
X157575100Y-113282100D03*
X157575100Y-115060100D03*
%TD*%
D12*
%TO.C,C162*%
X141420700Y-101204400D03*
X141420700Y-102220400D03*
%TD*%
D11*
%TO.C,C158*%
X165195100Y-86675600D03*
X165195100Y-84897600D03*
%TD*%
D10*
%TO.C,R89*%
X129431900Y-107503600D03*
X128415900Y-107503600D03*
%TD*%
D11*
%TO.C,C192*%
X180181100Y-100772600D03*
X180181100Y-102550600D03*
%TD*%
%TO.C,C149*%
X166719100Y-86675600D03*
X166719100Y-84897600D03*
%TD*%
D12*
%TO.C,C71*%
X149701100Y-111821600D03*
X149701100Y-110805600D03*
%TD*%
%TO.C,C48*%
X147770700Y-111821600D03*
X147770700Y-110805600D03*
%TD*%
%TO.C,C57*%
X144240100Y-102220400D03*
X144240100Y-101204400D03*
%TD*%
D11*
%TO.C,R43*%
X150209100Y-88199600D03*
X150209100Y-89977600D03*
%TD*%
D10*
%TO.C,C127*%
X115665100Y-94676600D03*
X114649100Y-94676600D03*
%TD*%
D12*
%TO.C,R73*%
X158464100Y-112075600D03*
X158464100Y-111059600D03*
%TD*%
D10*
%TO.C,C66*%
X146957900Y-99731200D03*
X145941900Y-99731200D03*
%TD*%
D11*
%TO.C,C124*%
X185769100Y-105979600D03*
X183991100Y-105979600D03*
%TD*%
D12*
%TO.C,R64*%
X174593100Y-83881600D03*
X174593100Y-82865600D03*
%TD*%
D11*
%TO.C,R67*%
X181832100Y-92263600D03*
X181832100Y-94041600D03*
%TD*%
%TO.C,C140*%
X114014100Y-80706600D03*
X114014100Y-78928600D03*
%TD*%
D19*
%TO.C,FET3*%
X177303100Y-78354600D03*
X177303100Y-76454600D03*
X179503100Y-77404600D03*
%TD*%
D11*
%TO.C,R14*%
X151225100Y-95311600D03*
X149447100Y-95311600D03*
%TD*%
D10*
%TO.C,C33*%
X151656900Y-107910000D03*
X150640900Y-107910000D03*
%TD*%
D11*
%TO.C,R58*%
X112490100Y-82230600D03*
X112490100Y-84008600D03*
%TD*%
D10*
%TO.C,C199*%
X130397100Y-100645600D03*
X131413100Y-100645600D03*
%TD*%
D11*
%TO.C,R57*%
X132302100Y-93533600D03*
X134080100Y-93533600D03*
%TD*%
D12*
%TO.C,C22*%
X167608100Y-105852600D03*
X167608100Y-104836600D03*
%TD*%
%TO.C,R25*%
X164052100Y-128331600D03*
X164052100Y-127315600D03*
%TD*%
D10*
%TO.C,R74*%
X179419100Y-84643600D03*
X178403100Y-84643600D03*
%TD*%
D11*
%TO.C,C184*%
X133699100Y-78039600D03*
X133699100Y-79817600D03*
%TD*%
D12*
%TO.C,R76*%
X125190100Y-92009600D03*
X125190100Y-93025600D03*
%TD*%
%TO.C,C137*%
X145179900Y-102220400D03*
X145179900Y-101204400D03*
%TD*%
D14*
%TO.C,U13*%
X157387100Y-91598500D03*
X158337100Y-91598500D03*
X159287100Y-91598500D03*
X159287100Y-94198700D03*
X157387100Y-94198700D03*
%TD*%
D11*
%TO.C,R44*%
X151733100Y-88199600D03*
X151733100Y-89977600D03*
%TD*%
%TO.C,C141*%
X112490100Y-80706600D03*
X112490100Y-78928600D03*
%TD*%
D10*
%TO.C,R90*%
X128492100Y-105344600D03*
X127476100Y-105344600D03*
%TD*%
D11*
%TO.C,C181*%
X183102100Y-86421600D03*
X184880100Y-86421600D03*
%TD*%
%TO.C,C81*%
X159670600Y-109027600D03*
X159670600Y-110805600D03*
%TD*%
%TO.C,C185*%
X132175100Y-78039600D03*
X132175100Y-79817600D03*
%TD*%
D14*
%TO.C,U11*%
X187105100Y-102139500D03*
X188055100Y-102139500D03*
X189005100Y-102139500D03*
X189005100Y-104739700D03*
X187105100Y-104739700D03*
%TD*%
D11*
%TO.C,C191*%
X180181100Y-110424600D03*
X180181100Y-112202600D03*
%TD*%
%TO.C,C153*%
X170021100Y-95692600D03*
X170021100Y-97470600D03*
%TD*%
%TO.C,C133*%
X180308100Y-88580600D03*
X178530100Y-88580600D03*
%TD*%
D12*
%TO.C,C69*%
X146068900Y-104100000D03*
X146068900Y-103084000D03*
%TD*%
%TO.C,C24*%
X167608100Y-101788600D03*
X167608100Y-100772600D03*
%TD*%
%TO.C,C168*%
X143300300Y-101204400D03*
X143300300Y-102220400D03*
%TD*%
D11*
%TO.C,R68*%
X155289100Y-88199600D03*
X155289100Y-89977600D03*
%TD*%
%TO.C,R26*%
X131667100Y-123251600D03*
X133445100Y-123251600D03*
%TD*%
D12*
%TO.C,C104*%
X138041100Y-106623600D03*
X138041100Y-105607600D03*
%TD*%
D10*
%TO.C,C16*%
X151758500Y-105243000D03*
X150742500Y-105243000D03*
%TD*%
D11*
%TO.C,R16*%
X132937100Y-128331600D03*
X132937100Y-126553600D03*
%TD*%
D12*
%TO.C,C72*%
X148735900Y-111821600D03*
X148735900Y-110805600D03*
%TD*%
D10*
%TO.C,R54*%
X115792100Y-85659600D03*
X116808100Y-85659600D03*
%TD*%
D12*
%TO.C,C21*%
X164687100Y-103693600D03*
X164687100Y-102677600D03*
%TD*%
D10*
%TO.C,C29*%
X144824300Y-106868600D03*
X143808300Y-106868600D03*
%TD*%
%TO.C,R84*%
X166973100Y-118552600D03*
X165957100Y-118552600D03*
%TD*%
D12*
%TO.C,C58*%
X146145100Y-102169600D03*
X146145100Y-101153600D03*
%TD*%
D21*
%TO.C,C187*%
X178022100Y-110678600D03*
X178022100Y-112710600D03*
%TD*%
D10*
%TO.C,C34*%
X148075500Y-106868600D03*
X149091500Y-106868600D03*
%TD*%
D27*
%TO.C,R51*%
X179165100Y-93343100D03*
X179165100Y-90422100D03*
%TD*%
D17*
%TO.C,L14*%
X187928100Y-86237600D03*
X187928100Y-88637600D03*
%TD*%
D12*
%TO.C,R62*%
X173704100Y-83881600D03*
X173704100Y-82865600D03*
%TD*%
D11*
%TO.C,C145*%
X165703100Y-94168600D03*
X165703100Y-92390600D03*
%TD*%
D10*
%TO.C,C78*%
X142157300Y-111821600D03*
X141141300Y-111821600D03*
%TD*%
%TO.C,C49*%
X161766100Y-84770600D03*
X160750100Y-84770600D03*
%TD*%
D12*
%TO.C,C36*%
X148024700Y-101204400D03*
X148024700Y-102220400D03*
%TD*%
D11*
%TO.C,C15*%
X152749100Y-93787600D03*
X154527100Y-93787600D03*
%TD*%
D10*
%TO.C,C129*%
X115665100Y-90866600D03*
X114649100Y-90866600D03*
%TD*%
%TO.C,R95*%
X113252100Y-115250600D03*
X114268100Y-115250600D03*
%TD*%
D11*
%TO.C,C148*%
X114014100Y-84008600D03*
X114014100Y-82230600D03*
%TD*%
%TO.C,C96*%
X123793100Y-127061600D03*
X122015100Y-127061600D03*
%TD*%
%TO.C,R69*%
X181832100Y-89723600D03*
X181832100Y-87945600D03*
%TD*%
D10*
%TO.C,C91*%
X136747100Y-109916600D03*
X135731100Y-109916600D03*
%TD*%
D11*
%TO.C,R7*%
X155035100Y-96073600D03*
X153257100Y-96073600D03*
%TD*%
D21*
%TO.C,L7*%
X185515100Y-109789600D03*
X185515100Y-107757600D03*
%TD*%
D12*
%TO.C,C68*%
X146018100Y-119441600D03*
X146018100Y-118425600D03*
%TD*%
%TO.C,C9*%
X153130100Y-104646100D03*
X153130100Y-103630100D03*
%TD*%
D15*
%TO.C,D1*%
X161634100Y-116901600D03*
X157834100Y-116901600D03*
%TD*%
D11*
%TO.C,C117*%
X185769100Y-114615600D03*
X183991100Y-114615600D03*
%TD*%
D12*
%TO.C,R29*%
X118332100Y-117282600D03*
X118332100Y-116266600D03*
%TD*%
D10*
%TO.C,C5*%
X150742500Y-107021000D03*
X151758500Y-107021000D03*
%TD*%
D12*
%TO.C,C50*%
X146805500Y-111821600D03*
X146805500Y-110805600D03*
%TD*%
%TO.C,C51*%
X144036900Y-111821600D03*
X144036900Y-110805600D03*
%TD*%
D11*
%TO.C,R55*%
X173069100Y-101280600D03*
X173069100Y-99502600D03*
%TD*%
D12*
%TO.C,C40*%
X167608100Y-98804100D03*
X167608100Y-99820100D03*
%TD*%
D11*
%TO.C,R41*%
X187420100Y-108646600D03*
X189198100Y-108646600D03*
%TD*%
%TO.C,C138*%
X171545100Y-97470600D03*
X171545100Y-95692600D03*
%TD*%
D12*
%TO.C,C170*%
X142360500Y-101204400D03*
X142360500Y-102220400D03*
%TD*%
D10*
%TO.C,C3*%
X150742500Y-110754800D03*
X151758500Y-110754800D03*
%TD*%
D11*
%TO.C,C108*%
X142081100Y-94422600D03*
X142081100Y-96200600D03*
%TD*%
D10*
%TO.C,C131*%
X115665100Y-89977600D03*
X114649100Y-89977600D03*
%TD*%
D11*
%TO.C,C176*%
X160877100Y-94295600D03*
X160877100Y-92517600D03*
%TD*%
%TO.C,C151*%
X125952100Y-89977600D03*
X127730100Y-89977600D03*
%TD*%
%TO.C,C136*%
X176498100Y-87564600D03*
X176498100Y-85786600D03*
%TD*%
M02*
