%TF.GenerationSoftware,KiCad,Pcbnew,(6.0.1)*%
%TF.CreationDate,2022-07-04T15:39:42-03:00*%
%TF.ProjectId,pcb_for_testing,7063625f-666f-4725-9f74-657374696e67,rev?*%
%TF.SameCoordinates,Original*%
%TF.FileFunction,Copper,L1,Top*%
%TF.FilePolarity,Positive*%
%FSLAX46Y46*%
G04 Gerber Fmt 4.6, Leading zero omitted, Abs format (unit mm)*
G04 Created by KiCad (PCBNEW (6.0.1)) date 2022-07-04 15:39:42*
%MOMM*%
%LPD*%
G01*
G04 APERTURE LIST*
G04 Aperture macros list*
%AMRoundRect*
0 Rectangle with rounded corners*
0 $1 Rounding radius*
0 $2 $3 $4 $5 $6 $7 $8 $9 X,Y pos of 4 corners*
0 Add a 4 corners polygon primitive as box body*
4,1,4,$2,$3,$4,$5,$6,$7,$8,$9,$2,$3,0*
0 Add four circle primitives for the rounded corners*
1,1,$1+$1,$2,$3*
1,1,$1+$1,$4,$5*
1,1,$1+$1,$6,$7*
1,1,$1+$1,$8,$9*
0 Add four rect primitives between the rounded corners*
20,1,$1+$1,$2,$3,$4,$5,0*
20,1,$1+$1,$4,$5,$6,$7,0*
20,1,$1+$1,$6,$7,$8,$9,0*
20,1,$1+$1,$8,$9,$2,$3,0*%
G04 Aperture macros list end*
%TA.AperFunction,ComponentPad*%
%ADD10R,1.600000X1.600000*%
%TD*%
%TA.AperFunction,ComponentPad*%
%ADD11O,1.600000X1.600000*%
%TD*%
%TA.AperFunction,SMDPad,CuDef*%
%ADD12C,1.000000*%
%TD*%
%TA.AperFunction,SMDPad,CuDef*%
%ADD13RoundRect,0.250000X0.262500X0.450000X-0.262500X0.450000X-0.262500X-0.450000X0.262500X-0.450000X0*%
%TD*%
%TA.AperFunction,SMDPad,CuDef*%
%ADD14RoundRect,0.250000X-0.262500X-0.450000X0.262500X-0.450000X0.262500X0.450000X-0.262500X0.450000X0*%
%TD*%
%TA.AperFunction,ComponentPad*%
%ADD15R,0.850000X0.850000*%
%TD*%
%TA.AperFunction,ComponentPad*%
%ADD16O,0.850000X0.850000*%
%TD*%
%TA.AperFunction,SMDPad,CuDef*%
%ADD17RoundRect,0.243750X0.243750X0.456250X-0.243750X0.456250X-0.243750X-0.456250X0.243750X-0.456250X0*%
%TD*%
%TA.AperFunction,SMDPad,CuDef*%
%ADD18RoundRect,0.250000X0.250000X0.475000X-0.250000X0.475000X-0.250000X-0.475000X0.250000X-0.475000X0*%
%TD*%
%TA.AperFunction,Conductor*%
%ADD19C,0.250000*%
%TD*%
G04 APERTURE END LIST*
D10*
%TO.P,U1,1,PC6/~{RESET}*%
%TO.N,unconnected-(U1-Pad1)*%
X124460000Y-64060000D03*
D11*
%TO.P,U1,2,PD0*%
%TO.N,unconnected-(U1-Pad2)*%
X124460000Y-66600000D03*
%TO.P,U1,3,PD1*%
%TO.N,unconnected-(U1-Pad3)*%
X124460000Y-69140000D03*
%TO.P,U1,4,PD2*%
%TO.N,unconnected-(U1-Pad4)*%
X124460000Y-71680000D03*
%TO.P,U1,5,PD3*%
%TO.N,unconnected-(U1-Pad5)*%
X124460000Y-74220000D03*
%TO.P,U1,6,PD4*%
%TO.N,Net-(R3-Pad1)*%
X124460000Y-76760000D03*
%TO.P,U1,7,VCC*%
%TO.N,+3V3*%
X124460000Y-79300000D03*
%TO.P,U1,8,GND*%
%TO.N,GND*%
X124460000Y-81840000D03*
%TO.P,U1,9,PB6/XTAL1*%
%TO.N,unconnected-(U1-Pad9)*%
X124460000Y-84380000D03*
%TO.P,U1,10,PB7/XTAL2*%
%TO.N,unconnected-(U1-Pad10)*%
X124460000Y-86920000D03*
%TO.P,U1,11,PD5*%
%TO.N,unconnected-(U1-Pad11)*%
X124460000Y-89460000D03*
%TO.P,U1,12,PD6*%
%TO.N,unconnected-(U1-Pad12)*%
X124460000Y-92000000D03*
%TO.P,U1,13,PD7*%
%TO.N,unconnected-(U1-Pad13)*%
X124460000Y-94540000D03*
%TO.P,U1,14,PB0*%
%TO.N,unconnected-(U1-Pad14)*%
X124460000Y-97080000D03*
%TO.P,U1,15,PB1*%
%TO.N,unconnected-(U1-Pad15)*%
X132080000Y-97080000D03*
%TO.P,U1,16,PB2*%
%TO.N,unconnected-(U1-Pad16)*%
X132080000Y-94540000D03*
%TO.P,U1,17,PB3*%
%TO.N,Net-(R1-Pad1)*%
X132080000Y-92000000D03*
%TO.P,U1,18,PB4*%
%TO.N,unconnected-(U1-Pad18)*%
X132080000Y-89460000D03*
%TO.P,U1,19,PB5*%
%TO.N,Net-(R1-Pad2)*%
X132080000Y-86920000D03*
%TO.P,U1,20,AVCC*%
%TO.N,+3V3*%
X132080000Y-84380000D03*
%TO.P,U1,21,AREF*%
%TO.N,unconnected-(U1-Pad21)*%
X132080000Y-81840000D03*
%TO.P,U1,22,AGND*%
%TO.N,GND*%
X132080000Y-79300000D03*
%TO.P,U1,23,PC0*%
%TO.N,unconnected-(U1-Pad23)*%
X132080000Y-76760000D03*
%TO.P,U1,24,PC1*%
%TO.N,unconnected-(U1-Pad24)*%
X132080000Y-74220000D03*
%TO.P,U1,25,PC2*%
%TO.N,unconnected-(U1-Pad25)*%
X132080000Y-71680000D03*
%TO.P,U1,26,PC3*%
%TO.N,unconnected-(U1-Pad26)*%
X132080000Y-69140000D03*
%TO.P,U1,27,PC4*%
%TO.N,Net-(R2-Pad1)*%
X132080000Y-66600000D03*
%TO.P,U1,28,PC5*%
%TO.N,unconnected-(U1-Pad28)*%
X132080000Y-64060000D03*
%TD*%
D12*
%TO.P,TP2,1,1*%
%TO.N,Net-(R1-Pad2)*%
X136110000Y-96530000D03*
%TD*%
%TO.P,TP1,1,1*%
%TO.N,Net-(D1-Pad2)*%
X120320000Y-73020000D03*
%TD*%
D13*
%TO.P,R3,2*%
%TO.N,Net-(D1-Pad2)*%
X119587500Y-76800000D03*
%TO.P,R3,1*%
%TO.N,Net-(R3-Pad1)*%
X121412500Y-76800000D03*
%TD*%
D14*
%TO.P,R2,1*%
%TO.N,Net-(R2-Pad1)*%
X135087500Y-66610000D03*
%TO.P,R2,2*%
%TO.N,Net-(C2-Pad1)*%
X136912500Y-66610000D03*
%TD*%
%TO.P,R1,1*%
%TO.N,Net-(R1-Pad1)*%
X135030000Y-92030000D03*
%TO.P,R1,2*%
%TO.N,Net-(R1-Pad2)*%
X136855000Y-92030000D03*
%TD*%
D15*
%TO.P,J1,1,Pin_1*%
%TO.N,GND*%
X138470000Y-88850000D03*
D16*
%TO.P,J1,2,Pin_2*%
%TO.N,+3V3*%
X138470000Y-87850000D03*
%TD*%
D17*
%TO.P,D1,1,K*%
%TO.N,GND*%
X121447500Y-78900000D03*
%TO.P,D1,2,A*%
%TO.N,Net-(D1-Pad2)*%
X119572500Y-78900000D03*
%TD*%
D18*
%TO.P,C2,1*%
%TO.N,Net-(C2-Pad1)*%
X136950000Y-68670000D03*
%TO.P,C2,2*%
%TO.N,GND*%
X135050000Y-68670000D03*
%TD*%
%TO.P,C1,1*%
%TO.N,GND*%
X137260000Y-84420000D03*
%TO.P,C1,2*%
%TO.N,+3V3*%
X135360000Y-84420000D03*
%TD*%
D19*
%TO.N,Net-(D1-Pad2)*%
X119572500Y-76815000D02*
X119587500Y-76800000D01*
X119572500Y-78900000D02*
X119572500Y-76815000D01*
X119600000Y-73740000D02*
X120320000Y-73020000D01*
X119600000Y-76787500D02*
X119600000Y-73740000D01*
X119587500Y-76800000D02*
X119600000Y-76787500D01*
%TO.N,Net-(R3-Pad1)*%
X121452500Y-76760000D02*
X124460000Y-76760000D01*
X121412500Y-76800000D02*
X121452500Y-76760000D01*
%TO.N,+3V3*%
X130780000Y-84380000D02*
X132080000Y-84380000D01*
X125700000Y-79300000D02*
X130780000Y-84380000D01*
X124460000Y-79300000D02*
X125700000Y-79300000D01*
%TO.N,Net-(R1-Pad2)*%
X136855000Y-89575000D02*
X136855000Y-92030000D01*
X134200000Y-86920000D02*
X136855000Y-89575000D01*
X132080000Y-86920000D02*
X134200000Y-86920000D01*
X136850000Y-92035000D02*
X136850000Y-95790000D01*
X136850000Y-95790000D02*
X136110000Y-96530000D01*
X136855000Y-92030000D02*
X136850000Y-92035000D01*
%TO.N,Net-(R1-Pad1)*%
X135000000Y-92000000D02*
X132080000Y-92000000D01*
X135030000Y-92030000D02*
X135000000Y-92000000D01*
%TO.N,Net-(C2-Pad1)*%
X136912500Y-66610000D02*
X136912500Y-68632500D01*
X136912500Y-68632500D02*
X136950000Y-68670000D01*
%TO.N,Net-(R2-Pad1)*%
X135077500Y-66600000D02*
X132080000Y-66600000D01*
X135087500Y-66610000D02*
X135077500Y-66600000D01*
%TO.N,Net-(D1-Pad2)*%
X120320000Y-73020000D02*
X120300000Y-73020000D01*
%TD*%
%TA.AperFunction,Conductor*%
%TO.N,GND*%
G36*
X139522121Y-61020002D02*
G01*
X139568614Y-61073658D01*
X139580000Y-61126000D01*
X139580000Y-85116020D01*
X139559998Y-85184141D01*
X139506342Y-85230634D01*
X139436068Y-85240738D01*
X139375804Y-85214293D01*
X139375550Y-85214614D01*
X139362056Y-85203917D01*
X139362054Y-85203916D01*
X139357460Y-85200274D01*
X139352273Y-85197545D01*
X139352270Y-85197543D01*
X139251087Y-85144308D01*
X139246706Y-85142003D01*
X139242023Y-85140413D01*
X139242020Y-85140412D01*
X139189915Y-85122725D01*
X139179478Y-85119182D01*
X139067554Y-85098301D01*
X138138864Y-85059606D01*
X137906692Y-85049932D01*
X137792541Y-85061649D01*
X137723157Y-85079087D01*
X137685657Y-85094508D01*
X137621231Y-85121001D01*
X137621225Y-85121004D01*
X137617040Y-85122725D01*
X137616344Y-85123137D01*
X137598110Y-85130260D01*
X137576087Y-85136658D01*
X137562873Y-85140497D01*
X137527720Y-85145500D01*
X136992280Y-85145500D01*
X136957125Y-85140496D01*
X136943912Y-85136657D01*
X136943911Y-85136657D01*
X136925006Y-85131164D01*
X136896025Y-85118623D01*
X136891623Y-85116020D01*
X136868947Y-85102609D01*
X136843991Y-85083251D01*
X136821750Y-85061010D01*
X136802391Y-85036053D01*
X136794323Y-85022411D01*
X136794321Y-85022408D01*
X136792742Y-85019738D01*
X136746331Y-84956401D01*
X136732167Y-84940595D01*
X136701599Y-84876517D01*
X136700000Y-84856505D01*
X136700000Y-83452190D01*
X136697709Y-83409439D01*
X136694830Y-83382656D01*
X136690247Y-83351572D01*
X136679853Y-83322440D01*
X136649853Y-83238364D01*
X136648190Y-83233703D01*
X136614164Y-83171391D01*
X136545938Y-83080252D01*
X136119748Y-82654062D01*
X136087902Y-82625456D01*
X136086582Y-82624392D01*
X136086570Y-82624382D01*
X136067922Y-82609354D01*
X136067920Y-82609352D01*
X136066928Y-82608553D01*
X136041708Y-82589813D01*
X136036120Y-82587164D01*
X135933094Y-82538324D01*
X135933089Y-82538322D01*
X135928623Y-82536205D01*
X135923876Y-82534811D01*
X135923873Y-82534810D01*
X135898165Y-82527262D01*
X135860502Y-82516203D01*
X135856043Y-82515562D01*
X135856039Y-82515561D01*
X135804156Y-82508102D01*
X135747810Y-82500000D01*
X133186773Y-82500000D01*
X133118652Y-82479998D01*
X133072159Y-82426342D01*
X133062055Y-82356068D01*
X133076838Y-82312435D01*
X133086843Y-82294569D01*
X133086845Y-82294566D01*
X133089664Y-82289531D01*
X133154678Y-82098007D01*
X133155507Y-82092291D01*
X133155508Y-82092286D01*
X133183167Y-81901516D01*
X133183700Y-81897842D01*
X133185215Y-81840000D01*
X133166708Y-81638591D01*
X133111807Y-81443926D01*
X133022351Y-81262527D01*
X133004079Y-81238057D01*
X132904788Y-81105091D01*
X132904787Y-81105090D01*
X132901335Y-81100467D01*
X132878350Y-81079220D01*
X132757053Y-80967094D01*
X132757051Y-80967092D01*
X132752812Y-80963174D01*
X132725374Y-80945862D01*
X132586637Y-80858325D01*
X132581757Y-80855246D01*
X132393898Y-80780298D01*
X132195526Y-80740839D01*
X132189752Y-80740763D01*
X132189748Y-80740763D01*
X132087257Y-80739422D01*
X131993286Y-80738192D01*
X131987589Y-80739171D01*
X131987588Y-80739171D01*
X131799646Y-80771465D01*
X131799645Y-80771465D01*
X131793949Y-80772444D01*
X131604193Y-80842449D01*
X131430371Y-80945862D01*
X131278305Y-81079220D01*
X131153089Y-81238057D01*
X131058914Y-81417053D01*
X130998937Y-81610213D01*
X130975164Y-81811069D01*
X130988392Y-82012894D01*
X131038178Y-82208928D01*
X131040597Y-82214175D01*
X131110152Y-82365050D01*
X131120507Y-82435288D01*
X131091245Y-82499974D01*
X131033805Y-82537910D01*
X131017951Y-82542936D01*
X130911714Y-82609086D01*
X130858058Y-82655579D01*
X130789813Y-82732102D01*
X130736205Y-82845187D01*
X130716203Y-82913308D01*
X130700000Y-83026000D01*
X130700000Y-83394062D01*
X130679998Y-83462183D01*
X130626342Y-83508676D01*
X130556068Y-83518780D01*
X130491488Y-83489286D01*
X130484905Y-83483157D01*
X125953220Y-78951472D01*
X125931837Y-78940577D01*
X125914991Y-78930253D01*
X125903604Y-78921980D01*
X125895581Y-78916151D01*
X125886150Y-78913087D01*
X125886147Y-78913085D01*
X125872763Y-78908736D01*
X125854502Y-78901172D01*
X125841964Y-78894784D01*
X125841963Y-78894784D01*
X125833126Y-78890281D01*
X125809429Y-78886528D01*
X125790210Y-78881914D01*
X125767393Y-78874500D01*
X125555648Y-78874500D01*
X125487527Y-78854498D01*
X125442642Y-78804228D01*
X125404907Y-78727710D01*
X125402351Y-78722527D01*
X125281335Y-78560467D01*
X125258350Y-78539220D01*
X125137053Y-78427094D01*
X125137051Y-78427092D01*
X125132812Y-78423174D01*
X125104412Y-78405255D01*
X124966637Y-78318325D01*
X124961757Y-78315246D01*
X124773898Y-78240298D01*
X124575526Y-78200839D01*
X124569752Y-78200763D01*
X124569748Y-78200763D01*
X124467257Y-78199422D01*
X124373286Y-78198192D01*
X124367589Y-78199171D01*
X124367588Y-78199171D01*
X124179646Y-78231465D01*
X124179645Y-78231465D01*
X124173949Y-78232444D01*
X123984193Y-78302449D01*
X123810371Y-78405862D01*
X123658305Y-78539220D01*
X123533089Y-78698057D01*
X123438914Y-78877053D01*
X123378937Y-79070213D01*
X123355164Y-79271069D01*
X123368392Y-79472894D01*
X123369815Y-79478496D01*
X123408997Y-79632776D01*
X123418178Y-79668928D01*
X123502856Y-79852607D01*
X123619588Y-80017780D01*
X123764466Y-80158913D01*
X123932637Y-80271282D01*
X123937940Y-80273560D01*
X123937943Y-80273562D01*
X124026291Y-80311519D01*
X124118470Y-80351122D01*
X124315740Y-80395760D01*
X124321509Y-80395987D01*
X124321512Y-80395987D01*
X124397683Y-80398979D01*
X124517842Y-80403700D01*
X124604132Y-80391189D01*
X124712286Y-80375508D01*
X124712291Y-80375507D01*
X124718007Y-80374678D01*
X124723479Y-80372820D01*
X124723481Y-80372820D01*
X124904067Y-80311519D01*
X124904069Y-80311518D01*
X124909531Y-80309664D01*
X125086001Y-80210837D01*
X125148433Y-80158913D01*
X125237073Y-80085191D01*
X125241505Y-80081505D01*
X125370837Y-79926001D01*
X125373656Y-79920967D01*
X125373661Y-79920960D01*
X125416378Y-79844683D01*
X125467115Y-79795022D01*
X125536647Y-79780675D01*
X125602897Y-79806196D01*
X125615407Y-79817155D01*
X130526780Y-84728528D01*
X130548163Y-84739423D01*
X130565009Y-84749747D01*
X130584419Y-84763849D01*
X130593850Y-84766913D01*
X130593853Y-84766915D01*
X130607237Y-84771264D01*
X130625496Y-84778827D01*
X130631198Y-84781732D01*
X130682815Y-84830478D01*
X130700000Y-84894001D01*
X130700000Y-85874000D01*
X130709141Y-85959024D01*
X130720527Y-86011366D01*
X130742936Y-86082049D01*
X130809086Y-86188286D01*
X130855579Y-86241942D01*
X130932102Y-86310187D01*
X130940246Y-86314048D01*
X130940251Y-86314051D01*
X130994975Y-86339993D01*
X131047961Y-86387247D01*
X131066988Y-86455646D01*
X131058472Y-86496916D01*
X131058914Y-86497053D01*
X130998937Y-86690213D01*
X130975164Y-86891069D01*
X130988392Y-87092894D01*
X131038178Y-87288928D01*
X131122856Y-87472607D01*
X131239588Y-87637780D01*
X131384466Y-87778913D01*
X131552637Y-87891282D01*
X131557940Y-87893560D01*
X131557943Y-87893562D01*
X131646291Y-87931519D01*
X131738470Y-87971122D01*
X131935740Y-88015760D01*
X131941509Y-88015987D01*
X131941512Y-88015987D01*
X132017683Y-88018979D01*
X132137842Y-88023700D01*
X132224132Y-88011189D01*
X132332286Y-87995508D01*
X132332291Y-87995507D01*
X132338007Y-87994678D01*
X132343479Y-87992820D01*
X132343481Y-87992820D01*
X132524067Y-87931519D01*
X132524069Y-87931518D01*
X132529531Y-87929664D01*
X132706001Y-87830837D01*
X132768433Y-87778913D01*
X132857073Y-87705191D01*
X132861505Y-87701505D01*
X132990837Y-87546001D01*
X133067038Y-87409933D01*
X133117774Y-87360272D01*
X133176972Y-87345500D01*
X133971562Y-87345500D01*
X134039683Y-87365502D01*
X134060657Y-87382405D01*
X136392595Y-89714343D01*
X136426621Y-89776655D01*
X136429500Y-89803438D01*
X136429500Y-90966791D01*
X136409498Y-91034912D01*
X136349884Y-91083943D01*
X136319717Y-91095887D01*
X136199578Y-91187078D01*
X136108387Y-91307217D01*
X136105226Y-91315201D01*
X136059652Y-91430309D01*
X136015978Y-91486282D01*
X135948975Y-91509759D01*
X135879916Y-91493283D01*
X135830727Y-91442088D01*
X135825348Y-91430309D01*
X135779774Y-91315201D01*
X135776613Y-91307217D01*
X135685422Y-91187078D01*
X135565283Y-91095887D01*
X135455500Y-91052421D01*
X135432577Y-91043345D01*
X135432575Y-91043344D01*
X135425047Y-91040364D01*
X135335272Y-91029500D01*
X134724728Y-91029500D01*
X134634953Y-91040364D01*
X134627425Y-91043344D01*
X134627423Y-91043345D01*
X134604500Y-91052421D01*
X134494717Y-91095887D01*
X134374578Y-91187078D01*
X134283387Y-91307217D01*
X134280225Y-91315204D01*
X134234652Y-91430309D01*
X134227864Y-91447453D01*
X134225905Y-91463638D01*
X134197868Y-91528859D01*
X134139016Y-91568571D01*
X134100819Y-91574500D01*
X133175648Y-91574500D01*
X133107527Y-91554498D01*
X133062642Y-91504228D01*
X133024907Y-91427710D01*
X133024906Y-91427708D01*
X133022351Y-91422527D01*
X132901335Y-91260467D01*
X132878350Y-91239220D01*
X132757053Y-91127094D01*
X132757051Y-91127092D01*
X132752812Y-91123174D01*
X132725374Y-91105862D01*
X132586637Y-91018325D01*
X132581757Y-91015246D01*
X132393898Y-90940298D01*
X132195526Y-90900839D01*
X132189752Y-90900763D01*
X132189748Y-90900763D01*
X132087257Y-90899422D01*
X131993286Y-90898192D01*
X131987589Y-90899171D01*
X131987588Y-90899171D01*
X131799646Y-90931465D01*
X131799645Y-90931465D01*
X131793949Y-90932444D01*
X131604193Y-91002449D01*
X131599232Y-91005401D01*
X131599231Y-91005401D01*
X131438411Y-91101079D01*
X131430371Y-91105862D01*
X131278305Y-91239220D01*
X131153089Y-91398057D01*
X131058914Y-91577053D01*
X130998937Y-91770213D01*
X130975164Y-91971069D01*
X130988392Y-92172894D01*
X131038178Y-92368928D01*
X131122856Y-92552607D01*
X131239588Y-92717780D01*
X131384466Y-92858913D01*
X131552637Y-92971282D01*
X131557940Y-92973560D01*
X131557943Y-92973562D01*
X131690471Y-93030500D01*
X131738470Y-93051122D01*
X131935740Y-93095760D01*
X131941509Y-93095987D01*
X131941512Y-93095987D01*
X132017683Y-93098979D01*
X132137842Y-93103700D01*
X132224132Y-93091189D01*
X132332286Y-93075508D01*
X132332291Y-93075507D01*
X132338007Y-93074678D01*
X132343479Y-93072820D01*
X132343481Y-93072820D01*
X132524067Y-93011519D01*
X132524069Y-93011518D01*
X132529531Y-93009664D01*
X132706001Y-92910837D01*
X132768433Y-92858913D01*
X132857073Y-92785191D01*
X132861505Y-92781505D01*
X132990837Y-92626001D01*
X133067038Y-92489933D01*
X133117774Y-92440272D01*
X133176972Y-92425500D01*
X134093558Y-92425500D01*
X134161679Y-92445502D01*
X134208172Y-92499158D01*
X134218644Y-92536361D01*
X134227864Y-92612547D01*
X134230844Y-92620075D01*
X134230845Y-92620077D01*
X134234948Y-92630439D01*
X134283387Y-92752783D01*
X134374578Y-92872922D01*
X134494717Y-92964113D01*
X134529888Y-92978038D01*
X134627423Y-93016655D01*
X134627425Y-93016656D01*
X134634953Y-93019636D01*
X134724728Y-93030500D01*
X135335272Y-93030500D01*
X135425047Y-93019636D01*
X135432575Y-93016656D01*
X135432577Y-93016655D01*
X135530112Y-92978038D01*
X135565283Y-92964113D01*
X135685422Y-92872922D01*
X135776613Y-92752783D01*
X135825349Y-92629690D01*
X135869022Y-92573718D01*
X135936025Y-92550241D01*
X136005084Y-92566717D01*
X136054273Y-92617912D01*
X136059650Y-92629687D01*
X136108387Y-92752783D01*
X136199578Y-92872922D01*
X136319717Y-92964113D01*
X136343583Y-92973562D01*
X136344884Y-92974077D01*
X136400858Y-93017752D01*
X136424500Y-93091229D01*
X136424500Y-95561562D01*
X136404498Y-95629683D01*
X136387595Y-95650657D01*
X136335947Y-95702305D01*
X136273635Y-95736331D01*
X136231933Y-95738324D01*
X136115624Y-95724455D01*
X136108621Y-95725191D01*
X136108620Y-95725191D01*
X135944025Y-95742490D01*
X135944021Y-95742491D01*
X135937017Y-95743227D01*
X135930346Y-95745498D01*
X135773677Y-95798832D01*
X135773674Y-95798833D01*
X135767007Y-95801103D01*
X135614045Y-95895206D01*
X135609014Y-95900132D01*
X135609011Y-95900135D01*
X135595535Y-95913332D01*
X135485732Y-96020859D01*
X135388446Y-96171817D01*
X135327022Y-96340578D01*
X135304514Y-96518753D01*
X135305201Y-96525760D01*
X135305201Y-96525763D01*
X135306005Y-96533963D01*
X135322039Y-96697486D01*
X135324262Y-96704168D01*
X135324262Y-96704169D01*
X135371009Y-96844696D01*
X135378726Y-96867896D01*
X135471759Y-97021512D01*
X135596514Y-97150699D01*
X135746789Y-97249036D01*
X135915116Y-97311636D01*
X135922097Y-97312567D01*
X135922099Y-97312568D01*
X136086149Y-97334457D01*
X136086153Y-97334457D01*
X136093130Y-97335388D01*
X136100142Y-97334750D01*
X136100146Y-97334750D01*
X136264960Y-97319751D01*
X136264961Y-97319751D01*
X136271981Y-97319112D01*
X136442782Y-97263615D01*
X136473714Y-97245176D01*
X136590992Y-97175265D01*
X136590994Y-97175264D01*
X136597044Y-97171657D01*
X136727099Y-97047807D01*
X136744570Y-97021512D01*
X136822582Y-96904093D01*
X136826483Y-96898222D01*
X136846816Y-96844696D01*
X136887757Y-96736919D01*
X136887758Y-96736914D01*
X136890257Y-96730336D01*
X136895859Y-96690476D01*
X136914700Y-96556416D01*
X136914700Y-96556411D01*
X136915251Y-96552493D01*
X136915565Y-96530000D01*
X136901768Y-96406999D01*
X136914052Y-96337075D01*
X136937888Y-96303860D01*
X137198528Y-96043220D01*
X137209423Y-96021837D01*
X137219747Y-96004991D01*
X137228020Y-95993604D01*
X137233849Y-95985581D01*
X137236913Y-95976150D01*
X137236915Y-95976147D01*
X137241264Y-95962763D01*
X137248828Y-95944502D01*
X137255216Y-95931964D01*
X137255216Y-95931963D01*
X137259719Y-95923126D01*
X137263472Y-95899429D01*
X137268086Y-95880210D01*
X137275500Y-95857393D01*
X137275500Y-93095189D01*
X137295502Y-93027068D01*
X137355115Y-92978038D01*
X137382297Y-92967276D01*
X137382304Y-92967272D01*
X137390283Y-92964113D01*
X137510422Y-92872922D01*
X137601613Y-92752783D01*
X137650052Y-92630439D01*
X137654155Y-92620077D01*
X137654156Y-92620075D01*
X137657136Y-92612547D01*
X137668000Y-92522772D01*
X137668000Y-91537228D01*
X137657136Y-91447453D01*
X137650349Y-91430309D01*
X137604775Y-91315204D01*
X137601613Y-91307217D01*
X137510422Y-91187078D01*
X137390283Y-91095887D01*
X137360116Y-91083943D01*
X137304142Y-91040268D01*
X137280500Y-90966791D01*
X137280500Y-89507607D01*
X137273086Y-89484790D01*
X137268472Y-89465570D01*
X137264719Y-89441874D01*
X137253828Y-89420498D01*
X137246264Y-89402237D01*
X137241915Y-89388853D01*
X137241913Y-89388850D01*
X137238849Y-89379419D01*
X137224747Y-89360009D01*
X137214423Y-89343163D01*
X137203528Y-89321780D01*
X136886037Y-89004289D01*
X136852011Y-88941977D01*
X136857076Y-88871162D01*
X136899623Y-88814326D01*
X136971427Y-88789248D01*
X137561371Y-88771897D01*
X137561996Y-88771865D01*
X137562029Y-88771864D01*
X137577648Y-88771072D01*
X137577646Y-88771072D01*
X137578339Y-88771037D01*
X137588991Y-88770270D01*
X137594018Y-88769062D01*
X137710920Y-88740970D01*
X137710923Y-88740969D01*
X137715950Y-88739761D01*
X137781348Y-88712128D01*
X137869901Y-88660445D01*
X137955836Y-88569467D01*
X137975937Y-88540074D01*
X138030901Y-88495137D01*
X138101435Y-88487049D01*
X138135911Y-88498458D01*
X138140818Y-88501669D01*
X138147410Y-88504121D01*
X138147411Y-88504121D01*
X138286773Y-88555949D01*
X138286775Y-88555949D01*
X138293375Y-88558404D01*
X138300356Y-88559335D01*
X138300358Y-88559336D01*
X138447729Y-88579000D01*
X138447733Y-88579000D01*
X138454710Y-88579931D01*
X138461721Y-88579293D01*
X138461725Y-88579293D01*
X138609784Y-88565818D01*
X138616805Y-88565179D01*
X138623507Y-88563001D01*
X138623509Y-88563001D01*
X138764905Y-88517059D01*
X138764908Y-88517058D01*
X138771604Y-88514882D01*
X138783374Y-88507866D01*
X138807261Y-88493626D01*
X138876016Y-88475925D01*
X138943426Y-88498206D01*
X138964302Y-88516323D01*
X139001013Y-88556038D01*
X139105316Y-88625196D01*
X139169896Y-88654690D01*
X139188508Y-88660445D01*
X139259244Y-88682318D01*
X139259245Y-88682318D01*
X139267860Y-88684982D01*
X139276875Y-88685111D01*
X139276877Y-88685111D01*
X139336269Y-88685958D01*
X139392995Y-88686768D01*
X139436068Y-88680575D01*
X139506342Y-88690678D01*
X139559998Y-88737171D01*
X139580000Y-88805292D01*
X139580000Y-98674000D01*
X139559998Y-98742121D01*
X139506342Y-98788614D01*
X139454000Y-98800000D01*
X117266000Y-98800000D01*
X117197879Y-98779998D01*
X117151386Y-98726342D01*
X117140000Y-98674000D01*
X117140000Y-97051069D01*
X123355164Y-97051069D01*
X123368392Y-97252894D01*
X123418178Y-97448928D01*
X123502856Y-97632607D01*
X123619588Y-97797780D01*
X123764466Y-97938913D01*
X123932637Y-98051282D01*
X123937940Y-98053560D01*
X123937943Y-98053562D01*
X124026291Y-98091519D01*
X124118470Y-98131122D01*
X124315740Y-98175760D01*
X124321509Y-98175987D01*
X124321512Y-98175987D01*
X124397683Y-98178979D01*
X124517842Y-98183700D01*
X124604132Y-98171189D01*
X124712286Y-98155508D01*
X124712291Y-98155507D01*
X124718007Y-98154678D01*
X124723479Y-98152820D01*
X124723481Y-98152820D01*
X124904067Y-98091519D01*
X124904069Y-98091518D01*
X124909531Y-98089664D01*
X125086001Y-97990837D01*
X125148433Y-97938913D01*
X125237073Y-97865191D01*
X125241505Y-97861505D01*
X125370837Y-97706001D01*
X125469664Y-97529531D01*
X125534678Y-97338007D01*
X125535507Y-97332291D01*
X125535508Y-97332286D01*
X125558797Y-97171657D01*
X125563700Y-97137842D01*
X125565215Y-97080000D01*
X125562557Y-97051069D01*
X130975164Y-97051069D01*
X130988392Y-97252894D01*
X131038178Y-97448928D01*
X131122856Y-97632607D01*
X131239588Y-97797780D01*
X131384466Y-97938913D01*
X131552637Y-98051282D01*
X131557940Y-98053560D01*
X131557943Y-98053562D01*
X131646291Y-98091519D01*
X131738470Y-98131122D01*
X131935740Y-98175760D01*
X131941509Y-98175987D01*
X131941512Y-98175987D01*
X132017683Y-98178979D01*
X132137842Y-98183700D01*
X132224132Y-98171189D01*
X132332286Y-98155508D01*
X132332291Y-98155507D01*
X132338007Y-98154678D01*
X132343479Y-98152820D01*
X132343481Y-98152820D01*
X132524067Y-98091519D01*
X132524069Y-98091518D01*
X132529531Y-98089664D01*
X132706001Y-97990837D01*
X132768433Y-97938913D01*
X132857073Y-97865191D01*
X132861505Y-97861505D01*
X132990837Y-97706001D01*
X133089664Y-97529531D01*
X133154678Y-97338007D01*
X133155507Y-97332291D01*
X133155508Y-97332286D01*
X133178797Y-97171657D01*
X133183700Y-97137842D01*
X133185215Y-97080000D01*
X133166708Y-96878591D01*
X133111807Y-96683926D01*
X133022351Y-96502527D01*
X133004079Y-96478057D01*
X132904788Y-96345091D01*
X132904787Y-96345090D01*
X132901335Y-96340467D01*
X132897099Y-96336551D01*
X132757053Y-96207094D01*
X132757051Y-96207092D01*
X132752812Y-96203174D01*
X132725374Y-96185862D01*
X132586637Y-96098325D01*
X132581757Y-96095246D01*
X132393898Y-96020298D01*
X132195526Y-95980839D01*
X132189752Y-95980763D01*
X132189748Y-95980763D01*
X132087257Y-95979422D01*
X131993286Y-95978192D01*
X131987589Y-95979171D01*
X131987588Y-95979171D01*
X131799646Y-96011465D01*
X131799645Y-96011465D01*
X131793949Y-96012444D01*
X131604193Y-96082449D01*
X131599232Y-96085401D01*
X131599231Y-96085401D01*
X131453979Y-96171817D01*
X131430371Y-96185862D01*
X131278305Y-96319220D01*
X131153089Y-96478057D01*
X131058914Y-96657053D01*
X130998937Y-96850213D01*
X130975164Y-97051069D01*
X125562557Y-97051069D01*
X125546708Y-96878591D01*
X125491807Y-96683926D01*
X125402351Y-96502527D01*
X125384079Y-96478057D01*
X125284788Y-96345091D01*
X125284787Y-96345090D01*
X125281335Y-96340467D01*
X125277099Y-96336551D01*
X125137053Y-96207094D01*
X125137051Y-96207092D01*
X125132812Y-96203174D01*
X125105374Y-96185862D01*
X124966637Y-96098325D01*
X124961757Y-96095246D01*
X124773898Y-96020298D01*
X124575526Y-95980839D01*
X124569752Y-95980763D01*
X124569748Y-95980763D01*
X124467257Y-95979422D01*
X124373286Y-95978192D01*
X124367589Y-95979171D01*
X124367588Y-95979171D01*
X124179646Y-96011465D01*
X124179645Y-96011465D01*
X124173949Y-96012444D01*
X123984193Y-96082449D01*
X123979232Y-96085401D01*
X123979231Y-96085401D01*
X123833979Y-96171817D01*
X123810371Y-96185862D01*
X123658305Y-96319220D01*
X123533089Y-96478057D01*
X123438914Y-96657053D01*
X123378937Y-96850213D01*
X123355164Y-97051069D01*
X117140000Y-97051069D01*
X117140000Y-94511069D01*
X123355164Y-94511069D01*
X123368392Y-94712894D01*
X123418178Y-94908928D01*
X123502856Y-95092607D01*
X123619588Y-95257780D01*
X123764466Y-95398913D01*
X123932637Y-95511282D01*
X123937940Y-95513560D01*
X123937943Y-95513562D01*
X124026291Y-95551519D01*
X124118470Y-95591122D01*
X124315740Y-95635760D01*
X124321509Y-95635987D01*
X124321512Y-95635987D01*
X124397683Y-95638979D01*
X124517842Y-95643700D01*
X124604132Y-95631189D01*
X124712286Y-95615508D01*
X124712291Y-95615507D01*
X124718007Y-95614678D01*
X124723479Y-95612820D01*
X124723481Y-95612820D01*
X124904067Y-95551519D01*
X124904069Y-95551518D01*
X124909531Y-95549664D01*
X125086001Y-95450837D01*
X125148433Y-95398913D01*
X125237073Y-95325191D01*
X125241505Y-95321505D01*
X125370837Y-95166001D01*
X125469664Y-94989531D01*
X125534678Y-94798007D01*
X125535507Y-94792291D01*
X125535508Y-94792286D01*
X125563167Y-94601516D01*
X125563700Y-94597842D01*
X125565215Y-94540000D01*
X125562557Y-94511069D01*
X130975164Y-94511069D01*
X130988392Y-94712894D01*
X131038178Y-94908928D01*
X131122856Y-95092607D01*
X131239588Y-95257780D01*
X131384466Y-95398913D01*
X131552637Y-95511282D01*
X131557940Y-95513560D01*
X131557943Y-95513562D01*
X131646291Y-95551519D01*
X131738470Y-95591122D01*
X131935740Y-95635760D01*
X131941509Y-95635987D01*
X131941512Y-95635987D01*
X132017683Y-95638979D01*
X132137842Y-95643700D01*
X132224132Y-95631189D01*
X132332286Y-95615508D01*
X132332291Y-95615507D01*
X132338007Y-95614678D01*
X132343479Y-95612820D01*
X132343481Y-95612820D01*
X132524067Y-95551519D01*
X132524069Y-95551518D01*
X132529531Y-95549664D01*
X132706001Y-95450837D01*
X132768433Y-95398913D01*
X132857073Y-95325191D01*
X132861505Y-95321505D01*
X132990837Y-95166001D01*
X133089664Y-94989531D01*
X133154678Y-94798007D01*
X133155507Y-94792291D01*
X133155508Y-94792286D01*
X133183167Y-94601516D01*
X133183700Y-94597842D01*
X133185215Y-94540000D01*
X133166708Y-94338591D01*
X133111807Y-94143926D01*
X133022351Y-93962527D01*
X133004079Y-93938057D01*
X132904788Y-93805091D01*
X132904787Y-93805090D01*
X132901335Y-93800467D01*
X132878350Y-93779220D01*
X132757053Y-93667094D01*
X132757051Y-93667092D01*
X132752812Y-93663174D01*
X132725374Y-93645862D01*
X132586637Y-93558325D01*
X132581757Y-93555246D01*
X132393898Y-93480298D01*
X132195526Y-93440839D01*
X132189752Y-93440763D01*
X132189748Y-93440763D01*
X132087257Y-93439422D01*
X131993286Y-93438192D01*
X131987589Y-93439171D01*
X131987588Y-93439171D01*
X131799646Y-93471465D01*
X131799645Y-93471465D01*
X131793949Y-93472444D01*
X131604193Y-93542449D01*
X131430371Y-93645862D01*
X131278305Y-93779220D01*
X131153089Y-93938057D01*
X131058914Y-94117053D01*
X130998937Y-94310213D01*
X130975164Y-94511069D01*
X125562557Y-94511069D01*
X125546708Y-94338591D01*
X125491807Y-94143926D01*
X125402351Y-93962527D01*
X125384079Y-93938057D01*
X125284788Y-93805091D01*
X125284787Y-93805090D01*
X125281335Y-93800467D01*
X125258350Y-93779220D01*
X125137053Y-93667094D01*
X125137051Y-93667092D01*
X125132812Y-93663174D01*
X125105374Y-93645862D01*
X124966637Y-93558325D01*
X124961757Y-93555246D01*
X124773898Y-93480298D01*
X124575526Y-93440839D01*
X124569752Y-93440763D01*
X124569748Y-93440763D01*
X124467257Y-93439422D01*
X124373286Y-93438192D01*
X124367589Y-93439171D01*
X124367588Y-93439171D01*
X124179646Y-93471465D01*
X124179645Y-93471465D01*
X124173949Y-93472444D01*
X123984193Y-93542449D01*
X123810371Y-93645862D01*
X123658305Y-93779220D01*
X123533089Y-93938057D01*
X123438914Y-94117053D01*
X123378937Y-94310213D01*
X123355164Y-94511069D01*
X117140000Y-94511069D01*
X117140000Y-91971069D01*
X123355164Y-91971069D01*
X123368392Y-92172894D01*
X123418178Y-92368928D01*
X123502856Y-92552607D01*
X123619588Y-92717780D01*
X123764466Y-92858913D01*
X123932637Y-92971282D01*
X123937940Y-92973560D01*
X123937943Y-92973562D01*
X124070471Y-93030500D01*
X124118470Y-93051122D01*
X124315740Y-93095760D01*
X124321509Y-93095987D01*
X124321512Y-93095987D01*
X124397683Y-93098979D01*
X124517842Y-93103700D01*
X124604132Y-93091189D01*
X124712286Y-93075508D01*
X124712291Y-93075507D01*
X124718007Y-93074678D01*
X124723479Y-93072820D01*
X124723481Y-93072820D01*
X124904067Y-93011519D01*
X124904069Y-93011518D01*
X124909531Y-93009664D01*
X125086001Y-92910837D01*
X125148433Y-92858913D01*
X125237073Y-92785191D01*
X125241505Y-92781505D01*
X125370837Y-92626001D01*
X125469664Y-92449531D01*
X125477822Y-92425500D01*
X125532820Y-92263481D01*
X125532820Y-92263479D01*
X125534678Y-92258007D01*
X125535507Y-92252291D01*
X125535508Y-92252286D01*
X125563167Y-92061516D01*
X125563700Y-92057842D01*
X125565215Y-92000000D01*
X125546708Y-91798591D01*
X125491807Y-91603926D01*
X125402351Y-91422527D01*
X125384079Y-91398057D01*
X125284788Y-91265091D01*
X125284787Y-91265090D01*
X125281335Y-91260467D01*
X125258350Y-91239220D01*
X125137053Y-91127094D01*
X125137051Y-91127092D01*
X125132812Y-91123174D01*
X125105374Y-91105862D01*
X124966637Y-91018325D01*
X124961757Y-91015246D01*
X124773898Y-90940298D01*
X124575526Y-90900839D01*
X124569752Y-90900763D01*
X124569748Y-90900763D01*
X124467257Y-90899422D01*
X124373286Y-90898192D01*
X124367589Y-90899171D01*
X124367588Y-90899171D01*
X124179646Y-90931465D01*
X124179645Y-90931465D01*
X124173949Y-90932444D01*
X123984193Y-91002449D01*
X123979232Y-91005401D01*
X123979231Y-91005401D01*
X123818411Y-91101079D01*
X123810371Y-91105862D01*
X123658305Y-91239220D01*
X123533089Y-91398057D01*
X123438914Y-91577053D01*
X123378937Y-91770213D01*
X123355164Y-91971069D01*
X117140000Y-91971069D01*
X117140000Y-89431069D01*
X123355164Y-89431069D01*
X123368392Y-89632894D01*
X123418178Y-89828928D01*
X123502856Y-90012607D01*
X123619588Y-90177780D01*
X123764466Y-90318913D01*
X123932637Y-90431282D01*
X123937940Y-90433560D01*
X123937943Y-90433562D01*
X124026291Y-90471519D01*
X124118470Y-90511122D01*
X124315740Y-90555760D01*
X124321509Y-90555987D01*
X124321512Y-90555987D01*
X124397683Y-90558979D01*
X124517842Y-90563700D01*
X124604132Y-90551189D01*
X124712286Y-90535508D01*
X124712291Y-90535507D01*
X124718007Y-90534678D01*
X124723479Y-90532820D01*
X124723481Y-90532820D01*
X124904067Y-90471519D01*
X124904069Y-90471518D01*
X124909531Y-90469664D01*
X125086001Y-90370837D01*
X125148433Y-90318913D01*
X125237073Y-90245191D01*
X125241505Y-90241505D01*
X125370837Y-90086001D01*
X125469664Y-89909531D01*
X125534678Y-89718007D01*
X125535507Y-89712291D01*
X125535508Y-89712286D01*
X125563167Y-89521516D01*
X125563700Y-89517842D01*
X125565215Y-89460000D01*
X125562557Y-89431069D01*
X130975164Y-89431069D01*
X130988392Y-89632894D01*
X131038178Y-89828928D01*
X131122856Y-90012607D01*
X131239588Y-90177780D01*
X131384466Y-90318913D01*
X131552637Y-90431282D01*
X131557940Y-90433560D01*
X131557943Y-90433562D01*
X131646291Y-90471519D01*
X131738470Y-90511122D01*
X131935740Y-90555760D01*
X131941509Y-90555987D01*
X131941512Y-90555987D01*
X132017683Y-90558979D01*
X132137842Y-90563700D01*
X132224132Y-90551189D01*
X132332286Y-90535508D01*
X132332291Y-90535507D01*
X132338007Y-90534678D01*
X132343479Y-90532820D01*
X132343481Y-90532820D01*
X132524067Y-90471519D01*
X132524069Y-90471518D01*
X132529531Y-90469664D01*
X132706001Y-90370837D01*
X132768433Y-90318913D01*
X132857073Y-90245191D01*
X132861505Y-90241505D01*
X132990837Y-90086001D01*
X133089664Y-89909531D01*
X133154678Y-89718007D01*
X133155507Y-89712291D01*
X133155508Y-89712286D01*
X133183167Y-89521516D01*
X133183700Y-89517842D01*
X133185215Y-89460000D01*
X133166708Y-89258591D01*
X133111807Y-89063926D01*
X133022351Y-88882527D01*
X133004079Y-88858057D01*
X132904788Y-88725091D01*
X132904787Y-88725090D01*
X132901335Y-88720467D01*
X132892314Y-88712128D01*
X132757053Y-88587094D01*
X132757051Y-88587092D01*
X132752812Y-88583174D01*
X132725374Y-88565862D01*
X132586637Y-88478325D01*
X132581757Y-88475246D01*
X132393898Y-88400298D01*
X132195526Y-88360839D01*
X132189752Y-88360763D01*
X132189748Y-88360763D01*
X132087257Y-88359422D01*
X131993286Y-88358192D01*
X131987589Y-88359171D01*
X131987588Y-88359171D01*
X131799646Y-88391465D01*
X131799645Y-88391465D01*
X131793949Y-88392444D01*
X131604193Y-88462449D01*
X131599232Y-88465401D01*
X131599231Y-88465401D01*
X131446884Y-88556038D01*
X131430371Y-88565862D01*
X131278305Y-88699220D01*
X131153089Y-88858057D01*
X131058914Y-89037053D01*
X130998937Y-89230213D01*
X130975164Y-89431069D01*
X125562557Y-89431069D01*
X125546708Y-89258591D01*
X125491807Y-89063926D01*
X125402351Y-88882527D01*
X125384079Y-88858057D01*
X125284788Y-88725091D01*
X125284787Y-88725090D01*
X125281335Y-88720467D01*
X125272314Y-88712128D01*
X125137053Y-88587094D01*
X125137051Y-88587092D01*
X125132812Y-88583174D01*
X125105374Y-88565862D01*
X124966637Y-88478325D01*
X124961757Y-88475246D01*
X124773898Y-88400298D01*
X124575526Y-88360839D01*
X124569752Y-88360763D01*
X124569748Y-88360763D01*
X124467257Y-88359422D01*
X124373286Y-88358192D01*
X124367589Y-88359171D01*
X124367588Y-88359171D01*
X124179646Y-88391465D01*
X124179645Y-88391465D01*
X124173949Y-88392444D01*
X123984193Y-88462449D01*
X123979232Y-88465401D01*
X123979231Y-88465401D01*
X123826884Y-88556038D01*
X123810371Y-88565862D01*
X123658305Y-88699220D01*
X123533089Y-88858057D01*
X123438914Y-89037053D01*
X123378937Y-89230213D01*
X123355164Y-89431069D01*
X117140000Y-89431069D01*
X117140000Y-86891069D01*
X123355164Y-86891069D01*
X123368392Y-87092894D01*
X123418178Y-87288928D01*
X123502856Y-87472607D01*
X123619588Y-87637780D01*
X123764466Y-87778913D01*
X123932637Y-87891282D01*
X123937940Y-87893560D01*
X123937943Y-87893562D01*
X124026291Y-87931519D01*
X124118470Y-87971122D01*
X124315740Y-88015760D01*
X124321509Y-88015987D01*
X124321512Y-88015987D01*
X124397683Y-88018979D01*
X124517842Y-88023700D01*
X124604132Y-88011189D01*
X124712286Y-87995508D01*
X124712291Y-87995507D01*
X124718007Y-87994678D01*
X124723479Y-87992820D01*
X124723481Y-87992820D01*
X124904067Y-87931519D01*
X124904069Y-87931518D01*
X124909531Y-87929664D01*
X125086001Y-87830837D01*
X125148433Y-87778913D01*
X125237073Y-87705191D01*
X125241505Y-87701505D01*
X125370837Y-87546001D01*
X125469664Y-87369531D01*
X125477822Y-87345500D01*
X125532820Y-87183481D01*
X125532820Y-87183479D01*
X125534678Y-87178007D01*
X125535507Y-87172291D01*
X125535508Y-87172286D01*
X125563167Y-86981516D01*
X125563700Y-86977842D01*
X125565215Y-86920000D01*
X125546708Y-86718591D01*
X125491807Y-86523926D01*
X125402351Y-86342527D01*
X125384079Y-86318057D01*
X125284788Y-86185091D01*
X125284787Y-86185090D01*
X125281335Y-86180467D01*
X125258350Y-86159220D01*
X125137053Y-86047094D01*
X125137051Y-86047092D01*
X125132812Y-86043174D01*
X125105374Y-86025862D01*
X124966637Y-85938325D01*
X124961757Y-85935246D01*
X124773898Y-85860298D01*
X124575526Y-85820839D01*
X124569752Y-85820763D01*
X124569748Y-85820763D01*
X124467257Y-85819422D01*
X124373286Y-85818192D01*
X124367589Y-85819171D01*
X124367588Y-85819171D01*
X124179646Y-85851465D01*
X124179645Y-85851465D01*
X124173949Y-85852444D01*
X123984193Y-85922449D01*
X123979232Y-85925401D01*
X123979231Y-85925401D01*
X123834737Y-86011366D01*
X123810371Y-86025862D01*
X123658305Y-86159220D01*
X123533089Y-86318057D01*
X123438914Y-86497053D01*
X123378937Y-86690213D01*
X123355164Y-86891069D01*
X117140000Y-86891069D01*
X117140000Y-84351069D01*
X123355164Y-84351069D01*
X123368392Y-84552894D01*
X123418178Y-84748928D01*
X123502856Y-84932607D01*
X123506189Y-84937323D01*
X123607596Y-85080811D01*
X123619588Y-85097780D01*
X123623730Y-85101815D01*
X123664984Y-85142003D01*
X123764466Y-85238913D01*
X123932637Y-85351282D01*
X123937940Y-85353560D01*
X123937943Y-85353562D01*
X124026291Y-85391519D01*
X124118470Y-85431122D01*
X124315740Y-85475760D01*
X124321509Y-85475987D01*
X124321512Y-85475987D01*
X124397683Y-85478979D01*
X124517842Y-85483700D01*
X124604132Y-85471189D01*
X124712286Y-85455508D01*
X124712291Y-85455507D01*
X124718007Y-85454678D01*
X124723479Y-85452820D01*
X124723481Y-85452820D01*
X124904067Y-85391519D01*
X124904069Y-85391518D01*
X124909531Y-85389664D01*
X125086001Y-85290837D01*
X125148433Y-85238913D01*
X125237073Y-85165191D01*
X125241505Y-85161505D01*
X125334300Y-85049932D01*
X125367146Y-85010439D01*
X125370837Y-85006001D01*
X125469664Y-84829531D01*
X125483179Y-84789719D01*
X125532820Y-84643481D01*
X125532820Y-84643479D01*
X125534678Y-84638007D01*
X125535507Y-84632291D01*
X125535508Y-84632286D01*
X125563167Y-84441516D01*
X125563700Y-84437842D01*
X125565215Y-84380000D01*
X125546708Y-84178591D01*
X125491807Y-83983926D01*
X125402351Y-83802527D01*
X125384079Y-83778057D01*
X125284788Y-83645091D01*
X125284787Y-83645090D01*
X125281335Y-83640467D01*
X125258350Y-83619220D01*
X125137053Y-83507094D01*
X125137051Y-83507092D01*
X125132812Y-83503174D01*
X125101087Y-83483157D01*
X124966637Y-83398325D01*
X124961757Y-83395246D01*
X124773898Y-83320298D01*
X124575526Y-83280839D01*
X124569752Y-83280763D01*
X124569748Y-83280763D01*
X124467257Y-83279422D01*
X124373286Y-83278192D01*
X124367589Y-83279171D01*
X124367588Y-83279171D01*
X124179646Y-83311465D01*
X124179645Y-83311465D01*
X124173949Y-83312444D01*
X123984193Y-83382449D01*
X123979232Y-83385401D01*
X123979231Y-83385401D01*
X123866969Y-83452190D01*
X123810371Y-83485862D01*
X123658305Y-83619220D01*
X123533089Y-83778057D01*
X123438914Y-83957053D01*
X123378937Y-84150213D01*
X123355164Y-84351069D01*
X117140000Y-84351069D01*
X117140000Y-77292772D01*
X118774500Y-77292772D01*
X118785364Y-77382547D01*
X118788344Y-77390075D01*
X118788345Y-77390077D01*
X118815700Y-77459168D01*
X118840887Y-77522783D01*
X118932078Y-77642922D01*
X119052217Y-77734113D01*
X119060204Y-77737275D01*
X119067686Y-77741491D01*
X119065938Y-77744594D01*
X119108773Y-77778001D01*
X119132265Y-77844998D01*
X119115806Y-77914061D01*
X119068288Y-77961274D01*
X119067047Y-77961973D01*
X119059064Y-77965134D01*
X118940289Y-78055289D01*
X118850134Y-78174064D01*
X118795241Y-78312708D01*
X118784500Y-78401466D01*
X118784500Y-79398534D01*
X118784956Y-79402299D01*
X118794177Y-79478496D01*
X118795241Y-79487292D01*
X118850134Y-79625936D01*
X118940289Y-79744711D01*
X119059064Y-79834866D01*
X119067045Y-79838026D01*
X119067047Y-79838027D01*
X119115784Y-79857323D01*
X119197708Y-79889759D01*
X119205746Y-79890732D01*
X119205747Y-79890732D01*
X119229007Y-79893547D01*
X119286466Y-79900500D01*
X119858534Y-79900500D01*
X119915993Y-79893547D01*
X119939253Y-79890732D01*
X119939254Y-79890732D01*
X119947292Y-79889759D01*
X120029216Y-79857323D01*
X120077953Y-79838027D01*
X120077955Y-79838026D01*
X120085936Y-79834866D01*
X120204711Y-79744711D01*
X120294866Y-79625936D01*
X120349759Y-79487292D01*
X120350824Y-79478496D01*
X120360044Y-79402299D01*
X120360500Y-79398534D01*
X120360500Y-78401466D01*
X120349759Y-78312708D01*
X120294866Y-78174064D01*
X120204711Y-78055289D01*
X120085936Y-77965134D01*
X120085990Y-77965063D01*
X120039567Y-77917387D01*
X120025400Y-77847818D01*
X120051094Y-77781634D01*
X120104561Y-77741328D01*
X120110555Y-77738954D01*
X120122783Y-77734113D01*
X120242922Y-77642922D01*
X120334113Y-77522783D01*
X120382849Y-77399690D01*
X120426522Y-77343718D01*
X120493525Y-77320241D01*
X120562584Y-77336717D01*
X120611773Y-77387912D01*
X120617150Y-77399687D01*
X120665887Y-77522783D01*
X120757078Y-77642922D01*
X120877217Y-77734113D01*
X120940832Y-77759300D01*
X121009923Y-77786655D01*
X121009925Y-77786656D01*
X121017453Y-77789636D01*
X121107228Y-77800500D01*
X121717772Y-77800500D01*
X121807547Y-77789636D01*
X121815075Y-77786656D01*
X121815077Y-77786655D01*
X121884168Y-77759300D01*
X121947783Y-77734113D01*
X122067922Y-77642922D01*
X122159113Y-77522783D01*
X122184300Y-77459168D01*
X122211655Y-77390077D01*
X122211656Y-77390075D01*
X122214636Y-77382547D01*
X122225066Y-77296362D01*
X122253105Y-77231139D01*
X122311958Y-77191428D01*
X122350152Y-77185500D01*
X123363600Y-77185500D01*
X123431721Y-77205502D01*
X123478026Y-77258748D01*
X123502856Y-77312607D01*
X123619588Y-77477780D01*
X123764466Y-77618913D01*
X123769270Y-77622123D01*
X123800398Y-77642922D01*
X123932637Y-77731282D01*
X123937940Y-77733560D01*
X123937943Y-77733562D01*
X124113163Y-77808842D01*
X124118470Y-77811122D01*
X124315740Y-77855760D01*
X124321509Y-77855987D01*
X124321512Y-77855987D01*
X124397683Y-77858979D01*
X124517842Y-77863700D01*
X124604132Y-77851189D01*
X124712286Y-77835508D01*
X124712291Y-77835507D01*
X124718007Y-77834678D01*
X124723479Y-77832820D01*
X124723481Y-77832820D01*
X124904067Y-77771519D01*
X124904069Y-77771518D01*
X124909531Y-77769664D01*
X125086001Y-77670837D01*
X125148433Y-77618913D01*
X125237073Y-77545191D01*
X125241505Y-77541505D01*
X125370837Y-77386001D01*
X125377275Y-77374506D01*
X125466845Y-77214564D01*
X125469664Y-77209531D01*
X125477822Y-77185500D01*
X125532820Y-77023481D01*
X125532820Y-77023479D01*
X125534678Y-77018007D01*
X125535507Y-77012291D01*
X125535508Y-77012286D01*
X125563167Y-76821516D01*
X125563700Y-76817842D01*
X125565215Y-76760000D01*
X125562557Y-76731069D01*
X130975164Y-76731069D01*
X130988392Y-76932894D01*
X131038178Y-77128928D01*
X131122856Y-77312607D01*
X131239588Y-77477780D01*
X131384466Y-77618913D01*
X131389270Y-77622123D01*
X131420398Y-77642922D01*
X131552637Y-77731282D01*
X131557940Y-77733560D01*
X131557943Y-77733562D01*
X131733163Y-77808842D01*
X131738470Y-77811122D01*
X131935740Y-77855760D01*
X131941509Y-77855987D01*
X131941512Y-77855987D01*
X132017683Y-77858979D01*
X132137842Y-77863700D01*
X132224132Y-77851189D01*
X132332286Y-77835508D01*
X132332291Y-77835507D01*
X132338007Y-77834678D01*
X132343479Y-77832820D01*
X132343481Y-77832820D01*
X132524067Y-77771519D01*
X132524069Y-77771518D01*
X132529531Y-77769664D01*
X132706001Y-77670837D01*
X132768433Y-77618913D01*
X132857073Y-77545191D01*
X132861505Y-77541505D01*
X132990837Y-77386001D01*
X132997275Y-77374506D01*
X133086845Y-77214564D01*
X133089664Y-77209531D01*
X133097822Y-77185500D01*
X133152820Y-77023481D01*
X133152820Y-77023479D01*
X133154678Y-77018007D01*
X133155507Y-77012291D01*
X133155508Y-77012286D01*
X133183167Y-76821516D01*
X133183700Y-76817842D01*
X133185215Y-76760000D01*
X133166708Y-76558591D01*
X133111807Y-76363926D01*
X133022351Y-76182527D01*
X133004079Y-76158057D01*
X132904788Y-76025091D01*
X132904787Y-76025090D01*
X132901335Y-76020467D01*
X132878350Y-75999220D01*
X132757053Y-75887094D01*
X132757051Y-75887092D01*
X132752812Y-75883174D01*
X132733643Y-75871079D01*
X132586637Y-75778325D01*
X132581757Y-75775246D01*
X132393898Y-75700298D01*
X132195526Y-75660839D01*
X132189752Y-75660763D01*
X132189748Y-75660763D01*
X132087257Y-75659422D01*
X131993286Y-75658192D01*
X131987589Y-75659171D01*
X131987588Y-75659171D01*
X131799646Y-75691465D01*
X131799645Y-75691465D01*
X131793949Y-75692444D01*
X131604193Y-75762449D01*
X131599232Y-75765401D01*
X131599231Y-75765401D01*
X131442087Y-75858892D01*
X131430371Y-75865862D01*
X131278305Y-75999220D01*
X131153089Y-76158057D01*
X131058914Y-76337053D01*
X130998937Y-76530213D01*
X130975164Y-76731069D01*
X125562557Y-76731069D01*
X125546708Y-76558591D01*
X125491807Y-76363926D01*
X125402351Y-76182527D01*
X125384079Y-76158057D01*
X125284788Y-76025091D01*
X125284787Y-76025090D01*
X125281335Y-76020467D01*
X125258350Y-75999220D01*
X125137053Y-75887094D01*
X125137051Y-75887092D01*
X125132812Y-75883174D01*
X125113643Y-75871079D01*
X124966637Y-75778325D01*
X124961757Y-75775246D01*
X124773898Y-75700298D01*
X124575526Y-75660839D01*
X124569752Y-75660763D01*
X124569748Y-75660763D01*
X124467257Y-75659422D01*
X124373286Y-75658192D01*
X124367589Y-75659171D01*
X124367588Y-75659171D01*
X124179646Y-75691465D01*
X124179645Y-75691465D01*
X124173949Y-75692444D01*
X123984193Y-75762449D01*
X123979232Y-75765401D01*
X123979231Y-75765401D01*
X123822087Y-75858892D01*
X123810371Y-75865862D01*
X123658305Y-75999220D01*
X123533089Y-76158057D01*
X123522649Y-76177900D01*
X123475682Y-76267168D01*
X123426262Y-76318141D01*
X123364174Y-76334500D01*
X122340471Y-76334500D01*
X122272350Y-76314498D01*
X122225857Y-76260842D01*
X122218079Y-76233208D01*
X122217599Y-76233330D01*
X122215609Y-76225494D01*
X122214636Y-76217453D01*
X122207849Y-76200309D01*
X122162275Y-76085204D01*
X122159113Y-76077217D01*
X122067922Y-75957078D01*
X121947783Y-75865887D01*
X121850500Y-75827370D01*
X121815077Y-75813345D01*
X121815075Y-75813344D01*
X121807547Y-75810364D01*
X121717772Y-75799500D01*
X121107228Y-75799500D01*
X121017453Y-75810364D01*
X121009925Y-75813344D01*
X121009923Y-75813345D01*
X120974500Y-75827370D01*
X120877217Y-75865887D01*
X120757078Y-75957078D01*
X120665887Y-76077217D01*
X120633881Y-76158057D01*
X120617152Y-76200309D01*
X120573478Y-76256282D01*
X120506475Y-76279759D01*
X120437416Y-76263283D01*
X120388227Y-76212088D01*
X120382848Y-76200309D01*
X120366120Y-76158057D01*
X120334113Y-76077217D01*
X120242922Y-75957078D01*
X120122783Y-75865887D01*
X120105116Y-75858892D01*
X120049142Y-75815217D01*
X120025500Y-75741740D01*
X120025500Y-74191069D01*
X123355164Y-74191069D01*
X123368392Y-74392894D01*
X123418178Y-74588928D01*
X123502856Y-74772607D01*
X123619588Y-74937780D01*
X123764466Y-75078913D01*
X123932637Y-75191282D01*
X123937940Y-75193560D01*
X123937943Y-75193562D01*
X124026291Y-75231519D01*
X124118470Y-75271122D01*
X124315740Y-75315760D01*
X124321509Y-75315987D01*
X124321512Y-75315987D01*
X124397683Y-75318979D01*
X124517842Y-75323700D01*
X124604132Y-75311189D01*
X124712286Y-75295508D01*
X124712291Y-75295507D01*
X124718007Y-75294678D01*
X124723479Y-75292820D01*
X124723481Y-75292820D01*
X124904067Y-75231519D01*
X124904069Y-75231518D01*
X124909531Y-75229664D01*
X125086001Y-75130837D01*
X125148433Y-75078913D01*
X125237073Y-75005191D01*
X125241505Y-75001505D01*
X125370837Y-74846001D01*
X125469664Y-74669531D01*
X125534678Y-74478007D01*
X125535507Y-74472291D01*
X125535508Y-74472286D01*
X125563167Y-74281516D01*
X125563700Y-74277842D01*
X125565215Y-74220000D01*
X125562557Y-74191069D01*
X130975164Y-74191069D01*
X130988392Y-74392894D01*
X131038178Y-74588928D01*
X131122856Y-74772607D01*
X131239588Y-74937780D01*
X131384466Y-75078913D01*
X131552637Y-75191282D01*
X131557940Y-75193560D01*
X131557943Y-75193562D01*
X131646291Y-75231519D01*
X131738470Y-75271122D01*
X131935740Y-75315760D01*
X131941509Y-75315987D01*
X131941512Y-75315987D01*
X132017683Y-75318979D01*
X132137842Y-75323700D01*
X132224132Y-75311189D01*
X132332286Y-75295508D01*
X132332291Y-75295507D01*
X132338007Y-75294678D01*
X132343479Y-75292820D01*
X132343481Y-75292820D01*
X132524067Y-75231519D01*
X132524069Y-75231518D01*
X132529531Y-75229664D01*
X132706001Y-75130837D01*
X132768433Y-75078913D01*
X132857073Y-75005191D01*
X132861505Y-75001505D01*
X132990837Y-74846001D01*
X133089664Y-74669531D01*
X133154678Y-74478007D01*
X133155507Y-74472291D01*
X133155508Y-74472286D01*
X133183167Y-74281516D01*
X133183700Y-74277842D01*
X133185215Y-74220000D01*
X133166708Y-74018591D01*
X133152564Y-73968438D01*
X133113376Y-73829490D01*
X133111807Y-73823926D01*
X133022351Y-73642527D01*
X133004079Y-73618057D01*
X132904788Y-73485091D01*
X132904787Y-73485090D01*
X132901335Y-73480467D01*
X132878350Y-73459220D01*
X132757053Y-73347094D01*
X132757051Y-73347092D01*
X132752812Y-73343174D01*
X132725374Y-73325862D01*
X132586637Y-73238325D01*
X132581757Y-73235246D01*
X132393898Y-73160298D01*
X132195526Y-73120839D01*
X132189752Y-73120763D01*
X132189748Y-73120763D01*
X132087257Y-73119422D01*
X131993286Y-73118192D01*
X131987589Y-73119171D01*
X131987588Y-73119171D01*
X131799646Y-73151465D01*
X131799645Y-73151465D01*
X131793949Y-73152444D01*
X131604193Y-73222449D01*
X131599232Y-73225401D01*
X131599231Y-73225401D01*
X131596680Y-73226919D01*
X131430371Y-73325862D01*
X131278305Y-73459220D01*
X131153089Y-73618057D01*
X131058914Y-73797053D01*
X130998937Y-73990213D01*
X130975164Y-74191069D01*
X125562557Y-74191069D01*
X125546708Y-74018591D01*
X125532564Y-73968438D01*
X125493376Y-73829490D01*
X125491807Y-73823926D01*
X125402351Y-73642527D01*
X125384079Y-73618057D01*
X125284788Y-73485091D01*
X125284787Y-73485090D01*
X125281335Y-73480467D01*
X125258350Y-73459220D01*
X125137053Y-73347094D01*
X125137051Y-73347092D01*
X125132812Y-73343174D01*
X125105374Y-73325862D01*
X124966637Y-73238325D01*
X124961757Y-73235246D01*
X124773898Y-73160298D01*
X124575526Y-73120839D01*
X124569752Y-73120763D01*
X124569748Y-73120763D01*
X124467257Y-73119422D01*
X124373286Y-73118192D01*
X124367589Y-73119171D01*
X124367588Y-73119171D01*
X124179646Y-73151465D01*
X124179645Y-73151465D01*
X124173949Y-73152444D01*
X123984193Y-73222449D01*
X123979232Y-73225401D01*
X123979231Y-73225401D01*
X123976680Y-73226919D01*
X123810371Y-73325862D01*
X123658305Y-73459220D01*
X123533089Y-73618057D01*
X123438914Y-73797053D01*
X123378937Y-73990213D01*
X123355164Y-74191069D01*
X120025500Y-74191069D01*
X120025500Y-73968438D01*
X120045502Y-73900317D01*
X120062405Y-73879343D01*
X120094313Y-73847435D01*
X120156625Y-73813409D01*
X120200072Y-73811637D01*
X120296149Y-73824457D01*
X120296153Y-73824457D01*
X120303130Y-73825388D01*
X120310142Y-73824750D01*
X120310146Y-73824750D01*
X120474960Y-73809751D01*
X120474961Y-73809751D01*
X120481981Y-73809112D01*
X120652782Y-73753615D01*
X120772036Y-73682526D01*
X120800992Y-73665265D01*
X120800994Y-73665264D01*
X120807044Y-73661657D01*
X120937099Y-73537807D01*
X120956803Y-73508151D01*
X121032582Y-73394093D01*
X121036483Y-73388222D01*
X121058724Y-73329672D01*
X121097757Y-73226919D01*
X121097758Y-73226914D01*
X121100257Y-73220336D01*
X121108853Y-73159171D01*
X121124700Y-73046416D01*
X121124700Y-73046411D01*
X121125251Y-73042493D01*
X121125565Y-73020000D01*
X121105546Y-72841528D01*
X121099427Y-72823955D01*
X121066305Y-72728842D01*
X121046485Y-72671927D01*
X120963369Y-72538913D01*
X120955049Y-72525599D01*
X120951316Y-72519625D01*
X120887771Y-72455635D01*
X120829733Y-72397190D01*
X120829729Y-72397187D01*
X120824770Y-72392193D01*
X120813761Y-72385206D01*
X120681016Y-72300964D01*
X120673136Y-72295963D01*
X120643352Y-72285357D01*
X120510586Y-72238081D01*
X120510581Y-72238080D01*
X120503951Y-72235719D01*
X120496965Y-72234886D01*
X120496961Y-72234885D01*
X120369177Y-72219648D01*
X120325624Y-72214455D01*
X120318621Y-72215191D01*
X120318620Y-72215191D01*
X120154025Y-72232490D01*
X120154021Y-72232491D01*
X120147017Y-72233227D01*
X120140346Y-72235498D01*
X119983677Y-72288832D01*
X119983674Y-72288833D01*
X119977007Y-72291103D01*
X119971009Y-72294793D01*
X119971007Y-72294794D01*
X119945577Y-72310439D01*
X119824045Y-72385206D01*
X119819014Y-72390132D01*
X119819011Y-72390135D01*
X119807084Y-72401815D01*
X119695732Y-72510859D01*
X119691913Y-72516784D01*
X119691912Y-72516786D01*
X119607304Y-72648072D01*
X119598446Y-72661817D01*
X119596037Y-72668437D01*
X119596035Y-72668440D01*
X119587635Y-72691519D01*
X119537022Y-72830578D01*
X119514514Y-73008753D01*
X119515201Y-73015760D01*
X119515201Y-73015763D01*
X119527899Y-73145267D01*
X119514639Y-73215014D01*
X119491595Y-73246657D01*
X119251472Y-73486780D01*
X119240577Y-73508163D01*
X119230253Y-73525009D01*
X119216151Y-73544419D01*
X119213087Y-73553850D01*
X119213085Y-73553853D01*
X119208736Y-73567237D01*
X119201172Y-73585498D01*
X119190281Y-73606874D01*
X119186528Y-73630570D01*
X119181914Y-73649790D01*
X119174500Y-73672607D01*
X119174500Y-75731842D01*
X119154498Y-75799963D01*
X119094884Y-75848994D01*
X119052217Y-75865887D01*
X118932078Y-75957078D01*
X118840887Y-76077217D01*
X118837725Y-76085204D01*
X118792152Y-76200309D01*
X118785364Y-76217453D01*
X118774500Y-76307228D01*
X118774500Y-77292772D01*
X117140000Y-77292772D01*
X117140000Y-71651069D01*
X123355164Y-71651069D01*
X123368392Y-71852894D01*
X123418178Y-72048928D01*
X123502856Y-72232607D01*
X123506189Y-72237323D01*
X123615640Y-72392193D01*
X123619588Y-72397780D01*
X123764466Y-72538913D01*
X123932637Y-72651282D01*
X123937940Y-72653560D01*
X123937943Y-72653562D01*
X124026291Y-72691519D01*
X124118470Y-72731122D01*
X124315740Y-72775760D01*
X124321509Y-72775987D01*
X124321512Y-72775987D01*
X124397683Y-72778979D01*
X124517842Y-72783700D01*
X124604132Y-72771189D01*
X124712286Y-72755508D01*
X124712291Y-72755507D01*
X124718007Y-72754678D01*
X124723479Y-72752820D01*
X124723481Y-72752820D01*
X124904067Y-72691519D01*
X124904069Y-72691518D01*
X124909531Y-72689664D01*
X125086001Y-72590837D01*
X125148433Y-72538913D01*
X125237073Y-72465191D01*
X125241505Y-72461505D01*
X125370837Y-72306001D01*
X125376459Y-72295963D01*
X125421638Y-72215289D01*
X125469664Y-72129531D01*
X125534678Y-71938007D01*
X125535507Y-71932291D01*
X125535508Y-71932286D01*
X125563167Y-71741516D01*
X125563700Y-71737842D01*
X125565215Y-71680000D01*
X125562557Y-71651069D01*
X130975164Y-71651069D01*
X130988392Y-71852894D01*
X131038178Y-72048928D01*
X131122856Y-72232607D01*
X131126189Y-72237323D01*
X131235640Y-72392193D01*
X131239588Y-72397780D01*
X131384466Y-72538913D01*
X131552637Y-72651282D01*
X131557940Y-72653560D01*
X131557943Y-72653562D01*
X131646291Y-72691519D01*
X131738470Y-72731122D01*
X131935740Y-72775760D01*
X131941509Y-72775987D01*
X131941512Y-72775987D01*
X132017683Y-72778979D01*
X132137842Y-72783700D01*
X132224132Y-72771189D01*
X132332286Y-72755508D01*
X132332291Y-72755507D01*
X132338007Y-72754678D01*
X132343479Y-72752820D01*
X132343481Y-72752820D01*
X132524067Y-72691519D01*
X132524069Y-72691518D01*
X132529531Y-72689664D01*
X132706001Y-72590837D01*
X132768433Y-72538913D01*
X132857073Y-72465191D01*
X132861505Y-72461505D01*
X132990837Y-72306001D01*
X132996459Y-72295963D01*
X133041638Y-72215289D01*
X133089664Y-72129531D01*
X133154678Y-71938007D01*
X133155507Y-71932291D01*
X133155508Y-71932286D01*
X133183167Y-71741516D01*
X133183700Y-71737842D01*
X133185215Y-71680000D01*
X133166708Y-71478591D01*
X133111807Y-71283926D01*
X133022351Y-71102527D01*
X133004079Y-71078057D01*
X132904788Y-70945091D01*
X132904787Y-70945090D01*
X132901335Y-70940467D01*
X132878350Y-70919220D01*
X132757053Y-70807094D01*
X132757051Y-70807092D01*
X132752812Y-70803174D01*
X132725374Y-70785862D01*
X132586637Y-70698325D01*
X132581757Y-70695246D01*
X132393898Y-70620298D01*
X132195526Y-70580839D01*
X132189752Y-70580763D01*
X132189748Y-70580763D01*
X132087257Y-70579422D01*
X131993286Y-70578192D01*
X131987589Y-70579171D01*
X131987588Y-70579171D01*
X131799646Y-70611465D01*
X131799645Y-70611465D01*
X131793949Y-70612444D01*
X131604193Y-70682449D01*
X131430371Y-70785862D01*
X131278305Y-70919220D01*
X131153089Y-71078057D01*
X131058914Y-71257053D01*
X130998937Y-71450213D01*
X130975164Y-71651069D01*
X125562557Y-71651069D01*
X125546708Y-71478591D01*
X125491807Y-71283926D01*
X125402351Y-71102527D01*
X125384079Y-71078057D01*
X125284788Y-70945091D01*
X125284787Y-70945090D01*
X125281335Y-70940467D01*
X125258350Y-70919220D01*
X125137053Y-70807094D01*
X125137051Y-70807092D01*
X125132812Y-70803174D01*
X125105374Y-70785862D01*
X124966637Y-70698325D01*
X124961757Y-70695246D01*
X124773898Y-70620298D01*
X124575526Y-70580839D01*
X124569752Y-70580763D01*
X124569748Y-70580763D01*
X124467257Y-70579422D01*
X124373286Y-70578192D01*
X124367589Y-70579171D01*
X124367588Y-70579171D01*
X124179646Y-70611465D01*
X124179645Y-70611465D01*
X124173949Y-70612444D01*
X123984193Y-70682449D01*
X123810371Y-70785862D01*
X123658305Y-70919220D01*
X123533089Y-71078057D01*
X123438914Y-71257053D01*
X123378937Y-71450213D01*
X123355164Y-71651069D01*
X117140000Y-71651069D01*
X117140000Y-69111069D01*
X123355164Y-69111069D01*
X123368392Y-69312894D01*
X123418178Y-69508928D01*
X123502856Y-69692607D01*
X123619588Y-69857780D01*
X123764466Y-69998913D01*
X123932637Y-70111282D01*
X123937940Y-70113560D01*
X123937943Y-70113562D01*
X124026291Y-70151519D01*
X124118470Y-70191122D01*
X124315740Y-70235760D01*
X124321509Y-70235987D01*
X124321512Y-70235987D01*
X124397683Y-70238979D01*
X124517842Y-70243700D01*
X124604132Y-70231189D01*
X124712286Y-70215508D01*
X124712291Y-70215507D01*
X124718007Y-70214678D01*
X124723479Y-70212820D01*
X124723481Y-70212820D01*
X124904067Y-70151519D01*
X124904069Y-70151518D01*
X124909531Y-70149664D01*
X125086001Y-70050837D01*
X125148433Y-69998913D01*
X125237073Y-69925191D01*
X125241505Y-69921505D01*
X125370837Y-69766001D01*
X125469664Y-69589531D01*
X125534678Y-69398007D01*
X125535507Y-69392291D01*
X125535508Y-69392286D01*
X125563167Y-69201516D01*
X125563700Y-69197842D01*
X125565215Y-69140000D01*
X125562557Y-69111069D01*
X130975164Y-69111069D01*
X130988392Y-69312894D01*
X131038178Y-69508928D01*
X131122856Y-69692607D01*
X131239588Y-69857780D01*
X131384466Y-69998913D01*
X131552637Y-70111282D01*
X131557940Y-70113560D01*
X131557943Y-70113562D01*
X131646291Y-70151519D01*
X131738470Y-70191122D01*
X131935740Y-70235760D01*
X131941509Y-70235987D01*
X131941512Y-70235987D01*
X132017683Y-70238979D01*
X132137842Y-70243700D01*
X132224132Y-70231189D01*
X132332286Y-70215508D01*
X132332291Y-70215507D01*
X132338007Y-70214678D01*
X132343479Y-70212820D01*
X132343481Y-70212820D01*
X132524067Y-70151519D01*
X132524069Y-70151518D01*
X132529531Y-70149664D01*
X132706001Y-70050837D01*
X132768433Y-69998913D01*
X132857073Y-69925191D01*
X132861505Y-69921505D01*
X132990837Y-69766001D01*
X133089664Y-69589531D01*
X133154678Y-69398007D01*
X133155507Y-69392291D01*
X133155508Y-69392286D01*
X133183167Y-69201516D01*
X133183700Y-69197842D01*
X133185215Y-69140000D01*
X133166708Y-68938591D01*
X133111807Y-68743926D01*
X133022351Y-68562527D01*
X133004079Y-68538057D01*
X132904788Y-68405091D01*
X132904787Y-68405090D01*
X132901335Y-68400467D01*
X132878350Y-68379220D01*
X132757053Y-68267094D01*
X132757051Y-68267092D01*
X132752812Y-68263174D01*
X132725374Y-68245862D01*
X132586637Y-68158325D01*
X132581757Y-68155246D01*
X132393898Y-68080298D01*
X132195526Y-68040839D01*
X132189752Y-68040763D01*
X132189748Y-68040763D01*
X132087257Y-68039422D01*
X131993286Y-68038192D01*
X131987589Y-68039171D01*
X131987588Y-68039171D01*
X131799646Y-68071465D01*
X131799645Y-68071465D01*
X131793949Y-68072444D01*
X131604193Y-68142449D01*
X131430371Y-68245862D01*
X131278305Y-68379220D01*
X131153089Y-68538057D01*
X131058914Y-68717053D01*
X130998937Y-68910213D01*
X130975164Y-69111069D01*
X125562557Y-69111069D01*
X125546708Y-68938591D01*
X125491807Y-68743926D01*
X125402351Y-68562527D01*
X125384079Y-68538057D01*
X125284788Y-68405091D01*
X125284787Y-68405090D01*
X125281335Y-68400467D01*
X125258350Y-68379220D01*
X125137053Y-68267094D01*
X125137051Y-68267092D01*
X125132812Y-68263174D01*
X125105374Y-68245862D01*
X124966637Y-68158325D01*
X124961757Y-68155246D01*
X124773898Y-68080298D01*
X124575526Y-68040839D01*
X124569752Y-68040763D01*
X124569748Y-68040763D01*
X124467257Y-68039422D01*
X124373286Y-68038192D01*
X124367589Y-68039171D01*
X124367588Y-68039171D01*
X124179646Y-68071465D01*
X124179645Y-68071465D01*
X124173949Y-68072444D01*
X123984193Y-68142449D01*
X123810371Y-68245862D01*
X123658305Y-68379220D01*
X123533089Y-68538057D01*
X123438914Y-68717053D01*
X123378937Y-68910213D01*
X123355164Y-69111069D01*
X117140000Y-69111069D01*
X117140000Y-66571069D01*
X123355164Y-66571069D01*
X123368392Y-66772894D01*
X123418178Y-66968928D01*
X123502856Y-67152607D01*
X123619588Y-67317780D01*
X123764466Y-67458913D01*
X123932637Y-67571282D01*
X123937940Y-67573560D01*
X123937943Y-67573562D01*
X124026291Y-67611519D01*
X124118470Y-67651122D01*
X124315740Y-67695760D01*
X124321509Y-67695987D01*
X124321512Y-67695987D01*
X124397683Y-67698979D01*
X124517842Y-67703700D01*
X124604132Y-67691189D01*
X124712286Y-67675508D01*
X124712291Y-67675507D01*
X124718007Y-67674678D01*
X124723479Y-67672820D01*
X124723481Y-67672820D01*
X124904067Y-67611519D01*
X124904069Y-67611518D01*
X124909531Y-67609664D01*
X125054774Y-67528325D01*
X125080964Y-67513658D01*
X125080965Y-67513657D01*
X125086001Y-67510837D01*
X125148433Y-67458913D01*
X125237073Y-67385191D01*
X125241505Y-67381505D01*
X125370837Y-67226001D01*
X125386568Y-67197912D01*
X125466845Y-67054564D01*
X125469664Y-67049531D01*
X125477822Y-67025500D01*
X125532820Y-66863481D01*
X125532820Y-66863479D01*
X125534678Y-66858007D01*
X125535507Y-66852291D01*
X125535508Y-66852286D01*
X125563167Y-66661516D01*
X125563700Y-66657842D01*
X125565215Y-66600000D01*
X125562557Y-66571069D01*
X130975164Y-66571069D01*
X130988392Y-66772894D01*
X131038178Y-66968928D01*
X131122856Y-67152607D01*
X131239588Y-67317780D01*
X131384466Y-67458913D01*
X131552637Y-67571282D01*
X131557940Y-67573560D01*
X131557943Y-67573562D01*
X131646291Y-67611519D01*
X131738470Y-67651122D01*
X131935740Y-67695760D01*
X131941509Y-67695987D01*
X131941512Y-67695987D01*
X132017683Y-67698979D01*
X132137842Y-67703700D01*
X132224132Y-67691189D01*
X132332286Y-67675508D01*
X132332291Y-67675507D01*
X132338007Y-67674678D01*
X132343479Y-67672820D01*
X132343481Y-67672820D01*
X132524067Y-67611519D01*
X132524069Y-67611518D01*
X132529531Y-67609664D01*
X132674774Y-67528325D01*
X132700964Y-67513658D01*
X132700965Y-67513657D01*
X132706001Y-67510837D01*
X132768433Y-67458913D01*
X132857073Y-67385191D01*
X132861505Y-67381505D01*
X132990837Y-67226001D01*
X133006568Y-67197912D01*
X133041036Y-67136363D01*
X133067038Y-67089933D01*
X133117774Y-67040272D01*
X133176972Y-67025500D01*
X134153478Y-67025500D01*
X134221599Y-67045502D01*
X134268092Y-67099158D01*
X134278565Y-67136363D01*
X134285364Y-67192547D01*
X134288344Y-67200075D01*
X134288345Y-67200077D01*
X134296615Y-67220964D01*
X134340887Y-67332783D01*
X134432078Y-67452922D01*
X134552217Y-67544113D01*
X134612731Y-67568072D01*
X134684923Y-67596655D01*
X134684925Y-67596656D01*
X134692453Y-67599636D01*
X134782228Y-67610500D01*
X135392772Y-67610500D01*
X135482547Y-67599636D01*
X135490075Y-67596656D01*
X135490077Y-67596655D01*
X135562269Y-67568072D01*
X135622783Y-67544113D01*
X135742922Y-67452922D01*
X135834113Y-67332783D01*
X135882849Y-67209690D01*
X135926522Y-67153718D01*
X135993525Y-67130241D01*
X136062584Y-67146717D01*
X136111773Y-67197912D01*
X136117150Y-67209687D01*
X136165887Y-67332783D01*
X136257078Y-67452922D01*
X136356417Y-67528325D01*
X136377217Y-67544113D01*
X136375552Y-67546307D01*
X136415437Y-67587260D01*
X136429611Y-67656827D01*
X136403925Y-67723014D01*
X136380242Y-67746542D01*
X136313918Y-67796885D01*
X136313913Y-67796890D01*
X136307078Y-67802078D01*
X136215887Y-67922217D01*
X136212725Y-67930204D01*
X136168922Y-68040839D01*
X136160364Y-68062453D01*
X136149500Y-68152228D01*
X136149500Y-69187772D01*
X136160364Y-69277547D01*
X136215887Y-69417783D01*
X136307078Y-69537922D01*
X136427217Y-69629113D01*
X136490832Y-69654300D01*
X136559923Y-69681655D01*
X136559925Y-69681656D01*
X136567453Y-69684636D01*
X136657228Y-69695500D01*
X137242772Y-69695500D01*
X137332547Y-69684636D01*
X137340075Y-69681656D01*
X137340077Y-69681655D01*
X137409168Y-69654300D01*
X137472783Y-69629113D01*
X137592922Y-69537922D01*
X137684113Y-69417783D01*
X137739636Y-69277547D01*
X137750500Y-69187772D01*
X137750500Y-68152228D01*
X137739636Y-68062453D01*
X137731079Y-68040839D01*
X137687275Y-67930204D01*
X137684113Y-67922217D01*
X137592922Y-67802078D01*
X137482648Y-67718375D01*
X137440481Y-67661256D01*
X137435889Y-67590409D01*
X137470328Y-67528325D01*
X137482648Y-67517650D01*
X137561082Y-67458115D01*
X137561087Y-67458110D01*
X137567922Y-67452922D01*
X137659113Y-67332783D01*
X137703385Y-67220964D01*
X137711655Y-67200077D01*
X137711656Y-67200075D01*
X137714636Y-67192547D01*
X137725500Y-67102772D01*
X137725500Y-66117228D01*
X137714636Y-66027453D01*
X137710854Y-66017899D01*
X137662275Y-65895204D01*
X137659113Y-65887217D01*
X137567922Y-65767078D01*
X137447783Y-65675887D01*
X137384168Y-65650700D01*
X137315077Y-65623345D01*
X137315075Y-65623344D01*
X137307547Y-65620364D01*
X137217772Y-65609500D01*
X136607228Y-65609500D01*
X136517453Y-65620364D01*
X136509925Y-65623344D01*
X136509923Y-65623345D01*
X136440832Y-65650700D01*
X136377217Y-65675887D01*
X136257078Y-65767078D01*
X136165887Y-65887217D01*
X136119980Y-66003167D01*
X136117152Y-66010309D01*
X136073478Y-66066282D01*
X136006475Y-66089759D01*
X135937416Y-66073283D01*
X135888227Y-66022088D01*
X135882848Y-66010309D01*
X135880021Y-66003167D01*
X135834113Y-65887217D01*
X135742922Y-65767078D01*
X135622783Y-65675887D01*
X135559168Y-65650700D01*
X135490077Y-65623345D01*
X135490075Y-65623344D01*
X135482547Y-65620364D01*
X135392772Y-65609500D01*
X134782228Y-65609500D01*
X134692453Y-65620364D01*
X134684925Y-65623344D01*
X134684923Y-65623345D01*
X134615832Y-65650700D01*
X134552217Y-65675887D01*
X134432078Y-65767078D01*
X134340887Y-65887217D01*
X134337725Y-65895204D01*
X134289147Y-66017899D01*
X134285364Y-66027453D01*
X134284391Y-66035494D01*
X134280985Y-66063638D01*
X134252944Y-66128862D01*
X134194091Y-66168572D01*
X134155898Y-66174500D01*
X133175648Y-66174500D01*
X133107527Y-66154498D01*
X133062642Y-66104228D01*
X133024907Y-66027710D01*
X133024906Y-66027708D01*
X133022351Y-66022527D01*
X132901335Y-65860467D01*
X132878350Y-65839220D01*
X132757053Y-65727094D01*
X132757051Y-65727092D01*
X132752812Y-65723174D01*
X132725374Y-65705862D01*
X132586637Y-65618325D01*
X132581757Y-65615246D01*
X132393898Y-65540298D01*
X132195526Y-65500839D01*
X132189752Y-65500763D01*
X132189748Y-65500763D01*
X132087257Y-65499422D01*
X131993286Y-65498192D01*
X131987589Y-65499171D01*
X131987588Y-65499171D01*
X131799646Y-65531465D01*
X131799645Y-65531465D01*
X131793949Y-65532444D01*
X131604193Y-65602449D01*
X131599232Y-65605401D01*
X131599231Y-65605401D01*
X131472028Y-65681079D01*
X131430371Y-65705862D01*
X131278305Y-65839220D01*
X131153089Y-65998057D01*
X131058914Y-66177053D01*
X130998937Y-66370213D01*
X130975164Y-66571069D01*
X125562557Y-66571069D01*
X125546708Y-66398591D01*
X125491807Y-66203926D01*
X125402351Y-66022527D01*
X125393228Y-66010309D01*
X125284788Y-65865091D01*
X125284787Y-65865090D01*
X125281335Y-65860467D01*
X125258350Y-65839220D01*
X125137053Y-65727094D01*
X125137051Y-65727092D01*
X125132812Y-65723174D01*
X125105374Y-65705862D01*
X124966637Y-65618325D01*
X124961757Y-65615246D01*
X124773898Y-65540298D01*
X124575526Y-65500839D01*
X124569752Y-65500763D01*
X124569748Y-65500763D01*
X124467257Y-65499422D01*
X124373286Y-65498192D01*
X124367589Y-65499171D01*
X124367588Y-65499171D01*
X124179646Y-65531465D01*
X124179645Y-65531465D01*
X124173949Y-65532444D01*
X123984193Y-65602449D01*
X123979232Y-65605401D01*
X123979231Y-65605401D01*
X123852028Y-65681079D01*
X123810371Y-65705862D01*
X123658305Y-65839220D01*
X123533089Y-65998057D01*
X123438914Y-66177053D01*
X123378937Y-66370213D01*
X123355164Y-66571069D01*
X117140000Y-66571069D01*
X117140000Y-64904646D01*
X123359500Y-64904646D01*
X123362618Y-64930846D01*
X123408061Y-65033153D01*
X123487287Y-65112241D01*
X123497924Y-65116944D01*
X123497926Y-65116945D01*
X123539915Y-65135508D01*
X123589673Y-65157506D01*
X123615354Y-65160500D01*
X125304646Y-65160500D01*
X125308350Y-65160059D01*
X125308353Y-65160059D01*
X125315746Y-65159179D01*
X125330846Y-65157382D01*
X125433153Y-65111939D01*
X125512241Y-65032713D01*
X125539597Y-64970837D01*
X125553675Y-64938992D01*
X125557506Y-64930327D01*
X125560500Y-64904646D01*
X125560500Y-64031069D01*
X130975164Y-64031069D01*
X130988392Y-64232894D01*
X131038178Y-64428928D01*
X131122856Y-64612607D01*
X131239588Y-64777780D01*
X131384466Y-64918913D01*
X131552637Y-65031282D01*
X131557940Y-65033560D01*
X131557943Y-65033562D01*
X131733163Y-65108842D01*
X131738470Y-65111122D01*
X131834361Y-65132820D01*
X131926526Y-65153675D01*
X131935740Y-65155760D01*
X131941509Y-65155987D01*
X131941512Y-65155987D01*
X132017683Y-65158979D01*
X132137842Y-65163700D01*
X132224132Y-65151189D01*
X132332286Y-65135508D01*
X132332291Y-65135507D01*
X132338007Y-65134678D01*
X132343479Y-65132820D01*
X132343481Y-65132820D01*
X132524067Y-65071519D01*
X132524069Y-65071518D01*
X132529531Y-65069664D01*
X132706001Y-64970837D01*
X132768433Y-64918913D01*
X132857073Y-64845191D01*
X132861505Y-64841505D01*
X132990837Y-64686001D01*
X133089664Y-64509531D01*
X133154678Y-64318007D01*
X133155507Y-64312291D01*
X133155508Y-64312286D01*
X133183167Y-64121516D01*
X133183700Y-64117842D01*
X133185215Y-64060000D01*
X133166708Y-63858591D01*
X133111807Y-63663926D01*
X133022351Y-63482527D01*
X133004079Y-63458057D01*
X132904788Y-63325091D01*
X132904787Y-63325090D01*
X132901335Y-63320467D01*
X132878350Y-63299220D01*
X132757053Y-63187094D01*
X132757051Y-63187092D01*
X132752812Y-63183174D01*
X132725374Y-63165862D01*
X132586637Y-63078325D01*
X132581757Y-63075246D01*
X132393898Y-63000298D01*
X132195526Y-62960839D01*
X132189752Y-62960763D01*
X132189748Y-62960763D01*
X132087257Y-62959422D01*
X131993286Y-62958192D01*
X131987589Y-62959171D01*
X131987588Y-62959171D01*
X131799646Y-62991465D01*
X131799645Y-62991465D01*
X131793949Y-62992444D01*
X131604193Y-63062449D01*
X131599232Y-63065401D01*
X131599231Y-63065401D01*
X131563184Y-63086847D01*
X131430371Y-63165862D01*
X131278305Y-63299220D01*
X131153089Y-63458057D01*
X131058914Y-63637053D01*
X130998937Y-63830213D01*
X130975164Y-64031069D01*
X125560500Y-64031069D01*
X125560500Y-63215354D01*
X125557382Y-63189154D01*
X125548729Y-63169672D01*
X125516663Y-63097482D01*
X125511939Y-63086847D01*
X125487499Y-63062449D01*
X125440945Y-63015977D01*
X125432713Y-63007759D01*
X125422076Y-63003056D01*
X125422074Y-63003055D01*
X125362538Y-62976735D01*
X125330327Y-62962494D01*
X125304646Y-62959500D01*
X123615354Y-62959500D01*
X123611650Y-62959941D01*
X123611647Y-62959941D01*
X123604741Y-62960763D01*
X123589154Y-62962618D01*
X123580514Y-62966456D01*
X123580513Y-62966456D01*
X123498117Y-63003055D01*
X123486847Y-63008061D01*
X123407759Y-63087287D01*
X123362494Y-63189673D01*
X123359500Y-63215354D01*
X123359500Y-64904646D01*
X117140000Y-64904646D01*
X117140000Y-61126000D01*
X117160002Y-61057879D01*
X117213658Y-61011386D01*
X117266000Y-61000000D01*
X139454000Y-61000000D01*
X139522121Y-61020002D01*
G37*
%TD.AperFunction*%
%TD*%
%TA.AperFunction,Conductor*%
%TO.N,+3V3*%
G36*
X131529603Y-82910232D02*
G01*
X131707436Y-82986635D01*
X131787088Y-83004658D01*
X131916995Y-83034054D01*
X131917001Y-83034055D01*
X131922632Y-83035329D01*
X131928403Y-83035556D01*
X131928405Y-83035556D01*
X131996211Y-83038220D01*
X132143098Y-83043991D01*
X132252275Y-83028161D01*
X132355738Y-83013160D01*
X132355743Y-83013159D01*
X132361452Y-83012331D01*
X132366916Y-83010476D01*
X132366921Y-83010475D01*
X132564911Y-82943266D01*
X132570379Y-82941410D01*
X132615636Y-82916065D01*
X132677202Y-82900000D01*
X135747810Y-82900000D01*
X135815931Y-82920002D01*
X135836905Y-82936905D01*
X136263095Y-83363095D01*
X136297121Y-83425407D01*
X136300000Y-83452190D01*
X136300000Y-85100000D01*
X136308996Y-85106747D01*
X136415591Y-85186693D01*
X136448445Y-85223354D01*
X136491919Y-85296865D01*
X136608135Y-85413081D01*
X136749602Y-85496744D01*
X136757214Y-85498955D01*
X136757215Y-85498956D01*
X136832316Y-85520775D01*
X136907431Y-85542598D01*
X136920584Y-85543633D01*
X136941847Y-85545307D01*
X136941860Y-85545308D01*
X136944306Y-85545500D01*
X137575694Y-85545500D01*
X137578140Y-85545308D01*
X137578153Y-85545307D01*
X137599416Y-85543633D01*
X137612569Y-85542598D01*
X137687684Y-85520775D01*
X137762785Y-85498956D01*
X137762786Y-85498955D01*
X137770398Y-85496744D01*
X137777223Y-85492708D01*
X137777227Y-85492706D01*
X137820655Y-85467023D01*
X137890039Y-85449585D01*
X138122211Y-85459259D01*
X139050901Y-85497954D01*
X139118129Y-85520775D01*
X139134750Y-85534750D01*
X139443095Y-85843095D01*
X139477121Y-85905407D01*
X139480000Y-85932190D01*
X139480000Y-88166122D01*
X139459998Y-88234243D01*
X139406342Y-88280736D01*
X139336068Y-88290840D01*
X139271488Y-88261346D01*
X139241733Y-88223325D01*
X139227551Y-88195491D01*
X139227550Y-88195489D01*
X139223050Y-88186658D01*
X139133342Y-88096950D01*
X139020304Y-88039354D01*
X139010515Y-88037804D01*
X139010513Y-88037803D01*
X138983151Y-88033470D01*
X138926519Y-88024500D01*
X138470093Y-88024500D01*
X138013482Y-88024501D01*
X138008589Y-88025276D01*
X138008588Y-88025276D01*
X137929494Y-88037802D01*
X137929492Y-88037803D01*
X137919696Y-88039354D01*
X137806658Y-88096950D01*
X137716950Y-88186658D01*
X137659354Y-88299696D01*
X137656669Y-88298328D01*
X137625661Y-88343670D01*
X137560263Y-88371303D01*
X137549611Y-88372070D01*
X136654349Y-88398401D01*
X136585670Y-88380410D01*
X136561550Y-88361550D01*
X134200000Y-86000000D01*
X132902751Y-86000000D01*
X132834630Y-85979998D01*
X132822827Y-85970864D01*
X132822772Y-85970936D01*
X132818194Y-85967423D01*
X132813949Y-85963499D01*
X132627350Y-85845764D01*
X132422421Y-85764006D01*
X132416761Y-85762880D01*
X132416757Y-85762879D01*
X132211691Y-85722089D01*
X132211688Y-85722089D01*
X132206024Y-85720962D01*
X132200249Y-85720886D01*
X132200245Y-85720886D01*
X132089504Y-85719437D01*
X131985406Y-85718074D01*
X131979709Y-85719053D01*
X131979708Y-85719053D01*
X131773654Y-85754459D01*
X131773653Y-85754459D01*
X131767957Y-85755438D01*
X131560957Y-85831804D01*
X131555996Y-85834756D01*
X131555995Y-85834756D01*
X131541979Y-85843095D01*
X131371341Y-85944614D01*
X131349807Y-85963499D01*
X131343841Y-85968731D01*
X131279437Y-85998608D01*
X131260763Y-86000000D01*
X131226000Y-86000000D01*
X131157879Y-85979998D01*
X131111386Y-85926342D01*
X131100000Y-85874000D01*
X131100000Y-83026000D01*
X131120002Y-82957879D01*
X131173658Y-82911386D01*
X131226000Y-82900000D01*
X131479866Y-82900000D01*
X131529603Y-82910232D01*
G37*
%TD.AperFunction*%
%TD*%
M02*
