%TF.GenerationSoftware,KiCad,Pcbnew,(6.0.1)*%
%TF.CreationDate,2022-07-04T15:39:42-03:00*%
%TF.ProjectId,pcb_for_testing,7063625f-666f-4725-9f74-657374696e67,rev?*%
%TF.SameCoordinates,Original*%
%TF.FileFunction,Soldermask,Top*%
%TF.FilePolarity,Negative*%
%FSLAX46Y46*%
G04 Gerber Fmt 4.6, Leading zero omitted, Abs format (unit mm)*
G04 Created by KiCad (PCBNEW (6.0.1)) date 2022-07-04 15:39:42*
%MOMM*%
%LPD*%
G01*
G04 APERTURE LIST*
G04 Aperture macros list*
%AMRoundRect*
0 Rectangle with rounded corners*
0 $1 Rounding radius*
0 $2 $3 $4 $5 $6 $7 $8 $9 X,Y pos of 4 corners*
0 Add a 4 corners polygon primitive as box body*
4,1,4,$2,$3,$4,$5,$6,$7,$8,$9,$2,$3,0*
0 Add four circle primitives for the rounded corners*
1,1,$1+$1,$2,$3*
1,1,$1+$1,$4,$5*
1,1,$1+$1,$6,$7*
1,1,$1+$1,$8,$9*
0 Add four rect primitives between the rounded corners*
20,1,$1+$1,$2,$3,$4,$5,0*
20,1,$1+$1,$4,$5,$6,$7,0*
20,1,$1+$1,$6,$7,$8,$9,0*
20,1,$1+$1,$8,$9,$2,$3,0*%
G04 Aperture macros list end*
%ADD10R,1.600000X1.600000*%
%ADD11O,1.600000X1.600000*%
%ADD12C,1.000000*%
%ADD13RoundRect,0.250000X0.262500X0.450000X-0.262500X0.450000X-0.262500X-0.450000X0.262500X-0.450000X0*%
%ADD14RoundRect,0.250000X-0.262500X-0.450000X0.262500X-0.450000X0.262500X0.450000X-0.262500X0.450000X0*%
%ADD15R,0.850000X0.850000*%
%ADD16O,0.850000X0.850000*%
%ADD17RoundRect,0.243750X0.243750X0.456250X-0.243750X0.456250X-0.243750X-0.456250X0.243750X-0.456250X0*%
%ADD18RoundRect,0.250000X0.250000X0.475000X-0.250000X0.475000X-0.250000X-0.475000X0.250000X-0.475000X0*%
G04 APERTURE END LIST*
D10*
%TO.C,U1*%
X124460000Y-64060000D03*
D11*
X124460000Y-66600000D03*
X124460000Y-69140000D03*
X124460000Y-71680000D03*
X124460000Y-74220000D03*
X124460000Y-76760000D03*
X124460000Y-79300000D03*
X124460000Y-81840000D03*
X124460000Y-84380000D03*
X124460000Y-86920000D03*
X124460000Y-89460000D03*
X124460000Y-92000000D03*
X124460000Y-94540000D03*
X124460000Y-97080000D03*
X132080000Y-97080000D03*
X132080000Y-94540000D03*
X132080000Y-92000000D03*
X132080000Y-89460000D03*
X132080000Y-86920000D03*
X132080000Y-84380000D03*
X132080000Y-81840000D03*
X132080000Y-79300000D03*
X132080000Y-76760000D03*
X132080000Y-74220000D03*
X132080000Y-71680000D03*
X132080000Y-69140000D03*
X132080000Y-66600000D03*
X132080000Y-64060000D03*
%TD*%
D12*
%TO.C,TP2*%
X136110000Y-96530000D03*
%TD*%
%TO.C,TP1*%
X120320000Y-73020000D03*
%TD*%
D13*
%TO.C,R3*%
X119587500Y-76800000D03*
X121412500Y-76800000D03*
%TD*%
D14*
%TO.C,R2*%
X135087500Y-66610000D03*
X136912500Y-66610000D03*
%TD*%
%TO.C,R1*%
X135030000Y-92030000D03*
X136855000Y-92030000D03*
%TD*%
D15*
%TO.C,J1*%
X138470000Y-88850000D03*
D16*
X138470000Y-87850000D03*
%TD*%
D17*
%TO.C,D1*%
X121447500Y-78900000D03*
X119572500Y-78900000D03*
%TD*%
D18*
%TO.C,C2*%
X136950000Y-68670000D03*
X135050000Y-68670000D03*
%TD*%
%TO.C,C1*%
X137260000Y-84420000D03*
X135360000Y-84420000D03*
%TD*%
M02*
